/* XPM */
static char * 49_xpm[] = {
"128 128 64 1",
" 	c None",
".	c #7F7F7F",
"+	c #8A8A8A",
"@	c #8E8E8E",
"#	c #969696",
"$	c #999999",
"%	c #9C9C9C",
"&	c #9F9F9F",
"*	c #A0A0A0",
"=	c #A1A1A1",
"-	c #A7A7A7",
";	c #A8A8A8",
">	c #AAAAAA",
",	c #ADADAD",
"'	c #AEAEAE",
")	c #AFAFAF",
"!	c #B0B0B0",
"~	c #B3B3B3",
"{	c #B4B4B4",
"]	c #B5B5B5",
"^	c #B7B7B7",
"/	c #B8B8B8",
"(	c #B9B9B9",
"_	c #BABABA",
":	c #BCBCBC",
"<	c #BDBDBD",
"[	c #BEBEBE",
"}	c #BFBFBF",
"|	c #C1C1C1",
"1	c #C2C2C2",
"2	c #C3C3C3",
"3	c #C4C4C4",
"4	c #C5C5C5",
"5	c #C6C6C6",
"6	c #C7C7C7",
"7	c #C8C8C8",
"8	c #C9C9C9",
"9	c #CACACA",
"0	c #CBCBCB",
"a	c #CCCCCC",
"b	c #CDCDCD",
"c	c #CECECE",
"d	c #CFCFCF",
"e	c #D0D0D0",
"f	c #D1D1D1",
"g	c #D2D2D2",
"h	c #D3D3D3",
"i	c #D4D4D4",
"j	c #D6D6D6",
"k	c #D7D7D7",
"l	c #D8D8D8",
"m	c #DADADA",
"n	c #DBDBDB",
"o	c #DCDCDC",
"p	c #DEDEDE",
"q	c #DFDFDF",
"r	c #E1E1E1",
"s	c #E3E3E3",
"t	c #E4E4E4",
"u	c #E6E6E6",
"v	c #E9E9E9",
"w	c #ECECEC",
"x	c #F0F0F0",
"y	c #F6F6F6",
"~+;/_;/2/|q9/*@++~nuk(~bskwvbbs3~[88bsxuskbb[*@++*[[[3[(~(~~~([3[(~~3[gk[88[~-++@_f=*,-{_]{->-_8usswqsmfi<|8[-+++@/iqcmlm0|<_<)~",
"=);/f/~58_c/@++++++-b[~(bggsqnv3~,3b8guuuwq(+++++++~b3[([((([3[33~~((3b83b3-++++++@$&*,~>}_*---0yxxsoucm8(<,+++++++~cqqci9<-~~=+",
"+<<;_/<fc~@++@}tb@+++$-~(8bkqwv3,,~38bkkk[@+++~u8@+++-33((([8333[((([3[(b,++++(u3@+++.,={(,&,>,fwqwqs0cs(.++++[w[+++@<c0cf~*+,+,",
"(15<~<_;@++@bvdh7sb@+++$,([bqub~,-~(3b8,++++(xf_4s3@+++,3[[3g8([[[[[[~-*++++(xd,:n3@++++{,=*~{_mj1mufa0{++++[yyvyv(@++@(5c<,*+//",
"_/m9/*+++@bx^~'!0jlqb$+++$([bq8~3[(~~,+++@/wf,,-1{9l[@+++*,(3(([[(((-$++++3xo5]-)(4s8@+++.~{(}1mfijsi&+++@3yvxtvxxqs(+++@[_>*(8i",
"d;9<+++@bx|-'~'>50<^5hb@+++*[b3~bnb~+++.gxyc{-*_<:>-9q[++++*(~([~~[*+++@:xr1&1)--1)-}o8@+++#9[1pm88*+++@8xwsvxxwyxg8nu~+++@+*'9s",
"9~+++@gub%&&;'>^!'>_!<hwb$+++-[~(~@++$nwsvwc>#*-98_-_*}s(++++*([(-+++@5x0}),,}:&,]-:5}ao/@+++*cus-+++@gxv[snuvyyytb|ghss~++++=dc",
"@++@bu0^--=~=>0<-&///]lwllb$+++++++*swjf80vc{,*>|8,-%-*>as~++++@+++@bxo}-{1{50_1),1nu56<|q3@++@$+++@gxqksbukuxxyytgnbb_gwu,+++@@",
"+@gyh<<^]%~+%}7^~~'>^lxwj-&nb$+++,vv((<11cqc---{[c(~#--~_-4s~++++$kxd}}{&{5090d}){9w06]&&*<u8@+++$5x0ffeqqvqstvvxxgh|588wyus,+++",
"+vvod>'^>~%,--<_&=>|dvyvh^'~-s++[u<<08}:<[fc--#{ff:{*-*{-:1<0u*++yqe011{)1556_)])}1d){#-,]010o++*xn<kn5nbsvruuvhqwnf/8kqsyuusq$+",
"+qhfe!}/^%--2^/3>'^foxula3}+=3++g-10wq8}(:1<_*-}21(>,%]-{<f::m<++uols96}dmod}{]-:]})]])-]_14}1++5nnkssk8kwxxxtvsuxq8[:sslvifub*+",
"+klj^>_/^//36^'7d<^5jlj73!5-'7++n<juxu[](<,*{*=:8<<],-}{*<f[cqq++u9wxq16evs})|)]-|]]-&,-){:--*++snduwd3(krsswwsuyx<'~buvqwqgxq3+",
"+~vw'%'>/ale2^-360_>^dh63/^35'+$f2sxwc<:<(~%*~_189<(-,{-:8ssici++bhslo9_099,-]---),,,,-])&-(*$+@naswxn([gd_}gkgxxu3~[gusuuu0vv[+",
"+-xj&%&}<<>5<}_^^>~&~23]e|/7f=+(jpoul8:(}_**->111:<1a_>:pfwud<1++3od5oo0e94&&*,&]~*-){],&,&*#$+_8gsnk8~:53b8~8byyh(*3fowwurvstk@",
"+.s},.+<5==/^%|^-+,+'il<d7/^f*+~sqs0[1<:>*={{}::(18ij1(8ssxu1-]-+-d5loswwo61]--)-*+]1-**),##*$+b[gn3(~~/3afbg|kuys8;3aqvsqusvxs+",
"++n%%-;d^-%^/&<^=%%*>ss3ho}]^++avxe<:928_-**{__-1smmw4>mxws5:~(-+@i0oosxh590)-{{&*&-{,*&),,#*++k838~((~(sugdn8guwvn3/hvussswwyy*",
"++n+&=><=-&a',^3=+~%'hfhlf/>/++uewm:(808>--*-{>}jwws1(|cfsi:=*af++i}9owh6095|*-*-]:,}1){}-***++qk(~~/}(kvrf/g88uxtskksuqnqsuxyy8",
"++3'^d5/'+}i]+'!~*&&']3sy6}>%+@l2sm[<911{**{{,-aqfss<-cc1c[9{{fm++g:{dv95l90)##*,)1}lh1}{#-#$+@uk8([g8bvvnkb8_8twxsqqsvqixuhsxu-",
"@+>_/3]7/^hl>&~~+%~;-}0yy7/}~+,dd0iqa(18}>{,-}<18mxf9<jf<}|c((0i@+:1{{_06_6{]--):{6qsl5]###+.+(ung}fg[duq8k}3gbvvtxvnksngsukusq_",
",+-f-/7olfh3^_'%+=+&%/iyx7}-++[d<}pyi8icc]{(88d)ausjim01_-c0[9[c>+;f}-&{--}{)1dd})hms6{*###*$+benqqs8kvsk3k8[kkuxuxsbghf5wqqvud3",
",+@n%^hsso3|id>+=]%~-_7uve'-++bq2:jxm0ecc:(fqi<:fojcuf_>_8iqq[dj_+*f{)***,d1:_95elr51]]&&]1{++kfk0qvkuusn|qg}kkvyytk_kqnkwwuqln8",
"~++i'0hlxj!_jj}+'}-%->^a3!=-++svp18jc0f9:fquf[(:mq<:1}*-}5qfqcif-++i-)-*#:_{{:-{i966{])1amql++sabkxveuuqrqudskgsyysgkggsqssvskng",
"[++k^5avyl-'d3-&/>''''>-%&~'+@xnm011cq2<1cm0a1:<qj1<}>{*,80imq0c8++k-**-#1{}1&-]>)-,-)66}0sd+@sf[fyuguvwwrqvxbsxwhgnk3buskkqs5kk",
"8++(^^7jj5~_3/%/'-'_]-~+~%';+-sqj((1iqa1811}|81:8fs1-]({>:a8if8fc++b*%*)]}dl1]-&,,*-&{e5{)1*+~wk3nyhgwsxu0sww3qxv8gq58|kgkkbkn5g",
"nb+,^_2^!]!05'/7/-->'~=-&+//+[xf}<|2cc9<8q2<[d1<}cmi:}],,(<:18805#+[,-*)-)oq}-,-)-#-_qs6)-]#+bsnknyuqxxufsqlk8vxq8gf|}bb35k~[knk",
"u|+*0/!~-/^3!^fh^'''&%''==}~+bs}*(ai[1(1qxwf42c}<-<0[<_={:1(:}afi*+,_&,-,{}e]*--*#-oop61}:).+n0iquxqqxvkntq88fsqsnb3gdsu3kf_~3fs",
"s=++u^'='<^''lua<}>;+>^]=-;++q[*>9ijd}(fmqxsim[]1:<id(-*>(8<=*1m8,+@q6:-1115&#*#*-os96|1]1)++vusswwkqxwnnugvsibkss}[bfvn[8|;~,ks",
"}{++s^;=<h/+_lld6d>=}h]'--=+@o({,<8i|-1if0fwuc:}<c881_{_]_84-=11](++rm1]6u56,*#*)eqdm1{]}61+@wwssxs<bsvuq8qxxq<nun53_ssn([;((35v",
"/(++5>&%^f>,/9aqsj>'llk]~@~+-i-,<:c1(<8ji8cmj<11:<|1(=(>}-8<,*[>*:++g}0)11))--#&1h9oo:--do*+>wsuxsk9[uxx|esxwdqsg3bblsu8[(*-bbdi",
"8a,+,=,='/%~-'>/^h(_0^--=**+(d*_2|<}<i0iffqm9<c82:<--~->-}:-**=--<.+(-1{],-%##~--):1&-#,){.+8wvsufg_3vxxisvsqrxo[}_gsxs}8k88ngkk",
"ux$++++++++++++++++++++++++++*-(1>-91up55ivm}<8808({***_{-{_>{{&#{++++++++++++++++++++++++++@vwsnaf/btyhkqquxxxd3/8gusn8gq|gkgdq",
"wk++-((((((((((((((((((((((++@_1[>1c2mfiafqc1(<fmc1-,%{>***_<<*#~*+++((((((((((((((((((((((++[ysqk}(gvub5gquyyxk[33bninkkngbknsx",
"s++*x-)1)-]-,,-100{}0)-*)1:+++&<((<:92cacmffqc2wf1a:,*{*{{*_c]*=#++(x}bisruvrvoln:[:3*,(,[[$++gxsk/_8k|438duxytg8fbknkhinng85sxy",
".++ua)]-,--{],{6})6l1#-*])6)@++{<_{(-}<8imeqsums1<81(***}-*>c>**++@v:(4osiqslusig3[]*,3:3,((@+@und8;-3gk<:luwxwg5rqesnnnmnb}lswu",
"++gl-,&--&)6}{{dl56}|#-)1hs1-++$]>=,{>8uuswqsmfi<982:_-=1:{}}-_$++nq(3qnggfnnonb:(~--]83(,~]~++~ng}:3/bnk38ssvwekurus0kgkgqqgkt-",
"+~x&-#{|{)1ed))1l5)-6}})1vvle-++&},#~_cyyxusucqc({ji<_*,ca-*_:*++(x:8ni8]bkksf3[~,~*#-}(,,'9n~++[qnkb89qn[=bnnswvvgsvvnk8kvn8k,+",
"@v{-#*]_:)hh{,){{,&:6})])ml]6).++*-->{2smvsm0cs<,8vc({*<j0<><[++$xlnqsb~(|gii3~*~(,--([(~}fiu|+++mumgfnk8[;3nsuwys0ssuxq]nq|b/++",
"s6]****--{0)-&]&*-1_})--,])&,61++@*~{,qp1jum1ie1_8i:-*{15f1(d,++quurvn&&(8aub~,,([~*~88]3klob,.++-xnhru8[(((gsuuwnnnbsyx8mngq.++",
"u)&#-#*##))#%-=*--0e}1]-*-**{90,++*((|qq0pqm19ja,]9:{*_c0f8<-++3yquurb*#(4lg~--,-,*~8d83goog~-,@++gnhtqnb((~8ksuye8/85xv5kns~++a",
"6]-*&,*#-]-#+##-&]0h0)#*-#-)dd{}-++}[15m2}jf<1}-}<[1-{_c8::-++.ylivui[--]ik~*--,,~~,:_[3ion:~,,++++sswnn};(([bqvxsb8gbsweamk++*y",
"01)))--,,--##,#*#:6_{~###*-]1}{1]++.<cwwa<i0cc(-108:>*{c({_.++svamui3*-~kk~---~]3(#,[((|uqg:(,-*.++{0wbd8(]3=[gvvu0qf3gqsbq.++v6",
"1o}:]-,-*-)*--#-,)}-*+*--##-){{1e_++*(jc,_(_<(*,_({*-,-]--.++3x83akb|33af(--,]ka[,#,(-[eqfb[#*-+-$++>b~~~,((~-(gkb883~~[3;*++4s)",
"}5{&*****--,---,-]#**-#-##*,{:)1o5$+++++++++++++++++++++++++$y|(_iinsoqq[-,~8lo4,-->(_glab],-,#*-g$+++++++++++++++++++++++++.v{)",
"{}--*##*#,]----11&,#,-**-,-)1]0qu_++*3}~3]3~3333}333<}<}<}-++sbalvq::sv:,-(|svn)-,##~3ln93~,--,]bu++-333333~}~}[[[<[3[3333$+@i)-",
"d11}-#*-,---,,,:-*#-----{]:--5lsso++g_85e5|0~=~~5/=~5c__im~++vvqb[##]on-~[[aon[+-(~-~bufb|[-*#bkiu++f3b}8:8aquvyyyyuvuxf34[++i,|",
"q56|--+])]-}5{)$*-#-**---)--]6_dsu++h/(%/c59f;;=/~~~_5_~/|<++q8,**#-iu],-~,3b[+(8<*-(4uikf]#-8g4sa++nbffkb38}fqlouxuia3[oul++e}w",
"d_]&-*,_4{09m}{,##*&**-*-{{0m6)ls)+@s|;*+;di5|->~;=~|0f%*=;++33{,#(gqg-*-+*~(-,8][*-(glula(-~:8bu*+$ngiqb,~([38||kn43~(axvh++des",
"1:&--)05}55665{**-*-,&,&&}}0qd}oq-+~d_~+(;>~<52;;=+~/ii<+/;@+[8~(]3:3(-*(8(*,(8[[3(*-8kuk]~#,-[if@+3fbgk8[~*~~_'}3,~[9iwwr4$+4d0",
")-)]-]61]{]11_,##*#-#-{)&dd]d1ol_#+;c5/;$-/;~/f/+)~;~_lf~|f++-4~3(,*]|3:kn],(b8[|g(-~[ia(,-~-~gu8++bb8b|](~~~~(~~bb}iuvxuf8*+-0{",
",,--]{:-,~-50)%-#*#-#-0dhso}19w5)++b0cf_/,/5|;@;*,/_;;99|~i~++n;,-@,iuqqos|[ga,[g8#,(gn~*,3,#(nq3++nkg8[;((--(-,_4afsuyylbk,++e-",
"&-)])&---*,-,*#%-,#*-{hvsvo5dqv11++u|8id9~=_5|<;=+<5<<5i0~|c++n[,-(slsrqksng4;-~[,~,8u[+(g[-#(ii[++woa][_(((((+-,)[buyyunsxx++i,",
"::]-&,&**#*,#,)):{{))}5h9qhqqmf},+@q2|cmi5;//~_52~;5|2ccc/,<++b[,3oa3gk4goi8----#,[8oa,,|8+#,(qn++$vlg:3:3][(*,,,#-]syyvuvyy++n-",
"])**]]###-*#,-}51}}10}}9mh0quh1{&+,0<0h90c<;;*~1h|~_||c5c_*+@+3gkrk~,:b}nsb,-*~,-~|qrb#*[,---,sf.+(qa4/:88:3(*,,,--3qyyvvvuy$+g:",
":--&),*#*-&#+,111,)11{:lvhlsql:,*+[5~|lc|95*3++/e5=;/8c9dd;.*+[ruk~*~biquf,,(8|3,bsvq~**#+---8sf*+bab3}384b:};(,--(|qxyxvsqn++:{",
"]6){6-****-#*{),),,&{]-1o9oeom)*++bh//ch28i;==>[08==-_qciq8~$+@vn,,(auvvo3-:ksonkrui3-**.**-,nq3++k:<]38bgb}3]{%**3gfqxyuf|3*+*4",
"hl}]{*-##*-&]61~&,*)0{,{}10561]-++nf5/2c5|f/,~;@55~=/|iclli_+++vb<9norosk,3enguovlfb,--****-:rg+++n([[]88:3[[)#*-)]bbkryvg[|(+@o",
"wo9)###++*-~)])#--,}0)))){56--1)+@d|9|<595c9=,;)_0<=~fcf5iic5++qb4nuurik3-nb*:vwsfg,-,,,-*-&ki,-+$g~~~--~,~{*-*-~[8|_k5d8[(3:++r",
"q6{-##-*#*-,):]){--]&,)):1d|#,]]+-n25d_f5dis|=+~=_|;>>fc25iq|++8aeuuon8],a3-*nri}b3~~-3[-~*[l8,$+(]-*&-,-*---*,(8}ad8}_~~~,[(++n",
"0]-,,:]11{)))-:],--+**-:{{_,-,1-+[/_5c5|5ilq9_~*&;~=~;_d5<5m0*+3qsuln[,,8b*#8sf3<:89gag98[(5s[,$+b,*-.--*-+*--[8ad4g3(~*%,>*~@+k",
"6-11_lsoe1}){)_]#+*,##&{{:))-,]#+b=[5mc50mlc9|<$;/=+=[~2c5/98~+~riqg*~(3s(-,bg(,[ginssohb3:fq~~@+k--,*~+~,*-(3b|33b48](~-&**-@+3",
"f]61}6or115_9x6-#***##-&{1-],)d++qf*<hmcilm9f|_/=~[+~</-|5;fl;++q8]--88ff~**3~*(fvsninuqaa5ln*|++k,~;{~~*--{'b8[[38bbb3~-***-@+.",
"q{991-{_6}6lh}&**--*#*%-1]-,{5m+@q6_~5lmqil9_;//[>)~;/2~~0|_ic++s]*-[3:lf,*-*,-nra888bssilns83a+$g-}3][{,-(]8b:[:b4bg43~,#-,*~++",
"aup0)]]}l510)#-#**--&]&|{-*1hi,+-8~9~/5li9cc<>+=+,+///_|/8c5cf++g(*,[:gub-**--grk](~~}uvvn|s]~*+(k9b}aff~(3|b83glln8:[~~~)(,]3++",
"[u61}{-{lh{]#+###-{,:]:_{*,d5)-+(=*/5+_55f9c_+,*;~(1f//__5cmh9*+(,,]4nog,-#-,bri3,--#8swo3-s|-$+bvvuuuvi'4ag9}gsusa:~-#*([354g@+",
"+.,)]1:)}6))---**,-#--1}&,)}]*+++@*=|~;__;_0_~*~|f<|8f'~_999|.+++.3lssk--,-,8om8,#(*~auu3*,s]@+++[vwonb_kskbbfsoulk3~--,-:aq8$++",
"+++.-0])]{)-###---##*]}&-1).+++++++@~8~~|&=_|=*-|s5;ii_;/5|*+++++++-bg[-,#,8sn4(+<]-3qv|****+++++++*3|(8oi4]8kovrun|3,~,(}b.++++",
"n~++++&-,&~---#-,---:5}##.++@bwq8@+++***;<;(~;*/fif_<sc/;*+++>vyn-+++.-(~~8olk|-(:-*|on-$@+++~vu3++++@-qnb8[biuurig8kb[(*$+++(ww",
"[gn,+++@*&&){,*~#,1dsl)$++@bwg,,3q8@+++++;/=;~=<i509;55.+++,vxvyyyn-+++$(4nrsa(*:[*~|r[@+++~vl_=|d3++++,4g:8gkisk](]8:~.+++(srnn",
"~}fqn,+++.~{]##&{]5wo+++@btf-(-~~~:q8@+++@===</'ef85<$+++,uwisvwxyusn-+++*gui3,:b,.)8*+++~vsh2/-%+3q3+++++34|8|4[[/:,@+++(uwkklf",
"[gb=-kn>+++@-*)|10d~++@bxq}(({((((*-3sb@+++@-/|/5|/*+++~vvhvqswvvwxk5qn-+++-,>88~*-$+++(vq/3f<'&%%+%3d:@+++*;[_(]b[.+++(wxonlns3",
"~---*([sq>+++@-{1*+++gyxq|]3}[,((**,,,3ub@+++$~/;#+++~vxn_sxuvuvsswqg38sn-+++$(~*@+++(vn-;'|<'~;/_&+-(|q3@+++$,,*@+++,vn8uvvn|s,",
"--#~38auilq,+++++++byxoqkb:8}33[~,-,,-,bwyb@+++++++~vxug3gwxxvxvsvvq8[3nsun-+++++++-vq%+-&~=%+~^u5&,+%--fn3@+++++++(vn,-brwl](o3",
",~([birsnqouq,++@byxrnagb:3:8b83,~~#---bryywb@+++~uuvvh3(|oq5vwqqxvb[~8ruswvn-+++-vs-%+'%=%%*-%lw^*%~='}<}eq8@+++(vn*(*~fwo}*~s:",
"~8:blruslrrssr++[yxyon483[]844b33[--*~:klxyxru~++ukqutn{[gb8:8}bxyw3~[gssvuudv++,j'*%+=;,-'%&~'vl'%*=-/3]^7llw-++w(*3[-3su}**'i)",
"8gbquslluusuqq++suyxn8][[':bbb:3](,*,(|g4nyynb(++n}skb/~/83|538|wwu;*3ghwwrrwv++n'=-+~~%%']_>%]<^'=%%_<^5^0jss}++q*,3-~bof&@-i8(",
"akiulqlslkfsln++xyxl8,)((([[,(((~#*-~[:8gesog]-++g5h[(~~]3ngbgggtxub;[gvvqqstn++n*+&>-+->^<^]=%><'%%-]/_07<llj/++n~8(**4u].-4i~3",
"glulqili83frv8+$uwn:(~*,#-,,#-,,-*-~]bg9893((([++[83=([~(usggk<buwuq885vhlsqw3+$2~~}^--/^07_%~&}>'''-%%'ft/3a3'++g8|,*(ik,#[o8,3",
"nulsqqe},|qur|+-ug]((*-**.--*#+*-,,8kggb}&~,,*(*+(b~~88(kxuk_g88qxxunksvsnvsh[+/h>><>+'/_!!--=~'--/'%=='ds>}5^'$+b4~*-nu8,~nn,*8",
"siqrrr9-,gnlu#+<i3[(-,-*#,,,,-*-(3|bb|443(~,#*-.+-q[3g8}vvhkb8_8wyxwqqluqnxvf*+b233^~='/';'&---=---&~%=-^l_>|^/@+~:*]qvl8[|o4,(n",
"ifuwun(~34nog++kb[(((,,~)~~~*--(3|8][3bb88[,+**@++sfkg[ssq/g8[b|vvtvvhfsnbuvk++575<!=-'>'-/;-%+'_-~%~'>}0va^_/^++@fbsuruokqn(,4u",
"nsvusb-([gon3++s|33[&~-[[_-**--[84};]8|4g|[>-*--++ueubkvun3kb[gkvxxvs9}snbvss++h_^^-%>>/_/^>-~+]_-%+-'_djvl3'/^'++ullqgbuoub#8sl",
"ouolk[-[8qsf-+$sknfb33/|888[,~38b839fng8b3(~*>~-++8svnqqsmadk<kauxyxkbfqnhvw3+*h;>/~-<3^/>/}'%-}===''-!ojlq0>}^>++nqg3-3uuq-<kls",
"uosqg|88ioun~+,soruifnfnqrrk-|b4|:gsolg3~*,~(,[8*+[xunuusvursungwyyqgk4bsslq[+[_-/>=>qd<@'><%,>;=~!^-~_!^lf^/>!/$+ga3,,8or8~4agl",
"lluloqkansrk#+[luuuuxxyuusk3knabbklouqb,*--*(:gk,+(wvbuvwwsevxbdxys|nk38sukf~+b_}^^~0u2')['-+~^]&%e5--=->xj~->_^++bd~,-:qk~|k8as",
"84ivwlabgqrk++gurruxxvlhkb[8rib:biurulg[-*,,[gns,++xsguvsunsuw3sxv3geb8bfbkk++n_/37/ff^=%'%%+%}/^/''-=-&'xf~,-><,+*}-(,~3~:fggsa",
",8nuoa3[blsa++uuwvlig8:33_&in43[dqrvrlabg3-~3nsqb++xunxxsksvng8uxnb|gb|4g3kh++n<3la^f7'~''->'=&3vd&=~+-;/r/%-=5^%++g3g,,#3kfnlg(",
"[dnib[-(blrf+@voi3~,*,~~*[sok|38kquri3[8a8[]:4ka|++qshxvkntq|bkidsqb}gghu3g3+*h3su3>]2/'--hl|~&5l<=+%=--'^%-.-h>-++nosa5bafsua[,",
"blk_&~,,[gu4+-n[b:(,,,,,nyyokb84b4ka[(]3(]8b48][[++3knvxqlsgsxq8avq8[8gvq<},+[djxj0__3^>;^jv7%->};~%=--%%=+~%_3-+++kurronkluk3}3",
"qg**---*-*3[+[,3kk]~-(bxxvf48:|b:]3]3bb(~[4ka8['3-+[k}uxsm8qxwsbnskb/bsvk((*+glsd3d^!d5|!53l7}';%~+~'^~%]'-}3^_%%++ba4srisok88bk",
"b*,--*(|(-(*+b[|g9:/blyyq|883:83[(~~(3[*-3gagbb93-+-n[sxxkevxudsqb3bbnxu83[@+nvs/^^<3l<]!/!35>'=+&=&>0^>|/-<7]</!%+(fblvurfb|fqi",
",[}--]qs[,8++n:b8'bfowuf:]33:88](-,*,#-,(3883:83(*++s3qxxqsusqvvu3[<gsxs:85++xua^!~-ad]='>_}|'%~+---/7a03_-'^dhaa~+@n4ovsagiss4(",
"4g8[]qwo,(k+@q3:84kfiig](([[3b83,>#**--,([,((,(,#-++08wyda0qrxyxs338bss0bgq+-ola^'--3>===!^']'=+=-;/<07<'-=-^fusl3++ebk48kqln[,3",
"ik|8nwu8-g]+-4((bqlqnb[)-((3|:][(~-,~-~~-((~,,~;[,++bbusb8bquxyx5333bnnnnn~+[^hd//-%~&%&&<a>-'-~~'%^65^'=%~]2fsvi!++k[3[kq|[*3il",
"*--,*(~@*,*+~g[(9islg[~([3|:3[[[[~&|ag3~,,%*~(:aff*+*-,--*.*~;3(,*---,-,,,$+~'<3<|]==-'--/0|}^_'>}'^^!'&+%-!0hwxa-@+,$**(+@$-~~~",
"+++++++++++++,3}banf8[[:|:3[[,,(~~[3b43,*-{<8aiur|++++++++++++++++++++++++++++[!53!-=%/_;%=37ir03<><<>-;=->}<ass<*++++++++++++++",
"qqqqqqqqqqq@+@bkg4gaag83333[,)*-(_[8b8---,]4nuvrq*+$qqqqsqqqqqqqqqqqqqqqqqq++$-%^^/'--''&+-dxxusj^}_'''-=/>}^03^'@+-qqqqdqqqqqqq",
"ed90c0_;~<~*++-ikgb448](([[(#*>,[-)],>##~=[blwxr(++u3((,-[8~~,,--(~-,,~~--~@++%;'///^>=%=&%5wsaju'/%='/--^']/!''*++x0_;<sc9fclim",
"f92~<0md;=%-$++[qfakb3[~((**-,,[~---**-~(([8qxxg++8n,~--(3[(~~,-,,(~(~(~-,,,$+++'^!<h_=-';&'7h6ol-%%*~3_->'/^'&*++kn_55/9sc9lqmc",
"d98/*;99c~*+=++$oosf4/_((~-#-,,#*+.--*,-(,[8iwu*+*v-~-,[8(,~~,--,,[((,,,~(([(++@^0<<<>;//;&&'3jsa;%%%-a0-~'|^&=@+,u;;_9<)|5fi9ci",
"99c9~>;dq5<~[*++(ywqg:[(-,-*+-,,-,{--,['[((34h(++v(,~(38(--,--,,~[3[[~~[[3333-++-l6}|!&!'-/&=>lwr!===-27}%>^}=$++x=-,;/~=$=fc9cq",
"h50i5-><5095/~$++nvog:[[~-+#-&[3'3[([8b9[-~(;*++bk-,[8b(--,*-,~~[[((~([3[[([[#@++hl</>~~&->/&=^wv|']-;>}>>|>--++ns2%*~=+);~%5sil",
"c5n9902//|5cf=*++$vn48[*-,~**<:[~~[|afn8-~~~,@+-w-(8kk[,---*,~~([~-*,3k8[[[[~*$++-j</>~-'-/}%~>ju3_/^}'';}^'&@+~x9i8+%>(_%</~csl",
"9952_ci5__5i5/=-++-|<(,,~(-,,,(:~,(|g8,ga;,-$++s_3kqq3,--**,~([[(,-,(nxk3[[(,**$++=/>>''];_3'+-^h5'!70>~'>}%@+@x5cid8~*=|~=|~;ch",
"_5if/0ld||9c9<=+*+++,~,[,~,-.-(8[,,-~3kvv9,#++dqbkk3~~~,-*,([33[(~(([gvg[~~,,-,-@++~-}^^/&;3!,+->'-_7653^/%-++lq0cc5c|+;~~=/_(;2",
"=~09_8mc55hii|=,;+++,,[[~--**,~(38][:gluu}:.+,xkn3(~[88~-,(3b8[[[[3[([b3~,-,,,-,-++@-]!</&=0]~-)-=;}<llvl]+++[q<mfc509<=//;+f_;~",
"~;;|59hmf5q9mf~-==++@$$$@@@@@$$$*##+*-*,,*@++wk8(~[8bn8(([8b8([(([3(~(38(~,,-*---$++.*.--$$*%$.++$$@-%%~++++@t*+5i95295=/|_(_5_/",
"|_<<;flslhicdl2;+).+++++++++++++++++++++++++3s'[[8<9dsbgggb3[[[(~(3(~(([((~,,-**-~$+++++++++++++++++++++++++kh,*~805__9/$fi_=58f",
"5|59|=dqicicdm9|;;++~uuuuuuuuuuuuuuuuuuuuu3++n(bkb8kvuqqqvk88[(,~[~~~---,~(~**--,[++&uuuuuuuuuuuuuuuuuuuuu~++h8}~~<2|<5d;%hq/)09",
"i05ic5;|hmf85c95/+++g(~3gsngg3~,,~33[(,--,,++ndqg:bsvkb8kwq83(~,(((~*$*-~[[,--,,([++l<8xwuum819<<--**{}-(:9++s9c9_(~|_<f0;<ji;~c",
"0fc9cm9~<0c9<5c5<-++q[[8kqwvqn[,~[3338~---~++bsng5kusg83gqn8[~((33[,*--,3g8(,~~([+++v8cmswwj:(118{***&,_}cp++n/|_55~/|<|9<=5ch;~",
"@8cf5cc1==<58|mi|@++sbbgkksxxun[~(b3[b3-,,,++[vslnsxsk:3bsq33([[88[,,--[b83[((([3-+@q8120fuj:<ac1-,**{{>9mu++b/<~;5f|d|~|5==/c5;",
"~~5c2_im}~>;9ihth*+,k8gkgguxyyvg3(nq338(-,~,+[quxvvwkbb33svg[([(83(~,-,([b8[[([83-+:a_]_}cmfc1(11>*{{,,}8jf{+b<+/~~_5cc<|5)=;<n~",
"~;55|~|9_;;=/_/8c$+~n[[888sxvqqvs3bnb[[(,,[,+$qbquub888([vxk[[[[[~~,*-~[kqgbb8kg8@+8}<<_-88iu8:c8<_{-(:)18u,+-5)~<</;=|c|5>=)%_~",
"=~_5_~+;~;;=>&*=;++8qb[[bbnwsg8gwn(3[[(,,,[(++l(3bb8b3(~8wwk3[[~---*--3qyqkqnwxn8++k_808c<]syi0ic0-{9cca1cw_++n;+~2<)*+|ii8<%$~;",
"+)<cc/,;~>=*~+,/~++qbwb88qvwwq3[8g(,~~,,,,(k++h([8888(~[kun[~[~**-*-,(kvq33[3uq8(++n>:fjmc10x0ie889[qqf::ioc++m.>/f!;,)=~|f5<=-)",
";==flc)||-*=~>+/;++sbsqqbkxvsk3(~((,---,~~(b++83[383~,-[nk(,~~-***--,bq8~~~~[3([*+$a*}1vwfidf8ii:<mssf1}<sm<++k/~|92~%)~~+=_8~>(",
"'<=~99|~e5/<5/><)+,skkgkgbuxb3(,,,-,--,~[3[b~+(8~~(~,-,8k(,([,*****,~n8(,([([(([*+[:{<0uoq89[0q8<8[h11d<)mfc*+gf599d_}=~<8/=/@*>",
"<8</5c9[|hclq5;_=+(sqgggkgnwb(,---*----,[b8g[+,8-,~(((,((,,~~,,,*-~~(3(~~[[~~(3[*+b_-8sqf2}:aij1d1a<}d81:1in=+5qid29c5f=;|5<;=,+",
"~5__9eh/=2f0<5_;++80sg8nqkbg8,,-------*-~[88~++k-~8ksg[([(~~~((,,(3,~~[~,~~,~3[~++f:cwxwd,(8cc8<<5si2118(}80-+.lm9|8ili_%<</__<)",
"+|_fc9c_*~_i*&0/++qsxs8bqsgbb(,~,,,~(,--,(33[++n[[bnvxnnb8333[(,[8[,,(3(~([3b8(~++sfmxjf{{(0i[<:8uvxl808}1-<8++qc2|5c9d9~~~*-9f/",
";~}2c59d%-;5/#_|+@qlxwg(3bbb8[,[3~~38[---[33[++g3((8nusg883[[(,~83,,~~[[[~3sn(~*+*jfys5<--1jj9]<iqjwome<]a11f++n9/~9l5fc<+~+~|i_",
")~@/mccq2,+|9<>/+-gbvxg(([[33(~~b8,[bg3~,~383++3(3gqsng[33[[~-,([~,~~~[b[[8b(~[*+[jxwoc<{_<80:<8ijc5wsa:({c84++g|f-<mh_99);~*/cf",
"~=3_icllc_=fc|5<+(k[swb[~([38[,,[8(~3kng3~3bb-+(nkuwkb[[[((~-,,,-,((,(8[~((~~33*+gqywj9*]1:f:(afff8iq8<81|(:<*+8<5|~5c|5f~,=='02",
"<>~_cfcmif><i5c@+gu38ub[([([8(,-([(~3gsvqb(bg,+*qbqng8((~,,----*,[3(~33~~((~~(~++nuyuc(*(2<](8f5ifjsm:<c8c<<{$+~_f0_|f55c^+~;;89",
"_;~<dcf0il8>ccq++qqg(ks([83~33,-~[[(3suqqk8[k(++n3gnb(~,,--,-*--,~,,([((~([~(,~++sxw0}>{|:{(8fsji0iuf(<1f02:-$+@0_99||09qm~+=>-f",
"/;+-2c|_0l93_c9+@unn3[ub(8k3~3,-~(33bxsgbgb~3q++ngnk[~-**-~--***,**-,([(~[(33([+*uvm(=-}1_-888fjc2qfa8<1mm81}*++0f9c|f5mll5<,,=~",
";+);~fc<_5c/&8~+-uvug~8s8bkb([[,~[8bnxng38b[(g++bq8(~,*-,~---*-,-*,,,(3[[~3g[3-+3sv<,*})(<}}(<}81pffpsjivc<}<_++k/9h959lqc0f@+~~",
"[+[/'~f|~|m8);=+~uvwk((nknvs33k(~388kvvqk888([~+,(~~(~~~(~,,,,~([(~,(38g3[b3~3-+]qq{->:-}(--:>}<ijesqmumq<184($+|+fmccclm082f~=/"};
