/* XPM */
static char * corrugated_metal_xpm[] = {
"75 75 257 2",
"  	c None",
". 	c #FFFFFF",
"+ 	c #E7E7E7",
"@ 	c #DEDEDE",
"# 	c #CECECE",
"$ 	c #C6C6C6",
"% 	c #BDBDBD",
"& 	c #B5B5B5",
"* 	c #ADADAD",
"= 	c #9C9C9C",
"- 	c #949494",
"; 	c #8C8C8C",
"> 	c #6B6B6B",
", 	c #393939",
"' 	c #292929",
") 	c #212121",
"! 	c #181818",
"~ 	c #101010",
"{ 	c #080808",
"] 	c #847B7B",
"^ 	c #8C7373",
"/ 	c #5A4A4A",
"( 	c #8C6B6B",
"_ 	c #846363",
": 	c #7B5252",
"< 	c #6B3939",
"[ 	c #180000",
"} 	c #94635A",
"| 	c #73524A",
"1 	c #6B524A",
"2 	c #845242",
"3 	c #311810",
"4 	c #9C847B",
"5 	c #7B635A",
"6 	c #5A4239",
"7 	c #8C6352",
"8 	c #84736B",
"9 	c #6B5242",
"0 	c #7B6352",
"a 	c #84634A",
"b 	c #6B4A31",
"c 	c #847363",
"d 	c #7B736B",
"e 	c #524231",
"f 	c #4A3118",
"g 	c #ADA59C",
"h 	c #6B635A",
"i 	c #4A4239",
"j 	c #6B5A42",
"k 	c #73634A",
"l 	c #7B7363",
"m 	c #5A5242",
"n 	c #6B6352",
"o 	c #847B63",
"p 	c #4A4229",
"q 	c #6B6342",
"r 	c #DEDED6",
"s 	c #BDBDAD",
"t 	c #63635A",
"u 	c #848473",
"v 	c #5A5A4A",
"w 	c #7B7B63",
"x 	c #525242",
"y 	c #5A5A42",
"z 	c #5A5A39",
"A 	c #7B7B4A",
"B 	c #5A5A31",
"C 	c #6B7342",
"D 	c #737B52",
"E 	c #6B734A",
"F 	c #848C6B",
"G 	c #6B7352",
"H 	c #525A39",
"I 	c #6B7B39",
"J 	c #525A42",
"K 	c #7B846B",
"L 	c #4A6321",
"M 	c #5A6B42",
"N 	c #848C7B",
"O 	c #636B5A",
"P 	c #637352",
"Q 	c #6B7363",
"R 	c #5A6B4A",
"S 	c #5A7342",
"T 	c #4A6331",
"U 	c #4A6B39",
"V 	c #CEDEC6",
"W 	c #6B7B63",
"X 	c #5A7B4A",
"Y 	c #315221",
"Z 	c #526B4A",
"` 	c #52734A",
" .	c #527B4A",
"..	c #7B847B",
"+.	c #6B736B",
"@.	c #636B63",
"#.	c #525A52",
"$.	c #4A524A",
"%.	c #424A42",
"&.	c #738473",
"*.	c #637B63",
"=.	c #394A39",
"-.	c #6B8C6B",
";.	c #638463",
">.	c #4A634A",
",.	c #425A42",
"'.	c #527352",
").	c #5AAD63",
"!.	c #52845A",
"~.	c #5A8C63",
"{.	c #42634A",
"].	c #395A42",
"^.	c #529463",
"/.	c #526B5A",
"(.	c #294231",
"_.	c #4A735A",
":.	c #527B63",
"<.	c #4A8463",
"[.	c #315A42",
"}.	c #314239",
"|.	c #63736B",
"1.	c #4A6B5A",
"2.	c #4A7B63",
"3.	c #316B52",
"4.	c #5A8473",
"5.	c #426B5A",
"6.	c #215A42",
"7.	c #4A7363",
"8.	c #4A8C73",
"9.	c #637B73",
"0.	c #314A42",
"a.	c #63847B",
"b.	c #52736B",
"c.	c #395A52",
"d.	c #527B73",
"e.	c #31635A",
"f.	c #737B7B",
"g.	c #637373",
"h.	c #526363",
"i.	c #425252",
"j.	c #638484",
"k.	c #425A5A",
"l.	c #527373",
"m.	c #638C8C",
"n.	c #395252",
"o.	c #396363",
"p.	c #316363",
"q.	c #316B6B",
"r.	c #102929",
"s.	c #425A63",
"t.	c #426373",
"u.	c #4A6373",
"v.	c #314A5A",
"w.	c #5A7384",
"x.	c #4A637B",
"y.	c #636B73",
"z.	c #4A525A",
"A.	c #526B84",
"B.	c #314A63",
"C.	c #313942",
"D.	c #52637B",
"E.	c #42526B",
"F.	c #293952",
"G.	c #000818",
"H.	c #737B8C",
"I.	c #4A5263",
"J.	c #6B738C",
"K.	c #525A73",
"L.	c #4A526B",
"M.	c #424A63",
"N.	c #6B7394",
"O.	c #636B8C",
"P.	c #4A5273",
"Q.	c #D6D6DE",
"R.	c #73737B",
"S.	c #6B6B7B",
"T.	c #636373",
"U.	c #63637B",
"V.	c #424252",
"W.	c #636384",
"X.	c #39395A",
"Y.	c #42426B",
"Z.	c #181829",
"`.	c #736B8C",
" +	c #5A5273",
".+	c #4A4263",
"++	c #42316B",
"@+	c #948CA5",
"#+	c #7B738C",
"$+	c #5A4A7B",
"%+	c #4A396B",
"&+	c #5A4A73",
"*+	c #63527B",
"=+	c #BDB5C6",
"-+	c #5A5263",
";+	c #524263",
">+	c #5A4273",
",+	c #ADA5B5",
"'+	c #4A4252",
")+	c #6B5A7B",
"!+	c #847B8C",
"~+	c #735A84",
"{+	c #523963",
"]+	c #6B5A73",
"^+	c #6B427B",
"/+	c #846B8C",
"(+	c #4A3152",
"_+	c #42294A",
":+	c #7B5A84",
"<+	c #6B317B",
"[+	c #6B4A73",
"}+	c #6B2973",
"|+	c #7B737B",
"1+	c #5A525A",
"2+	c #635A63",
"3+	c #4A424A",
"4+	c #423942",
"5+	c #6B5A6B",
"6+	c #7B637B",
"7+	c #5A425A",
"8+	c #6B4A6B",
"9+	c #523952",
"0+	c #634263",
"a+	c #4A314A",
"b+	c #6B426B",
"c+	c #6B396B",
"d+	c #6B3963",
"e+	c #6B4263",
"f+	c #845A7B",
"g+	c #9C7B94",
"h+	c #7B5A73",
"i+	c #6B4A63",
"j+	c #6B295A",
"k+	c #52394A",
"l+	c #633952",
"m+	c #73395A",
"n+	c #9C4273",
"o+	c #CEBDC6",
"p+	c #844263",
"q+	c #63314A",
"r+	c #290818",
"s+	c #8C526B",
"t+	c #845A6B",
"u+	c #6B4252",
"v+	c #7B636B",
"w+	c #5A424A",
"x+	c #846B73",
"y+	c #6B525A",
"z+	c #84636B",
"A+	c #73525A",
"B+	c #6B4A52",
"C+	c #7B525A",
"D+	c #734A52",
"E+	c #6B424A",
"F+	c #84525A",
"G+	c #733942",
"H+	c #000000",
"9+t K.<+c /.;+k+7+U t.R 7.i /.i+I.w.u.q T.|.R A+_ Z M.@.A.z.J ]+D y.I.g.T.6 C+@.&+W.B+9.8+X.2+z.5+7+-+n x 2+d l A K.~+&.1+s+i., h k.h ^ #.: k.'.1 K 7+",
"*.1+D :.+.:+@.u f.]+u+W._ g.|+-+Q l+C+y.t t )+n 2+5+w h } c @.B  +b.n ]+C 7.L.C+1+G Q t+k.] v g./.+.h.h.U.#.7+5+x.l 5.G+b.Q T.R.h.w w.#.R.S.f.H+0.h._ ",
"Q &+7+k 8+H 1+z.t 5+:.'.9+2+%.v+z.6+p.3+#._ #.+.F.z.8+|.o.k.> j.i.e+D.$.>+f+g.b.> 8+5+b.o R K.v B+| 0+y.B+D.!./.2 /.B+ +O Z R 9.#.v+/ -+0 Z H+# i+1+G ",
"M._ y+#.|.q.K f.5+'.]+0+@.n R.z.&.Z x+; S.d.h T.n @.5.#.n S.b.k+u -.l P :.O / H n.#.l.h -+M._ w.:.N./.B R.5 v+9+4.1+|.W R z.h+z.9.@._ h E.H++ * - D+h.",
"W.'.J.Q #.5+w+6 I.G n b.8+u.A+@.Q 5.7+s.q w+5+s.a.C+v+-+L.b+h h.4+a+;+h l+1.Q ~+o h / 1+&.2+2+S z+x #.2+#.V.X 8 )+-+9+-+%+5+M y.m+b.o._ H++ g H+{.a.y.",
"B |.Z h.5+#.P :.Z 5+1+h G n 5.X l+5+W m T.z D.5 C+b. +] E R T...R.5 O $+|.1+T.>.z.:.5+V.O 5 !.0+u./.] } E d K.e.i g.;.D -.n *+B+k./ 1+H++ > H+{ y.0.a+",
"U.y+h 7+#.x+D.]+L.6+#.h T. +8+1+@./ : 5+D.:+6 #.b.@.M a+8+Y./ z )+h.R U 1+h+5+6+: 2+].x+9+U.7+t k d C.E.y.-+B+v+|.v h+J.&+f.:.X Q ! > + i.' H+C.k+~+t ",
"2+1+P.l.&./ G 2+v I.t 5.v+!.8 ^+i.F B.'+:  .W y.A+h T.^.@.D +.2+1.@.h a.J.7+v !.t.n F L.D z.T.b.'+-+f.> L.t R.{.D+h.t i C+x B+v+H+* + &.+ H+|+w f.M b.",
"$.x+t 9 , h.K.h h+h h. +$.5+h.,.&.I.b.W <.y.S.z.'.z.1+b+y+/ 7+5+/ 8+0+_ M ~.h.8+2+$+8+x+k.)+h 0+g./.m _ Z /.j x+x.7.T.9.W t 7+H++ @ k =+H+z.>.5+i.2+B+",
"+.#.Q h.y.+.l+T.2+$.S.1+L.2+%.|+|.v+t 6+9+D.1+G ]+x+t 9.u.+.y.1+O n 2.z.> 1+Q z 0+q #.1.Q n 1+d q 8+O.#.t 0+l./.S C+H / E.G.|++ - v @+H+, v+T.5.9.8+K ",
"A+k.G j+_ 1.O / :.h 9 D A v o B+9+z.v+#.G R {.7+`.{.#.h.o 1+'.T.g.h.5+K.C.n w+[+O u.R 7+7.|.X k.;+n b b.&.T.(+q e+E.6+V.H+& + I.: K.) H+] y+h n+B+h.k+",
":.( ;+).].p+B+:._ b.j.8+8+z.`.q.@.v z.#.y+b+h+T.U [+9./ 9+W 9.+.n #.B+'.8+|.h._.t 2+z.t h B+R.G > 2.g./ (+y |.~+> h }.H++ + X 2+a.@ H+y.4+b.L.!.Q 0 S.",
"l+/.+.C+]+[.4.t 2+>+/ h.h.8+$.D+h K.K !.b.h 5+x 1+P G I.J t.6 -+/ 5+K _ @.0+$.y.2+O x+9.0+I.H %+ +v+z.W -.y.#.b.h.! ] + $ -+0+4.# H+c #.W y+M I.4+X W ",
"h.*+V.W.s.!+I.+.z.z |.+./.S |.'+0+D 6 h+T.:.D w B+/.l+> a.7 h.1 #.T./.t @.:.h D+G T.7+$.5+S.h.h '.1.h  +5+y.F l+H+& + R.5+n |.o+H+i 7+h 7+P Q #.|.P.-+",
"!+t u P a %.x+b+&.O.2+z._ |.W w h.R.A.1+m+v+c.O.`.)+P _ %+y.8+l.] y O.`.Q y+P.2.1+K /.2+/._ 5+t l 2+R.*./ e.H+H+Q.+ 3+F+I.Y.l.H+{ b.N.N.#.5+>+A+J._ i.",
"Y :.C.y+D.Q '.,.%.G 9+2+b.{+-+t t Y.} T.W #._ h U n D.9+7.-+/.-+'+N.f i / u o t y.9+5 l m 1./.y.1+1+%.i+R.H+& + @ 7+h @.'.D o+H++.+.T / y.K.:.&.b.S R.",
"C+%.8 5+5+/ >+!+6+1+W q -+b.L.1.v T.k.v #.$.b.M.1+5+P d C v R.'.+.z j.W :.-+t f+]+7.z.A.g.b.5+h.;+b.h h.H++ + ; :.8 h.5+D @ H+t 7+'+6+2.n v _ .+;+>+1+",
"A.] [+#.n.H.P 3+3.1 T.T.W u #.S.Q q -+y.|.y.8+'.7+l.k.t Q d v i+0.2+1+[+> t 1+3+>.9+y.| 3+i y.5+5 | ~+H++ # C+]+: $.5 I.@+H+3+8+i.|.m i+> 2+s.0 H ] Q ",
"n W >.L.t 2+8+-.} N.#.6+n.7+l l+e.D.W 3+K.2+$.^ - A+l D.Y.v u.D :+]+#.#.-+{+A.h._ W +.g.x+A+5 m |.]+H++ !+N $.$.3. +7.E ' H+A+:.Q h+*.:.-+y+_ #.|+$.h.",
"'+$+)+z+|+y @.i L.q Q ].h+W #.+.^+/ h...n G j l.6.y.D.B+| b+0+1+g.t 5+6+@.2+j Q 3+f.h U z.u L.b.0.) @ ; t O D.C+8 |.0+@ H+Q T.b+Q U ^+9+W u.V.J.#.l.h ",
"W @.'.b.T B+t |+;.n.&+( H 9+n h W Q C+$.2+T./+k+s+t E+-.&.a.#.-+U v 1.>.)+@.<.A+]+3+'+ +5+T.n : !+= + z 0+z.t+P.2+/ @ H+W.2+| v h. +q W '+-.1+k+>.G+8+",
"@.1+_ m |+y.h $.;+v M @...@.h y.n 2+2+t K.#.V.t O z.R.A+k.J 5+1.m+#./+x+y X h+#.{.D -+f.y.3.P.;.H++ v+h.1.| R G h.# H+h B+T.f.|.: n.s.n ] h f.Q ^ 9.#.",
"_ /.#.)+'+2+h.+.w ~+h.%+B++.]+w+k.P /.b.D @.#.Q #./ /.3+i+`.'.] ~.T.9+1+-+-+'+U.; 7+y.e b F+G Z.+ +.h.$+h+j.b.t # H+! t !.R C.g.S.z+#.w.x z.z.O 6.4+/.",
"w.z+7+P 5+5 S.1+#.v+]+Q D.B+C.1.^ T.2+n j+i.8 &+v 5+-+g.$.I.@.Z i+m.D 1.7+> D P '+)+'.J.a.#.-+= = '+8+u >.6 #.Q.H+H+'.z.2+2+E 7+h.+.i+b.t v+B+)+Q #+9.",
"p 7.t #.b.E.i.)+$+$.8 R a.O.F R.p.C+a.U.!.( b.X W.y.D+z.G l 5 :+#.2 $.u+*.B+I.b+/.h.z.p R y.H++ /.8 @.i.d ~++ H+H+&.v+/+-+t ~+'.T.R.:.q+W.#.@.n _ D+#.",
"R.;+*+h.B+b.i+v S S.z.c+b v -+1+n v.7+y z./.k+t 2+z a.D y.h.L.x -+#.v.&.J #.2+O 8+B F+`. +H++ Q b.x +._ U.r H+! k+C.Q O 5+-+n.A+t ' )+M O h./ u.z.W 1+",
"k.i Q A+Q 2+P 8+D P n b.M.1+u.#.h x+$.2+Q ;+5+P.P b.8+*+9+#.I.S.@.h.u z.N.5+T.Q ` l.4.l H++ Y.4.D+J.1+s %.H+J '+N +.|.C.S O T.l.d g.2+w.1.v+O.2+Q K.F ",
"| x+Q a.%.C+ +> -+9+W.1+0 b.C+u $+7.+.S.h :.> c z.5+T /.h F+0 m b.5+M.:./.g.;.t t A+z.r.Q.* 7 i G d Q.H+H+X.T.x+'+h #.5+^+T.#.B+9+A D+W z+B+A >.v+A+%.",
"1.|.'+l ] c.v 1.i.f.z 1+_.v+>.}.} #.8+v 0+R.'.8+W.@.]+Q 2+/.!.8+5+_.8+i+j q -+1+&+5+v+- + 8+/.a.,+4+H+H++.E 1.G w.#.h.v+'.y &.n #.T.#.G+#.*.;+t+C./.h+",
"^+#.O M.E.u |._ &.7+]+2+S.*.)+]+p.Q U 5+l.B+u+v+S @.P x t D.>+/.x 9 y n [+T.$.h.X t H+@ / +.v.@ ~ H+' d C.*+/+M.M R.n '.> ..7+5+D.#.l.A.*+5+A+h.> n 3+",
"!.:.-+: t /.T.z.z.#.|.!.9+t O > t -+~+*.t *+q.^._ 7+S.~+-+n h n D.@.5+h 9.v S.]+9.! + z.x.R.+ H+H+7+2+I.c t {.h+u+9+2+8+2+&+O Z C+] h B n '.9.H &.U.4.",
"D+c++.b.B+h./ A+`.:+$.f.5+z.*.I.v+D c t *+` x+q+7+G i+P 9.i./.b.x+]++.b./ &+#.B+y+& - d g 4+H+H+O.9.Q t :+#.u+:.h.l././.*.-+5+&+a.].-+S.> y.#.l.1./ u+",
"I.S {.b.9+y+n 0.$.I 2+A+m ~+A+/ /.T.9+h.h 8+x b.h.5+'.y.1+y.5 1 / /.n y.z._ `.h.H++ E @ ~ H+~ `.i x+t '.!.!.l.t 5+1 )+]+V./.d @.L i+y.@.7.i+%+1 /+J.g.",
"W J.^ 9+4.h.D...]+&+/.M.a.>.]+&.2+/.9.2+E *.Q 1+x /.{+z.P @.t.6+s._ y.7+; a.q H+@ L.@ H+H+3+O R +.$.F.[+5+2+X ]+> T.H i.5 '.Y g.W.@.v i+/ q d O.e n #.",
";+i.k.W v+B+b.5+n n A+&.1 2+1+7+h &+/ x z.1+&+t R.;+O O :+n 0 z.-.z.G >.B $.H++ @+@ H+H+G l 1+Q g.1+o W 6 n b+#././.T.h ]++.#+A+/ n {.$.6+2+t G  +0.g.",
"|+A+/ r+=._.0 2+#.I.&.j h.&.#.:.h.q |.h.y.A+/.g.> &.y.2+/ y.K.T.y+y.0+]+D.H++ V ' H+) 6 5+(+#.-+m D.*+I.w.8+z.5 F+l h 5+5.m+'+5+5+&+8++.h.t.$.K.B g.y+",
"H G |+* ] ! u+h.h.( V.i+G q+7.q &+L.2+y.t y.z.D+/.0++.]+b.i.H W #.)+b.E ' + ] H+H+, n D.v 2.y.z.d | ` _ z z.: P.e.K.|.h.d+/.Q P P b.Q ]+h #.+.v `.l h.",
"w.K.3+* @ % ! v+n v.D E.7.9.l R.v K @.7+9+$.^ O h n.7+$.B+]+] L.G +.z.h.; & H+H+Q t $+X ;+;+]+y./.w.1+/.O.K 8.A+5 G B+M R &.A+X.-++.R.M h.z+i {./ D.0+",
"e k h.) ; + * H+S.D D.R {+k.i+5+h k+#.a.b.A+b.0+v 8+k P /.: V.t {+q D.5+] H+H+f+k+O v c+] W X n 7+H t y++.w+g.t.M.5+8+]+c %+0.-.+.1+#.5+(././+!+l.W 2+",
")+5+/.! H+r @ @ H+x+W )+h o 2+z.h.|...D+o 2+/.z.R.W t h+T.h.Q ] /.8+a #.~ 4+'+` l.n +.!.J 7+@.T./+|+l #.1+I.z.t n 2+l.|.s.'.N h+z.} $.h.f+h 5.a+&+9+h ",
"x.#.)+t H+H+@++ @ H+-+b.[+9+/./.|.h._+M.$.o.!.h h.4.M./.B 5+T.,./+R /.O > v+Q -+v+u.0+#.*+h.t+D n.z.(+J.b.)+D s+h h 2+-+2+_ '+p.O Y.R.T.J.R &.K Q C h ",
"e j.q '.-+H+! G $ + H+3 0 :.t -+1+R.P h 2+_ [+|.A+9+d  +J.1+, z+U )+ +;+9+].1 h.h.: G  +k l I.4+n P b.E+E+D e+,.m.:.1+_ I.Q )+_ ]+D #.0 _ D.h.y+R >+J ",
"|+i z.-+2+> H+Q.1 $ + = H+^+T.y+T.i.Q 5+D.W 1 h I.Q 1+h 5 -.o 1.z.B+2+A :+#+D.9+n k.&+> x.B+v ..h A++./.a.#.#.2+, 2+%.i.> *.i+H z.9+n M.$.v+I.I.B+w. +",
"m #.g.m+:.P > H+@ ]+|+@ + H+D 2+A+B+W.j h R 9.L.Z /.I.` >.0+I.i+d k.@.P.X n _ _ T.S.'.5+I b.|+#..+ +t 2+P D+)+W T.1+8 2+>. +>.T.i.|+L.|.2+t n z.f.A+D.",
"l.^ _ 8.9+L.y #.H+* U 1.=++ H+' t W B+D.u.~+8+2+v+9+#.f+>+3.> l.-+Q J v+|.t i.4.y.Q h+P *+F+P.k.4.5 5+v+A+z.#.-+> t l.t 8+S @.+.N '.y.P n #.8+D H ` R ",
"n ++3+_ u +.i+^+H+! !+2+n g + = H+h.h./.0 L.n Q 1.] +.I.D v+| Q z.2+)+i.n y.v 1+` #.'.T.#.0.A s+5 ~.V.t.;+d #+> C+@.#.1+$.y.v+-+7+]+y 9+t.t h @.$+y.l ",
"*+I N.l.>.O R.>.y.H+%.5+_ )+F + + H+&.y+'.W m +.1+k  +Q |.5+#+$.v+t `.j.n O j.1+8+5+2+y R.u ;+T.0..+G B+|.T.B %.n.h 1++./.j+1.+.#.e O )+D+@._.5+y+h.z.",
"D  +M #.F+2+P l b.1+H++ #./ M.R @ @ H+|.]+z.2+].y.z.2+@./ b.1.K.'.I.L D+9.#.e+-.Z Q $.D.B+L.O #.8+g.y.*.5+#.o.&.R./.P #.]+O n #.2+S.#+b._ y+^ /.g.1 #.",
"$.h.8+#.h.z.C.k.^+( A+H+Q./.h.h+3+% + H+H+t b.C+g.h.R t l.y+#._ y.4 $+'.>+T.#.;+*+7+6+R x h b.|.h.#.z.@.D  .( l+i.t [+i+W Q t.-+0 #., > b.q.9+y+W 2+*+",
"!+z+W [+2+y.h B+'.K.'.) H+= 5+y.H.I.] + @ H+' -+u+2+^ 9+2 #.E+U.L.e.y 5+M 7+G 2+G '.|.~+N z.5+/.1 k 8 2+B.&+L.g.l A+ +-._ q.5 5+x.l.+.y |.@.f.E.G+5+D ",
"3+h k.'.> [+d t -+R k+D H+) h '.J 8+$+M.@ + - (.*.R.z.h.d.#.m.y I p+|.t K.@.A.#.| ]+Q t h.x+/ 1+x+b.I.y+_ 9.>.#.S.a.v &+x.u+Q #.v k 1+h.v 9+9 _ 1.7.2+",
"2+{.2+@.i.w x.f.M T.4.$+>.H+@ c+z.Z R.&.1+- @ = '+5+#.J.h c 1+t -+t n h._ $.=.Q b.h.'+t ;+b.2+v+x t n @.G / g.A+x / g.Q x v+a+@.v+D.2+5+D.-.b.L.T.9+/.",
"t |+#.h h #.h w+`.f.q+G ~+i.H+V R.)+Z P 9.v+I.+ > m 8 _ M.t.i+i+R.y S.A+A.5+5 h.A+/ G  +> -+b.'.N.5+L.@.<+K 5 @.#.O.9 7+8 $.+.M b.1+G 5+D+B+t n /.S./.",
"T..+h+7+S./ z.a.z.z R.5+j y+H+H+; D+_ e+2+n u > + ! {.M.1+A R T.z.w.'+/.z &.> [+W.W |.z q x B+5+i ]+y #.l.X.1+]+j.H u.+.3+R.g.)+_ ; i+> b.4+-+h._ W b.",
"/.O h.X i+:+5 n 1 %+'+e.@.2+Q H+(.^.v.5+y K..+*+- * 2+D 8+D.l S R.k+/ 2+z.h.T.M z 7+i+h.h.T.2+b.D /.+.t X +.|+l.V.O S.t J.A+l+k.1+}.D.m $.N.b.|+5.{+i+",
"R.i+R $+n X i.9+J.-.|.|+z.i+u+2+H+@ 5 /. +y W 9+z.@ H+5+-.p ++5+S g.4.5+u l+2+> :.h.b. +5+E t >.D.#.D.5+9+1+%./ c 7+$.i.{.z.!.n '.l G T.g.| P 3+( P Z ",
"D+7.R.B+!.L./.R.H v _ y &./.U.-+h+H+Q.2+2+h._ @.5+;++ H+z.#+/.> >+#.h @.-+] O 7+1+R.z.y+@.Y.]+)+7+6+E+W R.5+T.]+t 5+c D.h > )+> 2+_ (+Q E l.-+C+M.#.2+",
"-+1+m @.2+E )+1.J.5+'+B+z.> D >  +H+H+@ g b.@.X ` !.R.@ { 1+R.9+S &+-+|+/.c.#.2+h.q D+!.P u X t -.y b.V.:.:.2+'.L.@.o.j g.D B 1+8+h.h P 2+5 g.:.*.6+-+",
"O &.S.l *+*+H n 1 #.h.K.-.z.t > O /.H+H+) r 3+;+]+D+y+% % ' #.;.~+q #./ h.k ]+7.~+[+h.[+:+4+7+)+F+>+d _ A+/ 1+&.h n 5 ]+t 1+]+S.#.w.y.&+(+/.h #.0+/.2+",
"Q +.n b.n O *+Q i.d > 5+%+t M.b.5+1  +(.H+H++ ...+/.y L.+ ; L.T.n T.> J h '+n.| ,.#.P 1+{. +#.p :.b./ R./.c &./ y.*+#.Q B+Y.z.#.I.l I.z N 5+7+u O n d ",
"%+X.1+9+z.2+D B.|.o.C+A w 1+h t #.h.n v w H+H+# s 5+N.g.b.@ H+z+b.d h R.h.n u g.&. +*+-.D +.] N a+P T.t / K.m 7+6 h k #.2+K v+q 9.J O y.k. +v+M.2+g.0+",
"E &.8+4.n h.-+0 ]+m+/.$+%.T._ M.l z.1+1 #._ ~ H+! + H d+6 8++ H+7+B+d 0.7+9.M.y.1+-.X q+L.'.E z.b.1+y+z.b.6+u.+.a.T.N.i+z.A+b.x.1 L.1+t _ i /.0+#. +> ",
"~+%.7.n 5+:.R U.P /.l./.t ]+:.R X.> k.a.T.z.y., H+H++ &.O.J = % i 5+s...J.[+a P v+1+5+u.c ]+E.8+-.0+R R.7+#.z -+].t #.U.|.o./.| g.y.;.z.5+> -+Z h.=.y ",
"%.@.h 1.T.}+v+C z.v+n $.K.'.y+^ ] k Q 8+t 9.n v I.H+H+%.o R.4+@ |+P.2+C+6 t :.e+$./.u y ;+7+#.v 8+4.6+7+j v )+n g+#.y.5+h x+A+2+5+/ d+H.h.+.O d |.x+|.",
"( H 8+;+t P K.$+z+h.1+4 x+h+8./ ` |.I.&.2+: h.R.7+>+1+H+# * _.5 + H+R M.h.-.v k.#.v+a+#+'.|.8+5+/.| Z h.d.T.Q |., h P E t.M h y.$.n X w+_ #.5+7+7+y.9+",
"z.#+'.h '.u+v @.i.Q > 0+$./.q+'.$+8+^ V./.Y.*.t 9.2+/.h.H+~ + c.; + H+4.y.t A.5+R.U.h.#.Q *.h 5+7+b.#.@.v+#./.Q :.R.x .+P ]+:.> t n.|.|.I.+.P S._ v H.",
"R.#.0+2+8+a.|.R B+k+I._.y.y 9..+ .#.>.A 5+c &+#.2+Q I.D W.H+H++ ; % + { #./ c v [+/.@.w.-+1 :.+.&.5+S.h {.8 8+X.6+z.)+2+2+!.1+i.b.S.&+w+Q v.h+#.h.Q {.",
"C.K +.t @.1+v+|.j...8 7+L._ #.)+/+y.#.8+h 0.> h.-.1+2+1+/.4 H+H+' g o+& [ D.-+#.v 2 E b y+h.T.s.B+8+7+.+D+-+h.a.H v K.+.5+b+)+l k #.R T.#.Q '+M.:.k O ",
"-.9+t A.x+t L.B+q+3+$.E D ;+Q B n n |+-+w.d J F+/ 5+W h+7+z.:.3+H+) + + % ) #.[+'.t.2+5+v W.n 3+h.;.y.D W.2+h.A+z+g.t #.#.-+'.'+.+#+v++.B+h G b.2+x.B+",
"1 W z.b n.+.'.)+&.h.8+D.1.@.(+t $.5+%.!.} L.b.*+y h.k+$. +&.[+1+G H+H+@ + = 2+1+y.B+#.t D.9 #.v+Q -+A+5+7./.Q J I.O /.u h.O |.h Q z h.l+7.*+U.c -+D+y.",
"-+1.O b.: j.y./.M.*._.C+*+-+..#+D.2+A+&+0.D B+'.g.7+K S.2+> t 9.y.8.H+H+@ % #.|+5 a.L.y.+.O ]+O ;+z !. +n i+#.)++.l+B+i &+h u+1+n _ 9.7.^+D+J 3+R T.|.",
"5+_  +h+a.e 3+1+R.v+t @.j Q k.V.s+:.S.v |.-+y+x+-+h #.Z h '+$.m n.e+h.H+H+3+d #.I.w+l D+/ -+{.h.R *+z.J #.~.w+#.h w.x+|.n 9.h.;.*+K.w+5 ;.:.U.R.W.h #.",
"z.b.v Q i.6+d O v y.|+{.w.2+k +.X i+{.5 : v D.z.y 7.[+b.;.h |+ +5+X a.8 { H+i.b.Q z.b.O b._ 6+s+D.G G ^ :+7+&.Q .+n #.D.{+1+b.~+h b.t V.Q h.A+'.#.>.-+",
"T.]+6+#.$.O 1+#.7+,.a+( z I.+.t.1+/.v+v.l.a.D z.S.0+/.A+Z /.:.;.h+^ w+K.5+$.v A+/ v+h I.2+h.,.c.m h.7+L.` x+w+2+> ].:.B+K 9+h 1.#.5 '.l z.n 1._ 2+:++.",
"#.%.$.h ^ {.6+h+|.]+&.t.i+E k+7 2+n #.T.#.k+/.6+/.h y.'.)+b+7+;+3.V.5+3+_ y u.@.D.-.7+h #.8+y.t &.]+R.y.v+#.z.2++.g+]+&.z.&.n : @.K.5+g.y+0+i+x d 3.h "};
