/* XPM */
static char * titlelt_inactive_xpm[] = {
"17 17 66 1",
" 	c None",
".	c #ADAAAD",
"+	c #B5AEB5",
"@	c #B5B2B5",
"#	c #9C9A9C",
"$	c #6B696B",
"%	c #4A494A",
"&	c #424142",
"*	c #393C39",
"=	c #423C42",
"-	c #ADA6A5",
";	c #A5A2A5",
">	c #A59EA5",
",	c #5A595A",
"'	c #313431",
")	c #4A4542",
"!	c #5A555A",
"~	c #635D5A",
"{	c #5A5D5A",
"]	c #4A4D4A",
"^	c #6B6D6B",
"/	c #7B757B",
"(	c #737173",
"_	c #7B797B",
":	c #737573",
"<	c #7B7573",
"[	c #636163",
"}	c #847D7B",
"|	c #847D84",
"1	c #8C8A8C",
"2	c #393439",
"3	c #525152",
"4	c #6B6563",
"5	c #7B7D7B",
"6	c #848284",
"7	c #6B656B",
"8	c #524D4A",
"9	c #848684",
"0	c #8C868C",
"a	c #8C8684",
"b	c #948E8C",
"c	c #8C8A84",
"d	c #8C8E8C",
"e	c #4A4942",
"f	c #948E94",
"g	c #949294",
"h	c #9C969C",
"i	c #9C9E9C",
"j	c #736D73",
"k	c #94929C",
"l	c #94969C",
"m	c #9C9694",
"n	c #636563",
"o	c #949694",
"p	c #A59E9C",
"q	c #9C9EA5",
"r	c #ADA6AD",
"s	c #A5A6A5",
"t	c #BDBABD",
"u	c #B5B6B5",
"v	c #C6BEC6",
"w	c #BDB6BD",
"x	c #B5B6BD",
"y	c #CECBCE",
"z	c #D6CFCE",
"A	c #D6CFD6",
".+.@#$%&*&=&*&*&*",
"-;>,')!,~~~{~{~{~",
"++]&,$^/(/(/(_:_<",
"+[&,$(_}|||||||||",
"1234$//|_|5656}65",
"78^:}9011019990a1",
"&{$_509b11cb1dc1a",
"*[(_6601090a06960",
"e/6fghh>i>i>i>i>i",
"3j|911fgggkglm#m#",
"n$:6afg#o#o#o#oho",
"#[91goh#########p",
";/:1dhop#q#i#q#i#",
"+._1o#>rrrrsr....",
"ttu#>+@vwtutxtuwu",
"+@u@.s@yyyyyyyzAA",
"^(^(^((/(/(/(/(/("};
