/* XPM */
static char * titlert_active_xpm[] = {
"17 17 104 2",
"  	c None",
". 	c #424142",
"+ 	c #4A4542",
"@ 	c #424542",
"# 	c #4A454A",
"$ 	c #6B6D6B",
"% 	c #9C9A9C",
"& 	c #ADAAAD",
"* 	c #B5AEB5",
"= 	c #C6D3DE",
"- 	c #C6CFDE",
"; 	c #8CA2B5",
"> 	c #5A7584",
", 	c #52595A",
"' 	c #635D63",
") 	c #7B757B",
"! 	c #A5A6A5",
"~ 	c #ADA6AD",
"{ 	c #637984",
"] 	c #637D8C",
"^ 	c #5A7984",
"/ 	c #63798C",
"( 	c #52717B",
"_ 	c #5A697B",
": 	c #425D6B",
"< 	c #39454A",
"[ 	c #636163",
"} 	c #7B797B",
"| 	c #A5A2A5",
"1 	c #8CA6B5",
"2 	c #849EAD",
"3 	c #7B96A5",
"4 	c #7B92A5",
"5 	c #6B8294",
"6 	c #4A5963",
"7 	c #63656B",
"8 	c #8C8E8C",
"9 	c #52697B",
"0 	c #5A6D7B",
"a 	c #526973",
"b 	c #5A6D84",
"c 	c #526573",
"d 	c #425963",
"e 	c #425563",
"f 	c #313C4A",
"g 	c #212831",
"h 	c #7B7D7B",
"i 	c #849AAD",
"j 	c #738E9C",
"k 	c #738A9C",
"l 	c #5A7184",
"m 	c #394952",
"n 	c #42454A",
"o 	c #4A616B",
"p 	c #42596B",
"q 	c #4A596B",
"r 	c #42515A",
"s 	c #394D5A",
"t 	c #31414A",
"u 	c #293039",
"v 	c #181C18",
"w 	c #738EA5",
"x 	c #182021",
"y 	c #4A5D6B",
"z 	c #425163",
"A 	c #394D52",
"B 	c #394552",
"C 	c #293842",
"D 	c #292C31",
"E 	c #101418",
"F 	c #6B8694",
"G 	c #293439",
"H 	c #181C21",
"I 	c #313C42",
"J 	c #293442",
"K 	c #212829",
"L 	c #313839",
"M 	c #63758C",
"N 	c #637584",
"O 	c #212C31",
"P 	c #BDBABD",
"Q 	c #293C42",
"R 	c #182029",
"S 	c #101818",
"T 	c #737173",
"U 	c #B5B6B5",
"V 	c #424D5A",
"W 	c #293031",
"X 	c #182429",
"Y 	c #212429",
"Z 	c #8C868C",
"` 	c #CECFCE",
" .	c #212029",
"..	c #6B7173",
"+.	c #CECFD6",
"@.	c #BDB6BD",
"#.	c #B5B2B5",
"$.	c #CECBCE",
"%.	c #D6CFD6",
"&.	c #D6D3D6",
"*.	c #D6CFCE",
"=.	c #CEC3C6",
"-.	c #73757B",
";.	c #736D73",
". + . . . + . @ . # . # $ % & * & ",
"= - = - = - = - = - ; > , ' ) ! ~ ",
"{ ] ^ ] ^ ] ^ ] / ] ( _ : < [ } | ",
"; ; ; ; ; ; 1 ; 1 ; 2 3 4 5 6 7 8 ",
"9 0 9 0 a 0 9 0 9 b c c d e f g h ",
"i i i i i i i i i i 3 j k 5 l m n ",
"o c o c o c o c o c p q r s t u v ",
"j j j j j j j j w j k 5 ] > a s x ",
"d q d q d y d y d y e z A B C D E ",
"5 5 5 5 5 5 F 5 F 5 5 / l c e G H ",
"s r s r s r s r s r m B I J K H L ",
"M > N N M > N N M > l c q B O x P ",
"Q f I f I f I f I f G u K R S T U ",
"V s V s V s V s V V < W X Y Z ` * ",
"S H S H S H S H S H S  ...+.` @.#.",
"$.$.$.$.$.` %.%.&.%.*.*.=.#.* * * ",
"T -.T T $ T ;.T ..T ;.T $ T $ ;.$ "};
