/* XPM */
static char * title_active_xpm[] = {
"387 17 163 2",
"  	c None",
". 	c #424142",
"+ 	c #393C39",
"@ 	c #423C39",
"# 	c #4A454A",
"$ 	c #4A4542",
"% 	c #423C42",
"& 	c #393839",
"* 	c #424542",
"= 	c #4A494A",
"- 	c #4A4142",
"; 	c #424139",
"> 	c #D6DBE7",
", 	c #CEDBE7",
"' 	c #CEDBDE",
") 	c #CED7E7",
"! 	c #CED7DE",
"~ 	c #C6D3DE",
"{ 	c #CED3DE",
"] 	c #C6CFDE",
"^ 	c #94AABD",
"/ 	c #8CA6B5",
"( 	c #94A6BD",
"_ 	c #94A6B5",
": 	c #8CA2B5",
"< 	c #8CA2AD",
"[ 	c #8C9EAD",
"} 	c #849EAD",
"| 	c #8C9EB5",
"1 	c #849AAD",
"2 	c #849AA5",
"3 	c #7B9AA5",
"4 	c #7B96A5",
"5 	c #8496AD",
"6 	c #7B92A5",
"7 	c #73929C",
"8 	c #738E9C",
"9 	c #738EA5",
"0 	c #738A9C",
"a 	c #7B8EA5",
"b 	c #6B8694",
"c 	c #73869C",
"d 	c #6B869C",
"e 	c #6B8294",
"f 	c #638294",
"g 	c #63828C",
"h 	c #637D8C",
"i 	c #6B7D94",
"j 	c #637D94",
"k 	c #63798C",
"l 	c #5A7984",
"m 	c #BDCBD6",
"n 	c #B5C7D6",
"o 	c #BDC7D6",
"p 	c #B5C7CE",
"q 	c #B5C3CE",
"r 	c #ADBECE",
"s 	c #ADC3CE",
"t 	c #ADBEC6",
"u 	c #A5BAC6",
"v 	c #ADBACE",
"w 	c #ADBAC6",
"x 	c #A5B6C6",
"y 	c #9CB2C6",
"z 	c #A5B2C6",
"A 	c #9CB2BD",
"B 	c #9CAEBD",
"C 	c #94AEBD",
"D 	c #94AAB5",
"E 	c #5A7584",
"F 	c #63758C",
"G 	c #5A7184",
"H 	c #526D7B",
"I 	c #52717B",
"J 	c #5A717B",
"K 	c #5A6D84",
"L 	c #52697B",
"M 	c #5A6D7B",
"N 	c #526973",
"O 	c #7B9AAD",
"P 	c #8496A5",
"Q 	c #526573",
"R 	c #4A6573",
"S 	c #4A6173",
"T 	c #4A616B",
"U 	c #52657B",
"V 	c #4A5D6B",
"W 	c #526173",
"X 	c #425D6B",
"Y 	c #7392A5",
"Z 	c #42596B",
"` 	c #4A596B",
" .	c #425963",
"..	c #425563",
"+.	c #4A5963",
"@.	c #6B8A9C",
"#.	c #42515A",
"$.	c #39515A",
"%.	c #425163",
"&.	c #394D5A",
"*.	c #394D52",
"=.	c #424D5A",
"-.	c #394952",
";.	c #637984",
">.	c #5A798C",
",.	c #637584",
"'.	c #31414A",
").	c #313C42",
"!.	c #293C42",
"~.	c #313C4A",
"{.	c #39414A",
"].	c #293842",
"^.	c #42555A",
"/.	c #181C21",
"(.	c #101818",
"_.	c #CECFCE",
":.	c #D6CFD6",
"<.	c #CECFD6",
"[.	c #D6CFCE",
"}.	c #CECBCE",
"|.	c #CEC7CE",
"1.	c #CEC7C6",
"2.	c #C6C3C6",
"3.	c #C6C7C6",
"4.	c #C6C7CE",
"5.	c #C6BEC6",
"6.	c #C6BEBD",
"7.	c #BDBEBD",
"8.	c #BDBABD",
"9.	c #BDBEC6",
"0.	c #CEC3CE",
"a.	c #D6D3D6",
"b.	c #DED7DE",
"c.	c #DED7D6",
"d.	c #DEDBDE",
"e.	c #DEDFDE",
"f.	c #E7DFE7",
"g.	c #E7E3E7",
"h.	c #DEDFE7",
"i.	c #E7DBE7",
"j.	c #EFE7EF",
"k.	c #E7E7E7",
"l.	c #EFE3EF",
"m.	c #E7E3EF",
"n.	c #D6D7D6",
"o.	c #D6D3DE",
"p.	c #7B757B",
"q.	c #737173",
"r.	c #737573",
"s.	c #7B797B",
"t.	c #73757B",
"u.	c #7B7984",
"v.	c #847D84",
"w.	c #7B7D7B",
"x.	c #847984",
"y.	c #84797B",
"z.	c #847D7B",
"A.	c #7B7973",
"B.	c #7B7573",
"C.	c #7B7D84",
"D.	c #848284",
"E.	c #8C868C",
"F.	c #84828C",
". + . + . + . + . + . + . + . + . + . + . + . + . @ . . # . $ . # . . . . % . + . % . + . + . + . + . + . + . + . @ . + . + . + . + . + . + . + . + . + . + . + . @ . + . @ . + . + . + . + . + . + . + . + . + . + . + . + . + . @ . + . . . @ . @ . + . % . + % + % + % & @ & % & @ & % & @ & % & % + % & % & % & % & % & % & % & % & % & % + % + % + % & % & % + . + . + . + . % . + . % . + . @ . + . % . + . @ . + . @ . + . @ . + . + % + % + % + % + % + % + . + . + . + . + . + . @ . + % + % + % + . + . @ . + . @ . + . . * . # . * . # . * . # . * . # . $ . # . # . # . = * = * = * = * = * = $ = * = * = * = * # * # * = * = * = * = * # * # * = * # . # . # . $ . # . * . # . * . # . . . - . . . $ . . + . @ . + . @ . + . + . + . + . + . + . + . @ . + . . . ; $ . * . # . # . # . $ ",
"> > , > > > , > > > , > > > , > > > , > > > , > > > > > > > > > > > , > > > > > > > , > > > , > > > > > > > > > > > > > > > > > > > > > > > , > > > > > > > > > > > > > > > > > > > > > > > > > > > > > > > > > > > > > > > , > , > , > , > , > , > , > , > , > , > , > , > , > , > ' , , > ' , , > ' , , > ' , , > ' ) ! ) ! ) ! ) ! ) ! ) ! ) ! ) ! ) ! ) ! ) ! ) ! ) ! ) ! ! ! ! ! ! ! ! ! ! ! ! ! ! ! ! ! ! ! ! ! ! ! ! ! ! ! ! ! ! ~ ! ~ ! ~ ! ~ ! ~ ! ~ ! ~ ! ~ ~ ~ { ~ ~ ~ { ~ ~ ~ { ~ ~ ~ { ~ ~ ~ { ~ ~ ~ { ~ ~ ~ { ~ ~ ~ ~ ~ ~ ~ ~ ~ ~ ~ ~ ~ ~ ~ ~ ~ ~ ] ~ ] ~ ] ~ ] ~ ] ~ ] ~ ] ~ ] ~ ] ~ ] ~ ] ~ ] ~ ] ~ ] ~ ] ~ ] ~ ] ~ ] ~ ] ~ ] ~ ] ~ ] ~ ] ~ ] ~ ] ~ ] ~ ] ~ ] ~ ] ~ ] ~ ] ~ ] ~ ] ~ ] ~ ] ~ ] ~ ] ~ ] ~ ] ~ ] ~ ] ~ ] ~ ] ~ ] ~ ] ~ ] ~ ] ~ ] ~ ] ~ ] ~ ] ~ ] ~ ] ~ ] ~ ] ~ ] ~ ] ~ ] ",
"^ / ^ / ^ / ^ / ^ / ( / _ / ( / _ / ( : _ : _ : _ : _ : _ / _ / _ / _ : _ < _ : / < _ : / < : [ : } : [ : } : [ : } : [ : } : [ : } : [ : } : [ : } : } : } : } : } : } : } : } : } : } : } : } : } : } : } | } [ } | } [ } | } [ 1 [ 1 } 1 [ 1 } 1 [ 1 } 1 [ 1 } 1 [ 1 } 2 1 1 } 2 } 1 } 2 1 2 1 3 1 1 1 3 1 4 1 4 1 4 1 4 1 4 1 4 1 4 1 4 1 4 1 4 1 4 1 4 1 4 1 4 1 4 1 4 5 4 5 4 5 6 5 6 5 6 4 6 5 6 4 7 4 6 4 7 4 6 4 7 4 6 4 7 4 6 4 7 6 7 6 7 6 8 6 8 6 8 6 8 6 8 6 8 6 8 6 8 6 8 6 8 6 8 9 0 9 0 9 0 a 0 9 0 a 0 8 0 9 0 9 0 a 0 8 0 9 0 8 b 0 b 0 b 0 b 0 b 0 b 0 b 0 b 0 b 0 b c b c b c b c b d e d e b f b e b f d e b f b e b f b e b g b f b g e h e h e h e h e h e h e h e h e h e h i h j k i k j k i k j k i k j k i k h k h k h k h k h k h k h k h k h k h k h l h k h l h l h l h ",
"~ ] m m m m m m n n n o n n n n p n n n q n q q r q s q r r r r r r r r r r r r r r r r r r r r r r r r r r r r r r r r r r r r r r r r r r r r r r r r r r r r t r r r t r r r r r r r r r r r u v w v u v u v u w u v u w u v u w u v u v u v u u u v u u u v u u u w u u x u x u x x x x x x x x x x x x x x x x x x x x x x x x x x y x z x y x z x y x z x y x z x y x z z A y A z A y y z A y y z A y A y A A B A B A B A B A B A B B B B B B B B C B B B C B B B C B C B C B B B C B B B C B B B ^ C ^ B ^ C ^ ^ D ^ ^ ^ D ^ ^ ^ ^ ^ ^ ^ D ^ ^ ^ D ^ ^ ^ D ^ ^ ^ _ ^ _ ^ _ ^ _ _ _ _ _ _ _ _ _ _ _ _ _ D / _ _ _ / _ _ _ / _ _ _ / _ / _ / / / _ / / / _ / / / _ / / / _ / / / _ / / / _ / / / / : : : : : : : : : : : : : : : : : : : : : : : : : : : : : : : : : : : : : : : : : : : : : : : ",
"c e e h i k k E k E k E F E F E F G E G F G G H G I G I G I G I G J G I G J G I G J G I G J G I G J G I G J G I G J G I G J G I G J G I G J G I G J G I G J G I G J G I G J G I G J G I G J G I G J G I G J G I G J G I G H G H G H G H G H G H G H G H G H G H G H G H G H G H G H G H G H G H G H G H G H G H G H G H G H K H K H K H K H K H K H K H K H K H K H G H G H G H G H G H G H K H K H K H K H K H K H K H K L M L K L K H K H K L K L M L M L M L M L M L M L M L M L M L M L M L M L M L M L M L M L M L M L M L M L M L M L M L M L M L M L M L M L M L M L M N M N H N M N H N M N H N M L M N M L M N M N H N M N H N M N M N M L M N M L M L M L M L M L M L M L M L M L M N M L M L M L M L M L M L M L M L M L M L M L M N M L M L M L M L M L M L M L M L M L M L M L M N M L M ",
"y y C C D _ / : : : : : : : < : [ [ } } } } 1 1 1 1 1 1 1 1 1 1 1 } 1 } 1 } 1 } 1 } 1 } 1 } 1 } 1 } 1 } } } } } } } } } } } } } } } } } } } } } } } } } } } } } } } } } } } } } } } } } } } 1 } 1 } 1 } 1 } 1 1 1 1 1 1 1 1 1 1 1 1 1 1 1 1 1 1 1 1 1 1 1 1 1 1 1 1 1 1 1 1 1 1 1 1 1 1 1 1 1 1 1 1 1 1 1 1 1 1 1 1 1 1 1 1 1 1 1 1 1 1 1 1 3 1 1 1 3 1 1 1 1 1 1 1 1 1 1 1 1 1 1 1 1 1 1 1 1 1 1 1 1 1 1 1 1 1 1 1 1 1 1 1 O 1 1 1 O 1 1 1 O 1 1 1 3 1 1 1 3 1 1 1 1 1 1 1 1 1 1 1 1 1 1 1 1 1 1 1 3 1 1 1 1 1 1 1 3 1 1 1 3 1 1 1 4 1 P 1 4 1 4 1 3 1 4 1 4 2 4 5 4 P 4 5 4 4 4 5 4 4 4 5 4 4 4 5 4 4 4 5 4 4 4 5 4 4 4 5 4 4 4 5 4 4 4 5 4 4 4 5 4 4 4 5 4 4 4 5 4 4 4 5 4 2 4 1 4 1 4 1 4 1 4 1 4 1 4 1 4 1 4 1 4 1 4 1 4 1 P 1 4 1 P 1 4 1 P 1 4 1 P 1 4 1 P 1 4 1 P 1 4 1 P 1 4 1 5 1 4 1 5 1 3 ",
"k E F J G L M L M N M N L Q L Q L R L R L R Q S Q S Q S Q S Q S Q S Q S Q S Q S Q S Q S Q S Q S Q S Q S Q S Q S Q S Q S Q S Q S Q S Q S Q S Q S Q S Q S Q S Q S Q T Q S Q S Q S Q S Q S Q S Q S Q S Q S Q S Q S Q S Q S Q S Q S Q S Q S Q T Q T Q T Q S Q T Q S Q T Q S Q S Q S Q S Q S Q S Q S Q S Q S Q S Q R Q R U R Q R U R N R L R Q S Q S Q T Q S Q T Q S Q T Q S Q T Q S Q T Q S Q T Q S Q T Q S Q T Q S Q T Q T Q T Q T Q T Q T Q T Q T S V W V S V S V S X S V S X S V S X S V S X S V S X S V S X S V S X S V T X S V T X S V T X S V T X S V S X S V S X S V S X S V S X S V S X S V S X S V S X S V S X S V S X S V S X S V S X S V S X S V S V W V S V W V S V W V S V S V S V S V S V S V S V S V S X S V S V S V S V S V S V S V S V S V S X S V S V S V S V S V S V W V W V W T W T Q ",
": : 1 1 3 4 4 4 4 4 6 6 6 6 6 6 6 6 6 6 6 6 9 6 8 6 a 6 8 6 a 6 8 6 9 6 8 6 9 6 8 Y 8 6 8 Y 8 6 8 Y 8 6 8 9 8 a 8 9 8 a 8 8 8 a 8 Y 8 6 8 Y 8 6 8 Y 8 6 8 Y 8 6 8 9 8 a 8 9 8 a 8 9 8 6 8 Y 8 6 8 Y 8 6 8 6 8 6 8 6 9 6 8 6 9 6 8 9 8 a 8 8 8 a 8 Y 8 6 8 Y 8 6 8 9 8 a 8 8 8 a 8 8 8 9 8 8 8 9 8 8 8 a 8 8 8 a 8 9 8 a 8 8 8 9 8 8 8 9 8 8 8 9 8 8 8 9 8 8 8 a 8 8 8 a 8 8 8 a 8 9 8 a 8 Y 8 6 8 Y 8 6 8 6 8 6 8 6 8 6 8 6 8 6 8 6 8 6 8 Y 8 9 8 8 8 9 8 8 8 9 8 8 8 9 8 8 8 9 8 8 8 9 8 8 8 9 8 8 8 9 8 8 8 9 8 8 8 9 8 8 8 8 8 8 8 9 8 8 8 9 8 8 8 8 0 8 0 8 0 8 0 8 0 8 0 8 0 8 0 8 0 8 0 8 0 8 0 8 0 8 0 8 0 8 0 8 8 8 8 8 0 8 0 8 0 8 0 8 0 8 0 8 0 8 0 8 0 8 0 8 0 8 0 8 0 8 0 8 0 8 0 8 0 8 0 8 0 8 0 8 0 8 0 8 0 8 0 8 0 8 0 8 0 8 0 8 0 8 0 8 0 8 0 8 0 8 0 8 0 8 0 8 0 8 0 8 0 8 0 8 8 8 8 ",
"K N L R Q T W T S V S V S V V Z V ` V Z V Z V Z V Z V  .V Z V  .V Z V  .V Z V  .V  .V  .V Z V  .V Z V  .V Z V Z V Z V  .V  .V  .V Z V  .V  .V  .V  .V  .V Z V  .V Z V  .V Z V  .V Z V  .V  .V  .V  .V  .V  .V  .V  .V  .V  .V  .V  .V  .`  .`  .`  .`  .`  .`  .`  .` ..`  .` ..` ..` ..` ..` ..` ..` ..` ..` ..` ..` ..`  .`  .`  .`  .` ..Z ..` ..Z ..` ..Z ..` ..` ..` ..` ..` ..`  .`  .`  .`  .`  .`  .`  .`  .`  .`  .`  .`  .`  .`  .`  .` ..` ..` ..` ..` ..` ..` ..` ..` ..` ..` ..` ..` ..` ..` ..` ..` ..` ..` ..` ..` ..` ..` ..` ..` ..+...` ..+...+...+...` ..+...` ..+...` ..+...` ..+...` ..+...` ..+...` ..+...` ..+...` ..+...+...+...+... ...+... ...+...+...+... ...+... ...+...+...` ..+...` ..+...` ..+...` ..+...` ..+...+...+...+...+...+...+...` ..+...` ..+...` ..+...` ..` ",
"6 6 8 8 0 0 0 @.b d b b b d b b b b b b b b b b b b b b b b e b e b e b e b b b b b b b b b e b e b e b e b e b e b e b e b e b e b e b e b e b e e e e e e e e e b e b e b e b e b e b e b b b b b b b b b b b b b b b b b b b b b b b b b e b e b b b b b b b b b b b b b b b b b b b b b b b b b b b b b e b e b e b e b e b e b b b b b e b e b e b e b e b e b e b e b e b e b e b e b e b e b e b e b e b e b e b e b e b e b e b e b e b e e f e e e f e e e f e e e e e e e f e e e f e e e e e e e e e e e e e e e f e e e f e e e f e e e f e e e g e f e f e e e f e e e e e e e e e e e f e e e e e e e e e e e f e e e e e e e e e e e f e f e g e e e f e e e f e e e g e f e f e e e f e e e f e e e f e e e e e e e e e e e f e f e g e f e g e f e g e f e g e e e g e f e g e e e e ",
"+.#...$.%.$.%.&.#.$.%.&.#.&.%.&.#.&.%.&.#.&.%.&.#.&.%.&.#.&.%.&.#.&.%.&.#.&.%.&.#.$.%.$.#.$.%.$.#.&.%.&.#.&.%.&.#.&.%.&.#.&.%.&.#.&.%.&.#.&.%.&.#.&.%.&.#.&.%.&.#.&.%.&.#.&.%.&.#.$.%.$.#.&.%.&.#.&.%.&.#.&.%.&.#.&.%.&.#.&.%.&.#.&.#.&.#.*.#.&.#.*.#.&.#.*.#.&.#.*.#.&.#.*.#.&.=.*.=.*.=.*.=.*.=.*.=.*.=.*.=.*.=.*.=.*.=.*.=.*.#.*.=.&.=.-.=.-.&.-.=.-.&.-.=.-.&.*.=.*.=.-.=.*.=.-.=.-.=.-.=.-.=.-.=.-.=.-.=.*.=.*.=.*.=.*.=.*.=.-.=.-.&.-.=.-.&.-.&.-.&.-.=.-.&.-.=.-.&.-.=.-.&.-.=.-.&.-.=.-.&.-.=.-.&.-.=.-.&.-.&.-.&.-.&.-.&.-.&.-.&.-.&.-.&.-.=.-.&.-.&.-.&.-.&.-.&.-.&.-.&.-.&.-.&.-.&.-.&.-.&.-.&.-.&.-.&.-.&.-.&.-.&.-.&.-.&.-.&.-.=.-.&.-.=.-.&.-.=.-.&.-.=.-.=.-.=.-.=.-.=.-.=.-.=.-.=.-.=.-.=.-.=.-.=.-.=.-.=.-.=.-.=.-.=.-.=.-.=.-.=.-.=.-.=.-.=.-.=.-.=.-.=.-.=.*.=.*.=.*.=.*.=.&.#.*.#.",
"h h k k E k E k E k E k E k E k l k E k E k E k E k E k l k k k k k k k k k k k k k k k k k k k k k k k l k k k l k k k l k k k l k k k l k k k ;.k k k k k k k k k k k l k >.k E k E k E k E k E k E k E k E k E k E F E F E F E F E F E E E ,.E E E ,.E E E F E ,.E F E ,.E F E ,.E F E E E F E E E F E E E F E E E F E E E F E E E F E ,.E ,.E E E E E E E E E E E E E E E E E E E E E E E E E E E E E E E E E E E E E E E E E E E E E E E E E E G E G G G G G G G G G G G G G G G G G G G G G G G G G G G G G G G G G G G G G G G G J G G G G G G G J G K G J G K G G G G G G G K G M G G G G G G G G G G G G G G G G G G G G G G G G G G G G G G G G G G G G G G G G G G G G G G G G G G G G G G G G G G E G E G E G E G E G E G E G E G E G E G E G E G E G E E E E E E E E E E E E E E ,.E ,.E ",
"'.).'.!.'.).'.!.'.).'.!.'.).'.!.'.).'.!.'.~.'.!.'.~.'.).'.~.'.).'.~.'.).'.~.'.).'.~.'.).{.~.'.).{.~.'.).'.~.'.).'.~.'.).'.~.'.).'.~.'.).'.~.'.).'.~.'.).'.~.'.).'.~.'.).'.~.'.).'.~.'.!.'.~.'.!.'.).'.!.'.).'.!.'.~.'.!.'.).'.!.'.).'.!.'.).'.!.'.).'.).'.).'.).'.).'.).'.).'.).'.).'.).'.).'.!.'.).'.!.'.).'.!.'.).'.!.'.).'.).'.).'.!.'.).'.!.'.).'.!.'.).'.!.'.).'.!.'.).'.!.'.).'.!.'.).'.!.'.).'.!.'.).'.).'.).'.).'.).'.!.'.).'.).'.).'.).~.).~.!.~.!.~.!.~.).~.!.~.).~.!.~.).~.!.~.).~.!.~.).~.!.~.).~.].~.].~.].~.].~.].~.].~.].~.].~.].~.].~.].~.].~.].~.].~.].~.].~.].~.].~.].~.].~.].~.].~.].~.].~.].~.].~.].~.].~.].~.].~.].~.].~.].~.].~.].~.].~.].~.].~.!.~.!.~.!.~.].~.].~.].~.].~.].~.].~.!.~.!.~.!.~.!.~.!.~.!.~.!.~.!.~.].~.!.~.).~.!.~.).~.!.~.).~.!.~.).~.!.~.!.~.!.~.!.~.!.~.).~.",
"....^.......^.......^.......^.......^.......^.......^...............................................^.......^...^...^...^...^...^...^...^...^...^...#...#...^...#...#...#...#...#...#...^...#...^...^.......^...#.%.#.%.#.%.#.%.#.%.#...%...#...%...^...................%...#.^.#...#.^.#...#.^.#...#...#...#...#...#...#...#.^.#.#.#.#.#.#.$.#.#.#.#.#.#.#.$.#.#.#.$.#.#.#.$.#.#.#.$.#.#.#.$.#.&.#.&.#.&.#.&.#.&.#.&.#.&.#.$.#.#.#.#.#.#.#.#.#.#.#.#.#.=.#.&.=.=.=.&.=.=.#.&.#.=.#.&.#.=.#.&.#.=.#.&.#.=.#.&.#.=.#.&.=.=.#.&.#.=.#.&.#.&.=.&.=.&.=.&.=.=.=.&.=.&.=.&.=.&.=.&.&.&.=.*.&.&.=.*.&.*.&.*.&.*.=.*.&.&.=.*.&.&.=.*.&.&.=.*.&.&.=.*.&.&.=.*.&.&.=.*.&.&.=.*.&.&.=.*.&.&.=.*.&.*.=.*.&.&.=.*.&.&.=.*.&.&.=.&.=.=.=.&.=.&.=.*.=.&.=.*.&.&.=.*.=.&.=.&.=.&.=.&.=.&.=.*.&.&.=.&.=.&.=.&.=.&.=.*.",
"/.(./.(./.(./.(./.(./.(./.(./.(./.(./.(./.(./.(./.(./.(./.(./.(./.(./.(./.(./.(./.(./.(./.(./.(./.(./.(./.(./.(./.(./.(./.(./.(./.(./.(./.(./.(./.(./.(./.(./.(./.(./.(./.(./.(./.(./.(./.(./.(./.(./.(./.(./.(./.(./.(./.(./.(./.(./.(./.(./.(./.(./.(./.(./.(./.(./.(./.(./.(./.(./.(./.(./.(./.(./.(./.(./.(./.(./.(./.(./.(./.(./.(./.(./.(./.(./.(./.(./.(./.(./.(./.(./.(./.(./.(./.(./.(./.(./.(./.(./.(./.(./.(./.(./.(./.(./.(./.(./.(./.(./.(./.(./.(./.(./.(./.(./.(./.(./.(./.(./.(./.(./.(./.(./.(./.(./.(./.(./.(./.(./.(./.(./.(./.(./.(./.(./.(./.(./.(./.(./.(./.(./.(./.(./.(./.(./.(./.(./.(./.(./.(./.(./.(./.(./.(./.(./.(./.(./.(./.(./.(./.(./.(./.(./.(./.(./.(./.(./.(./.(./.(./.(./.(./.(./.(./.(./.(./.(./.(./.(./.(./.(./.(./.(./.(./.(./.(./.(./.(./.(./.(./.(./.(./.(./.",
"_.:.<.:._.:.:.:._.[._.:.}.}.}.}.}.}.}.}.}._.}.}.|.|.1.|.2.3.2.4.2.2.3.|.3.2.5.2.2.3.2.|.2.2.2.2.2.2.2.2.2.3.3.3.2.2.5.2.2.2.2.2.2.2.5.5.6.5.5.5.7.7.7.5.6.2.5.2.7.5.5.2.2.3.3.|.3.4.4.|.|.|.|.|.4.|.|.|.|.|.|.}.}.}.}.}.|.}.}.}.|.}.}.}.}.}.}.:.}.<.<._.}.}.}.}.}.}.}.}.|.}.}._.}.}.}.}.|.|.3.2.5.5.8.5.8.9.7.8.8.8.8.8.8.7.8.6.8.8.8.5.5.2.5.2.2.2.2.2.5.2.5.2.2.2.2.0.2.1.2.2.3.|.|.}.|.}.|.}.3.1.2.2.2.2.5.5.7.2.2.2.2.2.2.2.2.3.2.1.2.3.|.}.|.}.|.}.}.}.}.}.}.:.:.a.a.a.a.a.a.b.c.d.d.d.d.d.d.d.d.d.d.e.d.f.e.f.f.g.f.g.f.f.e.f.f.g.g.g.g.g.g.g.h.i.e.g.f.g.g.g.g.j.k.j.g.l.g.g.g.m.g.f.f.f.h.f.f.f.e.f.e.d.b.b.b.b.a.a.a.a.a.n.a.a.a.a.a.a.a.n.a.o.a.a.a.a.a.a.a.a.a.a.a.a.a.:.:.a.a.a.:.:.:.:.:.:._.[.}.}.}.|.1.|.1.|.|.|.|.}.}.}.}.}.}.}.|.}.|.|.1.|.1.1.2.2.2.|.|.|.1.|.|.}.|.}.|.}.}.}.}.}.}.",
"p.q.p.q.p.q.p.q.p.r.p.r.p.q.p.q.p.q.r.q.p.q.p.r.p.r.p.r.s.t.s.r.s.s.u.s.v.s.v.s.v.s.v.s.v.s.v.s.v.w.v.s.v.s.v.s.x.s.s.s.y.s.s.s.y.s.s.t.s.r.p.q.p.q.p.q.p.q.p.q.p.q.p.r.p.q.p.q.p.r.p.q.p.r.s.r.s.s.s.s.s.p.s.r.s.p.s.t.s.s.s.s.z.s.s.A.s.r.s.r.s.r.s.r.s.s.s.r.s.p.s.r.s.p.s.r.s.r.s.r.s.r.s.r.s.r.p.r.p.r.p.r.s.r.p.r.p.r.s.r.s.r.p.r.s.B.s.A.s.p.s.p.y.s.C.s.v.s.C.s.v.s.v.w.v.w.D.D.E.D.E.D.E.D.D.C.F.v.D.w.D.w.v.w.v.w.v.w.v.w.D.C.F.v.D.C.D.v.D.w.D.w.v.w.v.w.v.w.v.w.D.w.D.v.D.w.D.v.D.w.D.v.D.w.F.v.D.C.D.v.D.w.D.v.D.w.D.C.v.w.v.s.v.s.x.s.s.s.x.s.v.s.v.s.s.s.y.s.v.s.y.s.s.s.s.p.s.r.s.r.p.r.p.r.p.r.p.r.p.r.s.t.s.r.s.r.s.r.s.r.p.r.p.r.p.r.s.r.p.r.p.q.p.q.p.r.p.r.p.q.p.q.p.q.p.q.p.r.s.r.s.r.s.r.s.r.p.r.s.p.s.s.s.r.s.r.s.r.s.r.s.s.v.s.v.s.u.s.x.s.s.s.s.s.s.r.s.r.s.r.p.r.p.q.p.q.r."};
