/* XPM */
static char * HilightDesk_xpm[] = {
"15 14 116 2",
"  	c None",
". 	c #474747",
"+ 	c #4A4A4A",
"@ 	c #4D4E4E",
"# 	c #4F5151",
"$ 	c #525555",
"% 	c #555959",
"& 	c #575B5B",
"* 	c #5A5F5F",
"= 	c #5E6363",
"- 	c #606666",
"; 	c #636A6A",
"> 	c #656D6D",
", 	c #697070",
"' 	c #6B7373",
") 	c #616A6A",
"! 	c #353636",
"~ 	c #373838",
"{ 	c #3A3C3C",
"] 	c #3C3E3E",
"^ 	c #3E4141",
"/ 	c #404444",
"( 	c #434747",
"_ 	c #454A4A",
": 	c #474D4D",
"< 	c #494F4F",
"[ 	c #4C5252",
"} 	c #4E5555",
"| 	c #505858",
"1 	c #525B5B",
"2 	c #555E5E",
"3 	c #4E5050",
"4 	c #515454",
"5 	c #545757",
"6 	c #5C6363",
"7 	c #5F6666",
"8 	c #656C6C",
"9 	c #677070",
"0 	c #6A7373",
"a 	c #6D7777",
"b 	c #707A7A",
"c 	c #657070",
"d 	c #484D4D",
"e 	c #4A5050",
"f 	c #4C5353",
"g 	c #515858",
"h 	c #535B5B",
"i 	c #576161",
"j 	c #5A6464",
"k 	c #697171",
"l 	c #737D7D",
"m 	c #758080",
"n 	c #6B7676",
"o 	c #3F4242",
"p 	c #414444",
"q 	c #4D5353",
"r 	c #4F5656",
"s 	c #515959",
"t 	c #565E5E",
"u 	c #586161",
"v 	c #5C6767",
"w 	c #5F6A6A",
"x 	c #595C5C",
"y 	c #6B7474",
"z 	c #6E7878",
"A 	c #717A7A",
"B 	c #798383",
"C 	c #7B8787",
"D 	c #707C7C",
"E 	c #444848",
"F 	c #464A4A",
"G 	c #565F5F",
"H 	c #5B6464",
"I 	c #5D6767",
"J 	c #616D6D",
"K 	c #647070",
"L 	c #5E6464",
"M 	c #7D8A8A",
"N 	c #7F8D8D",
"O 	c #758383",
"P 	c #494E4E",
"Q 	c #535C5C",
"R 	c #667373",
"S 	c #687676",
"T 	c #646B6B",
"U 	c #666D6D",
"V 	c #717B7B",
"W 	c #808D8D",
"X 	c #829090",
"Y 	c #859393",
"Z 	c #7A8989",
"` 	c #4E5454",
" .	c #525959",
"..	c #545C5C",
"+.	c #586262",
"@.	c #697676",
"#.	c #6B7979",
"$.	c #6D7C7C",
"%.	c #6A7272",
"&.	c #6C7474",
"*.	c #747E7E",
"=.	c #778181",
"-.	c #7E8A8A",
";.	c #889696",
">.	c #8A9A9A",
",.	c #808F8F",
"'.	c #535A5A",
").	c #575F5F",
"!.	c #596262",
"~.	c #5B6565",
"{.	c #5D6868",
"].	c #606A6A",
"^.	c #626D6D",
"/.	c #6D7B7B",
"(.	c #6F7E7E",
"_.	c #728282",
". + @ # $ % & * = - ; > , ' ) ",
"! ~ { ] ^ / ( _ : < [ } | 1 2 ",
"@ 3 4 5 & * 6 7 ; 8 9 0 a b c ",
"{ ] ^ / ( _ d e f } g h 2 i j ",
"$ 5 & * 6 - ; > k ' a b l m n ",
"o p ( _ d e q r s h t u j v w ",
"x * = - ; > , y z A l m B C D ",
"E F d e q r g h G u H I w J K ",
"L - ; > k y a b l m B C M N O ",
"P e q r s Q t u j v w J K R S ",
"T U k y z V l m B C M W X Y Z ",
"` r  ...G +.H I w J K R @.#.$.",
"%.&.z V *.=.B C -.W X Y ;.>.,.",
"'...).!.~.{.].^.K R @.#./.(._."};
