/* XPM */
static char * Toolbar100_xpm[] = {
"100 14 166 2",
"  	c None",
". 	c #595C5C",
"+ 	c #595E5E",
"@ 	c #5A5E5E",
"# 	c #5A5F5F",
"$ 	c #5B6060",
"% 	c #5B6161",
"& 	c #5C6161",
"* 	c #5C6363",
"= 	c #5E6363",
"- 	c #5E6464",
"; 	c #5F6464",
"> 	c #5F6565",
", 	c #606666",
"' 	c #606767",
") 	c #616767",
"! 	c #616969",
"~ 	c #434848",
"{ 	c #444848",
"] 	c #444949",
"^ 	c #454949",
"/ 	c #454A4A",
"( 	c #454B4B",
"_ 	c #464B4B",
": 	c #464C4C",
"< 	c #474C4C",
"[ 	c #474D4D",
"} 	c #484D4D",
"| 	c #484E4E",
"1 	c #494E4E",
"2 	c #494F4F",
"3 	c #495050",
"4 	c #4A5050",
"5 	c #4A5151",
"6 	c #4B5151",
"7 	c #5E6565",
"8 	c #5F6666",
"9 	c #636A6A",
"0 	c #636B6B",
"a 	c #646B6B",
"b 	c #646C6C",
"c 	c #656C6C",
"d 	c #656D6D",
"e 	c #666D6D",
"f 	c #666E6E",
"g 	c #4A4F4F",
"h 	c #4B5252",
"i 	c #4C5252",
"j 	c #4C5353",
"k 	c #4D5353",
"l 	c #4D5454",
"m 	c #4E5454",
"n 	c #4E5555",
"o 	c #4E5656",
"p 	c #4F5656",
"q 	c #4F5757",
"r 	c #505757",
"s 	c #676E6E",
"t 	c #677070",
"u 	c #697171",
"v 	c #697272",
"w 	c #6A7272",
"x 	c #6A7373",
"y 	c #6B7373",
"z 	c #6B7474",
"A 	c #6C7474",
"B 	c #6C7575",
"C 	c #4F5555",
"D 	c #505858",
"E 	c #515858",
"F 	c #515959",
"G 	c #525959",
"H 	c #525A5A",
"I 	c #535A5A",
"J 	c #535B5B",
"K 	c #535C5C",
"L 	c #545C5C",
"M 	c #545D5D",
"N 	c #555D5D",
"O 	c #6D7575",
"P 	c #6D7777",
"Q 	c #6E7878",
"R 	c #6E7979",
"S 	c #707979",
"T 	c #707A7A",
"U 	c #717A7A",
"V 	c #717B7B",
"W 	c #727B7B",
"X 	c #727C7C",
"Y 	c #555E5E",
"Z 	c #565E5E",
"` 	c #565F5F",
" .	c #575F5F",
"..	c #576060",
"+.	c #586060",
"@.	c #586161",
"#.	c #586262",
"$.	c #596262",
"%.	c #596363",
"&.	c #5A6363",
"*.	c #717C7C",
"=.	c #727D7D",
"-.	c #737D7D",
";.	c #737E7E",
">.	c #747E7E",
",.	c #747F7F",
"'.	c #757F7F",
").	c #758080",
"!.	c #758181",
"~.	c #778181",
"{.	c #778282",
"].	c #788282",
"^.	c #566060",
"/.	c #576161",
"(.	c #5A6464",
"_.	c #5A6565",
":.	c #5B6565",
"<.	c #5B6666",
"[.	c #5C6666",
"}.	c #5C6767",
"|.	c #5D6767",
"1.	c #5D6868",
"2.	c #5E6868",
"3.	c #5E6969",
"4.	c #788383",
"5.	c #798383",
"6.	c #798585",
"7.	c #7A8585",
"8.	c #7A8686",
"9.	c #7B8787",
"0.	c #7B8888",
"a.	c #7C8888",
"b.	c #7C8989",
"c.	c #5F6969",
"d.	c #5F6A6A",
"e.	c #5F6B6B",
"f.	c #606B6B",
"g.	c #606C6C",
"h.	c #616C6C",
"i.	c #616D6D",
"j.	c #626D6D",
"k.	c #626E6E",
"l.	c #636E6E",
"m.	c #636F6F",
"n.	c #7B8686",
"o.	c #7D8989",
"p.	c #7D8A8A",
"q.	c #7E8A8A",
"r.	c #7E8B8B",
"s.	c #7F8B8B",
"t.	c #7F8C8C",
"u.	c #808D8D",
"v.	c #808E8E",
"w.	c #818E8E",
"x.	c #818F8F",
"y.	c #646F6F",
"z.	c #647070",
"A.	c #647171",
"B.	c #657171",
"C.	c #657272",
"D.	c #667272",
"E.	c #667373",
"F.	c #677373",
"G.	c #677474",
"H.	c #687474",
"I.	c #687575",
". + + + + + + + + @ @ @ # # # # # # # # # # $ $ $ $ $ $ $ $ $ $ $ % % & & & & & & & & * * * * * * = = = = = - - - - - - - - ; ; ; > > > > > > > > > > , , , , , , , , , , , ' ' ) ) ) ) ) ) ) ) ! ! ! ! ",
"~ ~ { { { { ] ] ] ] ] ] ] ] ] ] ^ / / / / / / / / / / / ( _ _ _ _ _ _ _ _ _ : : : : < < < < < < < [ [ [ [ [ [ } } } } | | | | | | | | | | 1 2 2 2 2 2 2 2 2 2 2 2 3 4 4 4 4 4 4 4 4 4 5 5 5 5 6 6 6 6 6 ",
"- - - - - - 7 7 7 > > > > > > > > 8 8 8 8 8 , , , , , , ' ' ' ' ' ' ' ) ) ) ! ! ! ! ! ! ! ! ! ! ! 9 9 9 9 9 9 9 9 9 9 0 0 0 a a a a a a a a b b b b b c c c c c c d d d d d d d e e e f f f f f f f f f ",
"| | 1 1 1 1 2 2 2 2 2 2 2 2 2 2 g 4 4 4 4 4 4 4 4 4 4 4 5 6 6 6 6 6 6 6 6 6 h h h h i i i i i i i j j j j j j k k k k l l l l l l l l l l m n n n n n n n n n n n o p p p p p p p p p q q q q r r r r r ",
"a a a a a a b b b c c c c c c c c d d d d d e e e e e e f f f f f f f s s s t t t t t t t t t t t u u u u u u u u u u v v v w w w w w w w w x x x x x y y y y y y z z z z z z z A A A B B B B B B B B B ",
"l l m m m m n n n n n n n n n n C p p p p p p p p p p p q r r r r r r r r r D D D D E E E E E E E F F F F F F G G G G H H H H H H H H H H I J J J J J J J J J J J K L L L L L L L L L M M M M N N N N N ",
"u v w w w w x x x y y y y y y y y z z z z z A A A A A A B B B B B B B O O O P P P P P P P P P P P Q Q Q Q Q Q Q Q Q Q R R R S S S S S S S S T T T T T U U U U U U V V V V V V V W W W X X X X X X X X X ",
"G H H H H H H H H I I I J J J J J J J J J J L L L L L L L L L L L M M N N N Y Y Y Y Z Z Z Z Z Z Z ` ` ` ` ` `  . . . .....................+.@.@.@.@.@.@.@.@.@.@.@.#.$.$.$.$.$.$.$.$.$.%.%.%.%.&.&.&.&.&.",
"Q R R R R R R R R S S S T T T T T T T T T T V V V V V V V V V V V *.*.X X X X X X X X =.=.=.=.=.=.-.-.-.-.-.;.;.;.;.;.;.;.;.>.>.>.,.,.,.,.'.).).).).).).).).).).).!.~.~.~.~.~.~.~.~.~.{.{.{.{.].].].].].",
"` ^....................././././.@.@.@.@.@.@.#.#.#.#.#.#.#.$.$.$.$.%.%.%.%.%.%.%.%.%.&.(.(.(.(.(.(.(.(.(.(.(._.:.:.:.:.:.:.:.:.:.:.<.<.<.<.[.[.[.[.[.[.}.}.}.}.}.}.}.|.|.|.|.1.1.1.1.1.1.1.1.1.2.3.3.3.3.",
">.,.,.,.,.,.,.,.,.'.'.'.).).).).).).).).).).~.~.~.~.~.~.~.~.~.~.~.{.{.].].].].].].].].4.4.4.4.4.4.5.5.5.5.5.6.6.6.6.6.6.6.6.7.7.7.8.8.8.8.8.8.8.8.8.8.9.9.9.9.9.9.9.9.9.9.9.0.0.a.a.a.a.a.a.a.a.b.b.b.b.",
":.<.[.[.[.[.[.[.[.[.[.[.}.}.}.}.|.|.|.|.|.|.1.1.1.1.1.1.1.2.2.2.2.3.3.3.3.3.3.3.3.3.c.d.d.d.d.d.d.d.d.d.d.d.e.f.f.f.f.f.f.f.f.f.f.g.g.g.g.h.h.h.h.h.h.i.i.i.i.i.i.i.j.j.j.j.k.k.k.k.k.k.k.k.k.l.m.m.m.m.",
"7.8.8.8.8.8.8.8.8.n.n.n.9.9.9.9.9.9.9.9.9.9.a.a.a.a.a.a.a.a.a.a.a.b.b.o.o.o.o.o.o.o.o.p.p.p.p.p.p.q.q.q.q.q.r.r.r.r.r.r.r.r.s.s.s.t.t.t.t.t.t.t.t.t.t.u.u.u.u.u.u.u.u.u.u.u.v.v.w.w.w.w.w.w.w.w.x.x.x.x.",
"f.g.h.h.h.h.h.h.h.h.h.h.i.i.i.i.j.j.j.j.j.j.k.k.k.k.k.k.k.l.l.l.l.m.m.m.m.m.m.m.m.m.y.z.z.z.z.z.z.z.z.z.z.z.A.B.B.B.B.B.B.B.B.B.B.C.C.C.C.D.D.D.D.D.D.E.E.E.E.E.E.E.F.F.F.F.G.G.G.G.G.G.G.G.G.H.I.I.I.I."};
