/* XPM */
static char * closeP_xpm[] = {
"15 15 16 1",
" 	c None",
".	c #C9C7C4",
"+	c #D7D7D5",
"@	c #8B877F",
"#	c #474541",
"$	c #0F0F0F",
"%	c #020204",
"&	c #BBB8B4",
"*	c #5F5C57",
"=	c #383533",
"-	c #ADA9A3",
";	c #79756C",
">	c #6B6862",
",	c #A09B93",
"'	c #403D3A",
")	c #E8E7E4",
".+.+@#$%....+++",
".+&*%=@-.......",
"+.#%*----@@-..+",
"+;%>##.-;##+&+.",
".==-###&###.&++",
".$>,@''###.-,+.",
"&%,,,@''#.-,-+&",
".$,,;'#'''.,-+&",
"&=;*=='&===-&..",
".;*>==&@@='&.&&",
"..*;,,;>;@-.--.",
".&&>;;;;@-&-,&.",
".+.&,,@.&---..+",
")+)++.&&&&.++)+",
"+++++++++++++++"};
