/* XPM */
static char * closeA_xpm[] = {
"15 15 15 1",
" 	c None",
".	c #C9C7C4",
"+	c #D7D7D5",
"@	c #E8E7E4",
"#	c #FCFCFA",
"$	c #BBB8B4",
"%	c #ADA9A3",
"&	c #8B877F",
"*	c #A09B93",
"=	c #474541",
"-	c #6B6862",
";	c #5F5C57",
">	c #403D3A",
",	c #79756C",
"'	c #383533",
".++.+@##...++++",
"...@##+...$%...",
"+.+#.%%%%&&%*.+",
"+.#+==$$-;=.*%+",
".@@$===$===.%&.",
".#$*&=>>>=.%*-.",
"$#%**&===.***;$",
"$#**,=>>>>.*&;.",
".+*-''=$'>'$;,.",
"..%-''$&&''*;&.",
"...-*%-,,&&;-%.",
".$$%,,,-;;=;*$.",
"++.$$*&==-,%..+",
"@++++..$$$.++@+",
"+@+++++++++++++"};
