/* XPM */
static char * minimizeI_xpm[] = {
"15 15 15 1",
" 	c None",
".	c #939391",
"+	c #898783",
"@	c #9D9C9B",
"#	c #ACACA8",
"$	c #B5B5B4",
"%	c #7D7A75",
"&	c #74706C",
"*	c #65625F",
"=	c #5C5954",
"-	c #514E49",
";	c #45443F",
">	c #282624",
",	c #383732",
"'	c #302E2C",
".+..@##$..+....",
"..+@$#..+++%+..",
".+@$.%%&%%&%&..",
"..$.%%%%%%%%*%.",
".@@%%%%%%%%%%=.",
"@$+&&&&&&&&&&-+",
".$%&&&&&&&&&&;+",
".#&&&&&&&&&&=;+",
"@@**>>>>>>%*;-+",
".+%=>>>>>>%;,&.",
"..+-&&&&&%&>-%+",
"..+%==--;,';&++",
"@@.+%&*,,;=%+@.",
"@@@@.++%+++.@@@",
"..............+",
};
