/* XPM */
static char * minimizeA_xpm[] = {
"15 15 15 1",
" 	c None",
".	c #CAC9C6",
"+	c #D6D6D5",
"@	c #EAE8E7",
"#	c #FCFCFA",
"$	c #BBB8B3",
"%	c #ADA9A2",
"&	c #A29C94",
"*	c #88847C",
"=	c #6A6660",
"-	c #595852",
";	c #918C84",
">	c #383633",
",	c #7A766E",
"'	c #4B4947",
"....+@##......+",
"...@#@+.$.$%...",
"+$+#.%%%%%%%&.+",
"+.#+$$%$%$%%&%+",
"+@@%%%%%%%%%%*.",
"+#$&%&%&&%&&&=.",
".#%&&&&%&&&&&-$",
"+#&&&&&&&&&&;=.",
"++&;>>>>>>$*-,.",
"+.%*>>>>>>$=-;.",
"..$,&%&%&&;'=%.",
"++$$*,,==-'=&$.",
"+++$$&;'--*%.++",
"@@++..$$$$.++++",
"..++.+.+..+++++",
};
