/* XPM */
static char * minimizeP_xpm[] = {
"15 15 16 1",
" 	c None",
".	c #CAC9C6",
"+	c #918C84",
"@	c #4B4947",
"#	c #0F0F0F",
"$	c #020204",
"%	c #383633",
"&	c #88847C",
"*	c #ADA9A2",
"=	c #BBB8B3",
"-	c #D6D6D5",
";	c #595852",
">	c #6A6660",
",	c #A29C94",
"'	c #7A766E",
")	c #EAE8E7",
"....+@#$......-",
"...@$%&*..=....",
"-=@$;*******.--",
"-&$>*****==*=..",
"-%%=**=*****=--",
"-#>,,,,,*,*,,-.",
"-$+,,,,,,,,,*-=",
"-#,,,,,,,,,,*-=",
"-%'+%%%%%%=+=..",
"-';&%%%%%%=,.==",
"-.@',*,*,,*=**.",
"--='''>'+*=*,=.",
"---=,,+.==*=.--",
")-)-..=====----",
"..-.--.--.-----",
};
