/* XPM */
static char * maximizeP_xpm[] = {
"15 15 16 1",
" 	c None",
".	c #C9C8C5",
"+	c #8E8A83",
"@	c #484643",
"#	c #0F0F0F",
"$	c #020204",
"%	c #D8D8D6",
"&	c #383735",
"*	c #ADA9A3",
"=	c #BDBBB7",
"-	c #7D7872",
";	c #2F2E2C",
">	c #6F6B63",
",	c #A09B93",
"'	c #5E5A56",
")	c #E7E6E6",
"....+@#$..%..%%",
"...@$&+*.=.....",
"%.@$@++++++*.%%",
".-$;@@@@@@@==..",
"%&;@@@@@@@@==%%",
".#>&...==*@*,%.",
"=$+@.,,,,+@**%*",
".#,&.,,,,-@**%*",
".;-&*>>->'&,=..",
".-'&&&;&&&&*.**",
"..'++++++++=**.",
"..=>----+*=*,=.",
"%%.=,,+==***..%",
")%)%..=.==.%))%",
"%%%%%%%%%%%%%%%",
};
