/* XPM */
static char * maximizeA_xpm[] = {
"15 15 15 1",
" 	c None",
".	c #C9C8C5",
"+	c #D8D8D6",
"@	c #E7E6E6",
"#	c #FBFBFA",
"$	c #BDBBB7",
"%	c #ADA9A3",
"&	c #8E8A83",
"*	c #A09B93",
"=	c #5E5A56",
"-	c #484643",
";	c #383735",
">	c #6F6B63",
",	c #7D7872",
"'	c #2F2E2C",
"....+@##.....++",
"...@#@+..$.%...",
"+.++%&&&&&&**++",
"+.#=-------$*%+",
".@@--------$%&.",
".#$;...$$%-%*>.",
"$#%-.****&;$*=$",
".#*;.%***,;%&=.",
".+*;%>,,>=;*=,.",
"$.%;;;'';;;&=&.",
"..$&&&*&&&=-=%.",
"..$$,,>,==-=*$.",
"++.$$*&-==,%..+",
"+@++..$$$$.+@@+",
"+++++++++++++++",
};
