/* XPM */
static char * maximizeI_xpm[] = {
"15 15 15 1",
" 	c None",
".	c #929290",
"+	c #898884",
"@	c #9C9C9C",
"#	c #ACACA8",
"$	c #B5B5B4",
"%	c #7C7A75",
"&	c #726F6B",
"*	c #64625D",
"=	c #5D5955",
"-	c #343331",
";	c #2E2E2C",
">	c #46433E",
",	c #524F48",
"'	c #262523",
"..+.@##$..+....",
".+.@$#..+++%+..",
"@+@.&***=**%&..",
"..$---;--;;+&%.",
".@#-;-;--;;+&*.",
".#+;+.+++%;%&>+",
"+$%;.&&&&=;%&>+",
"+#&;+&&&&=;%*>+",
"+@*;%,,,,>'&>,+",
"++%''''''''*-&.",
"..+*******>;>%+",
"+.+%=,,,>-;>&%+",
"@@.++&*->>=%+..",
"@@@..+++++..#@@",
"..@.@@...@@@@@.",
};
