/* XPM */
static char * menuA_xpm[] = {
"16 15 102 2",
"  	c None",
". 	c #C4C6C4",
"+ 	c #CCCACC",
"@ 	c #BCBEBC",
"# 	c #BCB6B4",
"$ 	c #D4D2CC",
"% 	c #ECEAE4",
"& 	c #FCF6F4",
"* 	c #FCFAF4",
"= 	c #CCCAC4",
"- 	c #C4BEBC",
"; 	c #CCCECC",
"> 	c #E4E6DC",
", 	c #DCD6CC",
"' 	c #BCAE9C",
") 	c #B49E8C",
"! 	c #AC9684",
"~ 	c #A49A8C",
"{ 	c #ACA294",
"] 	c #ACAAA4",
"^ 	c #A4A29C",
"/ 	c #D4CECC",
"( 	c #DCDAD4",
"_ 	c #CCBEAC",
": 	c #B4A694",
"< 	c #C4BAAC",
"[ 	c #CCC2B4",
"} 	c #C4B6A4",
"| 	c #A48E7C",
"1 	c #8C765C",
"2 	c #8C7A6C",
"3 	c #948E84",
"4 	c #7C7A74",
"5 	c #C4C2BC",
"6 	c #DCD2C4",
"7 	c #CCBEB4",
"8 	c #E4DAD4",
"9 	c #E4E2DC",
"0 	c #947A64",
"a 	c #6C5E4C",
"b 	c #7C726C",
"c 	c #7C766C",
"d 	c #D4DAD4",
"e 	c #DCDADC",
"f 	c #E4E2D4",
"g 	c #ECEEEC",
"h 	c #F4EEEC",
"i 	c #8C7A64",
"j 	c #645644",
"k 	c #5C4E44",
"l 	c #6C6A64",
"m 	c #747674",
"n 	c #DCDEDC",
"o 	c #F4EEE4",
"p 	c #BCAA9C",
"q 	c #ECE2DC",
"r 	c #846E5C",
"s 	c #4C4234",
"t 	c #54524C",
"u 	c #444644",
"v 	c #FCF6EC",
"w 	c #9C8A74",
"x 	c #C4B6AC",
"y 	c #9C8674",
"z 	c #7C6A54",
"A 	c #947E64",
"B 	c #44423C",
"C 	c #D4D2D4",
"D 	c #94826C",
"E 	c #B4A28C",
"F 	c #5C5244",
"G 	c #34322C",
"H 	c #8C7E6C",
"I 	c #74624C",
"J 	c #9C826C",
"K 	c #3C3224",
"L 	c #2C2A2C",
"M 	c #4C4E4C",
"N 	c #C4C2C4",
"O 	c #D4D6D4",
"P 	c #BCBAB4",
"Q 	c #6C6254",
"R 	c #745E4C",
"S 	c #A4927C",
"T 	c #3C3A2C",
"U 	c #242224",
"V 	c #2C2A24",
"W 	c #746E6C",
"X 	c #B4AEA4",
"Y 	c #5C5A54",
"Z 	c #544A44",
"` 	c #544634",
" .	c #2C2624",
"..	c #1C1A1C",
"+.	c #24221C",
"@.	c #4C4E44",
"#.	c #1C1E1C",
"$.	c #CCC6BC",
"%.	c #74726C",
"&.	c #64625C",
"*.	c #342E24",
"=.	c #B4B6B4",
". + @ # $ % & * = - - ; ; ; ; = ",
"; ; # > , ' ) ! ~ { ] ^ ; / ; + ",
"; # ( _ : < [ } | 1 2 3 4 . + = ",
"$ 5 6 ) 7 8 9 , ' 0 a b c ] ; d ",
"e f : : 6 g h 9 7 i j k l m ; e ",
"n o ! p , o g q ' r j s t u / , ",
"= v w ) 7 ( , x y z A k u B @ + ",
"C o D A | E ! i z 0 ! F G B 5 = ",
"C 6 H I I z r 1 J ! y K L M N O ",
"$ P { Q R A S ! ~ A T U V W @ + ",
"d C X Y Z F z I `  ...+.@.^ = ( ",
"e C P 3 Y s G +.#.#. .M ^ $.O O ",
"e d + @ ^ %.&.*.G B l ^ N + ; e ",
"n n ( C + @ P =.# =.- / O d O e ",
"( O e d ( d e O e d e O e e O e "};
