/* XPM */
static char * menuI_xpm[] = {
"16 15 118 2",
"  	c None",
". 	c #8C8E8C",
"+ 	c #A4A29C",
"@ 	c #B7B5B0",
"# 	c #CCCAC5",
"$ 	c #DAD5D3",
"% 	c #DAD8D3",
"& 	c #B0AFA9",
"* 	c #A9A4A3",
"= 	c #8C8A84",
"- 	c #949294",
"; 	c #94928C",
"> 	c #999791",
", 	c #C5C7BE",
"' 	c #AFA7A2",
") 	c #968B7C",
"! 	c #8F7E6F",
"~ 	c #897769",
"{ 	c #837B6F",
"] 	c #898176",
"^ 	c #B4AEAC",
"/ 	c #AFAAA2",
"( 	c #A29789",
"_ 	c #8F8476",
": 	c #9C9489",
"< 	c #A29A8F",
"[ 	c #9C9183",
"} 	c #837163",
"| 	c #6F5E49",
"1 	c #79695D",
"2 	c #948E84",
"3 	c #747674",
"4 	c #949694",
"5 	c #9C9A96",
"6 	c #8F816F",
"7 	c #A2978F",
"8 	c #B6AEA9",
"9 	c #B6B4AF",
"0 	c #766150",
"a 	c #564B3D",
"b 	c #7C726C",
"c 	c #7C7A74",
"d 	c #9C9A9C",
"e 	c #B6B4A9",
"f 	c #BCBDBC",
"g 	c #C2BDBC",
"h 	c #6F6150",
"i 	c #504436",
"j 	c #5C4E44",
"k 	c #746E6C",
"l 	c #64625C",
"m 	c #9C9E9C",
"n 	c #C2BDB6",
"o 	c #96877C",
"p 	c #BCB4AF",
"q 	c #968E83",
"r 	c #695849",
"s 	c #4C4234",
"t 	c #54524C",
"u 	c #444644",
"v 	c #C9C4BC",
"w 	c #7C6E5C",
"x 	c #AFAEA9",
"y 	c #7C6756",
"z 	c #635443",
"A 	c #5C4E3C",
"B 	c #44423C",
"C 	c #3C3E3C",
"D 	c #948E8C",
"E 	c #8A8C8A",
"F 	c #C9BDAF",
"G 	c #766756",
"H 	c #837463",
"I 	c #5C5244",
"J 	c #34362C",
"K 	c #AFA79C",
"L 	c #6F6456",
"M 	c #5C4E3D",
"N 	c #695B49",
"O 	c #897B69",
"P 	c #7C6B5C",
"Q 	c #3C3224",
"R 	c #2C2A2C",
"S 	c #4C4E44",
"T 	c #8C8A8C",
"U 	c #91908A",
"V 	c #83817C",
"W 	c #564E43",
"X 	c #5C4B3D",
"Y 	c #766450",
"Z 	c #8A7965",
"` 	c #383229",
" .	c #24221C",
"..	c #848684",
"+.	c #8F877C",
"@.	c #494843",
"#.	c #433B36",
"$.	c #494136",
"%.	c #635143",
"&.	c #5C4E43",
"*.	c #4E4130",
"=.	c #2C2A24",
"-.	c #1C1A1C",
";.	c #4C4A44",
">.	c #7C7E7C",
",.	c #9C9A94",
"'.	c #828482",
").	c #8A847B",
"!.	c #56544E",
"~.	c #473E30",
"{.	c #303229",
"].	c #22201A",
"^.	c #242224",
"/.	c #74726C",
"(.	c #342E24",
"_.	c #34322C",
":.	c #7C7674",
"<.	c #84827C",
". . . + @ # $ % & * = - - - . - ",
"; - > , ' ) ! ~ { ] ^ . . ; - ; ",
"- . / ( _ : < [ } | 1 2 3 . . ; ",
"4 5 ' 6 7 8 9 / ) 0 a b c 3 ; - ",
"d e _ _ ' f g 9 7 h i j k l . 4 ",
"m n ~ o / n f p q r i s t u - m ",
". v w ! < x / [ y z 0 A B C = D ",
"E F G 0 H ! ~ h z 0 ~ I J B = . ",
"4 K L M M z N | y O P Q R S T 4 ",
"4 U V W X Y H O H Z `  .R k ..- ",
"d 4 +.@.#.$.%.&.*.=.-. .;.>.; 4 ",
",.4 '.).!.~.{.].-. .^.;.3 . 4 ,.",
"d d . ..= /.l (._.B l :...- - - ",
"d m d 4 - ..<.<.<.<...- ,.4 d 4 ",
"d d d d d m d d d d m d 4 m d d "};
