/* XPM */
static char * menuP_xpm[] = {
"16 15 119 2",
"  	c None",
". 	c #C4C6C4",
"+ 	c #C4BEBC",
"@ 	c #B4B6B4",
"# 	c #D4D2D4",
"$ 	c #ECEAE4",
"% 	c #FCF6F4",
"& 	c #FCFAF4",
"* 	c #CCC6BC",
"= 	c #CCCACC",
"- 	c #D4CECC",
"; 	c #CCCECC",
"> 	c #CCCAC4",
", 	c #BCBAB4",
"' 	c #E4E2DC",
") 	c #DCD2C4",
"! 	c #AC9A84",
"~ 	c #94826C",
"{ 	c #847264",
"] 	c #A49A8C",
"^ 	c #B4AEAC",
"/ 	c #A4A69C",
"( 	c #BCB6B4",
"_ 	c #D4D2CC",
": 	c #BCAA9C",
"< 	c #64564C",
"[ 	c #3C3224",
"} 	c #342A1C",
"| 	c #543A24",
"1 	c #7C6A54",
"2 	c #847A6C",
"3 	c #948A84",
"4 	c #84827C",
"5 	c #C4BEB4",
"6 	c #6C5E4C",
"7 	c #2C2214",
"8 	c #0C0A04",
"9 	c #0C0604",
"0 	c #342E24",
"a 	c #746254",
"b 	c #947A64",
"c 	c #7C766C",
"d 	c #747674",
"e 	c #DCDAD4",
"f 	c #DCDADC",
"g 	c #DCD6CC",
"h 	c #8C7E6C",
"i 	c #443224",
"j 	c #040204",
"k 	c #3C3E3C",
"l 	c #B4AA9C",
"m 	c #A4927C",
"n 	c #746654",
"o 	c #5C5244",
"p 	c #746E6C",
"q 	c #A4A29C",
"r 	c #D4D6D4",
"s 	c #DCDEDC",
"t 	c #F4E6DC",
"u 	c #24160C",
"v 	c #2C2A24",
"w 	c #ACAAA4",
"x 	c #DCD2CC",
"y 	c #CCC2B4",
"z 	c #D4BEAC",
"A 	c #9C8A7C",
"B 	c #544A3C",
"C 	c #54524C",
"D 	c #444644",
"E 	c #FCF6EC",
"F 	c #7C664C",
"G 	c #2C160C",
"H 	c #140A04",
"I 	c #ECD2BC",
"J 	c #FCEEDC",
"K 	c #ECD6BC",
"L 	c #6C5A4C",
"M 	c #44423C",
"N 	c #C4C2BC",
"O 	c #F4EEE4",
"P 	c #846E5C",
"Q 	c #3C260C",
"R 	c #1C0A04",
"S 	c #84725C",
"T 	c #BCAA94",
"U 	c #FCFAEC",
"V 	c #FCFEF4",
"W 	c #ECD6C4",
"X 	c #3C3634",
"Y 	c #544634",
"Z 	c #442E1C",
"` 	c #DCC6AC",
" .	c #FCF2E4",
"..	c #3C362C",
"+.	c #2C2A2C",
"@.	c #4C4E44",
"#.	c #94928C",
"$.	c #ACA294",
"%.	c #645644",
"&.	c #B49A84",
"*.	c #E4CEBC",
"=.	c #1C1E1C",
"-.	c #2C2E2C",
";.	c #D4DAD4",
">.	c #B4AEA4",
",.	c #645E54",
"'.	c #544E44",
").	c #8C765C",
"!.	c #7C6A5C",
"~.	c #1C1A1C",
"{.	c #24221C",
"].	c #948E84",
"^.	c #5C5A54",
"/.	c #34362C",
"(.	c #242224",
"_.	c #BCBEBC",
":.	c #74726C",
"<.	c #64625C",
"[.	c #A4A6A4",
". . + @ # $ % & * + = - ; ; = > ",
"; ; , ' ) ! ~ { ~ ] ^ / ; ; - . ",
"; ( _ : { < [ } | 1 2 3 4 . = = ",
"_ 5 5 6 7 8 9 0 a b 1 c d ; ; e ",
"f g h i j j k 3 l m n o p q ; r ",
"s t n u j v w x y z A B C D - e ",
"> E F G H 4 * y I J K L M k N > ",
"# O P Q R S T I U V W o X M + . ",
"_ ) 2 Y Z { ` & V  .! ..+.@.. f ",
"# #.$.%.n &.*.J W m i =.-.p , > ",
";._ >.,.'.,.).!.B v ~.{.C q = ;.",
"f # , ].^.M /.(.=.{.(.C / * r f ",
"f ;.> _.#.:.<.0 0 M :.[.+ = ; > ",
"s s f # > N , @ , @ + ; r r f r ",
"$ ;.g ;.f r f r f ;.e r f f r f "};
