/* XPM */
static char * rollupI_xpm[] = {
"14 15 19 1",
" 	c None",
".	c #939391",
"+	c #898783",
"@	c #9D9C9B",
"#	c #ACACA8",
"$	c #B5B5B4",
"%	c #7D7A75",
"&	c #74706C",
"*	c #645F55",
"=	c #65625F",
"-	c #000000",
";	c #5C5954",
">	c #514E49",
",	c #45443F",
"'	c #D3D2CE",
")	c #D8D6D3",
"!	c #282624",
"~	c #383732",
"{	c #302E2C",
".+..@##$..+...",
"..+@$#..+++%+.",
".+@$.%%&%%&%&.",
"..$.%%%*%%%%=%",
".@@%%%*-*%%%%;",
"@$+&&*---*&&&>",
".$%&*-----*&&,",
".#&*-------';,",
"@@=*)))))))),>",
".+%;!!!!!!%,~&",
"..+>&&&&&%&!>%",
"..+%;;>>,~{,&+",
"@@.+%&=~~,;%+@",
"@@@@.++%+++.@@",
".............."};
