/* XPM */
static char * rolldownA_xpm[] = {
"14 15 27 1",
" 	c None",
".	c #CFCBC7",
"+	c #D7D7D7",
"@	c #EFEBE7",
"#	c #FFFFFF",
"$	c #BEBAB6",
"%	c #AEAAA6",
"&	c #A69E96",
"*	c #8E8A86",
"=	c #8E8686",
"-	c #867D71",
";	c #797971",
">	c #696961",
",	c #696559",
"'	c #797169",
")	c #8E8679",
"!	c #000000",
"~	c #D7D3CF",
"{	c #696561",
"]	c #DFD7D7",
"^	c #595951",
"/	c #DFDBD7",
"(	c #968E86",
"_	c #E7DFDF",
":	c #797569",
"<	c #E7E3DF",
"[	c #494941",
"....+@##......",
"...@#@+.$.$%..",
"+$+#.%%%%%%%&.",
"+.#+$$%$%$%%&%",
"+@@%*=--;>,'%)",
"+#$&!!!!!!!~&{",
".#%&*!!!!!]&&^",
"+#&&&=!!!/&&({",
"++&(&&(!_&&)^:",
"+.%)&&&<&&&{^(",
"..$:&%&%&&([{%",
"++$$)::{{^[{&$",
"+++$$&([^^)%.+",
"@@++..$$$$.+++",
"..++.+.+..++++"};
