/* XPM */
static char * rolldownP_xpm[] = {
"14 15 28 1",
" 	c None",
".	c #CFCBC7",
"+	c #968E86",
"@	c #494941",
"#	c #080C08",
"$	c #000000",
"%	c #383430",
"&	c #8E8679",
"*	c #AEAAA6",
"=	c #BEBAB6",
"-	c #D7D7D7",
";	c #595951",
">	c #696561",
",	c #8E8A86",
"'	c #8E8686",
")	c #867D71",
"!	c #797971",
"~	c #696961",
"{	c #696559",
"]	c #797169",
"^	c #A69E96",
"/	c #D7D3CF",
"(	c #DFD7D7",
"_	c #DFDBD7",
":	c #797569",
"<	c #E7DFDF",
"[	c #E7E3DF",
"}	c #EFEBE7",
"....+@#$......",
"...@$%&*..=...",
"-=@$;*******.-",
"-&$>*****==*=.",
"-%%=,'))!~{]=-",
"-#>^$$$$$$$/^-",
"-$+^,$$$$$(^*-",
"-#^^^'$$$_^^*-",
"-%:+^^+$<^^+=.",
"-:;&^^^[^^^^.=",
"-.@:^*^*^^*=**",
"--=:::>:+*=*^=",
"---=^^+.==*=.-",
"}-}-..=====---",
"..-.--.--.----"};
