/* XPM */
static char * titleRA_xpm[] = {
"15 15 26 1",
" 	c None",
".	c #5A5A5B",
"+	c #5D5E5C",
"@	c #5E5E5C",
"#	c #767674",
"$	c #9FA19C",
"%	c #C9C9C9",
"&	c #CECECC",
"*	c #D4D4D4",
"=	c #AAAAAA",
"-	c #A6A6A4",
";	c #A9A9A7",
">	c #888C88",
",	c #AFB0AE",
"'	c #DBDCDA",
")	c #AEAEAC",
"!	c #BCBCBC",
"~	c #B6B6B4",
"{	c #C2C2C4",
"]	c #B2B2B2",
"^	c #E4E4E2",
"/	c #BABAB6",
"(	c #F1F1F2",
"_	c #FEFEFC",
":	c #FDFDFC",
"<	c #DEDEDC",
".+++@@#$%&&&***",
"==--;;$>>,%%'''",
"))));;;;,$!**&*",
"=))),,,,;,~%**&",
"=---,,,,,;!{'''",
"]~]]~,,~,~~%'^'",
"=)=)~~,,,,,&***",
"====,,~~~,~*%%%",
"/~//,,,,,,!'&%%",
")))),;,,,,%^***",
"=---,;,,,!^'***",
"))]],,;,!^(****",
"=--=~!{*(('''''",
"____:::(^*''***",
"<<<<&&*&*&&**'*"};
