/* XPM */
static char * titleLI_xpm[] = {
"15 15 26 1",
" 	c None",
".	c #919190",
"+	c #979796",
"@	c #7A7A79",
"#	c #5A5A5C",
"$	c #484848",
"%	c #40403E",
"&	c #424242",
"*	c #60605F",
"=	c #505050",
"-	c #686868",
";	c #757574",
">	c #767674",
",	c #7A7A7A",
"'	c #767A74",
")	c #727274",
"!	c #9F9F9D",
"~	c #7E7E7C",
"{	c #828284",
"]	c #828282",
"^	c #878785",
"/	c #AAAAAC",
"(	c #B4B4B4",
"_	c #B6B6B4",
":	c #9E9E9C",
"<	c #9A9A9B",
"...+++++@#$%%&&",
"..+....*%=-;@>,",
"......#%*;;@@,,",
"+.+..@%*@@@;@,,",
"+.+++#=@;;;@;')",
"!!!!+$-~{~{~{~]",
".....%;;@;;;@>,",
"..^..%;;;@@@;,'",
"+!!!!*@{{^^^^]]",
"+++++;-;@@@@@,,",
"++.+++-@;;;;@,'",
"+.+.+.+@~~~~@,,",
"+........^@;;>>",
"++++++++.!/((__",
"!++++++!+++!+:<"};
