/* XPM */
static char * titleLP_xpm[] = {
"15 15 27 1",
" 	c None",
".	c #CCCCCB",
"+	c #D3D4D4",
"@	c #AFB0AE",
"#	c #80807C",
"$	c #686868",
"%	c #5B5B5B",
"&	c #5A5A5B",
"*	c #5D5E5C",
"=	c #868886",
"-	c #727270",
";	c #8E8F8F",
">	c #9E9E9E",
",	c #A9A9A9",
"'	c #AAAAAA",
")	c #AEAEAC",
"!	c #A6A6A4",
"~	c #E2E4E2",
"{	c #DBDBDC",
"]	c #B2B2B2",
"^	c #B6B6B4",
"/	c #BBBCBD",
"(	c #BABAB6",
"_	c #F2F2F4",
":	c #FCFCFC",
"<	c #FEFEFC",
"[	c #DEDEDC",
"...+++++@#$%%&*",
"+.+....=%-;>,''",
".....+#%=,@@@))",
"+.+++,%=,,,,,')",
"+++++#-@,,,,,'!",
"~~{{{$>@@@@@@]^",
".....%>,,@,@,')",
".../.%>,,,@,,''",
"{{~~~=@/@////(^",
"+++++,;,@@,@@))",
"++++++>,,,,,,'!",
"+++++..@@@,@@))",
"........./@,,'!",
"+{+++++++~_::<<",
"{{{{{{{{+{+{{[["};
