/* XPM */
static char * osx_menu_xpm[] = {
"16 16 5 1",
" 	c #EFBEEBADEFBE",
".	c #FFFFFBEEFFFF",
"X	c #FFFFFFFFFFFF",
"o	c #EFBEEBADE79D",
"O	c #FFFFFFFFF7DE",
"                ",
"................",
"XXXXXXXXXXXXXXXX",
"................",
"                ",
"................",
"XXXXXXXXXXXXXXXX",
"................",
"                ",
"................",
"XXXXXXXXXXXXXXXX",
"................",
"oooooooooooooooo",
"................",
"OOOOOOOOOOOOOOOO",
"XXXXXXXXXXXX...."};
