/* XPM */
static char * titlelt_active_xpm[] = {
"6 17 53 1",
" 	c None",
".	c #4E4E4F",
"+	c #868687",
"@	c #575758",
"#	c #9A9A9B",
"$	c #484848",
"%	c #606061",
"&	c #AEAEAF",
"*	c #515151",
"=	c #344066",
"-	c #68686A",
";	c #C2C2C3",
">	c #606060",
",	c #425076",
"'	c #717173",
")	c #D6D6D7",
"!	c #707070",
"~	c #526185",
"{	c #7A7A7C",
"]	c #EAEAEB",
"^	c #808080",
"/	c #607194",
"(	c #838385",
"_	c #FFFFFF",
":	c #8E8E8E",
"<	c #7081A3",
"[	c #9B9B9B",
"}	c #7284A6",
"|	c #A9A9A9",
"1	c #7587A9",
"2	c #B7B7B7",
"3	c #66779A",
"4	c #C5C5C5",
"5	c #57668A",
"6	c #D2D2D2",
"7	c #4A597D",
"8	c #3D4A70",
"9	c #454547",
"0	c #727273",
"a	c #A7A7A7",
"b	c #303C63",
"c	c #3C3C3E",
"d	c #5E5E5F",
"e	c #7F7F7F",
"f	c #273259",
"g	c #333335",
"h	c #4A4A4B",
"i	c #575757",
"j	c #6B6B6B",
"k	c #848484",
"l	c #969696",
"m	c #2A2A2C",
"n	c #363637",
".+++++",
"@#$$$$",
"%&*===",
"-;>,,,",
"')!~~~",
"{]^///",
"(_:<<<",
"{][}}}",
"')|111",
"-;2333",
"%&4555",
"@#6777",
".+4888",
"90abbb",
"cdefff",
"ghijkl",
"mnnnnn"};
