/* XPM */
static char *unsafe-kill-p[] = {
/* width height num_colors chars_per_pixel */
"    16    16      181            2",
/* colors */
".. c #040101",
".# c #050303",
".a c #0a0909",
".b c #0b0202",
".c c #0b0808",
".d c #0e0b0b",
".e c #110201",
".f c #130e0e",
".g c #131111",
".h c #191717",
".i c #1a0707",
".j c #210101",
".k c #252121",
".l c #290909",
".m c #290d0d",
".n c #2a0302",
".o c #2b0303",
".p c #2b2121",
".q c #340403",
".r c #383838",
".s c #392020",
".t c #393838",
".u c #393939",
".v c #3a0302",
".w c #3e3e3e",
".x c #414141",
".y c #420a09",
".z c #421211",
".A c #434343",
".B c #442626",
".C c #454545",
".D c #464646",
".E c #484848",
".F c #494848",
".G c #4a4a4a",
".H c #4b4b4b",
".I c #4c1716",
".J c #4d4d4d",
".K c #4e4e4e",
".L c #4f4f4f",
".M c #500a09",
".N c #500b0a",
".O c #510c0b",
".P c #515151",
".Q c #525252",
".R c #531110",
".S c #565656",
".T c #585858",
".U c #5a0c0a",
".V c #5a5a5a",
".W c #5b5b5b",
".X c #5d5b5b",
".Y c #5d5d5d",
".Z c #5e5e5e",
".0 c #5f5f5f",
".1 c #606060",
".2 c #626262",
".3 c #636363",
".4 c #646363",
".5 c #656565",
".6 c #666262",
".7 c #666464",
".8 c #666666",
".9 c #676565",
"#. c #683f3e",
"## c #686464",
"#a c #686666",
"#b c #696969",
"#c c #6a6868",
"#d c #6a6a6a",
"#e c #6b6b6b",
"#f c #6c6c6c",
"#g c #6d3635",
"#h c #6d6b6b",
"#i c #6d6d6d",
"#j c #6e6d6d",
"#k c #6e6e6e",
"#l c #6f6c6c",
"#m c #6f6f6f",
"#n c #717171",
"#o c #726e6e",
"#p c #73110f",
"#q c #737373",
"#r c #743a39",
"#s c #743d3c",
"#t c #747171",
"#u c #747373",
"#v c #757474",
"#w c #767575",
"#x c #777676",
"#y c #787878",
"#z c #797575",
"#A c #7a100e",
"#B c #7a110f",
"#C c #7b7b7b",
"#D c #7c7a7a",
"#E c #7c7b7b",
"#F c #7c7c7c",
"#G c #7d7b7b",
"#H c #7e4746",
"#I c #7e7e7e",
"#J c #7f7f7f",
"#K c #808080",
"#L c #818181",
"#M c #828181",
"#N c #838282",
"#O c #848484",
"#P c #853a38",
"#Q c #854948",
"#R c #858383",
"#S c #888888",
"#T c #888a88",
"#U c #8a1310",
"#V c #8a1614",
"#W c #8a8a8a",
"#X c #8b1310",
"#Y c #8c5c5b",
"#Z c #8c8a8a",
"#0 c #8c8c8c",
"#1 c #8d6969",
"#2 c #8d8d8d",
"#3 c #908e8e",
"#4 c #909090",
"#5 c #921f1d",
"#6 c #928e8e",
"#7 c #931310",
"#8 c #944241",
"#9 c #946968",
"a. c #949494",
"a# c #951310",
"aa c #951411",
"ab c #959595",
"ac c #969696",
"ad c #989898",
"ae c #999595",
"af c #999999",
"ag c #9a9a9a",
"ah c #9b9797",
"ai c #9b9999",
"aj c #9b9a9a",
"ak c #9b9b9b",
"al c #9c2320",
"am c #9c9c9c",
"an c #9d9d9d",
"ao c #9e9e9e",
"ap c #9f9e9e",
"aq c #a0a0a0",
"ar c #a2a0a0",
"as c #a39f9f",
"at c #a3a3a3",
"au c #a46362",
"av c #a4a4a4",
"aw c #a5a5a5",
"ax c #a7a7a7",
"ay c #a8a8a8",
"az c #a9a9a9",
"aA c #aaaaaa",
"aB c #acaaaa",
"aC c #acacac",
"aD c #adadad",
"aE c #aeacac",
"aF c #afafaf",
"aG c #b0adad",
"aH c #b0b0b0",
"aI c #b1b1b1",
"aJ c #b37877",
"aK c #b38f8e",
"aL c #b49090",
"aM c #bcb9b9",
"aN c #c5c4c6",
"aO c #c6c0c0",
"aP c #c8c3c3",
"aQ c #c97b79",
"aR c #cac5c5",
"aS c #cac8c8",
"aT c #cfa5a4",
"aU c #d9d4d4",
"aV c #f5f1f1",
"aW c #f8dfde",
"aX c #f8f5f5",
"aY c #fe5e5a",
/* pixels */
".J.K.P.K.G.C.C.C.A.w.u.u.u.r.x.H",
".L.T.5.8.2.Y.Z.Y.V.S.P.Q.P.Q#f#W",
".P.5#T#D#G#N#K#I#F#y#u#h#l#ta.aD",
".K.8.6.f.h.t#M#L#I#x.a.i.s#oafaI",
".G.2.X...e.p.F#E#v.#.b.N#g#6afaH",
".C.Y#c.g.l.y.B.z.n.o.M#saPajagaI",
".D.0#K.9.k.R#p#A#B#p#raUap#qagaF",
".E.2#J#L.4.I#U#7#7#XaKar#a#nadaA",
".E.3#I#I#v.qaaaYaYa#aL#u.7#macay",
".A.1#C#x.c.v#Xa#al#X#1ai#j#iabay",
".w.W#w.d.j.U#QaJau#P#V#9aG#mabaz",
".w.W##.m.O#YaXaB#3ah#8#5aTaM#4at",
".w.W#z#.#HaVaE#e#b#RaRaQaWaS#0ao",
".w.Y#Zaeasan#n#k#f#dabaOaSaN#0an",
".J#Iadafadada.#4#2#0#0#S#O#Oacao",
"#yayaIaIaHaIaCaxawavawaqakafaman"
};
