/* XPM */
static char *unsafe-kill[] = {
/* width height num_colors chars_per_pixel */
"    16    16      204            2",
/* colors */
".. c #040101",
".# c #050303",
".a c #050505",
".b c #0a0909",
".c c #0a0a0a",
".d c #0b0202",
".e c #0b0808",
".f c #0c0c0c",
".g c #0e0b0b",
".h c #0f0f0f",
".i c #110201",
".j c #111111",
".k c #121212",
".l c #130e0e",
".m c #131111",
".n c #131313",
".o c #151515",
".p c #161616",
".q c #191717",
".r c #1a0707",
".s c #1a1a1a",
".t c #1c1c1c",
".u c #1e1e1e",
".v c #1f1f1f",
".w c #210101",
".x c #212121",
".y c #222222",
".z c #242424",
".A c #252121",
".B c #262626",
".C c #290909",
".D c #290d0d",
".E c #292929",
".F c #2a0302",
".G c #2a2a2a",
".H c #2b0303",
".I c #2b2121",
".J c #2b2b2b",
".K c #2c2c2c",
".L c #2f2f2f",
".M c #323232",
".N c #333333",
".O c #340403",
".P c #363636",
".Q c #383838",
".R c #392020",
".S c #393838",
".T c #3a0302",
".U c #3b3b3b",
".V c #3c3c3c",
".W c #3e3e3e",
".X c #420a09",
".Y c #421211",
".Z c #434343",
".0 c #442626",
".1 c #444444",
".2 c #474747",
".3 c #494848",
".4 c #4c1716",
".5 c #4c4c4c",
".6 c #500a09",
".7 c #500b0a",
".8 c #505050",
".9 c #510c0b",
"#. c #531110",
"## c #5a0c0a",
"#a c #5a5a5a",
"#b c #5b5b5b",
"#c c #5d5b5b",
"#d c #5e5e5e",
"#e c #5f5f5f",
"#f c #616161",
"#g c #626161",
"#h c #626262",
"#i c #636363",
"#j c #646363",
"#k c #646464",
"#l c #656565",
"#m c #666262",
"#n c #666464",
"#o c #676565",
"#p c #683f3e",
"#q c #686464",
"#r c #686666",
"#s c #696969",
"#t c #6b6b6b",
"#u c #6c6c6c",
"#v c #6d3635",
"#w c #6d6b6b",
"#x c #6e6d6d",
"#y c #6f6c6c",
"#z c #6f6d6d",
"#A c #726e6e",
"#B c #727272",
"#C c #73110f",
"#D c #743a39",
"#E c #743d3c",
"#F c #747171",
"#G c #747373",
"#H c #757474",
"#I c #777676",
"#J c #797575",
"#K c #7a100e",
"#L c #7a110f",
"#M c #7c7a7a",
"#N c #7c7b7b",
"#O c #7d7b7b",
"#P c #7e4746",
"#Q c #7e7d7d",
"#R c #7e7e7e",
"#S c #818181",
"#T c #828181",
"#U c #848484",
"#V c #853a38",
"#W c #854948",
"#X c #858383",
"#Y c #868686",
"#Z c #878787",
"#0 c #888888",
"#1 c #8a1310",
"#2 c #8a1614",
"#3 c #8a8888",
"#4 c #8b1310",
"#5 c #8c5c5b",
"#6 c #8c8a8a",
"#7 c #8c8b8b",
"#8 c #8c8c8c",
"#9 c #8d6969",
"a. c #908e8e",
"a# c #919090",
"aa c #919191",
"ab c #921f1d",
"ac c #928e8e",
"ad c #931310",
"ae c #944241",
"af c #946968",
"ag c #951310",
"ah c #951411",
"ai c #969595",
"aj c #989898",
"ak c #999595",
"al c #999999",
"am c #9b9797",
"an c #9b9999",
"ao c #9c2320",
"ap c #9c9c9c",
"aq c #9d9d9d",
"ar c #9f9e9e",
"as c #9f9f9f",
"at c #a1a1a1",
"au c #a2a0a0",
"av c #a2a2a2",
"aw c #a39f9f",
"ax c #a3a3a3",
"ay c #a46362",
"az c #a6a6a6",
"aA c #aaaaaa",
"aB c #ababab",
"aC c #acaaaa",
"aD c #acacac",
"aE c #adadad",
"aF c #aeacac",
"aG c #afafaf",
"aH c #b0adad",
"aI c #b1b1b1",
"aJ c #b2b2b2",
"aK c #b37877",
"aL c #b38f8e",
"aM c #b49090",
"aN c #b6b6b6",
"aO c #b7b7b7",
"aP c #b8b8b8",
"aQ c #bababa",
"aR c #bcb9b9",
"aS c #bcbcbc",
"aT c #bdbdbd",
"aU c #bebebe",
"aV c #bfbfbf",
"aW c #c3c3c3",
"aX c #c4c4c4",
"aY c #c5c4c6",
"aZ c #c6c0c0",
"a0 c #c8c3c3",
"a1 c #c8c8c8",
"a2 c #c97b79",
"a3 c #c9c9c9",
"a4 c #cac5c5",
"a5 c #cacac8",
"a6 c #cbcbcb",
"a7 c #cecece",
"a8 c #cfa5a4",
"a9 c #cfcfcf",
"b. c #d0d0d0",
"b# c #d4d4d4",
"ba c #d5d5d5",
"bb c #d7d7d7",
"bc c #d9d4d4",
"bd c #dddddd",
"be c #dedede",
"bf c #e3e3e3",
"bg c #f5f1f1",
"bh c #f8dfde",
"bi c #f8f5f5",
"bj c #fe5e5a",
/* pixels */
"bfbebbb#b#baa9a6a3a1a3aWaVaSaEas",
"bdb.aTaPaPaOaJaGaDaDaBazaxap#R#a",
"bbaT#3#M#O#7#8#0#Y#U#Q#w#y#F.8.N",
"b#aP#m.l.q.S#T#S#R#I.b.r.R#A.2.J",
"b#aP#c...i.I.3#N#H.#.d.7#vac.Z.B",
"baaO#z.m.C.X.0.Y.F.H.6#Ea0ai.V.x",
"a7aI#8#o.A#.#C#K#L#C#Dbcar#i.Q.v",
"a1aA#Z#S#j.4#1adad#4aLau#r#f.P.u",
"aXax#U#R#H.OahbjbjagaM#G#n#e.M.t",
"aWav#S#I.e.T#4agao#4#9an#x#b.L.p",
"aXat#N.g.w###WaKay#V#2afaH#g.E.j",
"aUaq#q.D.9#5biaCa.amaeaba8aR.G.n",
"aQal#J#p#PbgaF#t#s#Xa4a2bha5.G.k",
"aNaa#6akawaj#l#k#h#da#aZa5aY.z.h",
"at#u.5.2.1.W.W.W.U.Q.M.M.M.K.p.c",
"#B.V.L.J.B.x.y.x.v.s.o.p.o.n.f.a"
};
