/* XPM */
static char *unsafe-menu[] = {
/* width height num_colors chars_per_pixel */
"    16    16      196            2",
/* colors */
".. c #020101",
".# c #020202",
".a c #030202",
".b c #040202",
".c c #050505",
".d c #060201",
".e c #0a0a0a",
".f c #0c0303",
".g c #0c0c0c",
".h c #0f0f0f",
".i c #111111",
".j c #121212",
".k c #131313",
".l c #151515",
".m c #161616",
".n c #1a0202",
".o c #1a1a1a",
".p c #1c1c1c",
".q c #1d0b0b",
".r c #1e1e1e",
".s c #1f1f1f",
".t c #212121",
".u c #220909",
".v c #222222",
".w c #230f0f",
".x c #232121",
".y c #242424",
".z c #262626",
".A c #281515",
".B c #291717",
".C c #292929",
".D c #2a2a2a",
".E c #2b2828",
".F c #2b2b2b",
".G c #2c2c2c",
".H c #2f2f2f",
".I c #323232",
".J c #333333",
".K c #363636",
".L c #380908",
".M c #383838",
".N c #390908",
".O c #391110",
".P c #3a1110",
".Q c #3a3636",
".R c #3a3939",
".S c #3b3b3b",
".T c #3c3c3c",
".U c #3e2424",
".V c #3e3e3e",
".W c #414040",
".X c #423e3e",
".Y c #434343",
".Z c #444444",
".0 c #452323",
".1 c #473535",
".2 c #474747",
".3 c #4a0807",
".4 c #4a1a19",
".5 c #4a1b1a",
".6 c #4b0807",
".7 c #4c4c4c",
".8 c #4d2b2a",
".9 c #4f4f4f",
"#. c #505050",
"## c #512e2e",
"#a c #520a09",
"#b c #530a09",
"#c c #555555",
"#d c #565656",
"#e c #585858",
"#f c #595959",
"#g c #5a5a5a",
"#h c #5b1918",
"#i c #5d5c5c",
"#j c #5e5d5d",
"#k c #620a08",
"#l c #622827",
"#m c #636262",
"#n c #642827",
"#o c #695353",
"#p c #695454",
"#q c #6a6a6a",
"#r c #6b1210",
"#s c #6b3130",
"#t c #6b3231",
"#u c #6b6868",
"#v c #6b6b6b",
"#w c #6c110f",
"#x c #6c6c6c",
"#y c #6d4c4c",
"#z c #6d6d6d",
"#A c #6f6e6e",
"#B c #727272",
"#C c #731210",
"#D c #731a18",
"#E c #732321",
"#F c #732422",
"#G c #737373",
"#H c #747373",
"#I c #747474",
"#J c #757474",
"#K c #757575",
"#L c #767373",
"#M c #777575",
"#N c #7a1210",
"#O c #7a7a7a",
"#P c #7b110f",
"#Q c #7c7b7b",
"#R c #7c7c7c",
"#S c #7d7c7c",
"#T c #7d7d7d",
"#U c #7e7e7e",
"#V c #808080",
"#W c #817d7d",
"#X c #817e7e",
"#Y c #831411",
"#Z c #831917",
"#0 c #842220",
"#1 c #843a38",
"#2 c #843b39",
"#3 c #845453",
"#4 c #855453",
"#5 c #868686",
"#6 c #8a1310",
"#7 c #8b1310",
"#8 c #8b1411",
"#9 c #909090",
"a. c #919191",
"a# c #929292",
"aa c #931917",
"ab c #931b18",
"ac c #931c19",
"ad c #933331",
"ae c #941c19",
"af c #942b29",
"ag c #943331",
"ah c #999999",
"ai c #9a1b18",
"aj c #9b1b18",
"ak c #9c9c9c",
"al c #9d9d9d",
"am c #9f9f9f",
"an c #a1a1a1",
"ao c #a2a2a2",
"ap c #a34846",
"aq c #a3a3a3",
"ar c #a57e7d",
"as c #a57f7e",
"at c #a6a6a6",
"au c #a7a0a0",
"av c #a7a1a1",
"aw c #aaaaaa",
"ax c #ab5250",
"ay c #ababab",
"az c #acacac",
"aA c #adadad",
"aB c #af2e2b",
"aC c #afafaf",
"aD c #b1b1b1",
"aE c #b2b2b2",
"aF c #b6b1b1",
"aG c #b6b6b6",
"aH c #b7b7b7",
"aI c #b8b8b8",
"aJ c #bababa",
"aK c #bcbcbc",
"aL c #bdbdbd",
"aM c #bebebe",
"aN c #bfbbbb",
"aO c #bfbfbf",
"aP c #c26765",
"aQ c #c3c3c3",
"aR c #c4c4c4",
"aS c #c58584",
"aT c #c68483",
"aU c #c7c3c3",
"aV c #c8c8c8",
"aW c #c9c9c9",
"aX c #cbcbcb",
"aY c #cec6c6",
"aZ c #cecece",
"a0 c #cfcfcf",
"a1 c #d0d0d0",
"a2 c #d4cccc",
"a3 c #d4d4d4",
"a4 c #d5d5d5",
"a5 c #d7d7d7",
"a6 c #dddddd",
"a7 c #dedede",
"a8 c #e3e3e3",
"a9 c #f5d7d7",
"b. c #f6b3b1",
"b# c #f7e8e8",
"ba c #f85a56",
"bb c #fcf8f8",
/* pixels */
"a8a7a5a3a3a4a0aXaWaVaWaQaOaKaAam",
"a6a1aLaIaIaHaEaCazazayataqak#U#g",
"a5aLaha##9#H.7.Q.X#j#M#V#R#K#..J",
"a3aIa##5.R...d.w.u.B.1#u#I#z.2.F",
"a3aI#9.R.a.q.0.8.4.P.N###L#q.Y.z",
"a4aH#H.#.q#yar#3#t#h#a.3#p#v.T.t",
"aZaD.W.b.UasbbaT#1#F#r#k#n#X.M.s",
"aVaw.x.f.8#4aSaxad#0#N#C#Dav.K.r",
"aRaq.E.n.5#s#2agafab#7#6#ZaY.I.p",
"aQao#i.A.O#h#E#0acaeaiaaaPaF.H.m",
"aRan#J.1.L#b#r#P#8ajbaaBb##S.C.i",
"aMal#T#u##.6#k#C#7aaaBb.aU#d.D.k",
"aJah#O#I#L#o#l#w#Yapa9aU#m#c.D.j",
"aGa.#G#z#q#A#Waua2aN#Q#f#e.9.y.h",
"an#x.7.2.Z.V.V.V.S.M.I.I.I.G.m.e",
"#B.T.H.F.z.t.v.t.s.o.l.m.l.k.g.c"
};
