/* XPM */
static char *unsafe-menu-p[] = {
/* width height num_colors chars_per_pixel */
"    16    16      171            2",
/* colors */
".. c #020101",
".# c #020202",
".a c #030202",
".b c #040202",
".c c #060201",
".d c #0c0303",
".e c #1a0202",
".f c #1d0b0b",
".g c #220909",
".h c #230f0f",
".i c #232121",
".j c #281515",
".k c #291717",
".l c #2b2828",
".m c #380908",
".n c #383838",
".o c #390908",
".p c #391110",
".q c #393939",
".r c #3a1110",
".s c #3a3636",
".t c #3a3939",
".u c #3e2424",
".v c #3e3e3e",
".w c #3f3d3d",
".x c #414141",
".y c #423e3e",
".z c #434343",
".A c #452323",
".B c #454545",
".C c #464646",
".D c #473535",
".E c #484848",
".F c #494949",
".G c #4a0807",
".H c #4a1a19",
".I c #4a1b1a",
".J c #4a4a4a",
".K c #4b0807",
".L c #4b4b4b",
".M c #4d2b2a",
".N c #4d4d4d",
".O c #4e4e4e",
".P c #4f4f4f",
".Q c #512e2e",
".R c #515151",
".S c #520a09",
".T c #525252",
".U c #530a09",
".V c #565656",
".W c #585858",
".X c #5a5a5a",
".Y c #5b1918",
".Z c #5b5b5b",
".0 c #5c5b5b",
".1 c #5d5d5d",
".2 c #5e5e5e",
".3 c #5f5f5f",
".4 c #606060",
".5 c #620a08",
".6 c #622827",
".7 c #626262",
".8 c #636262",
".9 c #636363",
"#. c #642827",
"## c #656565",
"#a c #666666",
"#b c #676767",
"#c c #686868",
"#d c #695353",
"#e c #695454",
"#f c #6b1210",
"#g c #6b3130",
"#h c #6b3231",
"#i c #6b6868",
"#j c #6c110f",
"#k c #6c6b6b",
"#l c #6c6c6c",
"#m c #6d4c4c",
"#n c #6f6e6e",
"#o c #716f6f",
"#p c #727272",
"#q c #731210",
"#r c #731a18",
"#s c #732321",
"#t c #732422",
"#u c #747373",
"#v c #747474",
"#w c #757575",
"#x c #767373",
"#y c #767676",
"#z c #777575",
"#A c #777777",
"#B c #787878",
"#C c #7a1210",
"#D c #7b110f",
"#E c #7e7e7e",
"#F c #831411",
"#G c #831917",
"#H c #842220",
"#I c #843a38",
"#J c #843b39",
"#K c #845453",
"#L c #848080",
"#M c #848181",
"#N c #848282",
"#O c #848484",
"#P c #855453",
"#Q c #858585",
"#R c #868686",
"#S c #888787",
"#T c #888888",
"#U c #8a1310",
"#V c #8a8a8a",
"#W c #8b1310",
"#X c #8b1411",
"#Y c #8c8c8c",
"#Z c #8d8d8d",
"#0 c #909090",
"#1 c #931917",
"#2 c #931b18",
"#3 c #931c19",
"#4 c #933331",
"#5 c #941c19",
"#6 c #942b29",
"#7 c #943331",
"#8 c #949494",
"#9 c #959595",
"a. c #969696",
"a# c #989898",
"aa c #999999",
"ab c #9a1b18",
"ac c #9a9a9a",
"ad c #9b1b18",
"ae c #9b9b9b",
"af c #9c9c9c",
"ag c #9d9d9d",
"ah c #9e9e9e",
"ai c #a0a0a0",
"aj c #a34846",
"ak c #a3a3a3",
"al c #a4a4a4",
"am c #a57e7d",
"an c #a57f7e",
"ao c #a5a5a5",
"ap c #a7a0a0",
"aq c #a7a1a1",
"ar c #a7a7a7",
"as c #a8a8a8",
"at c #a9a9a9",
"au c #aaaaaa",
"av c #ab5250",
"aw c #acacac",
"ax c #adadad",
"ay c #af2e2b",
"az c #afafaf",
"aA c #b0b0b0",
"aB c #b1b1b1",
"aC c #bab5b5",
"aD c #c26765",
"aE c #c2bdbd",
"aF c #c58584",
"aG c #c68483",
"aH c #c7c3c3",
"aI c #cec6c6",
"aJ c #d4cccc",
"aK c #f5d7d7",
"aL c #f6b3b1",
"aM c #f7e8e8",
"aN c #f85a56",
"aO c #fcf8f8",
/* pixels */
".N.O.R.O.J.B.B.B.z.v.q.q.q.n.x.L",
".P.W###a.7.1.2.1.X.V.R.T.R.T#l#V",
".R###Q#T#O#l.F.s.y.0#n#v#p#w#8ax",
".O#a#T#R.t...c.h.g.k.D#i#v#AaaaB",
".J.7#O.t.a.f.A.M.H.r.o.Q#x#yaaaA",
".B.1#k.#.f#mam#K#h.Y.S.G#e#uacaB",
".C.3.w.b.uanaOaG#I#t#f.5#.#Macaz",
".E.7.i.d.M#PaFav#4#H#C#q#raqa#au",
".E.9.l.e.I#g#J#7#6#2#W#U#GaIa.as",
".z.4.0.j.p.Y#s#H#3#5ab#1aDaC#9as",
".v.Z#o.D.m.U#f#D#XadaNayaM#S#9at",
".v.Z#A#i.Q.K.5#q#W#1ayaLaH#c#0ak",
".v.Z#v#v#x#d.6#j#FajaKaH.8###Yah",
".v.1#A#A#y#z#LapaJaE#N##.7#b#Yag",
".N#Ea#aaa#a##8#0#Z#Y#Y#T#O#Oa.ah",
"#BasaBaBaAaBawaraoalaoaiaeaaafag"
};
