/* XPM */
static char *unsafe-iconize-p[] = {
/* width height num_colors chars_per_pixel */
"    16    16      149            2",
/* colors */
".. c #000000",
".# c #111111",
".a c #222222",
".b c #2a2a2a",
".c c #330b0a",
".d c #343434",
".e c #351f1f",
".f c #363636",
".g c #373737",
".h c #383838",
".i c #393939",
".j c #3e3535",
".k c #3e3e3e",
".l c #414141",
".m c #434343",
".n c #454545",
".o c #464646",
".p c #473030",
".q c #483737",
".r c #484848",
".s c #493939",
".t c #4a4a4a",
".u c #4b4b4b",
".v c #4d4d4d",
".w c #4e4e4e",
".x c #4f4f4f",
".y c #515151",
".z c #522524",
".A c #525252",
".B c #565656",
".C c #571b1a",
".D c #585858",
".E c #5a5a5a",
".F c #5b5b5b",
".G c #5c5c5c",
".H c #5d5d5d",
".I c #5e5e5e",
".J c #5f5f5f",
".K c #606060",
".L c #626262",
".M c #636363",
".N c #643736",
".O c #646464",
".P c #656565",
".Q c #666666",
".R c #676767",
".S c #686868",
".T c #69110f",
".U c #696969",
".V c #6c6c6c",
".W c #6d4645",
".X c #6d6d6d",
".Y c #6f6f6f",
".Z c #704140",
".0 c #707070",
".1 c #717171",
".2 c #721210",
".3 c #726262",
".4 c #727272",
".5 c #733635",
".6 c #737373",
".7 c #747474",
".8 c #757575",
".9 c #767676",
"#. c #777777",
"## c #787878",
"#a c #7a7a7a",
"#b c #7b7b7b",
"#c c #7c7c7c",
"#d c #7d7d7d",
"#e c #7e4140",
"#f c #7e7e7e",
"#g c #7f7f7f",
"#h c #803c3b",
"#i c #806463",
"#j c #808080",
"#k c #811412",
"#l c #832725",
"#m c #843f3e",
"#n c #848484",
"#o c #851916",
"#p c #871513",
"#q c #888888",
"#r c #895554",
"#s c #8a4544",
"#t c #8a8a8a",
"#u c #8c2c2a",
"#v c #8c8c8c",
"#w c #8d1816",
"#x c #8d3533",
"#y c #8d8d8d",
"#z c #8e211f",
"#A c #909090",
"#B c #941f1d",
"#C c #949494",
"#D c #959595",
"#E c #961d1b",
"#F c #969696",
"#G c #989898",
"#H c #999999",
"#I c #9a9a9a",
"#J c #9b9b9b",
"#K c #9c9c9c",
"#L c #9d9d9d",
"#M c #9e9191",
"#N c #9e9e9e",
"#O c #a05250",
"#P c #a0a0a0",
"#Q c #a34947",
"#R c #a3a3a3",
"#S c #a4a4a4",
"#T c #a5a5a5",
"#U c #a7a7a7",
"#V c #a8a8a8",
"#W c #a9a9a9",
"#X c #aaaaaa",
"#Y c #acacac",
"#Z c #ad4f4d",
"#0 c #adadad",
"#1 c #ae6e6c",
"#2 c #afafaf",
"#3 c #b0b0b0",
"#4 c #b1b1b1",
"#5 c #b3413f",
"#6 c #bb4e4c",
"#7 c #bdbdbd",
"#8 c #beaeae",
"#9 c #bfbfbf",
"a. c #c37573",
"a# c #c98281",
"aa c #c9c9c9",
"ab c #cdcdcd",
"ac c #cf7371",
"ad c #d29695",
"ae c #d3c8c8",
"af c #d5c0c0",
"ag c #d6c8c7",
"ah c #d9d9d9",
"ai c #dddddd",
"aj c #e08886",
"ak c #e4cccb",
"al c #e7cdcc",
"am c #eaa6a5",
"an c #eebfbe",
"ao c #f2f2f2",
"ap c #fac6c5",
"aq c #fef9f9",
"ar c #ff625e",
"as c #ffffff",
/* pixels */
".v.w.y.w.t.n.n.n.m.k.i.i.i.h.l.u",
".x.D.P.Q.L.H.I.H.E.B.y.A.y.A.V#t",
".y.P.f...#.#.b.b.b.b.m.mab#9#C#0",
".w.Q.g...a.3#i.W.N.Z.z.c.pai#H#4",
".t.L.H.d#8asaqapama##h.Caeai#H#3",
".n.H#c.m.ean#1#O#x#l.T#eas#d#I#4",
".o.J#j.H.jada..2#k#p#kaf#4.6#I#2",
".r.L#g#c.m#raj#z#w#E#Qao.1.1#G#X",
".r.M#f#f.G.sac#5#Earal#7.U.Y#F#V",
".m.K#b#c.9.m#m#6#B#Zas.0.R.X#D#V",
".k.F###a#..E.q#u#oakaa.R.O.V#D#W",
".k.F#.#..8.0.m.5#sas.0.O.L.S#A#R",
".k.F.7.8.4.0.1#Magah.O.L.J.P#v#N",
".k.H#.#..9.8.6.7.7.4.U.P.L.R#v#L",
".v#f#G#H#G#G#C#A#y#v#v#q#n#n#F#N",
"###V#4#4#3#4#Y#U#T#S#T#P#J#H#K#L"
};
