/* XPM */
static char *unsafe-iconize[] = {
/* width height num_colors chars_per_pixel */
"    16    16      171            2",
/* colors */
".. c #000000",
".# c #050505",
".a c #0a0a0a",
".b c #0c0c0c",
".c c #0f0f0f",
".d c #111111",
".e c #121212",
".f c #131313",
".g c #151515",
".h c #161616",
".i c #1a1a1a",
".j c #1c1c1c",
".k c #1e1e1e",
".l c #1f1f1f",
".m c #212121",
".n c #222222",
".o c #242424",
".p c #262626",
".q c #292929",
".r c #2a2a2a",
".s c #2b2b2b",
".t c #2c2c2c",
".u c #2f2f2f",
".v c #323232",
".w c #330a09",
".x c #333333",
".y c #343434",
".z c #351f1f",
".A c #363636",
".B c #383838",
".C c #393939",
".D c #3b3b3b",
".E c #3c3c3c",
".F c #3e3535",
".G c #3e3e3e",
".H c #434343",
".I c #444444",
".J c #473030",
".K c #474747",
".L c #483737",
".M c #493939",
".N c #4c4c4c",
".O c #4f4f4f",
".P c #505050",
".Q c #522524",
".R c #555555",
".S c #565656",
".T c #571b1a",
".U c #585858",
".V c #595959",
".W c #5a5a5a",
".X c #5b5b5b",
".Y c #5c5c5c",
".Z c #5d5d5d",
".0 c #5f5f5f",
".1 c #606060",
".2 c #616161",
".3 c #626262",
".4 c #636363",
".5 c #643736",
".6 c #646464",
".7 c #676767",
".8 c #69110f",
".9 c #696969",
"#. c #6a6a6a",
"## c #6c6c6c",
"#a c #6d4645",
"#b c #6d6d6d",
"#c c #704140",
"#d c #707070",
"#e c #717171",
"#f c #721210",
"#g c #726262",
"#h c #727272",
"#i c #733635",
"#j c #737373",
"#k c #757575",
"#l c #767676",
"#m c #777777",
"#n c #7a7a7a",
"#o c #7c7c7c",
"#p c #7d7d7d",
"#q c #7e4140",
"#r c #7e7e7e",
"#s c #803c3b",
"#t c #806463",
"#u c #808080",
"#v c #811412",
"#w c #818181",
"#x c #832725",
"#y c #843f3e",
"#z c #848484",
"#A c #851916",
"#B c #871513",
"#C c #878787",
"#D c #895554",
"#E c #8a4544",
"#F c #8c2c2a",
"#G c #8c8c8c",
"#H c #8d1816",
"#I c #8d3533",
"#J c #8e211f",
"#K c #919191",
"#L c #941f1d",
"#M c #961d1b",
"#N c #999999",
"#O c #9c9c9c",
"#P c #9d9d9d",
"#Q c #9e9191",
"#R c #9f9f9f",
"#S c #a05250",
"#T c #a1a1a1",
"#U c #a2a2a2",
"#V c #a34947",
"#W c #a3a3a3",
"#X c #a6a6a6",
"#Y c #aaaaaa",
"#Z c #ababab",
"#0 c #acacac",
"#1 c #ad4f4d",
"#2 c #adadad",
"#3 c #ae6e6c",
"#4 c #afafaf",
"#5 c #b1b1b1",
"#6 c #b2b2b2",
"#7 c #b3413f",
"#8 c #b6b6b6",
"#9 c #b7b7b7",
"a. c #b8b8b8",
"a# c #bababa",
"aa c #bb4e4c",
"ab c #bcbcbc",
"ac c #bdbdbd",
"ad c #beaeae",
"ae c #bebebe",
"af c #bfbfbf",
"ag c #c37573",
"ah c #c3c3c3",
"ai c #c4c4c4",
"aj c #c8c8c8",
"ak c #c98281",
"al c #c9c9c9",
"am c #cbcbcb",
"an c #cdcdcd",
"ao c #cecece",
"ap c #cf7371",
"aq c #cfcfcf",
"ar c #d0d0d0",
"as c #d29695",
"at c #d3c8c8",
"au c #d4d4d4",
"av c #d5c0c0",
"aw c #d5d5d5",
"ax c #d6c8c7",
"ay c #d7d7d7",
"az c #d9d9d9",
"aA c #dadada",
"aB c #dbdbdb",
"aC c #dddddd",
"aD c #dedede",
"aE c #e08886",
"aF c #e3e3e3",
"aG c #e4cccb",
"aH c #e7cdcc",
"aI c #eaa6a5",
"aJ c #eebfbe",
"aK c #f2f2f2",
"aL c #fac6c5",
"aM c #fef9f9",
"aN c #ff615d",
"aO c #ffffff",
/* pixels */
"aFaDayauauawaqamalajalahafab#2#R",
"aCaraca.a.#9#6#4#0#0#Z#X#W#O#r.W",
"ayac.D...d.d.r.r.r.r.H.Hanaf.P.x",
"aua..C...n#g#t#a.5#c.Q.w.JaB.K.s",
"aua..1.yadaOaMaLaIak#s.TataA.H.p",
"aw#9#C.H.zaJ#3#S#I#x.8#qaO#e.E.m",
"ao#5#G.Z.Fasag#f#v#B#vav#5.4.B.l",
"aj#Y#C#o.H#DaE#J#H#M#VaK#e.2.A.k",
"ai#W#z#r.Y.Map#7#MaNaHac.9.0.v.j",
"ah#U#w#o#l.H#yaa#L#1aO#d.7.X.u.h",
"ai#T#u#n#m.W.L#F#AaGal.7.6.U.q.d",
"ae#P#p#m#k#d.H#i#EaO#d.6.3.S.r.f",
"a##N#n#k#h#d#e#Qaxaz.6.3.0.R.r.e",
"#8#K#j#b#..7#.#b##.9.X.V.U.O.o.c",
"#T##.N.K.I.G.G.G.D.B.v.v.v.t.h.a",
"#h.E.u.s.p.m.n.m.l.i.g.h.g.f.b.#"
};
