/* XPM */
static char *unsafe-switch-p[] = {
/* width height num_colors chars_per_pixel */
"    16    16      161            2",
/* colors */
".. c #010101",
".# c #020202",
".a c #060606",
".b c #090505",
".c c #160f0f",
".d c #161313",
".e c #161616",
".f c #171111",
".g c #181818",
".h c #1a1717",
".i c #1e1e1e",
".j c #220000",
".k c #221919",
".l c #2c0100",
".m c #2e2e2e",
".n c #313131",
".o c #323232",
".p c #342424",
".q c #370100",
".r c #380201",
".s c #383838",
".t c #392d2d",
".u c #393939",
".v c #3a0100",
".w c #3b0706",
".x c #3e3e3e",
".y c #3f3939",
".z c #3f3f3f",
".A c #404040",
".B c #414141",
".C c #422d2d",
".D c #434343",
".E c #454545",
".F c #464646",
".G c #470100",
".H c #484848",
".I c #4a4a4a",
".J c #4b4b4b",
".K c #4c3131",
".L c #4d0201",
".M c #4d4d4d",
".N c #4e4e4e",
".O c #4f4f4f",
".P c #515151",
".Q c #525252",
".R c #550200",
".S c #565656",
".T c #571211",
".U c #585858",
".V c #590e0c",
".W c #5a5a5a",
".X c #5b5b5b",
".Y c #5d5d5d",
".Z c #5e0b09",
".0 c #5e5e5e",
".1 c #5f5f5f",
".2 c #600200",
".3 c #606060",
".4 c #620301",
".5 c #626262",
".6 c #636363",
".7 c #656565",
".8 c #666666",
".9 c #680200",
"#. c #683534",
"## c #6a6a6a",
"#a c #6b0c0a",
"#b c #6b6868",
"#c c #6b6b6b",
"#d c #6c6c6c",
"#e c #6d6d6d",
"#f c #6e0402",
"#g c #6e6e6e",
"#h c #6f6f6f",
"#i c #707070",
"#j c #715a5a",
"#k c #717171",
"#l c #721311",
"#m c #727272",
"#n c #737373",
"#o c #747474",
"#p c #757575",
"#q c #767676",
"#r c #77110f",
"#s c #777777",
"#t c #787878",
"#u c #797979",
"#v c #7a7a7a",
"#w c #7b2523",
"#x c #7c5e5d",
"#y c #7c7c7c",
"#z c #7e7e7e",
"#A c #7f0b08",
"#B c #800f0d",
"#C c #808080",
"#D c #810e0c",
"#E c #816565",
"#F c #818181",
"#G c #838383",
"#H c #846564",
"#I c #848484",
"#J c #858585",
"#K c #861512",
"#L c #866362",
"#M c #868686",
"#N c #888888",
"#O c #8a8a8a",
"#P c #8c8c8c",
"#Q c #8d8d8d",
"#R c #909090",
"#S c #919191",
"#T c #949494",
"#U c #959595",
"#V c #969696",
"#W c #974b49",
"#X c #989898",
"#Y c #999999",
"#Z c #9a9a9a",
"#0 c #9b9b9b",
"#1 c #9c9c9c",
"#2 c #9d9d9d",
"#3 c #9e9e9e",
"#4 c #a05755",
"#5 c #a0a0a0",
"#6 c #a3a3a3",
"#7 c #a46a69",
"#8 c #a4a4a4",
"#9 c #a5a5a5",
"a. c #a7a7a7",
"a# c #a8a8a8",
"aa c #a9a9a9",
"ab c #aaaaaa",
"ac c #aca6a6",
"ad c #acacac",
"ae c #adadad",
"af c #af120f",
"ag c #afafaf",
"ah c #b0b0b0",
"ai c #b1b1b1",
"aj c #b7b7b7",
"ak c #b8b8b8",
"al c #b9b9b9",
"am c #c8bbbb",
"an c #c8c8c8",
"ao c #d3c6c6",
"ap c #d9c1c1",
"aq c #dca2a1",
"ar c #dcdcdc",
"as c #e0e0e0",
"at c #e3e3e3",
"au c #ebebeb",
"av c #f3f3f3",
"aw c #f4d4d3",
"ax c #f4f4f4",
"ay c #f8b7b5",
"az c #f8f8f8",
"aA c #fde6e6",
"aB c #fedada",
"aC c #fefefe",
"aD c #ffe1e1",
"aE c #fff8f8",
/* pixels */
".M.N.P.N.I.E.E.E.D.x.u.u.u.s.B.J",
".O.U.7.8.5.Y.0.Y.W.S.P.Q.P.Q#d#O",
".P.7#J#N#I#F#C#z#y#t#h.z.o.O#Tae",
".N.8#N#O#N#M#G#F#s.n.#.b.t.A#Yai",
".I.5#I#N#M#G#n.g.#.c#Eaw#L#t#Yah",
".E.Y#F#M#n.e...f#HaCaE#7.w#Y#Zai",
".F.1#v.m.a.d#jaBaDay#W.V.raj#Zag",
".H.5#n.e.hapaAaq#4#w#l#a.Lan#Xab",
".H.6#p.i.k#x#..T.Z#r#K#B.4at#Va#",
".D.3#p.S#e#b.p.j.G#f#D#A.9az#Ua#",
".x.X#t#v#u#Salac.C.q.Raf.2aC#Uaa",
".x.X#s#s#p#m#vakaram.K.l.vaC#R#6",
".x.X#o#p#m#i#g#c#kasaCao.yaC#P#3",
".x.Y#s#s#q#p#k#g#d###vavaxau#P#2",
".M#z#X#Y#X#X#T#R#Q#P#P#N#I#I#V#3",
"#ta#aiaiahaiada.#9#8#9#5#0#Y#1#2"
};
