/* XPM */
static char * button_carr_up_in_xpm[] = {
"19 19 17 1",
" 	c None",
".	c #050505",
"+	c #262626",
"@	c #6D6D6D",
"#	c #323232",
"$	c #989898",
"%	c #4B4B4B",
"&	c #979797",
"*	c #FFFFFF",
"=	c #DADADA",
"-	c #D4D4D4",
";	c #080808",
">	c #181818",
",	c #5D5D5D",
"'	c #E3E3E3",
")	c #B2B2B2",
"!	c #5B5B5B",
"                   ",
"        .+@        ",
"       ..#$@       ",
"      ...+$$@      ",
"     ...%&%$$@     ",
"    ...%**$%$$@    ",
"   ...%**=$$%$$@   ",
"  ...%**- @$$%$$@  ",
" ...%-*=   +#+@$$@ ",
" ;>%-%,$@ ...%&%') ",
".>+**,.$$+..%**$&'@",
";>&*=$$%$,;@**=!+')",
"##** @$$%@%**- ##**",
"##**%%+,@%@)=%%##**",
"##)$##>;%@%$!##.;**",
"##@,##+&*)'&+##;.**",
",$*******=)''******",
"@)*****-   @)*****-",
"                   "};
