/* XPM */
static char * carr_left_flat_xpm[] = {
"19 19 18 1",
" 	c None",
".	c #8B8B8B",
"+	c #919191",
"@	c #989898",
"#	c #9E9E9E",
"$	c #A5A5A5",
"%	c #ABABAB",
"&	c #B1B1B1",
"*	c #B8B8B8",
"=	c #BEBEBE",
"-	c #C5C5C5",
";	c #CBCBCB",
">	c #D2D2D2",
",	c #D8D8D8",
"'	c #DEDEDE",
")	c #E5E5E5",
"!	c #EBEBEB",
"~	c #F2F2F2",
"                   ",
"  ......           ",
"  ++++++++         ",
"  @@    @@@        ",
"  ##     ###       ",
"  $$    $ $$$      ",
"  %%   %%% %%%     ",
"   && &&&   &&&    ",
"   * ***     ***   ",
"    ===       ===  ",
"   --- -     ---   ",
"   ;; ;;;   ;;;    ",
"  >>   >>> >>>     ",
"  ,,    ,,,,,      ",
"  ''     '''       ",
"  ))    )))        ",
"  !!!!!!!!         ",
"  ~~~~~~           ",
"                   "};
