/* XPM */
static char * button_carr_right_in_xpm[] = {
"19 19 15 1",
" 	c None",
".	c #050505",
"+	c #080808",
"@	c #323232",
"#	c #6D6D6D",
"$	c #808080",
"%	c #D4D4D4",
"&	c #FFFFFF",
"*	c #979797",
"=	c #262626",
"-	c #989898",
";	c #E3E3E3",
">	c #B2B2B2",
",	c #DADADA",
"'	c #181818",
" .+@@@@ #          ",
" +.@@@@$$ #        ",
" @@%&&&*=$-#       ",
" @@&&&&;-$--#      ",
" @@&&  =$#$--#     ",
" @@&& ..+$#$--#    ",
"   *;=..#&>-$--#   ",
" # *>+.$&&,--$--#  ",
"     .$&&% #--$--# ",
"  =+.$%&,   =@=,&* ",
"  +'$% $-# ...$&&% ",
" .'=&&$.--=..$&&%  ",
" +'*&,--$-@.$&&%   ",
" @@&& #--$=$&&%    ",
" @@&&  =@=%&&%     ",
" @@>-@@'.$&&%      ",
" @@#$@@=*&&%       ",
"  -&&&&&&&%        ",
" #>&&&&&%          "};
