/* XPM */
static char * knot_flat_xpm[] = {
"19 19 18 1",
" 	c None",
".	c #858585",
"+	c #8C8C8C",
"@	c #939393",
"#	c #999999",
"$	c #A0A0A0",
"%	c #A7A7A7",
"&	c #AEAEAE",
"*	c #B4B4B4",
"=	c #BBBBBB",
"-	c #C2C2C2",
";	c #C9C9C9",
">	c #CFCFCF",
",	c #D6D6D6",
"'	c #DDDDDD",
")	c #E4E4E4",
"!	c #EAEAEA",
"~	c #F1F1F1",
"                   ",
" ......     ...... ",
" ++++++++ ++++++++ ",
" @@    @@@ @    @@ ",
" ##     ###     ## ",
" $$    $ $$$    $$ ",
" %%   %%% %%%   %% ",
"  && &&&    && &&& ",
"  * ***       ***  ",
"   ===       ===   ",
"  --- -     ---    ",
"  ;; ;;;   ;;; ;;  ",
" >>    >> >>>   >> ",
" ,,    ,,, ,    ,, ",
" ''     '''     '' ",
" ))    ) )))    )) ",
" !!!!!!!! !!!!!!!! ",
" ~~~~~~     ~~~~~~ ",
"                   "};
