/* XPM */
static char * button_spin_in_xpm[] = {
"19 19 17 1",
" 	c None",
".	c #080808",
"+	c #323232",
"@	c #5D5D5D",
"#	c #4B4B4B",
"$	c #050505",
"%	c #5B5B5B",
"&	c #989898",
"*	c #B2B2B2",
"=	c #D4D4D4",
"-	c #FFFFFF",
";	c #979797",
">	c #262626",
",	c #6D6D6D",
"'	c #E3E3E3",
")	c #181818",
"!	c #DADADA",
" .++++@   #  .+++@ ",
".$++++%%@   .$+++&*",
"++=---;>%%@ @&-*,--",
"++----'';>%&#*-&@--",
"++--   *'&#'*  ++--",
"@&--  .@#%@*'  ++--",
" *-#.))%&>%#'* ).--",
"   $).#;,>.;--.)#--",
"# .)#--*>@>=-#).-- ",
"  )>--;>.#-!>)$#-- ",
" .);-#$$;*;@).#--  ",
" )>--.)>-!,>#---   ",
".);- @%#';&'---#.@ ",
"++--  %@*'#*-  .$&*",
"++--  @%#&%@   ++--",
"++*&+@#&';>%%++$.--",
"++,@+&* *'';>++.$--",
"@&-----   *''------",
" *----  #   *----- "};
