/* XPM */
static char * button_spin2_xpm[] = {
"19 19 17 1",
" 	c None",
".	c #FAFAFA",
"+	c #F7F7F7",
"@	c #CDCDCD",
"#	c #A2A2A2",
"$	c #929292",
"%	c #A4A4A4",
"&	c #676767",
"*	c #4D4D4D",
"=	c #000000",
"-	c #686868",
";	c #D9D9D9",
">	c #1C1C1C",
",	c #B4B4B4",
"'	c #E7E7E7",
")	c #2B2B2B",
"!	c #252525",
".+@@@@#$       .+#$",
"+.@@@@%%#$     +.&*",
"#&====-;%%#$   @@==",
"$*====>>-;%&$  @@==",
"      $*>&,>*  @@==",
"     .+#,%#*>$ @@==",
"   .+''%&;%,>*.'+==",
"  ..'+,-$;+-==+',==",
"  +',==*;#;)=,'+==)",
" .';==-;+,=!;'.,== ",
" +'-=,..-*-#'+,==) ",
".';==+';=!$;,===)  ",
"+'-=)#%,>-&>===)   ",
"@@== $%#*>,*=)     ",
"@@==  #%,&%#$      ",
"@@==  $&>-;%%@@@@#$",
"@@==   $*>>-;@@@@&*",
"#&==     $*>>======",
"$*=)       $*=====)"};
