/* XPM */
static char * spin2_flat_xpm[] = {
"19 19 18 1",
" 	c None",
".	c #858585",
"+	c #8C8C8C",
"@	c #939393",
"#	c #9A9A9A",
"$	c #A1A1A1",
"%	c #A8A8A8",
"&	c #B0B0B0",
"*	c #B7B7B7",
"=	c #BEBEBE",
"-	c #C5C5C5",
";	c #CCCCCC",
">	c #D3D3D3",
",	c #DBDBDB",
"'	c #E2E2E2",
")	c #E9E9E9",
"!	c #F0F0F0",
"~	c #F7F7F7",
"                   ",
" ......         .. ",
" ++++++++       ++ ",
"       @@@@     @@ ",
"         ###    ## ",
"          $$    $$ ",
"      %%  %%%   %% ",
"    &&&&&  &&  &&& ",
"   **** ****   **  ",
"   ==   ===   ===  ",
"  --   ---- ----   ",
"  ;;  ;;  ;;;;;    ",
" >>   >>>  >>      ",
" ,,    ,,          ",
" ''    '''         ",
" ))     ))))       ",
" !!       !!!!!!!! ",
" ~~         ~~~~~~ ",
"                   "};
