/* XPM */
static char * tbb2_xpm[] = {
"20 16 57 1",
" 	c None",
".	c #E7E7E7",
"+	c #D0D0D0",
"@	c #CDCDCD",
"#	c #CBCBCB",
"$	c #C8C8C8",
"%	c #C5C5C5",
"&	c #C2C2C2",
"*	c #C0C0C0",
"=	c #BDBDBD",
"-	c #BABABA",
";	c #B8B8B8",
">	c #505050",
",	c #A3A3A3",
"'	c #9E9E9E",
")	c #999999",
"!	c #949494",
"~	c #8E8E8E",
"{	c #898989",
"]	c #848484",
"^	c #7F7F7F",
"/	c #7A7A7A",
"(	c #757575",
"_	c #3C3C3C",
":	c #8F8F8F",
"<	c #707070",
"[	c #393939",
"}	c #8A8A8A",
"|	c #6B6B6B",
"1	c #363636",
"2	c #000000",
"3	c #666666",
"4	c #343434",
"5	c #858585",
"6	c #656565",
"7	c #606060",
"8	c #313131",
"9	c #C3C3C3",
"0	c #808080",
"a	c #5B5B5B",
"b	c #2E2E2E",
"c	c #7B7B7B",
"d	c #767676",
"e	c #616161",
"f	c #565656",
"g	c #2B2B2B",
"h	c #717171",
"i	c #5C5C5C",
"j	c #515151",
"k	c #292929",
"l	c #575757",
"m	c #4C4C4C",
"n	c #262626",
"o	c #525252",
"p	c #474747",
"q	c #232323",
"r	c #2C2C2C",
"                    ",
"                    ",
" .+@#$%&*=-;>       ",
" +,')!~{]^/(_       ",
" @')!:{]^/(<[       ",
" #)!:}]^/(<|1       ",
" $!:}22/(<|34       ",
" %:}52222|678       ",
" 9}5022<|37ab       ",
" *50cd<|3eafg       ",
" =0cdh|3eifjk       ",
" -/(<|3eiljmn       ",
" ;(<|3eilompq       ",
" >_[148brknqq       ",
"                    ",
"                    "};
