/* XPM */
static char * closeI_xpm[] = {
"17 16 139 2",
"  	c None",
". 	c #F0F0F0",
"+ 	c #F4F4F4",
"@ 	c #F7F7F7",
"# 	c #F5F5F5",
"$ 	c #FDFDFD",
"% 	c #F9F9F9",
"& 	c #F8F8F8",
"* 	c #FCFCFC",
"= 	c #F2F2F2",
"- 	c #F1F1F1",
"; 	c #E7E7E7",
"> 	c #EAEAEA",
", 	c #EDEDED",
"' 	c #EFEFEF",
") 	c #EEEEEE",
"! 	c #E5E5E5",
"~ 	c #E2E2E2",
"{ 	c #E9E9E9",
"] 	c #ECECEC",
"^ 	c #F3F3F3",
"/ 	c #D5D5D5",
"( 	c #C4C4C4",
"_ 	c #A9A9A9",
": 	c #A5A5A5",
"< 	c #B2B2B2",
"[ 	c #C6C6C6",
"} 	c #CFCFCF",
"| 	c #DFDFDF",
"1 	c #E8E8E8",
"2 	c #E6E6E6",
"3 	c #CBCBCB",
"4 	c #9D9D9D",
"5 	c #6A6A6A",
"6 	c #545454",
"7 	c #3A3A3A",
"8 	c #555555",
"9 	c #787878",
"0 	c #B8B8B8",
"a 	c #CACACA",
"b 	c #D1D1D1",
"c 	c #DEDEDE",
"d 	c #EBEBEB",
"e 	c #9B9B9B",
"f 	c #5B5B5B",
"g 	c #5E5E5E",
"h 	c #717171",
"i 	c #5C5C5C",
"j 	c #3F3F3F",
"k 	c #6F6F6F",
"l 	c #C2C2C2",
"m 	c #DBDBDB",
"n 	c #DCDCDC",
"o 	c #E4E4E4",
"p 	c #DDDDDD",
"q 	c #666666",
"r 	c #434343",
"s 	c #B0B0B0",
"t 	c #848484",
"u 	c #727272",
"v 	c #B4B4B4",
"w 	c #3C3C3C",
"x 	c #959595",
"y 	c #CECECE",
"z 	c #D6D6D6",
"A 	c #D8D8D8",
"B 	c #E0E0E0",
"C 	c #CDCDCD",
"D 	c #A8A8A8",
"E 	c #515151",
"F 	c #565656",
"G 	c #878787",
"H 	c #999999",
"I 	c #B3B3B3",
"J 	c #7F7F7F",
"K 	c #4E4E4E",
"L 	c #6D6D6D",
"M 	c #D0D0D0",
"N 	c #BBBBBB",
"O 	c #C5C5C5",
"P 	c #A3A3A3",
"Q 	c #3D3D3D",
"R 	c #757575",
"S 	c #818181",
"T 	c #B6B6B6",
"U 	c #828282",
"V 	c #525252",
"W 	c #595959",
"X 	c #838383",
"Y 	c #C3C3C3",
"Z 	c #575757",
"` 	c #5A5A5A",
" .	c #808080",
"..	c #AEAEAE",
"+.	c #474747",
"@.	c #737373",
"#.	c #7E7E7E",
"$.	c #ACACAC",
"%.	c #BEBEBE",
"&.	c #ABABAB",
"*.	c #7B7B7B",
"=.	c #ADADAD",
"-.	c #8E8E8E",
";.	c #868686",
">.	c #343434",
",.	c #B9B9B9",
"'.	c #797979",
").	c #BABABA",
"!.	c #4B4B4B",
"~.	c #535353",
"{.	c #313131",
"].	c #939393",
"^.	c #909090",
"/.	c #AFAFAF",
"(.	c #A6A6A6",
"_.	c #929292",
":.	c #989898",
"<.	c #696969",
"[.	c #B1B1B1",
"}.	c #C9C9C9",
"|.	c #979797",
"1.	c #8F8F8F",
"2.	c #A7A7A7",
"3.	c #858585",
"4.	c #CCCCCC",
"5.	c #7A7A7A",
"6.	c #A1A1A1",
"7.	c #A0A0A0",
"8.	c #9E9E9E",
"9.	c #5D5D5D",
"0.	c #606060",
"a.	c #919191",
"b.	c #A2A2A2",
"c.	c #9A9A9A",
"d.	c #898989",
"e.	c #7C7C7C",
"f.	c #949494",
"g.	c #9F9F9F",
"h.	c #9C9C9C",
". + + @ # $ % $ & $ % * % = - + = ",
"; > , = % ' ) ; ! ~ ; { ' , { > ] ",
"> > . ^ ) / ( _ : < [ } | 1 ) 2 ] ",
"1 ; ' 2 3 4 5 6 7 8 9 0 a b ~ c ~ ",
"~ ; d b e f 7 g h i j k 0 l 3 m n ",
"m o p 0 q r s t u t v w x [ s y z ",
"A B C D E F G < H I J K L M e N y ",
"C p O P Q u R S T U i V W c X I Y ",
"[ C T D Z `  .s X ..J +.@.b #.$.%.",
"( O ..&.*.Q =.-.Z ;.=.>.I ,.'.P 0 ",
").N _ 4 =.u 7 !.~.j {.].3 ^.J P < ",
"/./.(._.H &.:.<.Z *.[.}.|.h 1.2...",
"_ (.: :. .3.(.3 p 4.I t k 5.H P &.",
"6.7.8.e ^.U q 9.W f 0.u J a.e 4 P ",
"4 b.H c.:.-.d.X *.e.3.t f.|.e g.h.",
"4 4 4 4 e H |.x f.f.x x c.c.H 7.4 "};
