/* XPM */
static char * minimizeA_xpm[] = {
"17 16 228 2",
"  	c None",
". 	c #F4F4F4",
"+ 	c #F2F2F2",
"@ 	c #F5F5F5",
"# 	c #FBFBFB",
"$ 	c #F9F9F9",
"% 	c #F9FCFF",
"& 	c #F6FBFE",
"* 	c #F3F6FF",
"= 	c #FCFFFD",
"- 	c #FDFEFF",
"; 	c #F5F5F7",
"> 	c #F1F0EE",
", 	c #FBF9FC",
"' 	c #F1F1F1",
") 	c #E9E9E9",
"! 	c #ECECEC",
"~ 	c #E1E5E4",
"{ 	c #E0E8DD",
"] 	c #E1E9DE",
"^ 	c #E4EADC",
"/ 	c #E5E7E2",
"( 	c #F0F0EE",
"_ 	c #F4F3EF",
": 	c #E9E6E1",
"< 	c #E5E5E5",
"[ 	c #E7E7E7",
"} 	c #F0F0F0",
"| 	c #EFEFEF",
"1 	c #D9D9D9",
"2 	c #BCBCBC",
"3 	c #B2ABB2",
"4 	c #A7A3A0",
"5 	c #B2B4A9",
"6 	c #C5C6CA",
"7 	c #D0D0DC",
"8 	c #DBD9E7",
"9 	c #E7E4EF",
"0 	c #EDE8EF",
"a 	c #E1E1E1",
"b 	c #EBEBEB",
"c 	c #EEEEEE",
"d 	c #CDCDCD",
"e 	c #979797",
"f 	c #6D6D6D",
"g 	c #5E4549",
"h 	c #4C3932",
"i 	c #5C543F",
"j 	c #7E7882",
"k 	c #AFADBB",
"l 	c #CECDD2",
"m 	c #D5D6CE",
"n 	c #E1E1D7",
"o 	c #DEDEDE",
"p 	c #E8E8E8",
"q 	c #CCCCCC",
"r 	c #7C7C7C",
"s 	c #5B5B5B",
"t 	c #6E6E6E",
"u 	c #DCC15A",
"v 	c #DDCB5F",
"w 	c #C9C258",
"x 	c #766F52",
"y 	c #726E6F",
"z 	c #B1B1B3",
"A 	c #CACBCD",
"B 	c #C8C8D2",
"C 	c #DCDCDC",
"D 	c #D7D7D7",
"E 	c #E4E4E4",
"F 	c #E0E0E0",
"G 	c #B8B8B8",
"H 	c #636363",
"I 	c #4D4D4D",
"J 	c #727272",
"K 	c #EBC268",
"L 	c #E8CB67",
"M 	c #D5C563",
"N 	c #6A5A4D",
"O 	c #4F4752",
"P 	c #9A9A9A",
"Q 	c #BBC0B9",
"R 	c #B3B7BA",
"S 	c #CECECE",
"T 	c #CCCEC9",
"U 	c #E0E4E3",
"V 	c #CCD0D1",
"W 	c #A5A5A7",
"X 	c #4A4146",
"Y 	c #69555E",
"Z 	c #766063",
"` 	c #E2C569",
" .	c #E7C44C",
"..	c #DFBE53",
"+.	c #644E40",
"@.	c #4C4D45",
"#.	c #6A6F68",
"$.	c #D1CCE2",
"%.	c #A0988B",
"&.	c #BEBEC0",
"*.	c #C3C3C1",
"=.	c #D1D3CE",
"-.	c #C6CACB",
";.	c #A3A1AE",
">.	c #484330",
",.	c #C4C076",
"'.	c #D4D166",
").	c #DCBF59",
"!.	c #DFC236",
"~.	c #DEB644",
"{.	c #D7B937",
"].	c #B0AA32",
"^.	c #575664",
"/.	c #D7E0E5",
"(.	c #80857E",
"_.	c #B5B2B9",
":.	c #BBBCB6",
"<.	c #CFD2CB",
"[.	c #B3B3BB",
"}.	c #ABAAB2",
"|.	c #4D4842",
"1.	c #5D592C",
"2.	c #C7C767",
"3.	c #E4C12F",
"4.	c #DBB53A",
"5.	c #DAB62A",
"6.	c #C6AB28",
"7.	c #543F3C",
"8.	c #75786F",
"9.	c #D2DBD6",
"0.	c #797687",
"a.	c #B1B0AB",
"b.	c #BDBBBE",
"c.	c #C1C4BD",
"d.	c #B6B8B3",
"e.	c #A8A7AF",
"f.	c #726C78",
"g.	c #3A3136",
"h.	c #665B5F",
"i.	c #D7B643",
"j.	c #D7B728",
"k.	c #CDB628",
"l.	c #543E4B",
"m.	c #322B4A",
"n.	c #A8AD96",
"o.	c #BBBAB6",
"p.	c #85817E",
"q.	c #A8A4A5",
"r.	c #B5B3B4",
"s.	c #BFBEC3",
"t.	c #A5A5A3",
"u.	c #9B9C97",
"v.	c #94948C",
"w.	c #68655E",
"x.	c #373133",
"y.	c #544143",
"z.	c #BCB63C",
"A.	c #4C3231",
"B.	c #3F3130",
"C.	c #817E77",
"D.	c #D6D6CA",
"E.	c #85848A",
"F.	c #7C807F",
"G.	c #A2A19F",
"H.	c #ABACA7",
"I.	c #B4B3B9",
"J.	c #ABA9B4",
"K.	c #90918C",
"L.	c #92938D",
"M.	c #B4B5AF",
"N.	c #959885",
"O.	c #6C6D71",
"P.	c #525065",
"Q.	c #76766E",
"R.	c #B2A7AD",
"S.	c #D0CABC",
"T.	c #9B9D9A",
"U.	c #686C75",
"V.	c #94929D",
"W.	c #AAA9A4",
"X.	c #A7A6AB",
"Y.	c #A3A3A1",
"Z.	c #A0A09E",
"`.	c #9D9BA8",
" +	c #81818B",
".+	c #7C8081",
"++	c #A6A9B0",
"@+	c #CCCEC1",
"#+	c #DFE7DA",
"$+	c #C9D3CA",
"%+	c #BBBAC0",
"&+	c #818183",
"*+	c #6A6F5B",
"=+	c #7F7F87",
"-+	c #9D998D",
";+	c #A1A0A8",
">+	c #A4A5A0",
",+	c #A5A3A4",
"'+	c #A09E9F",
")+	c #9A9B96",
"!+	c #949693",
"~+	c #7C8282",
"{+	c #656B69",
"]+	c #595965",
"^+	c #54534F",
"/+	c #5C5C5E",
"(+	c #5A5C69",
"_+	c #6E716A",
":+	c #847B90",
"<+	c #989294",
"[+	c #97979F",
"}+	c #9FA1A0",
"|+	c #9D9D9D",
"1+	c #9B9B9B",
"2+	c #969696",
"3+	c #909090",
"4+	c #8B8B8B",
"5+	c #818181",
"6+	c #7F7F7F",
"7+	c #7E7E7E",
"8+	c #898989",
"9+	c #919191",
"0+	c #999999",
"a+	c #9E9E9E",
"b+	c #9C9C9C",
"c+	c #959595",
"d+	c #939393",
"e+	c #949494",
". + @ . # # $ % & * = - ; > , ' . ",
") ! . + ' ' ' ~ { ] ^ / ( _ : ! ) ",
"< [ [ } | 1 2 3 4 5 6 7 8 9 0 [ < ",
"a b c | d e f g h i j k l m n a a ",
"o p b q r s t u v w x y z A B C o ",
"D E F G H I J K L M N O P Q R S D ",
"T U V W X Y Z `  ...+.@.#.$.%.&.T ",
"*.=.-.;.>.,.'.).!.~.{.].^./.(._.*.",
":.<.[.}.|.1.2.3.4.5.6.7.8.9.0.a.:.",
"b.c.d.e.f.g.h.i.j.k.l.m.n.o.p.q.b.",
"r.s.t.u.v.w.x.y.z.A.B.C.D.E.F.G.r.",
"H.I.J.K.L.M.N.O.P.Q.R.S.T.U.V.W.H.",
"X.Y.Z.`. +.+++@+#+$+%+&+*+=+-+;+X.",
">+,+'+)+!+~+{+]+^+/+(+_+:+<+[+}+>+",
"|+|+|+1+2+3+4+5+6+7+5+8+9+e 0+|+|+",
"|+a+a+a+b+0+2+e c+d+e+e 1+|+|+|+|+"};
