/* XPM */
static char * maximizeP_xpm[] = {
"17 16 181 2",
"  	c None",
". 	c #F6FAFE",
"+ 	c #EFF4F7",
"@ 	c #E9EDEF",
"# 	c #E6EAEC",
"$ 	c #E4E7E9",
"% 	c #DFE2E4",
"& 	c #D5D8D9",
"* 	c #C1C3C4",
"= 	c #B6B8B9",
"- 	c #B2B4B5",
"; 	c #B4B5B6",
"> 	c #B3B5B5",
", 	c #B8B9BA",
"' 	c #C0C2C3",
") 	c #C2C4C5",
"! 	c #CACCCD",
"~ 	c #D4D7D8",
"{ 	c #E1E4E6",
"] 	c #E2E6E9",
"^ 	c #DCDFE2",
"/ 	c #D1D4D6",
"( 	c #B6B7B8",
"_ 	c #999999",
": 	c #979797",
"< 	c #737373",
"[ 	c #534B56",
"} 	c #3C3B39",
"| 	c #555857",
"1 	c #80808D",
"2 	c #AAABAC",
"3 	c #BEC0C2",
"4 	c #C3C5C7",
"5 	c #BFC1C2",
"6 	c #D2D5D7",
"7 	c #DCDFE1",
"8 	c #D0D2D4",
"9 	c #B0B1B1",
"0 	c #9C9C9C",
"a 	c #575757",
"b 	c #3D3D3D",
"c 	c #6C573C",
"d 	c #D1C883",
"e 	c #5D5443",
"f 	c #3B363A",
"g 	c #6E6C70",
"h 	c #B1B2B3",
"i 	c #C3C5C6",
"j 	c #C8C9CA",
"k 	c #C9CBCC",
"l 	c #D5D8DB",
"m 	c #C1C2C4",
"n 	c #A1A1A1",
"o 	c #9A9A9A",
"p 	c #717171",
"q 	c #3F3F3F",
"r 	c #666666",
"s 	c #E8C766",
"t 	c #E2CB63",
"u 	c #CEC068",
"v 	c #63554A",
"w 	c #3E3838",
"x 	c #9B9D8E",
"y 	c #BFBFC0",
"z 	c #C4C5C6",
"A 	c #C7C8CA",
"B 	c #CFD2D4",
"C 	c #BEC0C1",
"D 	c #9B9B9B",
"E 	c #56484F",
"F 	c #66542E",
"G 	c #DFCD81",
"H 	c #E0C957",
"I 	c #E0C844",
"J 	c #E4BF57",
"K 	c #D7B44C",
"L 	c #5A403F",
"M 	c #6B6D6E",
"N 	c #C5C5C5",
"O 	c #C7C8C8",
"P 	c #C5C6C7",
"Q 	c #C8CBCD",
"R 	c #BCBEBF",
"S 	c #A4A4A4",
"T 	c #A0A0A0",
"U 	c #4E492C",
"V 	c #CDC682",
"W 	c #D5CD68",
"X 	c #E7C15E",
"Y 	c #E4B951",
"Z 	c #DDB52F",
"` 	c #D3B725",
" .	c #B1A93E",
"..	c #595748",
"+.	c #D2D2D2",
"@.	c #CDCDCD",
"#.	c #C7C8C9",
"$.	c #C2C4C6",
"%.	c #BABBBC",
"&.	c #A5A5A5",
"*.	c #A3A3A3",
"=.	c #554F59",
"-.	c #5C534E",
";.	c #675C4A",
">.	c #D8BA48",
",.	c #DAB936",
"'.	c #D7BB34",
").	c #604440",
"!.	c #484735",
"~.	c #717686",
"{.	c #DADADA",
"].	c #D7D7D7",
"^.	c #C9CACB",
"/.	c #BBBDBF",
"(.	c #B9BABB",
"_.	c #AAAAAA",
":.	c #828185",
"<.	c #545351",
"[.	c #615E59",
"}.	c #D8B533",
"|.	c #E1BB32",
"1.	c #CAAF22",
"2.	c #604B4A",
"3.	c #464832",
"4.	c #AEAFAC",
"5.	c #DFDFDF",
"6.	c #D8D8D8",
"7.	c #C8C9C9",
"8.	c #B5B7B7",
"9.	c #B7B9B9",
"0.	c #B8B8B8",
"a.	c #AEAEAE",
"b.	c #A6A6A6",
"c.	c #6A6D61",
"d.	c #6B6E65",
"e.	c #CEB534",
"f.	c #C0A520",
"g.	c #B4A32F",
"h.	c #534846",
"i.	c #808187",
"j.	c #CCCCCC",
"k.	c #C4C5C5",
"l.	c #AEB0B0",
"m.	c #B0B2B2",
"n.	c #BABBBB",
"o.	c #BCBCBC",
"p.	c #BABABA",
"q.	c #BEBEBE",
"r.	c #909199",
"s.	c #6B5662",
"t.	c #614C51",
"u.	c #685F59",
"v.	c #9E9CA0",
"w.	c #CBCBCB",
"x.	c #E1E1E1",
"y.	c #CFD0D0",
"z.	c #B8B9B9",
"A.	c #A8A9AA",
"B.	c #A9AAAB",
"C.	c #AEAFAF",
"D.	c #C4C4C4",
"E.	c #D9D9D9",
"F.	c #D6D6D6",
"G.	c #DDDDDD",
"H.	c #D0D0D0",
"I.	c #B7B8B8",
"J.	c #AFAFB0",
"K.	c #A1A2A3",
"L.	c #A2A3A4",
"M.	c #A6A7A8",
"N.	c #ACADAE",
"O.	c #B6B6B7",
"P.	c #BDBEBE",
"Q.	c #C2C2C3",
"R.	c #C6C7C7",
"S.	c #C9CACA",
"T.	c #C0C0C1",
"U.	c #ABACAD",
"V.	c #A3A4A5",
"W.	c #9B9B9C",
"X.	c #959595",
". . . . . . . . . . . . . . . . . ",
"+ + + + + + + + + + + + + + + + + ",
"@ # $ % & * = - ; > , ' ) ! ~ { @ ",
"] ^ / ( _ : < [ } | 1 2 3 4 5 6 ] ",
"7 8 9 0 : a b c d e f g h i j k 7 ",
"l m n o p q r s t u v w x y z A l ",
"B C n D E F G H I J K L M N O P B ",
"Q R S T U V W X Y Z `  ...+.@.#.Q ",
"$.%.&.*.=.-.;.>.,.'.).!.~.{.].^.$.",
"/.(._.S :.<.[.}.|.1.2.3.4.5.6.7./.",
"8.9.0.a.b.c.d.e.f.g.h.i.j.5.6.k.8.",
"l.m.n.o.p.q.r.s.t.u.v.w.5.x.y.z.l.",
"A.B.C.o.D.w.+.E.F.F.G.x.x.H.I.J.A.",
"K.K.L.M.N.O.P.Q.R.S.R.T.; U.M.V.K.",
"W.W.W.W.W.W.W.W.W.W.W.W.W.W.W.W.W.",
"X.X.X.X.X.X.X.X.X.X.X.X.X.X.X.X.X."};
