/* XPM */
static char * menuP_xpm[] = {
"17 16 173 2",
"  	c None",
". 	c #F6FAFE",
"+ 	c #EFF4F7",
"@ 	c #E9EDEF",
"# 	c #E6EAEC",
"$ 	c #E4E7E9",
"% 	c #DFE2E4",
"& 	c #D5D8D9",
"* 	c #C1C3C4",
"= 	c #B6B8B9",
"- 	c #B2B4B5",
"; 	c #B4B5B6",
"> 	c #B3B5B5",
", 	c #B8B9BA",
"' 	c #C0C2C3",
") 	c #C2C4C5",
"! 	c #CACCCD",
"~ 	c #D4D7D8",
"{ 	c #E1E4E6",
"] 	c #E2E6E9",
"^ 	c #DCDFE2",
"/ 	c #D1D4D6",
"( 	c #B6B7B8",
"_ 	c #999999",
": 	c #979797",
"< 	c #737373",
"[ 	c #534B56",
"} 	c #3C3B39",
"| 	c #555857",
"1 	c #80808D",
"2 	c #AAABAC",
"3 	c #BEC0C2",
"4 	c #C3C5C7",
"5 	c #BFC1C2",
"6 	c #D2D5D7",
"7 	c #DCDFE1",
"8 	c #D0D2D4",
"9 	c #B0B1B1",
"0 	c #9C9C9C",
"a 	c #575757",
"b 	c #3D3D3D",
"c 	c #6C573C",
"d 	c #D1C883",
"e 	c #5D5443",
"f 	c #3B363A",
"g 	c #6E6C70",
"h 	c #B1B2B3",
"i 	c #C3C5C6",
"j 	c #C8C9CA",
"k 	c #C9CBCC",
"l 	c #D5D8DB",
"m 	c #C1C2C4",
"n 	c #A1A1A1",
"o 	c #9A9A9A",
"p 	c #717171",
"q 	c #3F3F3F",
"r 	c #666666",
"s 	c #E8C766",
"t 	c #E2CB63",
"u 	c #CEC068",
"v 	c #63554A",
"w 	c #3E3838",
"x 	c #9B9D8E",
"y 	c #BFBFC0",
"z 	c #C4C5C6",
"A 	c #C7C8CA",
"B 	c #CFD2D4",
"C 	c #BEC0C1",
"D 	c #9B9B9B",
"E 	c #56484F",
"F 	c #66542E",
"G 	c #DFCD81",
"H 	c #E0C957",
"I 	c #E0C844",
"J 	c #E4BF57",
"K 	c #D7B44C",
"L 	c #5A403F",
"M 	c #6B6D6E",
"N 	c #C5C5C5",
"O 	c #C7C8C8",
"P 	c #C5C6C7",
"Q 	c #C8CBCD",
"R 	c #BCBEBF",
"S 	c #A4A4A4",
"T 	c #A0A0A0",
"U 	c #4E492C",
"V 	c #CDC682",
"W 	c #D5CD68",
"X 	c #E7C15E",
"Y 	c #E4B951",
"Z 	c #DDB52F",
"` 	c #D3B725",
" .	c #B1A93E",
"..	c #595748",
"+.	c #D2D2D2",
"@.	c #CDCDCD",
"#.	c #C7C8C9",
"$.	c #C2C4C6",
"%.	c #BABBBC",
"&.	c #A5A5A5",
"*.	c #A3A3A3",
"=.	c #554F59",
"-.	c #5C534E",
";.	c #484735",
">.	c #717686",
",.	c #DADADA",
"'.	c #D7D7D7",
").	c #C9CACB",
"!.	c #BBBDBF",
"~.	c #B9BABB",
"{.	c #AAAAAA",
"].	c #828185",
"^.	c #545351",
"/.	c #615E59",
"(.	c #604B4A",
"_.	c #464832",
":.	c #AEAFAC",
"<.	c #DFDFDF",
"[.	c #D8D8D8",
"}.	c #C8C9C9",
"|.	c #B5B7B7",
"1.	c #B7B9B9",
"2.	c #B8B8B8",
"3.	c #AEAEAE",
"4.	c #A6A6A6",
"5.	c #6A6D61",
"6.	c #6B6E65",
"7.	c #7D6D44",
"8.	c #B5AB74",
"9.	c #776843",
"0.	c #534846",
"a.	c #808187",
"b.	c #CCCCCC",
"c.	c #C4C5C5",
"d.	c #AEB0B0",
"e.	c #B0B2B2",
"f.	c #BABBBB",
"g.	c #BCBCBC",
"h.	c #BABABA",
"i.	c #BEBEBE",
"j.	c #909199",
"k.	c #6B5662",
"l.	c #614C51",
"m.	c #665C55",
"n.	c #9E9CA0",
"o.	c #CBCBCB",
"p.	c #E1E1E1",
"q.	c #CFD0D0",
"r.	c #B8B9B9",
"s.	c #A8A9AA",
"t.	c #A9AAAB",
"u.	c #AEAFAF",
"v.	c #C4C4C4",
"w.	c #D9D9D9",
"x.	c #D6D6D6",
"y.	c #DDDDDD",
"z.	c #D0D0D0",
"A.	c #B7B8B8",
"B.	c #AFAFB0",
"C.	c #A1A2A3",
"D.	c #A2A3A4",
"E.	c #A6A7A8",
"F.	c #ACADAE",
"G.	c #B6B6B7",
"H.	c #BDBEBE",
"I.	c #C2C2C3",
"J.	c #C6C7C7",
"K.	c #C9CACA",
"L.	c #C0C0C1",
"M.	c #ABACAD",
"N.	c #A3A4A5",
"O.	c #9B9B9C",
"P.	c #959595",
". . . . . . . . . . . . . . . . . ",
"+ + + + + + + + + + + + + + + + + ",
"@ # $ % & * = - ; > , ' ) ! ~ { @ ",
"] ^ / ( _ : < [ } | 1 2 3 4 5 6 ] ",
"7 8 9 0 : a b c d e f g h i j k 7 ",
"l m n o p q r s t u v w x y z A l ",
"B C n D E F G H I J K L M N O P B ",
"Q R S T U V W X Y Z `  ...+.@.#.Q ",
"$.%.&.*.=.-.G H I J K ;.>.,.'.).$.",
"!.~.{.S ].^./.s t u (._.:.<.[.}.!.",
"|.1.2.3.4.5.6.7.8.9.0.a.b.<.[.c.|.",
"d.e.f.g.h.i.j.k.l.m.n.o.<.p.q.r.d.",
"s.t.u.g.v.o.+.w.x.x.y.p.p.z.A.B.s.",
"C.C.D.E.F.G.H.I.J.K.J.L.; M.E.N.C.",
"O.O.O.O.O.O.O.O.O.O.O.O.O.O.O.O.O.",
"P.P.P.P.P.P.P.P.P.P.P.P.P.P.P.P.P."};
