/* XPM */
static char * menuA_xpm[] = {
"17 16 223 2",
"  	c None",
". 	c #F4F4F4",
"+ 	c #F3F3F3",
"@ 	c #F2F2F2",
"# 	c #F7F7F7",
"$ 	c #F9F9F9",
"% 	c #F8F8F8",
"& 	c #FBFBFB",
"* 	c #FFFBFF",
"= 	c #FFF6FB",
"- 	c #FFFEFA",
"; 	c #F7F4ED",
"> 	c #FCFBF9",
", 	c #F8F8F6",
"' 	c #F7F9F6",
") 	c #F0F3FA",
"! 	c #F5F5F5",
"~ 	c #F6F6F6",
"{ 	c #E9E9E9",
"] 	c #EAEAEA",
"^ 	c #EDEDED",
"/ 	c #F1F1F1",
"( 	c #EEEEEE",
"_ 	c #E2DEDB",
": 	c #F0EDE4",
"< 	c #D9DAD2",
"[ 	c #EFF3E4",
"} 	c #E2E5DA",
"| 	c #EFF1EE",
"1 	c #ECEEEB",
"2 	c #E7E7EF",
"3 	c #EBEBEB",
"4 	c #ECECEC",
"5 	c #E5E5E5",
"6 	c #F0F0F0",
"7 	c #D9D9D9",
"8 	c #C2C2C2",
"9 	c #B2B3B8",
"0 	c #9B9EA5",
"a 	c #B1B8B0",
"b 	c #C3CBCE",
"c 	c #CDD5D7",
"d 	c #DCE2D8",
"e 	c #E2E3E8",
"f 	c #EDEBEC",
"g 	c #E6E6E6",
"h 	c #E8E8E8",
"i 	c #E1E1E1",
"j 	c #D2D2D2",
"k 	c #989898",
"l 	c #696969",
"m 	c #514B57",
"n 	c #3C3B39",
"o 	c #545859",
"p 	c #75778C",
"q 	c #ABAEBD",
"r 	c #C6CBC7",
"s 	c #D4D4D6",
"t 	c #E6E1E5",
"u 	c #DEDEDE",
"v 	c #D0D0D0",
"w 	c #979797",
"x 	c #525252",
"y 	c #3D3D3D",
"z 	c #6C573C",
"A 	c #D1C883",
"B 	c #5D5443",
"C 	c #3B363A",
"D 	c #69686D",
"E 	c #BCBBC3",
"F 	c #C0C1AF",
"G 	c #CDC7D5",
"H 	c #D8D8D8",
"I 	c #DFDFDF",
"J 	c #D7D7D7",
"K 	c #E0E0E0",
"L 	c #B9B9B9",
"M 	c #3F3F3F",
"N 	c #666666",
"O 	c #E8C766",
"P 	c #E2CB63",
"Q 	c #CEC068",
"R 	c #63554A",
"S 	c #3E3838",
"T 	c #94977C",
"U 	c #C5C3C6",
"V 	c #B4B1B8",
"W 	c #CFCFCF",
"X 	c #CCCEC9",
"Y 	c #DFE4DE",
"Z 	c #C7C7D1",
"` 	c #ADA5BC",
" .	c #57484F",
"..	c #66542E",
"+.	c #DFCD81",
"@.	c #E0C957",
"#.	c #E0C844",
"$.	c #E4BF57",
"%.	c #D7B44C",
"&.	c #5A403F",
"*.	c #6B6C6E",
"=.	c #CDD6D5",
"-.	c #9B969A",
";.	c #CBCBCB",
">.	c #C3C3C1",
",.	c #D6D9D2",
"'.	c #CBCDC8",
").	c #9F9E99",
"!.	c #4E492C",
"~.	c #CDC682",
"{.	c #D5CD68",
"].	c #E7C15E",
"^.	c #E4B951",
"/.	c #DDB52F",
"(.	c #D3B725",
"_.	c #B1A93E",
":.	c #595748",
"<.	c #DDDBE0",
"[.	c #8B817F",
"}.	c #B2B2B2",
"|.	c #C7C7C7",
"1.	c #BBBCB6",
"2.	c #C9CBCA",
"3.	c #B7BAC3",
"4.	c #AAA9B9",
"5.	c #554F5B",
"6.	c #5C534E",
"7.	c #484735",
"8.	c #707589",
"9.	c #D2DBD6",
"0.	c #757984",
"a.	c #A8A8A8",
"b.	c #BEBEBE",
"c.	c #BDBBBE",
"d.	c #C6C7CC",
"e.	c #ACAFB6",
"f.	c #A6A9AE",
"g.	c #7D7E80",
"h.	c #545351",
"i.	c #615E59",
"j.	c #604B4A",
"k.	c #464832",
"l.	c #AEADB3",
"m.	c #BABBAB",
"n.	c #7F7F7D",
"o.	c #B6B6B6",
"p.	c #B5B3B4",
"q.	c #ABADA8",
"r.	c #969C90",
"s.	c #A6AC9E",
"t.	c #666A5C",
"u.	c #6B6E65",
"v.	c #776843",
"w.	c #564B46",
"x.	c #7C7F88",
"y.	c #CFD1D0",
"z.	c #808074",
"A.	c #87868E",
"B.	c #A5A5A5",
"C.	c #ABACA7",
"D.	c #ACACAA",
"E.	c #ABABAD",
"F.	c #95969B",
"G.	c #9494A0",
"H.	c #ACAABF",
"I.	c #7A7A92",
"J.	c #6A525F",
"K.	c #614C51",
"L.	c #665B55",
"M.	c #8B8C90",
"N.	c #C3CBD8",
"O.	c #96A098",
"P.	c #6D746D",
"Q.	c #898E92",
"R.	c #A3A3A3",
"S.	c #AEAEAE",
"T.	c #A7A6AB",
"U.	c #A2A0A1",
"V.	c #979596",
"W.	c #858587",
"X.	c #808080",
"Y.	c #A3A5A2",
"Z.	c #D2C4BB",
"`.	c #E4DAD8",
" +	c #D5CED5",
".+	c #BAB4B8",
"++	c #8A8490",
"@+	c #65626B",
"#+	c #847E80",
"$+	c #9D919B",
"%+	c #A7A7A7",
"&+	c #A4A5A0",
"*+	c #A0A098",
"=+	c #A3A29D",
"-+	c #9D999A",
";+	c #959396",
">+	c #807F7D",
",+	c #6B6C64",
"'+	c #575B5C",
")+	c #515C60",
"!+	c #546265",
"~+	c #5A5F58",
"{+	c #727560",
"]+	c #7F828B",
"^+	c #8F9392",
"/+	c #9D97A1",
"(+	c #A1A1A1",
"_+	c #9D9D9D",
":+	c #9E9E9E",
"<+	c #9B9B9B",
"[+	c #969696",
"}+	c #8F8F8F",
"|+	c #8B8B8B",
"1+	c #7F7F7F",
"2+	c #828282",
"3+	c #888888",
"4+	c #909090",
"5+	c #9C9C9C",
"6+	c #9F9F9F",
"7+	c #999999",
"8+	c #959595",
"9+	c #949494",
"0+	c #9A9A9A",
". + @ # $ % & * = - ; > , ' ) ! ~ ",
"{ ] ^ + ~ / ( _ : < [ } | 1 2 3 4 ",
"5 ( 6 / 6 7 8 9 0 a b c d e f g h ",
"i 4 ^ { j k l m n o p q r s t i g ",
"u h 5 v w x y z A B C D E F G H I ",
"J 5 K L l M N O P Q R S T U V W J ",
"X Y Z `  ...+.@.#.$.%.&.*.=.-.8 ;.",
">.,.'.).!.~.{.].^./.(._.:.<.[.}.|.",
"1.2.3.4.5.6.+.@.#.$.%.7.8.9.0.a.b.",
"c.d.e.f.g.h.i.O P Q j.k.l.m.n.a.o.",
"p.L q.r.s.t.u.R A v.w.x.y.z.A.B.}.",
"C.D.E.F.G.H.I.J.K.L.M.N.O.P.Q.R.S.",
"T.S.U.V.W.X.Y.Z.`. +.+++@+#+$+R.%+",
"&+*+=+-+;+>+,+'+)+!+~+{+]+^+/+(+(+",
"_+:+:+<+[+}+|+X.1+1+2+3+4+w <+5+_+",
"_+:+6+:+5+7+[+w 8+9+9+w 0+_+:+_+_+"};
