/* XPM */
static char * menuI_xpm[] = {
"17 16 136 2",
"  	c None",
". 	c #F3F3F3",
"+ 	c #F5F5F5",
"@ 	c #F6F6F6",
"# 	c #F8F8F8",
"$ 	c #FDFDFD",
"% 	c #FAFAFA",
"& 	c #FFFFFF",
"* 	c #F4F4F4",
"= 	c #F2F2F2",
"- 	c #ECECEC",
"; 	c #EDEDED",
"> 	c #EFEFEF",
", 	c #E8E8E8",
"' 	c #E2E2E2",
") 	c #E1E1E1",
"! 	c #E6E6E6",
"~ 	c #EAEAEA",
"{ 	c #E7E7E7",
"] 	c #E9E9E9",
"^ 	c #EEEEEE",
"/ 	c #D4D4D4",
"( 	c #C2C2C2",
"_ 	c #B0B0B0",
": 	c #9D9D9D",
"< 	c #B5B5B5",
"[ 	c #C8C8C8",
"} 	c #D2D2D2",
"| 	c #DDDDDD",
"1 	c #EBEBEB",
"2 	c #F0F0F0",
"3 	c #9B9B9B",
"4 	c #696969",
"5 	c #4E4E4E",
"6 	c #3B3B3B",
"7 	c #565656",
"8 	c #787878",
"9 	c #AEAEAE",
"0 	c #C9C9C9",
"a 	c #E3E3E3",
"b 	c #DFDFDF",
"c 	c #DADADA",
"d 	c #CBCBCB",
"e 	c #898989",
"f 	c #525252",
"g 	c #3D3D3D",
"h 	c #5A5A5A",
"i 	c #545454",
"j 	c #373737",
"k 	c #686868",
"l 	c #BCBCBC",
"m 	c #BEBEBE",
"n 	c #CECECE",
"o 	c #D6D6D6",
"p 	c #B6B6B6",
"q 	c #656565",
"r 	c #3F3F3F",
"s 	c #666666",
"t 	c #ACACAC",
"u 	c #575757",
"v 	c #393939",
"w 	c #939393",
"x 	c #C3C3C3",
"y 	c #B1B1B1",
"z 	c #CFCFCF",
"A 	c #D5D5D5",
"B 	c #DCDCDC",
"C 	c #A4A4A4",
"D 	c #4C4C4C",
"E 	c #555555",
"F 	c #A8A8A8",
"G 	c #474747",
"H 	c #6B6B6B",
"I 	c #D3D3D3",
"J 	c #979797",
"K 	c #BDBDBD",
"L 	c #D1D1D1",
"M 	c #A0A0A0",
"N 	c #9C9C9C",
"O 	c #838383",
"P 	c #C7C7C7",
"Q 	c #ABABAB",
"R 	c #515151",
"S 	c #454545",
"T 	c #757575",
"U 	c #D7D7D7",
"V 	c #797979",
"W 	c #A5A5A5",
"X 	c #B7B7B7",
"Y 	c #C0C0C0",
"Z 	c #B4B4B4",
"` 	c #767676",
" .	c #535353",
"..	c #5E5E5E",
"+.	c #444444",
"@.	c #ADADAD",
"#.	c #B8B8B8",
"$.	c #7E7E7E",
"%.	c #B9B9B9",
"&.	c #B3B3B3",
"*.	c #949494",
"=.	c #676767",
"-.	c #6C6C6C",
";.	c #4F4F4F",
">.	c #7F7F7F",
",.	c #D0D0D0",
"'.	c #828282",
").	c #A6A6A6",
"!.	c #969696",
"~.	c #AFAFAF",
"{.	c #7C7C7C",
"].	c #5D5D5D",
"^.	c #8C8C8C",
"/.	c #CACACA",
"(.	c #707070",
"_.	c #AAAAAA",
":.	c #858585",
"<.	c #868686",
"[.	c #7D7D7D",
"}.	c #9A9A9A",
"|.	c #A2A2A2",
"1.	c #8B8B8B",
"2.	c #595959",
"3.	c #5B5B5B",
"4.	c #606060",
"5.	c #909090",
"6.	c #A1A1A1",
"7.	c #8A8A8A",
"8.	c #818181",
"9.	c #7A7A7A",
"0.	c #888888",
"a.	c #929292",
"b.	c #989898",
"c.	c #9E9E9E",
"d.	c #999999",
"e.	c #959595",
". . + @ # + $ % % & % . # * = @ * ",
"- - ; = * + > , ' ) ! ~ > ; { - ] ",
"! ] ; + ^ / ( _ : < [ } | 1 { { ! ",
"' 1 2 1 [ 3 4 5 6 7 8 9 0 / ) a b ",
"c , { d e f g h _ i j k l m n b c ",
"o ! b p q r s _ _ t u v w x y z A ",
"z B z C D E _ _ t F C G H I J K L ",
"( b K C G _ _ t F C M N E B O _ P ",
"l z K Q R E _ _ t F C S T U V W m ",
"X Y Z W `  ..._ _ t R +.@.#.$.C %.",
"&.%.Q N *.=.-..._ -.;.>.,.$.'.W _ ",
"_ &.).*.!.~.{.h f ].^./.N (.^.W _.",
"_.F C *.:.>.F P B ,.< <.=.[.}.).F ",
"M |.|.N 1.>.k ].2.3.4.4 '.5.3 6.|.",
"}.6.3 N }.5.7.8.9.8.'.0.a.}.b.c.: ",
": : : : : d.J e.*.*.e.J d.: : : : "};
