/* XPM */
static char * rolldownI_xpm[] = {
"17 16 132 2",
"  	c None",
". 	c #F4F4F4",
"+ 	c #F2F2F2",
"@ 	c #F5F5F5",
"# 	c #FBFBFB",
"$ 	c #F9F9F9",
"% 	c #F6F6F6",
"& 	c #FDFDFD",
"* 	c #F0F0F0",
"= 	c #F1F1F1",
"- 	c #E9E9E9",
"; 	c #ECECEC",
"> 	c #E3E3E3",
", 	c #E4E4E4",
"' 	c #E5E5E5",
") 	c #E6E6E6",
"! 	c #EFEFEF",
"~ 	c #E7E7E7",
"{ 	c #D9D9D9",
"] 	c #BCBCBC",
"^ 	c #ADADAD",
"/ 	c #A3A3A3",
"( 	c #B2B2B2",
"_ 	c #C6C6C6",
": 	c #D1D1D1",
"< 	c #DBDBDB",
"[ 	c #EAEAEA",
"} 	c #E1E1E1",
"| 	c #EBEBEB",
"1 	c #EEEEEE",
"2 	c #C7C7C7",
"3 	c #8F8F8F",
"4 	c #727272",
"5 	c #4A4A4A",
"6 	c #474747",
"7 	c #696969",
"8 	c #6F6F6F",
"9 	c #9E9E9E",
"0 	c #CDCDCD",
"a 	c #D4D4D4",
"b 	c #DFDFDF",
"c 	c #DEDEDE",
"d 	c #E8E8E8",
"e 	c #CCCCCC",
"f 	c #828282",
"g 	c #7F7F7F",
"h 	c #5C5C5C",
"i 	c #676767",
"j 	c #6E6E6E",
"k 	c #7B7B7B",
"l 	c #848484",
"m 	c #B1B1B1",
"n 	c #CACACA",
"o 	c #C9C9C9",
"p 	c #DCDCDC",
"q 	c #D7D7D7",
"r 	c #E0E0E0",
"s 	c #B8B8B8",
"t 	c #707070",
"u 	c #AFAFAF",
"v 	c #B3B3B3",
"w 	c #B6B6B6",
"x 	c #BABABA",
"y 	c #AEAEAE",
"z 	c #838383",
"A 	c #BDBDBD",
"B 	c #CECECE",
"C 	c #E2E2E2",
"D 	c #A5A5A5",
"E 	c #4D4D4D",
"F 	c #A8A8A8",
"G 	c #B4B4B4",
"H 	c #B9B9B9",
"I 	c #A2A2A2",
"J 	c #626262",
"K 	c #CFCFCF",
"L 	c #989898",
"M 	c #BEBEBE",
"N 	c #C2C2C2",
"O 	c #C8C8C8",
"P 	c #424242",
"Q 	c #636363",
"R 	c #B5B5B5",
"S 	c #535353",
"T 	c #585858",
"U 	c #575757",
"V 	c #DDDDDD",
"W 	c #BBBBBB",
"X 	c #D0D0D0",
"Y 	c #ABABAB",
"Z 	c #484848",
"` 	c #6D6D6D",
" .	c #A4A4A4",
"..	c #767676",
"+.	c #787878",
"@.	c #343434",
"#.	c #5E5E5E",
"$.	c #3B3B3B",
"%.	c #818181",
"&.	c #9B9B9B",
"*.	c #939393",
"=.	c #656565",
"-.	c #333333",
";.	c #464646",
">.	c #AAAAAA",
",.	c #393939",
"'.	c #353535",
").	c #7E7E7E",
"!.	c #A1A1A1",
"~.	c #909090",
"{.	c #929292",
"].	c #959595",
"^.	c #525252",
"/.	c #757575",
"(.	c #9C9C9C",
"_.	c #6B6B6B",
":.	c #A6A6A6",
"<.	c #9F9F9F",
"[.	c #9D9D9D",
"}.	c #CBCBCB",
"|.	c #9A9A9A",
"1.	c #808080",
"2.	c #686868",
"3.	c #5A5A5A",
"4.	c #949494",
"5.	c #979797",
"6.	c #A0A0A0",
"7.	c #969696",
"8.	c #8B8B8B",
"9.	c #898989",
"0.	c #919191",
"a.	c #999999",
". + @ . # # $ # $ % & & @ * $ = . ",
"- ; . + = = = > , ' ) ' ! + ) ; - ",
"' ~ ~ * ! { ] ^ / ( _ : < ) [ ~ ' ",
"} | 1 ! 2 3 4 5 6 7 8 9 0 a b } } ",
"c d | e f g h i 7 j k l m n o p c ",
"q , r s t u v v w u x y z A w B q ",
"e C B D E F D w G v H I J K L M e ",
"N : O / P Q t A H R S T U V f v N ",
"W X v Y Z ` W W W W  .` ..q +.u W ",
"W N w F 8 @.#.v R ^ U $.F H %.D W ",
"v M  .&.*.=.-.;.>.,.'.).a l ).!.v ",
"Y v >.~.{.G ].` ^./.>.n (._.*.F Y ",
":.I <.[.f ).F }.> K x %._.g L !.:.",
" ./ 9 |.].1.2.3.^.h h 8 1.4.5.6. .",
"[.[.[.&.7.~.8.%.g ).%.9.0.5.a.[.[.",
"[.9 9 9 (.a.7.5.].*.4.5.&.[.[.[.[."};
