/* XPM */
static char * rollupI_xpm[] = {
"17 16 128 2",
"  	c None",
". 	c #F4F4F4",
"+ 	c #F2F2F2",
"@ 	c #F5F5F5",
"# 	c #FBFBFB",
"$ 	c #F9F9F9",
"% 	c #F6F6F6",
"& 	c #FDFDFD",
"* 	c #F0F0F0",
"= 	c #F1F1F1",
"- 	c #E9E9E9",
"; 	c #ECECEC",
"> 	c #E3E3E3",
", 	c #E4E4E4",
"' 	c #E5E5E5",
") 	c #E6E6E6",
"! 	c #EFEFEF",
"~ 	c #E7E7E7",
"{ 	c #D9D9D9",
"] 	c #BCBCBC",
"^ 	c #ADADAD",
"/ 	c #A3A3A3",
"( 	c #B2B2B2",
"_ 	c #C6C6C6",
": 	c #D1D1D1",
"< 	c #DBDBDB",
"[ 	c #EAEAEA",
"} 	c #E1E1E1",
"| 	c #EBEBEB",
"1 	c #EEEEEE",
"2 	c #C7C7C7",
"3 	c #8F8F8F",
"4 	c #A6A6A6",
"5 	c #7C7C7C",
"6 	c #525252",
"7 	c #838383",
"8 	c #9E9E9E",
"9 	c #CDCDCD",
"0 	c #D4D4D4",
"a 	c #DFDFDF",
"b 	c #DEDEDE",
"c 	c #E8E8E8",
"d 	c #CCCCCC",
"e 	c #828282",
"f 	c #333333",
"g 	c #464646",
"h 	c #AAAAAA",
"i 	c #393939",
"j 	c #353535",
"k 	c #959595",
"l 	c #B1B1B1",
"m 	c #CACACA",
"n 	c #C9C9C9",
"o 	c #DCDCDC",
"p 	c #D7D7D7",
"q 	c #E0E0E0",
"r 	c #B8B8B8",
"s 	c #929292",
"t 	c #343434",
"u 	c #5E5E5E",
"v 	c #B3B3B3",
"w 	c #B5B5B5",
"x 	c #575757",
"y 	c #3B3B3B",
"z 	c #BDBDBD",
"A 	c #B6B6B6",
"B 	c #CECECE",
"C 	c #E2E2E2",
"D 	c #A5A5A5",
"E 	c #5C5C5C",
"F 	c #6D6D6D",
"G 	c #BBBBBB",
"H 	c #A4A4A4",
"I 	c #848484",
"J 	c #CFCFCF",
"K 	c #989898",
"L 	c #BEBEBE",
"M 	c #C2C2C2",
"N 	c #C8C8C8",
"O 	c #424242",
"P 	c #636363",
"Q 	c #707070",
"R 	c #B9B9B9",
"S 	c #535353",
"T 	c #585858",
"U 	c #DDDDDD",
"V 	c #D0D0D0",
"W 	c #ABABAB",
"X 	c #606060",
"Y 	c #A8A8A8",
"Z 	c #B4B4B4",
"` 	c #A2A2A2",
" .	c #737373",
"..	c #787878",
"+.	c #AFAFAF",
"@.	c #BABABA",
"#.	c #AEAEAE",
"$.	c #818181",
"%.	c #9B9B9B",
"&.	c #939393",
"*.	c #949494",
"=.	c #676767",
"-.	c #696969",
";.	c #6E6E6E",
">.	c #7B7B7B",
",.	c #999999",
"'.	c #7E7E7E",
").	c #A1A1A1",
"!.	c #909090",
"~.	c #9C9C9C",
"{.	c #474747",
"].	c #797979",
"^.	c #A0A0A0",
"/.	c #6B6B6B",
"(.	c #9F9F9F",
"_.	c #9D9D9D",
":.	c #CBCBCB",
"<.	c #7F7F7F",
"[.	c #9A9A9A",
"}.	c #808080",
"|.	c #686868",
"1.	c #5A5A5A",
"2.	c #6F6F6F",
"3.	c #979797",
"4.	c #969696",
"5.	c #8B8B8B",
"6.	c #898989",
"7.	c #919191",
". + @ . # # $ # $ % & & @ * $ = . ",
"- ; . + = = = > , ' ) ' ! + ) ; - ",
"' ~ ~ * ! { ] ^ / ( _ : < ) [ ~ ' ",
"} | 1 ! 2 3 4 5 6 7 ( 8 9 0 a } } ",
"b c | d e e f g h i j k l m n o b ",
"p , q r s t u v w ^ x y w z A B p ",
"d C B D E F G G G G H F I J K L d ",
"M : N / O P Q z R w S T x U e v M ",
"G V v W X Y D A Z v R `  .p ..+.G ",
"G M A Y s +.v v A +.@.#.h R $.D G ",
"v L H %.&.*.E =.-.;.>.,.0 I '.).v ",
"W v h !.s Z ~.u {.].^.m ~./.&.Y W ",
"4 ` (._.e '.Y :.> J @.$./.<.K ).4 ",
"H / 8 [.k }.|.1.6 E E 2.}.*.3.^.H ",
"_._._.%.4.!.5.$.<.'.$.6.7.3.,._._.",
"_.8 8 8 ~.,.4.3.k &.*.3.%._._._._."};
