/* XPM */
static char * rolldownP_xpm[] = {
"17 16 177 2",
"  	c None",
". 	c #F6FAFE",
"+ 	c #EFF4F7",
"@ 	c #E9EDEF",
"# 	c #E6EAEC",
"$ 	c #E4E7E9",
"% 	c #DFE2E4",
"& 	c #D5D8D9",
"* 	c #C1C3C4",
"= 	c #B6B8B9",
"- 	c #B2B4B5",
"; 	c #B4B5B6",
"> 	c #B3B5B5",
", 	c #B8B9BA",
"' 	c #C0C2C3",
") 	c #C2C4C5",
"! 	c #CACCCD",
"~ 	c #D4D7D8",
"{ 	c #E1E4E6",
"] 	c #E2E6E9",
"^ 	c #DCDFE2",
"/ 	c #D1D4D6",
"( 	c #B6B7B8",
"_ 	c #999999",
": 	c #979797",
"< 	c #959283",
"[ 	c #604B48",
"} 	c #5A4230",
"| 	c #796E46",
"1 	c #959295",
"2 	c #AAABAC",
"3 	c #BEC0C2",
"4 	c #C3C5C7",
"5 	c #BFC1C2",
"6 	c #D2D5D7",
"7 	c #DCDFE1",
"8 	c #D0D2D4",
"9 	c #B0B1B1",
"0 	c #9C9C9C",
"a 	c #87827B",
"b 	c #705C2D",
"c 	c #79692C",
"d 	c #7B6C2C",
"e 	c #81722C",
"f 	c #8F7C46",
"g 	c #978B63",
"h 	c #B1B2B3",
"i 	c #C3C5C6",
"j 	c #C8C9CA",
"k 	c #C9CBCC",
"l 	c #D5D8DB",
"m 	c #C1C2C4",
"n 	c #A1A1A1",
"o 	c #9A9A9A",
"p 	c #8D8679",
"q 	c #D2B534",
"r 	c #D0B754",
"s 	c #D5B937",
"t 	c #D8BC40",
"u 	c #D0B53D",
"v 	c #DCC03F",
"w 	c #D1B433",
"x 	c #A0A09D",
"y 	c #BFBFC0",
"z 	c #C4C5C6",
"A 	c #C7C8CA",
"B 	c #CFD2D4",
"C 	c #BEC0C1",
"D 	c #9B9B9B",
"E 	c #574E49",
"F 	c #C9AE35",
"G 	c #C5AB32",
"H 	c #DABC37",
"I 	c #DABA2F",
"J 	c #D9B92F",
"K 	c #DDC034",
"L 	c #C2A636",
"M 	c #686761",
"N 	c #C5C5C5",
"O 	c #C7C8C8",
"P 	c #C5C6C7",
"Q 	c #C8CBCD",
"R 	c #BCBEBF",
"S 	c #A4A4A4",
"T 	c #A0A0A0",
"U 	c #484330",
"V 	c #79603B",
"W 	c #867039",
"X 	c #DCC15A",
"Y 	c #DEB644",
"Z 	c #644E40",
"` 	c #69534B",
" .	c #575664",
"..	c #D2D2D2",
"+.	c #CDCDCD",
"@.	c #C7C8C9",
"#.	c #C2C4C6",
"$.	c #BABBBC",
"%.	c #A5A5A5",
"&.	c #A3A3A3",
"*.	c #504A46",
"=.	c #7E722C",
"-.	c #DCC23D",
";.	c #E4C12F",
">.	c #C6AB28",
",.	c #767971",
"'.	c #DADADA",
").	c #D7D7D7",
"!.	c #C9CACB",
"~.	c #BBBDBF",
"{.	c #B9BABB",
"].	c #AAAAAA",
"^.	c #86838A",
"/.	c #3A3136",
"(.	c #665B5F",
"_.	c #D7B643",
":.	c #DDBB2B",
"<.	c #CDB628",
"[.	c #615359",
"}.	c #3E364F",
"|.	c #B1B4A7",
"1.	c #DFDFDF",
"2.	c #D8D8D8",
"3.	c #C8C9C9",
"4.	c #B5B7B7",
"5.	c #B7B9B9",
"6.	c #B8B8B8",
"7.	c #AEAEAE",
"8.	c #A6A6A6",
"9.	c #6F6C67",
"0.	c #373133",
"a.	c #544143",
"b.	c #BCB63C",
"c.	c #4C3231",
"d.	c #3F3130",
"e.	c #86837E",
"f.	c #CCCCCC",
"g.	c #C4C5C5",
"h.	c #AEB0B0",
"i.	c #B0B2B2",
"j.	c #BABBBB",
"k.	c #BCBCBC",
"l.	c #BABABA",
"m.	c #BEBEBE",
"n.	c #9EA094",
"o.	c #6D6B6F",
"p.	c #525065",
"q.	c #75746B",
"r.	c #B2ABAF",
"s.	c #CBCBCB",
"t.	c #E1E1E1",
"u.	c #CFD0D0",
"v.	c #B8B9B9",
"w.	c #A8A9AA",
"x.	c #A9AAAB",
"y.	c #AEAFAF",
"z.	c #C4C4C4",
"A.	c #D9D9D9",
"B.	c #D6D6D6",
"C.	c #DDDDDD",
"D.	c #D0D0D0",
"E.	c #B7B8B8",
"F.	c #AFAFB0",
"G.	c #A1A2A3",
"H.	c #A2A3A4",
"I.	c #A6A7A8",
"J.	c #ACADAE",
"K.	c #B6B6B7",
"L.	c #BDBEBE",
"M.	c #C2C2C3",
"N.	c #C6C7C7",
"O.	c #C9CACA",
"P.	c #C0C0C1",
"Q.	c #ABACAD",
"R.	c #A3A4A5",
"S.	c #9B9B9C",
"T.	c #959595",
". . . . . . . . . . . . . . . . . ",
"+ + + + + + + + + + + + + + + + + ",
"@ # $ % & * = - ; > , ' ) ! ~ { @ ",
"] ^ / ( _ : < [ } | 1 2 3 4 5 6 ] ",
"7 8 9 0 : a b c d e f g h i j k 7 ",
"l m n o p q r s t u v w x y z A l ",
"B C n D E F G H I J K L M N O P B ",
"Q R S T U V W X K Y Z `  ...+.@.Q ",
"#.$.%.&.*.=.-.;.;.;.>.=.,.'.).!.#.",
"~.{.].S ^./.(._.:.<.[.}.|.1.2.3.~.",
"4.5.6.7.8.9.0.a.b.c.d.e.f.1.2.g.4.",
"h.i.j.k.l.m.n.o.p.q.r.s.1.t.u.v.h.",
"w.x.y.k.z.s...A.B.B.C.t.t.D.E.F.w.",
"G.G.H.I.J.K.L.M.N.O.N.P.; Q.I.R.G.",
"S.S.S.S.S.S.S.S.S.S.S.S.S.S.S.S.S.",
"T.T.T.T.T.T.T.T.T.T.T.T.T.T.T.T.T."};
