/* XPM */
static char * rollupP_xpm[] = {
"17 16 177 2",
"  	c None",
". 	c #F6FAFE",
"+ 	c #EFF4F7",
"@ 	c #E9EDEF",
"# 	c #E6EAEC",
"$ 	c #E4E7E9",
"% 	c #DFE2E4",
"& 	c #D5D8D9",
"* 	c #C1C3C4",
"= 	c #B6B8B9",
"- 	c #B2B4B5",
"; 	c #B4B5B6",
"> 	c #B3B5B5",
", 	c #B8B9BA",
"' 	c #C0C2C3",
") 	c #C2C4C5",
"! 	c #CACCCD",
"~ 	c #D4D7D8",
"{ 	c #E1E4E6",
"] 	c #E2E6E9",
"^ 	c #DCDFE2",
"/ 	c #D1D4D6",
"( 	c #B6B7B8",
"_ 	c #999999",
": 	c #979797",
"< 	c #B3B4AA",
"[ 	c #7C7A7E",
"} 	c #525065",
"| 	c #84837A",
"1 	c #BEBABC",
"2 	c #AAABAC",
"3 	c #BEC0C2",
"4 	c #C3C5C7",
"5 	c #BFC1C2",
"6 	c #D2D5D7",
"7 	c #DCDFE1",
"8 	c #D0D2D4",
"9 	c #B0B1B1",
"0 	c #9C9C9C",
"a 	c #8A8883",
"b 	c #373133",
"c 	c #544143",
"d 	c #BCB63C",
"e 	c #4C3231",
"f 	c #3F3130",
"g 	c #9D9A94",
"h 	c #B1B2B3",
"i 	c #C3C5C6",
"j 	c #C8C9CA",
"k 	c #C9CBCC",
"l 	c #D5D8DB",
"m 	c #C1C2C4",
"n 	c #A1A1A1",
"o 	c #9A9A9A",
"p 	c #A5A2A3",
"q 	c #3A3136",
"r 	c #665B5F",
"s 	c #D7B643",
"t 	c #DDBB2B",
"u 	c #CDB628",
"v 	c #615359",
"w 	c #3E364F",
"x 	c #C0C1BA",
"y 	c #BFBFC0",
"z 	c #C4C5C6",
"A 	c #C7C8CA",
"B 	c #CFD2D4",
"C 	c #BEC0C1",
"D 	c #9B9B9B",
"E 	c #635D5A",
"F 	c #7E722C",
"G 	c #DCC23D",
"H 	c #E4C12F",
"I 	c #C6AB28",
"J 	c #848780",
"K 	c #C5C5C5",
"L 	c #C7C8C8",
"M 	c #C5C6C7",
"N 	c #C8CBCD",
"O 	c #BCBEBF",
"P 	c #A4A4A4",
"Q 	c #A0A0A0",
"R 	c #484330",
"S 	c #79603B",
"T 	c #867039",
"U 	c #DCC15A",
"V 	c #DDC034",
"W 	c #DEB644",
"X 	c #644E40",
"Y 	c #69534B",
"Z 	c #575664",
"` 	c #D2D2D2",
" .	c #CDCDCD",
"..	c #C7C8C9",
"+.	c #C2C4C6",
"@.	c #BABBBC",
"#.	c #A5A5A5",
"$.	c #A3A3A3",
"%.	c #69615C",
"&.	c #C9AE35",
"*.	c #C5AB32",
"=.	c #DABC37",
"-.	c #DABA2F",
";.	c #D9B92F",
">.	c #C2A636",
",.	c #787772",
"'.	c #DADADA",
").	c #D7D7D7",
"!.	c #C9CACB",
"~.	c #BBBDBF",
"{.	c #B9BABB",
"].	c #AAAAAA",
"^.	c #A7A39E",
"/.	c #D2B534",
"(.	c #D0B754",
"_.	c #D5B937",
":.	c #D8BC40",
"<.	c #D0B53D",
"[.	c #DCC03F",
"}.	c #D1B433",
"|.	c #BBBBB7",
"1.	c #DFDFDF",
"2.	c #D8D8D8",
"3.	c #C8C9C9",
"4.	c #B5B7B7",
"5.	c #B7B9B9",
"6.	c #B8B8B8",
"7.	c #AEAEAE",
"8.	c #A6A6A6",
"9.	c #9B9792",
"0.	c #705C2D",
"a.	c #79692C",
"b.	c #7B6C2C",
"c.	c #81722C",
"d.	c #8F7C46",
"e.	c #A89F81",
"f.	c #CCCCCC",
"g.	c #C4C5C5",
"h.	c #AEB0B0",
"i.	c #B0B2B2",
"j.	c #BABBBB",
"k.	c #BCBCBC",
"l.	c #BABABA",
"m.	c #BEBEBE",
"n.	c #B0AFA5",
"o.	c #715F5C",
"p.	c #5A4230",
"q.	c #877D5A",
"r.	c #B5B2B5",
"s.	c #CBCBCB",
"t.	c #E1E1E1",
"u.	c #CFD0D0",
"v.	c #B8B9B9",
"w.	c #A8A9AA",
"x.	c #A9AAAB",
"y.	c #AEAFAF",
"z.	c #C4C4C4",
"A.	c #D9D9D9",
"B.	c #D6D6D6",
"C.	c #DDDDDD",
"D.	c #D0D0D0",
"E.	c #B7B8B8",
"F.	c #AFAFB0",
"G.	c #A1A2A3",
"H.	c #A2A3A4",
"I.	c #A6A7A8",
"J.	c #ACADAE",
"K.	c #B6B6B7",
"L.	c #BDBEBE",
"M.	c #C2C2C3",
"N.	c #C6C7C7",
"O.	c #C9CACA",
"P.	c #C0C0C1",
"Q.	c #ABACAD",
"R.	c #A3A4A5",
"S.	c #9B9B9C",
"T.	c #959595",
". . . . . . . . . . . . . . . . . ",
"+ + + + + + + + + + + + + + + + + ",
"@ # $ % & * = - ; > , ' ) ! ~ { @ ",
"] ^ / ( _ : < [ } | 1 2 3 4 5 6 ] ",
"7 8 9 0 : a b c d e f g h i j k 7 ",
"l m n o p q r s t u v w x y z A l ",
"B C n D E F G H H H I F J K L M B ",
"N O P Q R S T U V W X Y Z `  ...N ",
"+.@.#.$.%.&.*.=.-.;.V >.,.'.).!.+.",
"~.{.].P ^./.(._.:.<.[.}.|.1.2.3.~.",
"4.5.6.7.8.9.0.a.b.c.d.e.f.1.2.g.4.",
"h.i.j.k.l.m.n.o.p.q.r.s.1.t.u.v.h.",
"w.x.y.k.z.s.` A.B.B.C.t.t.D.E.F.w.",
"G.G.H.I.J.K.L.M.N.O.N.P.; Q.I.R.G.",
"S.S.S.S.S.S.S.S.S.S.S.S.S.S.S.S.S.",
"T.T.T.T.T.T.T.T.T.T.T.T.T.T.T.T.T."};
