/* XPM */
static char * rollupA_xpm[] = {
"17 16 225 2",
"  	c None",
". 	c #F4F4F4",
"+ 	c #F2F2F2",
"@ 	c #F5F5F5",
"# 	c #FBFBFB",
"$ 	c #F9F9F9",
"% 	c #F9FCFF",
"& 	c #F6FBFE",
"* 	c #F3F6FF",
"= 	c #FCFFFD",
"- 	c #FDFEFF",
"; 	c #F5F5F7",
"> 	c #F1F0EE",
", 	c #FBF9FC",
"' 	c #F1F1F1",
") 	c #E9E9E9",
"! 	c #ECECEC",
"~ 	c #E1E5E4",
"{ 	c #E0E8DD",
"] 	c #E1E9DE",
"^ 	c #E4EADC",
"/ 	c #E5E7E2",
"( 	c #F0F0EE",
"_ 	c #F4F3EF",
": 	c #E9E6E1",
"< 	c #E5E5E5",
"[ 	c #E7E7E7",
"} 	c #F0F0F0",
"| 	c #EFEFEF",
"1 	c #D9D9D9",
"2 	c #BCBCBC",
"3 	c #B2ABB2",
"4 	c #A7A3A0",
"5 	c #B2B4A9",
"6 	c #C5C6CA",
"7 	c #D0D0DC",
"8 	c #DBD9E7",
"9 	c #E7E4EF",
"0 	c #EDE8EF",
"a 	c #E1E1E1",
"b 	c #EBEBEB",
"c 	c #EEEEEE",
"d 	c #C7C7C7",
"e 	c #929088",
"f 	c #A8A999",
"g 	c #7B7C7F",
"h 	c #525065",
"i 	c #84847D",
"j 	c #B6B0B4",
"k 	c #9E9DA7",
"l 	c #CECDD2",
"m 	c #D5D6CE",
"n 	c #E1E1D7",
"o 	c #DEDEDE",
"p 	c #E8E8E8",
"q 	c #CCCCCC",
"r 	c #878373",
"s 	c #85827C",
"t 	c #373133",
"u 	c #544143",
"v 	c #BCB63C",
"w 	c #4C3231",
"x 	c #3F3130",
"y 	c #99968D",
"z 	c #B1B1B3",
"A 	c #CACBCD",
"B 	c #C8C8D2",
"C 	c #DCDCDC",
"D 	c #D7D7D7",
"E 	c #E4E4E4",
"F 	c #E0E0E0",
"G 	c #B8B8B8",
"H 	c #979191",
"I 	c #3A3136",
"J 	c #665B5F",
"K 	c #D7B643",
"L 	c #DDBB2B",
"M 	c #CDB628",
"N 	c #615359",
"O 	c #3E364F",
"P 	c #B5B7AB",
"Q 	c #BBC0B9",
"R 	c #B3B7BA",
"S 	c #CECECE",
"T 	c #CCCEC9",
"U 	c #E0E4E3",
"V 	c #CCD0D1",
"W 	c #A5A5A7",
"X 	c #605C56",
"Y 	c #7E722C",
"Z 	c #DCC23D",
"` 	c #E4C12F",
" .	c #C6AB28",
"..	c #83867E",
"+.	c #D1CCE2",
"@.	c #A0988B",
"#.	c #BEBEC0",
"$.	c #C3C3C1",
"%.	c #D1D3CE",
"&.	c #C6CACB",
"*.	c #A3A1AE",
"=.	c #484330",
"-.	c #79603B",
";.	c #867039",
">.	c #DCC15A",
",.	c #DDC034",
"'.	c #DEB644",
").	c #644E40",
"!.	c #69534B",
"~.	c #575664",
"{.	c #D7E0E5",
"].	c #80857E",
"^.	c #B5B2B9",
"/.	c #BBBCB6",
"(.	c #CFD2CB",
"_.	c #B3B3BB",
":.	c #ABAAB2",
"<.	c #675E5A",
"[.	c #C9AE35",
"}.	c #C5AB32",
"|.	c #DABC37",
"1.	c #DABA2F",
"2.	c #D9B92F",
"3.	c #C2A636",
"4.	c #75736E",
"5.	c #D2DBD6",
"6.	c #797687",
"7.	c #B1B0AB",
"8.	c #BDBBBE",
"9.	c #C1C4BD",
"0.	c #B6B8B3",
"a.	c #A8A7AF",
"b.	c #999286",
"c.	c #D2B534",
"d.	c #D0B754",
"e.	c #D5B937",
"f.	c #D8BC40",
"g.	c #D0B53D",
"h.	c #DCC03F",
"i.	c #D1B433",
"j.	c #AAABA6",
"k.	c #BBBAB6",
"l.	c #85817E",
"m.	c #A8A4A5",
"n.	c #B5B3B4",
"o.	c #BFBEC3",
"p.	c #A5A5A3",
"q.	c #9B9C97",
"r.	c #94948C",
"s.	c #99948E",
"t.	c #705C2D",
"u.	c #79692C",
"v.	c #7B6C2C",
"w.	c #81722C",
"x.	c #8F7C46",
"y.	c #A79A73",
"z.	c #D6D6CA",
"A.	c #85848A",
"B.	c #7C807F",
"C.	c #A2A19F",
"D.	c #ABACA7",
"E.	c #B4B3B9",
"F.	c #ABA9B4",
"G.	c #90918C",
"H.	c #92938D",
"I.	c #B4B5AF",
"J.	c #A09E8C",
"K.	c #6E5854",
"L.	c #5A4230",
"M.	c #857A53",
"N.	c #A29FA2",
"O.	c #D0CABC",
"P.	c #9B9D9A",
"Q.	c #686C75",
"R.	c #94929D",
"S.	c #AAA9A4",
"T.	c #A7A6AB",
"U.	c #A3A3A1",
"V.	c #A0A09E",
"W.	c #9D9BA8",
"X.	c #81818B",
"Y.	c #7C8081",
"Z.	c #A6A9B0",
"`.	c #CCCEC1",
" +	c #DFE7DA",
".+	c #C9D3CA",
"++	c #BBBAC0",
"@+	c #818183",
"#+	c #6A6F5B",
"$+	c #7F7F87",
"%+	c #9D998D",
"&+	c #A1A0A8",
"*+	c #A4A5A0",
"=+	c #A5A3A4",
"-+	c #A09E9F",
";+	c #9A9B96",
">+	c #949693",
",+	c #7C8282",
"'+	c #656B69",
")+	c #595965",
"!+	c #54534F",
"~+	c #5C5C5E",
"{+	c #5A5C69",
"]+	c #6E716A",
"^+	c #847B90",
"/+	c #989294",
"(+	c #97979F",
"_+	c #9FA1A0",
":+	c #9D9D9D",
"<+	c #9B9B9B",
"[+	c #969696",
"}+	c #909090",
"|+	c #8B8B8B",
"1+	c #818181",
"2+	c #7F7F7F",
"3+	c #7E7E7E",
"4+	c #898989",
"5+	c #919191",
"6+	c #979797",
"7+	c #999999",
"8+	c #9E9E9E",
"9+	c #9C9C9C",
"0+	c #959595",
"a+	c #939393",
"b+	c #949494",
". + @ . # # $ % & * = - ; > , ' . ",
") ! . + ' ' ' ~ { ] ^ / ( _ : ! ) ",
"< [ [ } | 1 2 3 4 5 6 7 8 9 0 [ < ",
"a b c | d e f g h i j k l m n a a ",
"o p b q r s t u v w x y z A B C o ",
"D E F G H I J K L M N O P Q R S D ",
"T U V W X Y Z ` ` `  .Y ..+.@.#.T ",
"$.%.&.*.=.-.;.>.,.'.).!.~.{.].^.$.",
"/.(._.:.<.[.}.|.1.2.,.3.4.5.6.7./.",
"8.9.0.a.b.c.d.e.f.g.h.i.j.k.l.m.8.",
"n.o.p.q.r.s.t.u.v.w.x.y.z.A.B.C.n.",
"D.E.F.G.H.I.J.K.L.M.N.O.P.Q.R.S.D.",
"T.U.V.W.X.Y.Z.`. +.+++@+#+$+%+&+T.",
"*+=+-+;+>+,+'+)+!+~+{+]+^+/+(+_+*+",
":+:+:+<+[+}+|+1+2+3+1+4+5+6+7+:+:+",
":+8+8+8+9+7+[+6+0+a+b+6+<+:+:+:+:+"};
