/* XPM */
static char * hideA_xpm[] = {
"17 16 213 2",
"  	c None",
". 	c #F4F4F4",
"+ 	c #F2F2F2",
"@ 	c #F5F5F5",
"# 	c #FBFBFB",
"$ 	c #F9F9F9",
"% 	c #F9FCFF",
"& 	c #F6FBFE",
"* 	c #F3F6FF",
"= 	c #FCFFFD",
"- 	c #FDFEFF",
"; 	c #F5F5F7",
"> 	c #F1F0EE",
", 	c #FBF9FC",
"' 	c #F1F1F1",
") 	c #E9E9E9",
"! 	c #ECECEC",
"~ 	c #E1E5E4",
"{ 	c #E0E8DD",
"] 	c #E1E9DE",
"^ 	c #E4EADC",
"/ 	c #E5E7E2",
"( 	c #F0F0EE",
"_ 	c #F4F3EF",
": 	c #E9E6E1",
"< 	c #E5E5E5",
"[ 	c #E7E7E7",
"} 	c #F0F0F0",
"| 	c #EFEFEF",
"1 	c #D9D9D9",
"2 	c #BCBCBC",
"3 	c #B2ABB2",
"4 	c #A7A3A0",
"5 	c #B2B4A9",
"6 	c #C5C6CA",
"7 	c #D0D0DC",
"8 	c #DBD9E7",
"9 	c #E7E4EF",
"0 	c #EDE8EF",
"a 	c #E1E1E1",
"b 	c #EBEBEB",
"c 	c #EEEEEE",
"d 	c #C7C7C7",
"e 	c #929088",
"f 	c #A8A999",
"g 	c #7B7C7F",
"h 	c #525065",
"i 	c #84847D",
"j 	c #B6B0B4",
"k 	c #9E9DA7",
"l 	c #CECDD2",
"m 	c #D5D6CE",
"n 	c #E1E1D7",
"o 	c #DEDEDE",
"p 	c #E8E8E8",
"q 	c #CCCCCC",
"r 	c #878373",
"s 	c #8F8973",
"t 	c #4B4233",
"u 	c #3D3236",
"v 	c #3D3436",
"w 	c #4B3933",
"x 	c #625231",
"y 	c #A59D7C",
"z 	c #B1B1B3",
"A 	c #CACBCD",
"B 	c #C8C8D2",
"C 	c #DCDCDC",
"D 	c #D7D7D7",
"E 	c #E4E4E4",
"F 	c #E0E0E0",
"G 	c #B8B8B8",
"H 	c #979191",
"I 	c #D8BC34",
"J 	c #DCBF34",
"K 	c #9D8834",
"L 	c #726234",
"M 	c #DDC034",
"N 	c #B5B7AB",
"O 	c #BBC0B9",
"P 	c #B3B7BA",
"Q 	c #CECECE",
"R 	c #CCCEC9",
"S 	c #E0E4E3",
"T 	c #CCD0D1",
"U 	c #A5A5A7",
"V 	c #605C56",
"W 	c #DABE34",
"X 	c #3A3136",
"Y 	c #423835",
"Z 	c #443935",
"` 	c #413735",
" .	c #4A3E35",
"..	c #70716C",
"+.	c #D1CCE2",
"@.	c #A0988B",
"#.	c #BEBEC0",
"$.	c #C3C3C1",
"%.	c #D1D3CE",
"&.	c #C6CACB",
"*.	c #A3A1AE",
"=.	c #484330",
"-.	c #8A7734",
";.	c #3E3536",
">.	c #3A3135",
",.	c #3B3236",
"'.	c #3E3435",
").	c #7B6A34",
"!.	c #48444E",
"~.	c #D7E0E5",
"{.	c #80857E",
"].	c #B5B2B9",
"^.	c #BBBCB6",
"/.	c #CFD2CB",
"(.	c #B3B3BB",
"_.	c #ABAAB2",
":.	c #675E5A",
"<.	c #3E3436",
"[.	c #3F3535",
"}.	c #847334",
"|.	c #575252",
"1.	c #D2DBD6",
"2.	c #797687",
"3.	c #B1B0AB",
"4.	c #BDBBBE",
"5.	c #C1C4BD",
"6.	c #B6B8B3",
"7.	c #A8A7AF",
"8.	c #999286",
"9.	c #CDB234",
"0.	c #3F3635",
"a.	c #403535",
"b.	c #A3A39F",
"c.	c #BBBAB6",
"d.	c #85817E",
"e.	c #A8A4A5",
"f.	c #B5B3B4",
"g.	c #BFBEC3",
"h.	c #A5A5A3",
"i.	c #9B9C97",
"j.	c #94948C",
"k.	c #D9BD38",
"l.	c #948034",
"m.	c #988334",
"n.	c #D6D6CA",
"o.	c #85848A",
"p.	c #7C807F",
"q.	c #A2A19F",
"r.	c #ABACA7",
"s.	c #B4B3B9",
"t.	c #ABA9B4",
"u.	c #90918C",
"v.	c #92938D",
"w.	c #BBB798",
"x.	c #A6A181",
"y.	c #524539",
"z.	c #413534",
"A.	c #544A40",
"B.	c #888387",
"C.	c #D0CABC",
"D.	c #9B9D9A",
"E.	c #686C75",
"F.	c #94929D",
"G.	c #AAA9A4",
"H.	c #A7A6AB",
"I.	c #A3A3A1",
"J.	c #A0A09E",
"K.	c #9D9BA8",
"L.	c #81818B",
"M.	c #7C8081",
"N.	c #A6A9B0",
"O.	c #CCCEC1",
"P.	c #DFE7DA",
"Q.	c #C9D3CA",
"R.	c #BBBAC0",
"S.	c #818183",
"T.	c #6A6F5B",
"U.	c #7F7F87",
"V.	c #9D998D",
"W.	c #A1A0A8",
"X.	c #A4A5A0",
"Y.	c #A5A3A4",
"Z.	c #A09E9F",
"`.	c #9A9B96",
" +	c #949693",
".+	c #7C8282",
"++	c #656B69",
"@+	c #595965",
"#+	c #54534F",
"$+	c #5C5C5E",
"%+	c #5A5C69",
"&+	c #6E716A",
"*+	c #847B90",
"=+	c #989294",
"-+	c #97979F",
";+	c #9FA1A0",
">+	c #9D9D9D",
",+	c #9B9B9B",
"'+	c #969696",
")+	c #909090",
"!+	c #8B8B8B",
"~+	c #818181",
"{+	c #7F7F7F",
"]+	c #7E7E7E",
"^+	c #898989",
"/+	c #919191",
"(+	c #979797",
"_+	c #999999",
":+	c #9E9E9E",
"<+	c #9C9C9C",
"[+	c #959595",
"}+	c #939393",
"|+	c #949494",
". + @ . # # $ % & * = - ; > , ' . ",
") ! . + ' ' ' ~ { ] ^ / ( _ : ! ) ",
"< [ [ } | 1 2 3 4 5 6 7 8 9 0 [ < ",
"a b c | d e f g h i j k l m n a a ",
"o p b q r s t u v w x y z A B C o ",
"D E F G H I J K L K M M N O P Q D ",
"R S T U V W X Y Z `  .M ..+.@.#.R ",
"$.%.&.*.=.-.X ;.>.,.'.).!.~.{.].$.",
"^./.(._.:.L ` <.X [.X }.|.1.2.3.^.",
"4.5.6.7.8.9.0.X a.<.X 9.b.c.d.e.4.",
"f.g.h.i.j.k.M l.).m.M M n.o.p.q.f.",
"r.s.t.u.v.w.x.y.z.A.B.C.D.E.F.G.r.",
"H.I.J.K.L.M.N.O.P.Q.R.S.T.U.V.W.H.",
"X.Y.Z.`. +.+++@+#+$+%+&+*+=+-+;+X.",
">+>+>+,+'+)+!+~+{+]+~+^+/+(+_+>+>+",
">+:+:+:+<+_+'+(+[+}+|+(+,+>+>+>+>+"};
