/* XPM */
static char * hideP_xpm[] = {
"17 16 165 2",
"  	c None",
". 	c #F6FAFE",
"+ 	c #EFF4F7",
"@ 	c #E9EDEF",
"# 	c #E6EAEC",
"$ 	c #E4E7E9",
"% 	c #DFE2E4",
"& 	c #D5D8D9",
"* 	c #C1C3C4",
"= 	c #B6B8B9",
"- 	c #B2B4B5",
"; 	c #B4B5B6",
"> 	c #B3B5B5",
", 	c #B8B9BA",
"' 	c #C0C2C3",
") 	c #C2C4C5",
"! 	c #CACCCD",
"~ 	c #D4D7D8",
"{ 	c #E1E4E6",
"] 	c #E2E6E9",
"^ 	c #DCDFE2",
"/ 	c #D1D4D6",
"( 	c #B6B7B8",
"_ 	c #999999",
": 	c #979797",
"< 	c #959283",
"[ 	c #604B48",
"} 	c #5A4230",
"| 	c #796E46",
"1 	c #959295",
"2 	c #AAABAC",
"3 	c #BEC0C2",
"4 	c #C3C5C7",
"5 	c #BFC1C2",
"6 	c #D2D5D7",
"7 	c #DCDFE1",
"8 	c #D0D2D4",
"9 	c #B0B1B1",
"0 	c #9C9C9C",
"a 	c #87827B",
"b 	c #705C2D",
"c 	c #79692C",
"d 	c #7B6C2C",
"e 	c #81722C",
"f 	c #8F7C46",
"g 	c #978B63",
"h 	c #B1B2B3",
"i 	c #C3C5C6",
"j 	c #C8C9CA",
"k 	c #C9CBCC",
"l 	c #D5D8DB",
"m 	c #C1C2C4",
"n 	c #A1A1A1",
"o 	c #9A9A9A",
"p 	c #8D8679",
"q 	c #D8BC34",
"r 	c #DCBF34",
"s 	c #9D8834",
"t 	c #726234",
"u 	c #DDC034",
"v 	c #A0A09D",
"w 	c #BFBFC0",
"x 	c #C4C5C6",
"y 	c #C7C8CA",
"z 	c #CFD2D4",
"A 	c #BEC0C1",
"B 	c #9B9B9B",
"C 	c #574E49",
"D 	c #DABE34",
"E 	c #3A3136",
"F 	c #423835",
"G 	c #443935",
"H 	c #413735",
"I 	c #4A3E35",
"J 	c #686761",
"K 	c #C5C5C5",
"L 	c #C7C8C8",
"M 	c #C5C6C7",
"N 	c #C8CBCD",
"O 	c #BCBEBF",
"P 	c #A4A4A4",
"Q 	c #A0A0A0",
"R 	c #484330",
"S 	c #8A7734",
"T 	c #3E3536",
"U 	c #3A3135",
"V 	c #3B3236",
"W 	c #3E3435",
"X 	c #7B6A34",
"Y 	c #575664",
"Z 	c #D2D2D2",
"` 	c #CDCDCD",
" .	c #C7C8C9",
"..	c #C2C4C6",
"+.	c #BABBBC",
"@.	c #A5A5A5",
"#.	c #A3A3A3",
"$.	c #504A46",
"%.	c #3E3436",
"&.	c #3F3535",
"*.	c #847334",
"=.	c #767971",
"-.	c #DADADA",
";.	c #D7D7D7",
">.	c #C9CACB",
",.	c #BBBDBF",
"'.	c #B9BABB",
").	c #AAAAAA",
"!.	c #86838A",
"~.	c #CDB234",
"{.	c #3F3635",
"].	c #403535",
"^.	c #B1B4A7",
"/.	c #DFDFDF",
"(.	c #D8D8D8",
"_.	c #C8C9C9",
":.	c #B5B7B7",
"<.	c #B7B9B9",
"[.	c #B8B8B8",
"}.	c #AEAEAE",
"|.	c #A6A6A6",
"1.	c #D9BD38",
"2.	c #948034",
"3.	c #988334",
"4.	c #CCCCCC",
"5.	c #C4C5C5",
"6.	c #AEB0B0",
"7.	c #B0B2B2",
"8.	c #BABBBB",
"9.	c #BCBCBC",
"0.	c #BABABA",
"a.	c #BEBEBE",
"b.	c #9EA094",
"c.	c #6D6B6F",
"d.	c #525065",
"e.	c #75746B",
"f.	c #B2ABAF",
"g.	c #CBCBCB",
"h.	c #E1E1E1",
"i.	c #CFD0D0",
"j.	c #B8B9B9",
"k.	c #A8A9AA",
"l.	c #A9AAAB",
"m.	c #AEAFAF",
"n.	c #C4C4C4",
"o.	c #D9D9D9",
"p.	c #D6D6D6",
"q.	c #DDDDDD",
"r.	c #D0D0D0",
"s.	c #B7B8B8",
"t.	c #AFAFB0",
"u.	c #A1A2A3",
"v.	c #A2A3A4",
"w.	c #A6A7A8",
"x.	c #ACADAE",
"y.	c #B6B6B7",
"z.	c #BDBEBE",
"A.	c #C2C2C3",
"B.	c #C6C7C7",
"C.	c #C9CACA",
"D.	c #C0C0C1",
"E.	c #ABACAD",
"F.	c #A3A4A5",
"G.	c #9B9B9C",
"H.	c #959595",
". . . . . . . . . . . . . . . . . ",
"+ + + + + + + + + + + + + + + + + ",
"@ # $ % & * = - ; > , ' ) ! ~ { @ ",
"] ^ / ( _ : < [ } | 1 2 3 4 5 6 ] ",
"7 8 9 0 : a b c d e f g h i j k 7 ",
"l m n o p q r s t s u u v w x y l ",
"z A n B C D E F G H I u J K L M z ",
"N O P Q R S E T U V W X Y Z `  .N ",
"..+.@.#.$.t H %.E &.E *.=.-.;.>...",
",.'.).P !.~.{.E ].%.E ~.^./.(._.,.",
":.<.[.}.|.1.u 2.X 3.u u 4./.(.5.:.",
"6.7.8.9.0.a.b.c.d.e.f.g./.h.i.j.6.",
"k.l.m.9.n.g.Z o.p.p.q.h.h.r.s.t.k.",
"u.u.v.w.x.y.z.A.B.C.B.D.; E.w.F.u.",
"G.G.G.G.G.G.G.G.G.G.G.G.G.G.G.G.G.",
"H.H.H.H.H.H.H.H.H.H.H.H.H.H.H.H.H."};
