/* XPM */
static char * hideI_xpm[] = {
"17 16 132 2",
"  	c None",
". 	c #F4F4F4",
"+ 	c #F2F2F2",
"@ 	c #F5F5F5",
"# 	c #FBFBFB",
"$ 	c #F9F9F9",
"% 	c #F6F6F6",
"& 	c #FDFDFD",
"* 	c #F0F0F0",
"= 	c #F1F1F1",
"- 	c #E9E9E9",
"; 	c #ECECEC",
"> 	c #E3E3E3",
", 	c #E4E4E4",
"' 	c #E5E5E5",
") 	c #E6E6E6",
"! 	c #EFEFEF",
"~ 	c #E7E7E7",
"{ 	c #D9D9D9",
"] 	c #BCBCBC",
"^ 	c #ADADAD",
"/ 	c #A3A3A3",
"( 	c #B2B2B2",
"_ 	c #C6C6C6",
": 	c #D1D1D1",
"< 	c #DBDBDB",
"[ 	c #EAEAEA",
"} 	c #E1E1E1",
"| 	c #EBEBEB",
"1 	c #EEEEEE",
"2 	c #C7C7C7",
"3 	c #8F8F8F",
"4 	c #A6A6A6",
"5 	c #7C7C7C",
"6 	c #525252",
"7 	c #838383",
"8 	c #9E9E9E",
"9 	c #CDCDCD",
"0 	c #D4D4D4",
"a 	c #DFDFDF",
"b 	c #DEDEDE",
"c 	c #E8E8E8",
"d 	c #CCCCCC",
"e 	c #828282",
"f 	c #888888",
"g 	c #434343",
"h 	c #353535",
"i 	c #363636",
"j 	c #3D3D3D",
"k 	c #535353",
"l 	c #9B9B9B",
"m 	c #B1B1B1",
"n 	c #CACACA",
"o 	c #C9C9C9",
"p 	c #DCDCDC",
"q 	c #D7D7D7",
"r 	c #E0E0E0",
"s 	c #B8B8B8",
"t 	c #929292",
"u 	c #B5B5B5",
"v 	c #858585",
"w 	c #616161",
"x 	c #B9B9B9",
"y 	c #BDBDBD",
"z 	c #B6B6B6",
"A 	c #CECECE",
"B 	c #E2E2E2",
"C 	c #A5A5A5",
"D 	c #5C5C5C",
"E 	c #B7B7B7",
"F 	c #343434",
"G 	c #3A3A3A",
"H 	c #3B3B3B",
"I 	c #393939",
"J 	c #404040",
"K 	c #707070",
"L 	c #CFCFCF",
"M 	c #989898",
"N 	c #BEBEBE",
"O 	c #C2C2C2",
"P 	c #C8C8C8",
"Q 	c #424242",
"R 	c #757575",
"S 	c #373737",
"T 	c #696969",
"U 	c #464646",
"V 	c #DDDDDD",
"W 	c #B3B3B3",
"X 	c #BBBBBB",
"Y 	c #D0D0D0",
"Z 	c #ABABAB",
"` 	c #606060",
" .	c #383838",
"..	c #717171",
"+.	c #787878",
"@.	c #AFAFAF",
"#.	c #A8A8A8",
"$.	c #ACACAC",
"%.	c #A2A2A2",
"&.	c #818181",
"*.	c #A4A4A4",
"=.	c #939393",
"-.	c #7D7D7D",
";.	c #808080",
">.	c #848484",
",.	c #7E7E7E",
"'.	c #A1A1A1",
").	c #AAAAAA",
"!.	c #909090",
"~.	c #B4B4B4",
"{.	c #474747",
"].	c #4B4B4B",
"^.	c #9C9C9C",
"/.	c #6B6B6B",
"(.	c #9F9F9F",
"_.	c #9D9D9D",
":.	c #CBCBCB",
"<.	c #BABABA",
"[.	c #7F7F7F",
"}.	c #9A9A9A",
"|.	c #959595",
"1.	c #686868",
"2.	c #5A5A5A",
"3.	c #6F6F6F",
"4.	c #949494",
"5.	c #979797",
"6.	c #A0A0A0",
"7.	c #969696",
"8.	c #8B8B8B",
"9.	c #898989",
"0.	c #919191",
"a.	c #999999",
". + @ . # # $ # $ % & & @ * $ = . ",
"- ; . + = = = > , ' ) ' ! + ) ; - ",
"' ~ ~ * ! { ] ^ / ( _ : < ) [ ~ ' ",
"} | 1 ! 2 3 4 5 6 7 ( 8 9 0 a } } ",
"b c | d e f g h i j k l m n o p b ",
"q , r s t u s v w v x x u y z A q ",
"d B A C D E F G H I J x K L M N d ",
"O : P / Q R F S F h S T U V e W O ",
"X Y W Z ` w I S F  .F ..k q +.@.X ",
"X O z #.t $. .F  .S F $.%.x &.C X ",
"W N *.l =.z x -.T ;.x x 0 >.,.'.W ",
"Z W ).!.t ~.8 {. .].>.n ^./.=.#.Z ",
"4 %.(._.e ,.#.:.> L <.&./.[.M '.4 ",
"*./ 8 }.|.;.1.2.6 D D 3.;.4.5.6.*.",
"_._._.l 7.!.8.&.[.,.&.9.0.5.a._._.",
"_.8 8 8 ^.a.7.5.|.=.4.5.l _._._._."};
