/* XPM */
static char * titleRA_xpm[] = {
"16 16 171 2",
"  	c None",
". 	c #98ABD6",
"+ 	c #99A6CC",
"@ 	c #D1CBCD",
"# 	c #CED8DA",
"$ 	c #A0B8DC",
"% 	c #A6ABD3",
"& 	c #CFCCD7",
"* 	c #CDD7E3",
"= 	c #AABDE5",
"- 	c #A3A6B9",
"; 	c #6381C6",
"> 	c #D2CFD6",
", 	c #A7B3C9",
"' 	c #6D8DC0",
") 	c #99A7CE",
"! 	c #D2D4E0",
"~ 	c #A6B7D1",
"{ 	c #6281BA",
"] 	c #AFB2C5",
"^ 	c #5F7FC2",
"/ 	c #BBC9D4",
"( 	c #C6C9D8",
"_ 	c #8598C2",
": 	c #7395C5",
"< 	c #B7C8DC",
"[ 	c #C5CDD8",
"} 	c #849CC0",
"| 	c #6F93CD",
"1 	c #C9CDD6",
"2 	c #5C7CBE",
"3 	c #7F9BCA",
"4 	c #C2CBC6",
"5 	c #A9B8CD",
"6 	c #6382B8",
"7 	c #7B99BF",
"8 	c #C2CDCF",
"9 	c #A8B5C6",
"0 	c #6281B0",
"a 	c #7E9FCC",
"b 	c #D6DCDC",
"c 	c #587ABA",
"d 	c #8CA7C4",
"e 	c #C2C3BE",
"f 	c #91ABC6",
"g 	c #5984BB",
"h 	c #8DA5C1",
"i 	c #C4C4C2",
"j 	c #95A6C4",
"k 	c #5F82BC",
"l 	c #97AECD",
"m 	c #D9DFDD",
"n 	c #5577B6",
"o 	c #92ADCA",
"p 	c #C4BEC2",
"q 	c #7897B6",
"r 	c #4F81B6",
"s 	c #A0B2CA",
"t 	c #C4BBBC",
"u 	c #8091BD",
"v 	c #5A80C1",
"w 	c #A9B9D0",
"x 	c #5274B3",
"y 	c #ABADBA",
"z 	c #B9BAB2",
"A 	c #5D85B8",
"B 	c #5177B5",
"C 	c #B0ACBA",
"D 	c #BABABA",
"E 	c #5E89B6",
"F 	c #527AB5",
"G 	c #C2BDD3",
"H 	c #D3D3D3",
"I 	c #4E72AF",
"J 	c #AAAEB9",
"K 	c #AFB0AB",
"L 	c #5880B3",
"M 	c #5278B6",
"N 	c #AFADB8",
"O 	c #B3B3B3",
"P 	c #557DAE",
"Q 	c #5178B3",
"R 	c #C6C4D2",
"S 	c #CCCCCC",
"T 	c #4B6FAB",
"U 	c #A4ABB3",
"V 	c #A9A7AA",
"W 	c #5479AD",
"X 	c #4F76B1",
"Y 	c #AAAAB2",
"Z 	c #ABABA9",
"` 	c #4F74A8",
" .	c #4E75B0",
"..	c #C3C6CB",
"+.	c #C6C6C6",
"@.	c #476DA7",
"#.	c #9DA6AD",
"$.	c #A9A4AB",
"%.	c #5276A6",
"&.	c #486FA8",
"*.	c #9FA2AB",
"=.	c #A4A6A3",
"-.	c #5172A5",
";.	c #4C70AC",
">.	c #B3BDBE",
",.	c #C0C0C0",
"'.	c #446AA4",
").	c #8D9AA3",
"!.	c #A39EA5",
"~.	c #5576A1",
"{.	c #446BA2",
"].	c #8F95A5",
"^.	c #9EA09D",
"/.	c #5675A3",
"(.	c #4A6EA8",
"_.	c #A2B0B3",
":.	c #B7B7B7",
"<.	c #4167A0",
"[.	c #7C899A",
"}.	c #999299",
"|.	c #597A99",
"1.	c #426A9E",
"2.	c #7F859F",
"3.	c #959794",
"4.	c #5C7A9C",
"5.	c #486BA3",
"6.	c #8E9FAF",
"7.	c #B0B0B0",
"8.	c #3D659C",
"9.	c #697993",
"0.	c #92898C",
"a.	c #5F7F94",
"b.	c #3F679A",
"c.	c #6D7697",
"d.	c #8B8F8E",
"e.	c #627E96",
"f.	c #43669C",
"g.	c #778AAA",
"h.	c #A9A9A9",
"i.	c #3A6298",
"j.	c #5E6D8E",
"k.	c #908886",
"l.	c #618291",
"m.	c #3C6497",
"n.	c #616892",
"o.	c #878B8A",
"p.	c #658292",
"q.	c #406196",
"r.	c #6578A2",
"s.	c #A2A2A2",
"t.	c #375F95",
"u.	c #767D87",
"v.	c #738697",
"w.	c #506A8B",
"x.	c #496187",
"y.	c #72809A",
"z.	c #77838F",
"A.	c #536981",
"B.	c #46649A",
"C.	c #899096",
"D.	c #2F4670",
"E.	c #314871",
"F.	c #5B5A62",
"G.	c #757F89",
"H.	c #5D6F83",
"I.	c #3B4964",
"J.	c #565C6C",
"K.	c #797E84",
"L.	c #616E7E",
"M.	c #344A6F",
"N.	c #6B7278",
". . . . . . . + @ # $ % & * = - ",
"; ; ; ; ; ; ; . > , ' ) ! ~ { ] ",
"^ ^ ^ ^ ^ ^ ^ / ( _ : < [ } | 1 ",
"2 2 2 2 2 2 3 4 5 6 7 8 9 0 a b ",
"c c c c c c d e f g h i j k l m ",
"n n n n n n o p q r s t u v w b ",
"x x x x x x y z A B C D E F G H ",
"I I I I I I J K L M N O P Q R S ",
"T T T T T T U V W X Y Z `  ...+.",
"@.@.@.@.@.@.#.$.%.&.*.=.-.;.>.,.",
"'.'.'.'.'.'.).!.~.{.].^./.(._.:.",
"<.<.<.<.<.<.[.}.|.1.2.3.4.5.6.7.",
"8.8.8.8.8.8.9.0.a.b.c.d.e.f.g.h.",
"i.i.i.i.i.i.j.k.l.m.n.o.p.q.r.s.",
"t.t.t.t.t.t.t.u.v.w.x.y.z.A.B.C.",
"D.D.D.D.D.D.E.F.G.H.I.J.K.L.M.N."};
