/* XPM */
static char * titleLI_xpm[] = {
"16 16 94 2",
"  	c None",
". 	c #B6B6B6",
"+ 	c #BFBFBF",
"@ 	c #D7D7D7",
"# 	c #D4D4D4",
"$ 	c #B8B8B8",
"% 	c #BEBEBE",
"& 	c #D6D6D6",
"* 	c #D5D5D5",
"= 	c #B4B4B4",
"- 	c #979797",
"; 	c #D3D3D3",
"> 	c #AFAFAF",
", 	c #989898",
"' 	c #B7B7B7",
") 	c #CFCFCF",
"! 	c #949494",
"~ 	c #999999",
"{ 	c #9C9C9C",
"] 	c #D0D0D0",
"^ 	c #C7C7C7",
"/ 	c #A0A0A0",
"( 	c #CBCBCB",
"_ 	c #C8C8C8",
": 	c #A1A1A1",
"< 	c #919191",
"[ 	c #DADADA",
"} 	c #A9A9A9",
"| 	c #CDCDCD",
"1 	c #A2A2A2",
"2 	c #909090",
"3 	c #BBBBBB",
"4 	c #C9C9C9",
"5 	c #9E9E9E",
"6 	c #8E8E8E",
"7 	c #DDDDDD",
"8 	c #B5B5B5",
"9 	c #8A8A8A",
"0 	c #A8A8A8",
"a 	c #C4C4C4",
"b 	c #AEAEAE",
"c 	c #8B8B8B",
"d 	c #C3C3C3",
"e 	c #ACACAC",
"f 	c #DBDBDB",
"g 	c #9F9F9F",
"h 	c #C0C0C0",
"i 	c #878787",
"j 	c #C1C1C1",
"k 	c #888888",
"l 	c #8F8F8F",
"m 	c #B9B9B9",
"n 	c #828282",
"o 	c #BABABA",
"p 	c #B0B0B0",
"q 	c #858585",
"r 	c #818181",
"s 	c #B1B1B1",
"t 	c #7F7F7F",
"u 	c #C5C5C5",
"v 	c #C2C2C2",
"w 	c #808080",
"x 	c #7C7C7C",
"y 	c #ABABAB",
"z 	c #7D7D7D",
"A 	c #AAAAAA",
"B 	c #BCBCBC",
"C 	c #7E7E7E",
"D 	c #A5A5A5",
"E 	c #7B7B7B",
"F 	c #787878",
"G 	c #9D9D9D",
"H 	c #959595",
"I 	c #777777",
"J 	c #797979",
"K 	c #717171",
"L 	c #737373",
"M 	c #767676",
"N 	c #8D8D8D",
"O 	c #727272",
"P 	c #929292",
"Q 	c #6E6E6E",
"R 	c #707070",
"S 	c #6D6D6D",
"T 	c #686868",
"U 	c #6C6C6C",
"V 	c #585858",
"W 	c #6A6A6A",
"X 	c #545454",
"Y 	c #696969",
"Z 	c #848484",
"` 	c #5E5E5E",
" .	c #535353",
"..	c #505050",
". + @ # $ % & * . . . . . . . . ",
"= - = ; > , ' ) . ! ! ! ! ! ! ! ",
"& ~ { ] ^ ~ / ( _ : < < < < < < ",
"[ } < . | 1 2 3 4 5 6 6 6 6 6 6 ",
"7 8 9 0 a b c } d e c c c c c c ",
"f 3 9 g h b i 5 j > k k k k k k ",
"# j i l m > n 2 o p q q q q q q ",
"( d n r s > t q s > n n n n n n ",
"u v w x y y z w A A t t t t t t ",
"j B C C D 1 E t D 1 x x x x x x ",
"$ b F w G H I t G H J J J J J J ",
"> : K t - c L t - c M M M M M M ",
"e N O C < t K n P M L L L L L L ",
": t Q C q I K E k R R R R R R R ",
"H S Q k C T R r t S S S S S S S ",
"U V W w T X Y Z `  ............."};
