/* XPM */
static char * titleLP_xpm[] = {
"16 16 171 2",
"  	c None",
". 	c #A3A6B9",
"+ 	c #AABDE5",
"@ 	c #CDD7E3",
"# 	c #CFCCD7",
"$ 	c #A6ABD3",
"% 	c #A0B8DC",
"& 	c #CED8DA",
"* 	c #D1CBCD",
"= 	c #99A6CC",
"- 	c #98ABD6",
"; 	c #AFB2C5",
"> 	c #6281BA",
", 	c #A6B7D1",
"' 	c #D2D4E0",
") 	c #99A7CE",
"! 	c #6D8DC0",
"~ 	c #A7B3C9",
"{ 	c #D2CFD6",
"] 	c #6381C6",
"^ 	c #C9CDD6",
"/ 	c #6F93CD",
"( 	c #849CC0",
"_ 	c #C5CDD8",
": 	c #B7C8DC",
"< 	c #7395C5",
"[ 	c #8598C2",
"} 	c #C6C9D8",
"| 	c #BBC9D4",
"1 	c #5F7FC2",
"2 	c #D6DCDC",
"3 	c #7E9FCC",
"4 	c #6281B0",
"5 	c #A8B5C6",
"6 	c #C2CDCF",
"7 	c #7B99BF",
"8 	c #6382B8",
"9 	c #A9B8CD",
"0 	c #C2CBC6",
"a 	c #7F9BCA",
"b 	c #5C7CBE",
"c 	c #D9DFDD",
"d 	c #97AECD",
"e 	c #5F82BC",
"f 	c #95A6C4",
"g 	c #C4C4C2",
"h 	c #8DA5C1",
"i 	c #5984BB",
"j 	c #91ABC6",
"k 	c #C2C3BE",
"l 	c #8CA7C4",
"m 	c #587ABA",
"n 	c #A9B9D0",
"o 	c #5A80C1",
"p 	c #8091BD",
"q 	c #C4BBBC",
"r 	c #A0B2CA",
"s 	c #4F81B6",
"t 	c #7897B6",
"u 	c #C4BEC2",
"v 	c #92ADCA",
"w 	c #5577B6",
"x 	c #D3D3D3",
"y 	c #C2BDD3",
"z 	c #527AB5",
"A 	c #5E89B6",
"B 	c #BABABA",
"C 	c #B0ACBA",
"D 	c #5177B5",
"E 	c #5D85B8",
"F 	c #B9BAB2",
"G 	c #ABADBA",
"H 	c #5274B3",
"I 	c #CCCCCC",
"J 	c #C6C4D2",
"K 	c #5178B3",
"L 	c #557DAE",
"M 	c #B3B3B3",
"N 	c #AFADB8",
"O 	c #5278B6",
"P 	c #5880B3",
"Q 	c #AFB0AB",
"R 	c #AAAEB9",
"S 	c #4E72AF",
"T 	c #C6C6C6",
"U 	c #C3C6CB",
"V 	c #4E75B0",
"W 	c #4F74A8",
"X 	c #ABABA9",
"Y 	c #AAAAB2",
"Z 	c #4F76B1",
"` 	c #5479AD",
" .	c #A9A7AA",
"..	c #A4ABB3",
"+.	c #4B6FAB",
"@.	c #C0C0C0",
"#.	c #B3BDBE",
"$.	c #4C70AC",
"%.	c #5172A5",
"&.	c #A4A6A3",
"*.	c #9FA2AB",
"=.	c #486FA8",
"-.	c #5276A6",
";.	c #A9A4AB",
">.	c #9DA6AD",
",.	c #476DA7",
"'.	c #B7B7B7",
").	c #A2B0B3",
"!.	c #4A6EA8",
"~.	c #5675A3",
"{.	c #9EA09D",
"].	c #8F95A5",
"^.	c #446BA2",
"/.	c #5576A1",
"(.	c #A39EA5",
"_.	c #8D9AA3",
":.	c #446AA4",
"<.	c #B0B0B0",
"[.	c #8E9FAF",
"}.	c #486BA3",
"|.	c #5C7A9C",
"1.	c #959794",
"2.	c #7F859F",
"3.	c #426A9E",
"4.	c #597A99",
"5.	c #999299",
"6.	c #7C899A",
"7.	c #4167A0",
"8.	c #A9A9A9",
"9.	c #778AAA",
"0.	c #43669C",
"a.	c #627E96",
"b.	c #8B8F8E",
"c.	c #6D7697",
"d.	c #3F679A",
"e.	c #5F7F94",
"f.	c #92898C",
"g.	c #697993",
"h.	c #3D659C",
"i.	c #A2A2A2",
"j.	c #6578A2",
"k.	c #406196",
"l.	c #658292",
"m.	c #878B8A",
"n.	c #616892",
"o.	c #3C6497",
"p.	c #618291",
"q.	c #908886",
"r.	c #5E6D8E",
"s.	c #3A6298",
"t.	c #899096",
"u.	c #46649A",
"v.	c #536981",
"w.	c #77838F",
"x.	c #72809A",
"y.	c #496187",
"z.	c #506A8B",
"A.	c #738697",
"B.	c #767D87",
"C.	c #375F95",
"D.	c #6B7278",
"E.	c #344A6F",
"F.	c #616E7E",
"G.	c #797E84",
"H.	c #565C6C",
"I.	c #3B4964",
"J.	c #5D6F83",
"K.	c #757F89",
"L.	c #5B5A62",
"M.	c #314871",
"N.	c #2F4670",
". + @ # $ % & * = - - - - - - - ",
"; > , ' ) ! ~ { - ] ] ] ] ] ] ] ",
"^ / ( _ : < [ } | 1 1 1 1 1 1 1 ",
"2 3 4 5 6 7 8 9 0 a b b b b b b ",
"c d e f g h i j k l m m m m m m ",
"2 n o p q r s t u v w w w w w w ",
"x y z A B C D E F G H H H H H H ",
"I J K L M N O P Q R S S S S S S ",
"T U V W X Y Z `  ...+.+.+.+.+.+.",
"@.#.$.%.&.*.=.-.;.>.,.,.,.,.,.,.",
"'.).!.~.{.].^./.(._.:.:.:.:.:.:.",
"<.[.}.|.1.2.3.4.5.6.7.7.7.7.7.7.",
"8.9.0.a.b.c.d.e.f.g.h.h.h.h.h.h.",
"i.j.k.l.m.n.o.p.q.r.s.s.s.s.s.s.",
"t.u.v.w.x.y.z.A.B.C.C.C.C.C.C.C.",
"D.E.F.G.H.I.J.K.L.M.N.N.N.N.N.N."};
