/* XPM */
static char *clock[] = {
/* width height num_colors chars_per_pixel */
"    32    32        7            1",
/* colors */
". c None",
"# c #636363",
"a c #bdbdbd",
"b c #949494",
"c c #ffffff",
"d c #737373",
"e c #212121",
/* pixels */
"................................",
"................................",
".....######################.....",
"....##aaaaaaaaaaaaaaaaaaaa#a....",
"...##abbbbbbbbbccbbbbbbbbba#a...",
"..##abbbbbbbbbbccbbbbbbbbbba#a..",
"..#abbbbbbcddddddddddcbbbbbbea..",
"..#abbbbbddddddddddddddbbbbbea..",
"..#abbbbddddddddddddddddbbbbea..",
"..#abbbddddddddddddddddddbbbea..",
"..#abbcddddddddddddddddddcbbea..",
"..#abbddddddddddddddddddddbbea..",
"..#abbddddddddddddddddddddbbea..",
"..#abbddddddddddddddddddddbbea..",
"..#abbddddddddddddddddddddbbea..",
"..#accddddddddddddddddddddccea..",
"..#accddddddddddddddddddddccea..",
"..#abbddddddddddddddddddddbbea..",
"..#abbddddddddddddddddddddbbea..",
"..#abbddddddddddddddddddddbbea..",
"..#abbddddddddddddddddddddbbea..",
"..#abbcddddddddddddddddddcbbea..",
"..#abbbddddddddddddddddddbbbea..",
"..#abbbbddddddddddddddddbbbbea..",
"..#abbbbbddddddddddddddbbbbbea..",
"..#abbbbbbcddddddddddcbbbbbbea..",
"..##abbbbbbbbbbccbbbbbbbbbbeaa..",
"...a#abbbbbbbbbccbbbbbbbbbeaa...",
"....a#eeeeeeeeeeeeeeeeeeeeaa....",
".....aaaaaaaaaaaaaaaaaaaaaa.....",
"................................",
"................................",
};
