/* XPM */
static char *help[] = {
/* width height num_colors chars_per_pixel */
"    32    32       15            1",
/* colors */
". c None",
"# c #636363",
"a c #adadad",
"b c #424242",
"c c #949494",
"d c #737373",
"e c #212121",
"f c #737373",
"g c #636363",
"h c #bdbdbd",
"i c #00ffff",
"j c #ff0000",
"k c #0000ff",
"l c #ffffff",
"m c #bdbdbd",
/* pixels */
"................................",
"................................",
"................................",
"................................",
"................................",
"................................",
".......######.........#aaaaa....",
".......#aaab######....#accdef...",
"...####eadcgeccccg####eaccgeff..",
"...#hhaeicdjecdddgekbgeacdbef...",
"...#hadecdcgecdddgebdkeacddeff..",
"...#hcdeicdjglllllebbgeabddef...",
"...#hadecdcglllllllkdkeaccdeff..",
"...#hadeicdjllbbbllbbgeabddef...",
"...#hcdecdcgllbddllbdkeadddeff..",
"...#hadeicdjebbdlllbbgeagddef...",
"...#hcdecdcgecdlllebdkeacddeff..",
"...#hcdeicdjeclllbebbgeagddef...",
"...#hcdecdcgecllbgekdkeadddeff..",
"...#hadeicdjecdbbgebbgeaccdef...",
"...#hadecdcgeclldgekdkeacddeff..",
"...#hadeicdjecllbgebbgeacddef...",
"...#hadecdcgecgbbgekdkeabddeff..",
"...#hadeicdjecdbbgebbgeacddef...",
"...#hadecdcgecdddgekdkeacddeff..",
"...#hadeicdjecdddgebbgeacddef...",
"...#aeeeeeeeeeeeeeeeeeeaeeeeff..",
"...#mmmmmmmmmmmmmmmmmmmm....f...",
".........................fffff..",
"..........................f.f...",
"................................",
"................................",
};
