/* XPM */
static char *netscape[] = {
/* width height num_colors chars_per_pixel */
"    32    32       12            1",
/* colors */
". c #0000c0",
"# c #ffdca8",
"a c #ffffc0",
"b c #c0c0c0",
"c c #c00000",
"d c #a0a0a4",
"e c #000000",
"f c #808080",
"g c #ffff00",
"h c #800000",
"i c #ffffff",
"j c None",
/* pixels */
"................................",
"..............hef..............e",
"..............cbce............ej",
".....eeee.....fghe.......ee..ejj",
"....efceee..e.diee......efgeejjj",
"....egfheeeehedbheee...efgdhejjj",
".....e#dhehecbbgdhdhee.dbdhefjjj",
"......ebdddgbgdbdgbdfchbdcefjjjj",
".......eiggfdfdbcfdggbbdhefjjjjj",
"......hbiigceedghe.ehbdcefjjjjjj",
"......didfibe.dgce.bdcgfejjjjjjj",
".....dbbfceibedihebdhegbhejjjjjj",
".....dbdce.ebbdbcbdhejhbdejjjjjj",
"....hbghee..egdbfdeejjegfcjjjjjj",
".hhcdbfdehchefig#dhdbbdfdehhhchf",
"bbgbfgghggibbigbgbdbggbbggbggbde",
"edddbbbdddddbgbgbbcdhceebdfdfdde",
"eeeedbdehhhcbdgbbdhejjjegbeceeef",
"...edbce...bdebbddbhejefgdhefffj",
"....fgbee.bdheicejcgcebgdhejjjjj",
".....dghebdceeihejjhbfgbdcejjjjj",
".....hgbddeejeihejjedbbdeejjjjjj",
"......cbbeejjebdeechdgidhefjjjjj",
"......ebgdheehgdehdfibhdfcefjjjj",
".....fbchibdhdbfddgdfcfdgdhefjjj",
"....dgbdhcfgbbi#adfchdehdgdefjjj",
"...dbfdheeefddgfhchdeejjcfgdefjj",
"...hddcefjjeefjcbeeejjjjjhddefjj",
"...eceefjjjjed#fefjjjjjjjjeefjjj",
"...eeffjjjjjjhbdefjjjjjjjjjjjjjj",
"..ejjjjjjjjjjhddefjjjjjjjjjjjjjj",
".ejjjjjjjjjjjjeefjjjjjjjjjjjjjjj"
};
