/* XPM */
static char *panel-handle[] = {
/* width height num_colors chars_per_pixel */
"    30    80        3            1",
/* colors */
". c None",
". c #636363",
"# c #bdbdbd",
/* pixels */
"..............................",
"##############################",
"..............................",
"##############################",
"..............................",
"##############################",
"..............................",
"##############################",
"..............................",
"##############################",
"..............................",
"##############################",
"..............................",
"##############################",
"..............................",
"##############################",
"..............................",
"##############################",
"..............................",
"##############################",
"..............................",
"##############################",
"..............................",
"##############################",
"..............................",
"##############################",
"..............................",
"##############################",
"..............................",
"##############################",
"..............................",
"##############################",
"..............................",
"##############################",
"..............................",
"##############################",
"..............................",
"##############################",
"..............................",
"##############################",
"..............................",
"##############################",
"..............................",
"##############################",
"..............................",
"##############################",
"..............................",
"##############################",
"..............................",
"##############################",
"..............................",
"##############################",
"..............................",
"##############################",
"..............................",
"##############################",
"..............................",
"##############################",
"..............................",
"##############################",
"..............................",
"##############################",
"..............................",
"##############################",
"..............................",
"##############################",
"..............................",
"##############################",
"..............................",
"##############################",
"..............................",
"##############################",
"..............................",
"##############################",
"..............................",
"##############################",
"..............................",
"##############################",
"..............................",
"##############################",
};
