/* XPM */
static char *panel-sep[] = {
/* width height num_colors chars_per_pixel */
"     4    30       89            2",
/* colors */
".. c #002852",
".# c #035bc7",
".a c #04245f",
".b c #042e54",
".c c #0458ca",
".d c #062f65",
".e c #072d52",
".f c #072f53",
".g c #082c5c",
".h c #082e53",
".i c #082f56",
".j c #09acf1",
".k c #0a2b54",
".l c #0a2c52",
".m c #0a2e52",
".n c #0a5fca",
".o c #0b2c55",
".p c #0b2d53",
".q c #0c2e52",
".r c #0c2e54",
".s c #0c3054",
".t c #0d2f52",
".u c #0e2a51",
".v c #0facf4",
".w c #1059c0",
".x c #10b8f6",
".y c #12bced",
".z c #1355b6",
".A c #13a0ef",
".B c #13a2f0",
".C c #13a5f2",
".D c #13a6f6",
".E c #143b5c",
".F c #14a1f0",
".G c #14a3f1",
".H c #14caf1",
".I c #15a7f4",
".J c #16a2ed",
".K c #16a8f5",
".L c #16b3fa",
".M c #16c7f9",
".N c #16cef4",
".O c #16d7f8",
".P c #178ae7",
".Q c #17a4ec",
".R c #17bcea",
".S c #17d3f9",
".T c #184fb3",
".U c #18a2ed",
".V c #18a3f8",
".W c #18a5ed",
".X c #18ddff",
".Y c #194fcb",
".Z c #19a3ee",
".0 c #19c4fa",
".1 c #19c7f9",
".2 c #1aa4ef",
".3 c #1acaf1",
".4 c #1adef4",
".5 c #21cdf1",
".6 c #1bdbf2",
".7 c #1cc9f4",
".8 c #1da1f3",
".9 c #1dcfed",
"#. c #1ebbe6",
"## c #1ec8ec",
"#a c #1ed8fe",
"#b c #1fa4e7",
"#c c #20c9f4",
"#d c #21bee7",
"#e c #21c8f5",
"#f c #21caf5",
"#g c #21cbef",
"#h c #224773",
"#i c #22bce2",
"#j c #22c7f5",
"#k c #22dbfa",
"#l c #234ead",
"#m c #23bce5",
"#n c #23bde3",
"#o c #23c8f6",
"#p c #24475b",
"#q c #24bde6",
"#r c #25b9e7",
"#s c #26b8e7",
"#t c #26bae8",
"#u c #27b9e8",
"#v c #2ac7fc",
"#w c #1bc4ec",
/* pixels */
".z.c.n.#",
"#h.M.1.P",
"#p.7.3.V",
".E.0.N.D",
".b#v##.J",
".u#..9.8",
".s#u#f.Q",
".m#u#c.W",
".h#s#c.W",
".h#t#f.W",
".h#t#f.2",
".e#r#c.Z",
".f#r#c.Z",
".i#t#c.U",
".r#i#o.A",
".r#i#o.F",
".p#n#o.F",
".p#m#o.B",
".l#m#j.G",
".k#m#j.C",
".k#q#e.I",
".o#q#e.K",
".o#q#e.v",
".t#d.5.j",
".q#w#g.L",
".g.H.O.x",
".d.S#k.y",
"...4.6.R",
".a#a.X#b",
"#l.Y.w.T",
};
