/* XPM */
static char * fvwm_themes_xpm[] = {
"44 52 205 2",
"  	c None",
". 	c #00008C",
"+ 	c #000042",
"@ 	c #000008",
"# 	c #000031",
"$ 	c #00006B",
"% 	c #0000BD",
"& 	c #0000B5",
"* 	c #000010",
"= 	c #291800",
"- 	c #0000E7",
"; 	c #006400",
"> 	c #00FF00",
", 	c #393939",
"' 	c #424242",
") 	c #101008",
"! 	c #0000DE",
"~ 	c #000021",
"{ 	c #52524A",
"] 	c #636363",
"^ 	c #292929",
"/ 	c #000063",
"( 	c #212121",
"_ 	c #181818",
": 	c #0000C6",
"< 	c #000084",
"[ 	c #000052",
"} 	c #101010",
"| 	c #292921",
"1 	c #737373",
"2 	c #949494",
"3 	c #CECECE",
"4 	c #848484",
"5 	c #B5B5B5",
"6 	c #DEDEDE",
"7 	c #8C8C8C",
"8 	c #BDB5AD",
"9 	c #9C9C9C",
"0 	c #E7E7E7",
"a 	c #6B6B6B",
"b 	c #5A5A5A",
"c 	c #313131",
"d 	c #0000AD",
"e 	c #4A4A4A",
"f 	c #7B7B7B",
"g 	c #080808",
"h 	c #7F623D",
"i 	c #AD880C",
"j 	c #9C8408",
"k 	c #947B21",
"l 	c #847B52",
"m 	c #ADADAD",
"n 	c #00009C",
"o 	c #A5A5A5",
"p 	c #8C6310",
"q 	c #E7AD08",
"r 	c #F7C610",
"s 	c #E7C608",
"t 	c #D6B521",
"u 	c #E7CE21",
"v 	c #9C7B00",
"w 	c #94844A",
"x 	c #DEDECE",
"y 	c #00007B",
"z 	c #080800",
"A 	c #845A08",
"B 	c #DEA508",
"C 	c #F7BD10",
"D 	c #EFC608",
"E 	c #EFCE18",
"F 	c #E7CE31",
"G 	c #DEC608",
"H 	c #D6B518",
"I 	c #423100",
"J 	c #C68408",
"K 	c #E7AD10",
"L 	c #EFCE08",
"M 	c #D6AD08",
"N 	c #C6A510",
"O 	c #5A3900",
"P 	c #EFBD10",
"Q 	c #B59808",
"R 	c #CE9408",
"S 	c #292100",
"T 	c #9C947B",
"U 	c #946308",
"V 	c #BD9C08",
"W 	c #A77508",
"X 	c #CE8C08",
"Y 	c #D69410",
"Z 	c #CE9C42",
"` 	c #BDB594",
" .	c #BDBDBD",
"..	c #AD9C7B",
"+.	c #BD8429",
"@.	c #BDAD84",
"#.	c #C6C6C6",
"$.	c #525252",
"%.	c #D6D6D6",
"&.	c #B5A594",
"*.	c #9C844A",
"=.	c #A5844A",
"-.	c #B1986B",
";.	c #EFEFEF",
">.	c #F7F7F7",
",.	c #52525A",
"'.	c #08088C",
").	c #C6C6CE",
"!.	c #000073",
"~.	c #000094",
"{.	c #B22222",
"].	c #EFD66B",
"^.	c #F5DEB3",
"/.	c #A0522D",
"(.	c #FFA500",
"_.	c #CD853F",
":.	c #0000D6",
"<.	c #211808",
"[.	c #0000FF",
"}.	c #000039",
"|.	c #FF0000",
"1.	c #735A00",
"2.	c #6B5208",
"3.	c #C68C29",
"4.	c #F7EFD6",
"5.	c #D6B54A",
"6.	c #7B526B",
"7.	c #DEA510",
"8.	c #FFFF00",
"9.	c #EFCE7B",
"0.	c #181008",
"a.	c #4A319C",
"b.	c #CE8C18",
"c.	c #4A3900",
"d.	c #E7C67B",
"e.	c #3929AD",
"f.	c #634284",
"g.	c #946342",
"h.	c #FFFFFF",
"i.	c #CEB56B",
"j.	c #E7AD18",
"k.	c #7B5A63",
"l.	c #CEAD73",
"m.	c #AD7B39",
"n.	c #D69C00",
"o.	c #4A39B5",
"p.	c #8C635A",
"q.	c #EFB508",
"r.	c #EFCE10",
"s.	c #9C7B42",
"t.	c #C68C00",
"u.	c #6B5294",
"v.	c #846363",
"w.	c #E7A510",
"x.	c #6B4A00",
"y.	c #B58C4A",
"z.	c #DEB508",
"A.	c #E7D6B5",
"B.	c #D69C08",
"C.	c #DEB518",
"D.	c #B58421",
"E.	c #8C5A00",
"F.	c #DEA518",
"G.	c #3121BD",
"H.	c #DEAD08",
"I.	c #BD8408",
"J.	c #524221",
"K.	c #946300",
"L.	c #946B63",
"M.	c #1008E7",
"N.	c #C68C18",
"O.	c #211800",
"P.	c #9C6B00",
"Q.	c #D69408",
"R.	c #1810DE",
"S.	c #3121B5",
"T.	c #AD7318",
"U.	c #AD7B08",
"V.	c #C68C08",
"W.	c #634200",
"X.	c #2921A5",
"Y.	c #1810C6",
"Z.	c #4A317B",
"`.	c #734A39",
" +	c #845A00",
".+	c #392900",
"++	c #00004A",
"@+	c #100839",
"#+	c #734A00",
"$+	c #1008D6",
"%+	c #1810AD",
"&+	c #39217B",
"*+	c #734A31",
"=+	c #523110",
"-+	c #1008AD",
";+	c #0800DE",
">+	c #5A3910",
",+	c #5A3942",
"'+	c #422952",
")+	c #0808CE",
"!+	c #1008B5",
"~+	c #392931",
"{+	c #6B4200",
"]+	c #5A3918",
"^+	c #29187B",
"                                    . + @ @ @ # $ %                                     ",
"                                & * @ @ = @ @ @ @ @ $ -               ; ; >             ",
"                              & @ @ = = = @ @ @ , ' ) # !           ; > > > >           ",
"                              ~ @ = = = = @ @ @ { ] ^ @ /         ; > > >     >         ",
"                            & @ = = = = = = @ ) ( _ ) @ @ :       ; > > >               ",
"                            < @ @ @ = @ @ @ @ @ @ @ @ @ @ [     ; ; > > >               ",
"                            / @ @ ) @ @ @ @ @ @ ) } @ @ @ @       ; ; >                 ",
"                            / @ ( ' | ) @ @ | 1 1 , ) @ @ @ !     ; ; >                 ",
"                            / ) 2 3 4 @ @ ( 5 3 6 7 ) @ @ @ %     4 4 8                 ",
"                            $ ^ 9 1 0 | @ a 6 b 4 0 c @ @ @ d     4 4 3                 ",
"                            . , ' ' 9 e _ 1 9 @ ( 5 f @ @ @ d     4 4 3                 ",
"                            . _ a g h i j k l @ @ m f @ @ @ d   4 4 3                   ",
"                            n @ o p q r s t u v w x _ @ @ @ y   8 4 3                   ",
"                            & z A B C D E F F G s H I @ @ @ /   . . !                   ",
"                            & I J K C L F F G G M N O @ @ @ +   . . !                   ",
"                            & ) A q P E u G Q Q B R S @ c @ @ ! . . !                   ",
"                            : g T U V N Q W X Y Z ` b @ ] 1 ) . . !                     ",
"                            ! )  ...W R R J +.@.#.6  .@ _ $.@ . . !                     ",
"                            + } %. .&.*.=.-.8 #.;.>.>.,.@ @ @ . . !                     ",
"                          '.} ' >.6  . . .#.6 ;.>.>.>.3 ) @ @ . . !                     ",
"                        : * _ 6 >.>.%.#.).;.>.>.>.>.>.>.e @ . . ! ~                     ",
"                        # @ 2 >.>.>.>.>.>.>.>.>.>.>.>.>.m @ . . ! @ $                   ",
"                      !.@ _ 6 >.>.>.>.>.>.>.>.>.>.>.>.>.0 g . . ! @ @ <                 ",
"                    ~.@ @ e #.;.>.>.>.0 ;.>.>.>.;.;.0 %.0 e . . ! @ @ @ %               ",
"                  ! @ @ {.{.{.{.{.{.{.{.>.>.>.>.;.%.3  .).#.. . ! @ @ @ ~               ",
"                  ~.{.{.].^.].^.].^.].Y /././.>.>.>.>.;.%.. . ! ) } @ @ @ n             ",
"                  {.].^.^.^.(.^.^.^.^.^.^.].Y /.>.>.>.>.>.. . ! g _ ) @ @ ~             ",
"                ! {.^.^.^._.(.(.^.^.^.> > > ^.]._._.>.>.>.. . ! ^ ^ _ @ @ @ :.          ",
"                ; ].^.^.^.^._.].^.^.^.; > > ^.^.^.]./.>.>.. . ! } } _ ) @ @ !.          ",
"                ; ^.^.^.^.^.^.^.^.^.^.; ; ^.^.^.^.^._.>.. . ! <.@ @ @ _ @ @ ~           ",
"              & ; ^.; [.^.^.^.^.^.^.^.^.^.^.^.^.^.^.].<.<.<.<.<.@ @ @ _ @ @ @ %         ",
"              }.; ^.; [.[.^.^.^.^.^.^.^.^.^.^.].|.^.<.<.<.<.<.+ @ @ @ ) @ @ @ <         ",
"              @ ; ^.; [.[.^.^.^.^.^.^.{.^.^.^.{.|.|.<.<.<.<.+ + @ @ ) ) @ @ @ [         ",
"              @ ; ^.^.^.^.^.^.^.^.^./.@ {.{.^.^.{.^.<.<.<.<.+ + _ @ _ @ @ @ @ +         ",
"              @ ; ].^.^.^.^.^.^.^.^./.@ @ @ ^.^.^.^.^.<.<.+ + + ( @ _ @ @ @ @ /         ",
"              1.2.{.^.^.^.^.^.^.^.^./.@ @ @ ^.^.^.^.^./.<.<.<.+ + ) ) g } ( @ $         ",
"            3.C C ; ].].^.^.^.^.^.^.^.@ @ @ ^.^.^.^.]./.>.4.].5.q A A @ @ ( <.d         ",
"          6.7.C P C ; {.].].].; {.{.{.@ ^.^.^.8.8.^.]./.>.9.P G C q q A @ 0.A A         ",
"        a.b.K C P P P c.; ; ; >.>.>.>.; ].^.(.8.8.^.]./.>.d.P 7.C C C q A A D t 3.      ",
"  e.f.g.b.q P P C P C M h.h.h.>.>.>.>.{.^.^.(.(.8.^._.>.6 i.K u u u C C C ].P j.3.      ",
"k.7.K P K P P C P P P P 1.h.h.h.h.>.>.{.^.^.^.^.^.^./.>.3 l.B u u u u C C P P P 3.      ",
"m.P C P C C P C P P C P P h.h.h.h.>.>.; ^.^.^.^._./.>.>.%.-.n.u u u u u u C P C P o.    ",
"p.q.C P C P P P P r.C P D i h.h.h.>.>.>.{._._./.>.>.>.>.6 s.t.u u u u u u C P P P P u.  ",
"v.w.C P P P C P P P C P C D 2.h.h.>.>.>.>.>.>.>.>.>.>.>.,.x.t.q.u u u u u u u C P P C y.",
"v.w.P P C P C P P C P P C P z.A.>.>.>.>.>.>.>.>.>.>.6 ' @ 1.B.q.C u u u u u C P P E C C.",
"p.w.P P C P C r.P P P P C P z.D.0 >.>.>.>.>.>.>.>.9 g @ z E.B.q.u u u u u r P P P C F.G.",
"+.B q.C P C P P P C P r P P H.I.J.9 %.0 6  .9 a ( @ @ @ ) K.B.q.u u u u P P P P K L.M.  ",
"N.B.B.w.H.q.q C P P P P C P B I.O @ @ @ @ @ @ @ @ @ @ @ O.P.Q.q.P P C P P P 7.v.R.      ",
"S.h T.U.V.V.X B.B q C P P B R W W.@ @ @ @ @ @ @ @ @ @ @ O.E.J n.q.q.q B B.T.X.          ",
"      Y.Z.`.P.W U.I.R R B.I.W  +.+# ++!.. . . . . . . $ @+#+W J X R V.I.`.$+            ",
"            M.%+&+*+p W P.U  +=+-+                      ;+>+E.W U.U.P.,+                ",
"                    %+'+>+O '+)+                          !+~+W.{+]+^+-                 "};
