/* XPM */
static char * mini_sound_xpm[] = {
"22 26 262 2",
"  	c None",
". 	c #000062",
"+ 	c #000038",
"@ 	c #000008",
"# 	c #000012",
"$ 	c #00004E",
"% 	c #0000A9",
"& 	c #00006B",
"* 	c #4C4C4A",
"= 	c #0E0E1A",
"- 	c #0000A0",
"; 	c #000052",
"> 	c #040408",
", 	c #0E0E12",
"' 	c #00004A",
") 	c #000036",
"! 	c #1D1D1D",
"~ 	c #0E0E0E",
"{ 	c #272729",
"] 	c #333331",
"^ 	c #0E0E40",
"/ 	c #9C9C9C",
"( 	c #656565",
"_ 	c #232327",
": 	c #AFAFAF",
"< 	c #B5B5B5",
"[ 	c #101012",
"} 	c #0000B5",
"| 	c #14145A",
"1 	c #3E3E3E",
"2 	c #84744C",
"3 	c #6F622D",
"4 	c #484640",
"5 	c #616163",
"6 	c #3E3E42",
"7 	c #0000AD",
"8 	c #020256",
"9 	c #A58231",
"0 	c #F1BE0C",
"a 	c #E5C61C",
"b 	c #D2B716",
"c 	c #CCB74E",
"d 	c #16120A",
"e 	c #00006F",
"f 	c #14105C",
"g 	c #C68E0A",
"h 	c #F1C610",
"i 	c #E5CC23",
"j 	c #CAAF08",
"k 	c #D2A30A",
"l 	c #211604",
"m 	c #0C0C12",
"n 	c #000063",
"o 	c #06066D",
"p 	c #A6946F",
"q 	c #BE920A",
"r 	c #BC8908",
"s 	c #C89431",
"t 	c #CCBD9E",
"u 	c #46464A",
"v 	c #505050",
"w 	c #040421",
"x 	c #181829",
"y 	c #DADADA",
"z 	c #B3A996",
"A 	c #B6A88E",
"B 	c #D4D2D0",
"C 	c #F5F5F5",
"D 	c #C4C4C6",
"E 	c #03035D",
"F 	c #000044",
"G 	c #A0A0A0",
"H 	c #F7F7F7",
"I 	c #D4D4D4",
"J 	c #97978C",
"K 	c #DBDBDB",
"L 	c #E8E8E8",
"M 	c #36363A",
"N 	c #00000E",
"O 	c #00005A",
"P 	c #18181C",
"Q 	c #E2E2E2",
"R 	c #EAEAEA",
"S 	c #ACAC8E",
"T 	c #9B9B94",
"U 	c #A2A2A2",
"V 	c #CBCBCB",
"W 	c #999999",
"X 	c #737373",
"Y 	c #000027",
"Z 	c #0000B9",
"` 	c #545456",
" .	c #DCDCDC",
"..	c #B8B887",
"+.	c #BABA74",
"@.	c #C8C8C8",
"#.	c #D5D5D5",
"$.	c #D2D2D2",
"%.	c #D8D8D8",
"&.	c #BABABC",
"*.	c #212120",
"=.	c #0C0C0A",
"-.	c #000042",
";.	c #000065",
">.	c #101010",
",.	c #ACAC96",
"'.	c #BCBC75",
").	c #F0F081",
"!.	c #9A9A79",
"~.	c #F0F0F0",
"{.	c #B4B4B4",
"].	c #AAAAAA",
"^.	c #A8A8A8",
"/.	c #6E6E70",
"(.	c #1C1C1C",
"_.	c #0A0A0C",
":.	c #0A0A31",
"<.	c #20201B",
"[.	c #DADA8F",
"}.	c #EEEEA1",
"|.	c #FDFDF0",
"1.	c #858581",
"2.	c #A6A6A6",
"3.	c #F2F2F2",
"4.	c #ADADAD",
"5.	c #F6F6F6",
"6.	c #D1D1D1",
"7.	c #08080C",
"8.	c #000077",
"9.	c #08080A",
"0.	c #000000",
"a.	c #77773E",
"b.	c #EDED6C",
"c.	c #F4F480",
"d.	c #8C8C55",
"e.	c #7F7F7F",
"f.	c #DDDDDD",
"g.	c #9A9A9A",
"h.	c #969696",
"i.	c #000054",
"j.	c #181814",
"k.	c #A3A33C",
"l.	c #DEDE5C",
"m.	c #73733E",
"n.	c #06060C",
"o.	c #0E0E0C",
"p.	c #000029",
"q.	c #3A2D04",
"r.	c #27210E",
"s.	c #515127",
"t.	c #D0D04B",
"u.	c #818149",
"v.	c #BEBEBE",
"w.	c #F1F1F1",
"x.	c #B0B0B0",
"y.	c #E0E0E0",
"z.	c #0C0C0E",
"A.	c #0C0C0C",
"B.	c #0C0C10",
"C.	c #E4AB16",
"D.	c #DCAA0C",
"E.	c #635A40",
"F.	c #787878",
"G.	c #F4F4F4",
"H.	c #A6A66F",
"I.	c #95952E",
"J.	c #C8C8C7",
"K.	c #E6E6E6",
"L.	c #DCD2BA",
"M.	c #B89D27",
"N.	c #1D160E",
"O.	c #0E0C0E",
"P.	c #615140",
"Q.	c #7C5263",
"R.	c #B37E35",
"S.	c #EFB910",
"T.	c #F1BD10",
"U.	c #C8A00C",
"V.	c #E7E7E7",
"W.	c #F3F3F3",
"X.	c #F0F0EF",
"Y.	c #9E9E6C",
"Z.	c #9D9D86",
"`.	c #ACACAC",
" +	c #BDBDBD",
".+	c #D0C19D",
"++	c #E4AD0E",
"@+	c #4D3604",
"#+	c #160E04",
"$+	c #7E5D06",
"%+	c #E7B914",
"&+	c #BD8E2F",
"*+	c #F1B910",
"=+	c #F3BD10",
"-+	c #EFBD10",
";+	c #C4AB42",
">+	c #EFEFEE",
",+	c #9E9E97",
"'+	c #E3E3E3",
")+	c #A69C8A",
"!+	c #DEA506",
"~+	c #D29404",
"{+	c #CC9208",
"]+	c #EBB30C",
"^+	c #8F706E",
"/+	c #BA8835",
"(+	c #EFC110",
"_+	c #DCB30A",
":+	c #D4CEAF",
"<+	c #FBFBFB",
"[+	c #8E7D5E",
"}+	c #DAA004",
"|+	c #EFB70C",
"1+	c #EFB70E",
"2+	c #B2894F",
"3+	c #B88437",
"4+	c #F3C110",
"5+	c #C39C0E",
"6+	c #4A4A4C",
"7+	c #422F02",
"8+	c #E2A808",
"9+	c #F1BF10",
"0+	c #F1C112",
"a+	c #B98E3F",
"b+	c #CE9414",
"c+	c #E9AD0C",
"d+	c #EDB70C",
"e+	c #EFB90E",
"f+	c #CE9608",
"g+	c #524631",
"h+	c #6F6F73",
"i+	c #67676B",
"j+	c #424246",
"k+	c #08080E",
"l+	c #583E02",
"m+	c #E2A608",
"n+	c #D0A025",
"o+	c #866370",
"p+	c #584279",
"q+	c #7B554D",
"r+	c #926531",
"s+	c #BA8206",
"t+	c #CC9408",
"u+	c #E0A80C",
"v+	c #D8A00A",
"w+	c #A87606",
"x+	c #271B0E",
"y+	c #000033",
"z+	c #4C310E",
"A+	c #C28606",
"B+	c #DEA208",
"C+	c #D29808",
"D+	c #82584C",
"E+	c #140CCA",
"F+	c #563656",
"G+	c #634446",
"H+	c #795006",
"I+	c #482F4C",
"J+	c #26168C",
"K+	c #744E0E",
"L+	c #885C0A",
"M+	c #482F69",
"                . + @ # $ %                 ",
"              & @ @ @ @ * = -               ",
"              ; @ @ @ > , > '               ",
"              ) ! ~ @ { ] > @               ",
"              ^ / ( _ : < [ @ }             ",
"              | 1 2 3 4 5 6 @ 7             ",
"              8 9 0 a b c d @ e             ",
"              f g h i j k l m n             ",
"              o p q r s t u v w             ",
"              x y z A B C D > @ E           ",
"            F G H I J K H L M @ N           ",
"          O P Q R S T U V W X @ @ Y         ",
"        Z > `  ...+.@.#.$.%.&.*.=.@ -.      ",
"        ;.>.,.'.).!.$.~.{.].^./.(._.N       ",
"        :.<.[.}.|.1.2.3.4.H 5.6.7.>.@ '     ",
"      8.9.0.a.b.c.d.e.f.4.2.g.h.@ _.@ i.    ",
"      @ j.0.0.k.l.m.( R 4.H 5.5.n.o.@ p.    ",
"      q.r.0.0.s.t.u.v.w.: 2.x.y.z.A.B.+     ",
"      C.D.E.F.G.H.I.J.%.K.5.L.M.N.@ O.P.    ",
"  Q.R.S.T.U.V.W.X.Y.Z.`. +G .+++@+#+$+%+    ",
"&+S.*+=+-+T.;+V.H >+,+#.H '+)+!+~+{+]+T.^+  ",
"/+=+T.T.(+=+_+:+<+H H H H H [+}+|+1+=+T.-+2+",
"3+-+=+4+T.-+=+5+W.H H H y.6+7+8+=+T.9+T.0+a+",
"b+c+d+e+T.9+T.f+g+h+i+j+k+@ l+m+T.T.-+n+o+  ",
"p+q+r+s+t+u+v+w+x+y+' ' ' -.z+A+B+C+D+      ",
"      E+F+G+H+I+            J+K+L+M+        "};
