/* XPM */
static char * mini-isp_xpm[] = {
"16 14 7 1",
" 	c none s none",
".	c #CCCCCCCCCCCC",
"X	c #000000000000",
"o	c #7F7F7F7F7F7F",
"O	c #0000FFFFFFFF",
"+	c #C0C0C0C0C0C0",
"@	c #FFFFFFFF0000",
"          .     ",
"         .X     ",
"      oo.Xo .   ",
"     oOOoo+.X   ",
"    oOOOOo.Xo   ",
"    oOOOOOoo    ",
"    oOOOOOOo    ",
"    oOOOOOOo    ",
"    oOOOOOoX    ",
"   o@ooooXX     ",
"  o@ooXXX       ",
" o@oo           ",
"  oo            ",
"  o             "};
