/* XPM */
static char *Pinky[] = {
/* width height num_colors chars_per_pixel */
"    38    38       10            1",
/* colors */
". c none",
"# c #000000",
"a c #ffb6aa",
"b c #bf806f",
"c c #dddddd",
"d c #ffffff",
"e c #ccccff",
"f c #ff2525",
"g c #ff6666",
"h c #663300",
/* pixels */
"......................................",
"......................................",
"................h.....................",
"...............habh...................",
"................ab....................",
"..............haba.h..................",
".............haaab....................",
"..............aaabbc..................",
"............haaaaabch.................",
"............babaab.c.h...........h..h.",
"...........haaaaabhea.h.......b.c.baa.",
"............aaba.bh..e..h....ccbbaaab.",
"...........babc.b.h..ccc.h..da.baaaaa.",
"...........baabac...cbdceheda.baaaaab.",
"...........baah..aaecbddbeda.aaabaaah.",
".....hh....bb.cee..heaedccc.babaaaba..",
"....hffh....hcee.beccacddc.baaaaabaah.",
"...hffgfh..hcee.eee.c.edd.baaaaaaaaa..",
"...hffagf......eececaaec.bababaaaaah..",
"...hffgffh.ehheeea..eecdhb.baaababa...",
"...#ffffff.e..ee.h..eddc.bbbaaaaaa....",
"....ffffff.e.eee.#..cdddc.aaaabaabh...",
"....hfffffc.ceeebh.bc.cchaaabaaaab....",
"....hbfffhdb.eeeee..ea.bbabaaabaa.....",
".....ch.bbedc.ac.aeacedc.aaabaaah.....",
".....dececddcc..de.headdbabaaab.......",
"....hecccdddddccdaheecd.hcaaaab.......",
".....bdccddddddd.h.dcc...haab.........",
".......ddddddd.hhhcdc......h..........",
".....a..cdda.hhhh.da..................",
".....h...hcaehhh#bc...................",
"...........hhhhhhc....................",
"..........hhhh#fhc....................",
"...........#hfffb.....................",
".........h.hffffb.....................",
"..........e#fffheh....................",
"..........cccaech.....................",
"......................................"
};
