/* XPM */
static char * shadowman_round_48_xpm[] = {
"48 48 255 2",
"  	c None",
". 	c #060606",
"+ 	c #040404",
"@ 	c #050505",
"# 	c #000000",
"$ 	c #070707",
"% 	c #080808",
"& 	c #030303",
"* 	c #010101",
"= 	c #0A0A0A",
"- 	c #020202",
"; 	c #0B0B0B",
"> 	c #100303",
", 	c #260606",
"' 	c #240606",
") 	c #140403",
"! 	c #040101",
"~ 	c #060101",
"{ 	c #1C0504",
"] 	c #2A0707",
"^ 	c #290707",
"/ 	c #1D0505",
"( 	c #070101",
"_ 	c #691110",
": 	c #B61E1C",
"< 	c #C1201E",
"[ 	c #BC1F1D",
"} 	c #AB1C1B",
"| 	c #8D1816",
"1 	c #7B1413",
"2 	c #841614",
"3 	c #BF1F1D",
"4 	c #BF201E",
"5 	c #AA1C1A",
"6 	c #580F0E",
"7 	c #050101",
"8 	c #111111",
"9 	c #661110",
"0 	c #C2201E",
"a 	c #B91E1D",
"b 	c #801514",
"c 	c #410B0A",
"d 	c #280707",
"e 	c #731312",
"f 	c #7D1514",
"g 	c #030101",
"h 	c #8F1816",
"i 	c #020000",
"j 	c #140303",
"k 	c #BE1F1D",
"l 	c #420B0A",
"m 	c #270706",
"n 	c #851615",
"o 	c #B11D1B",
"p 	c #921817",
"q 	c #590F0E",
"r 	c #6B1211",
"s 	c #4C0C0C",
"t 	c #B81E1C",
"u 	c #BD1F1D",
"v 	c #BA1F1D",
"w 	c #8A1715",
"x 	c #4E0D0C",
"y 	c #160403",
"z 	c #0B0202",
"A 	c #2B0707",
"B 	c #6F1211",
"C 	c #0E0E0E",
"D 	c #0C0C0C",
"E 	c #B01D1B",
"F 	c #A01A19",
"G 	c #170404",
"H 	c #450C0B",
"I 	c #63100F",
"J 	c #811514",
"K 	c #B11D1C",
"L 	c #B21D1B",
"M 	c #090202",
"N 	c #1B0504",
"O 	c #B41E1C",
"P 	c #901816",
"Q 	c #C0201E",
"R 	c #440B0B",
"S 	c #010000",
"T 	c #130303",
"U 	c #BB1F1D",
"V 	c #8C1716",
"W 	c #190404",
"X 	c #A61B1A",
"Y 	c #AB1C1A",
"Z 	c #0A0202",
"` 	c #62100F",
" .	c #120303",
"..	c #390909",
"+.	c #B71E1C",
"@.	c #3A0A09",
"#.	c #911816",
"$.	c #3F0B0A",
"%.	c #0E0202",
"&.	c #B51E1C",
"*.	c #B31D1C",
"=.	c #1A0404",
"-.	c #5B0F0E",
";.	c #9B1A18",
">.	c #520E0D",
",.	c #200505",
"'.	c #9D1A18",
").	c #951817",
"!.	c #290706",
"~.	c #180404",
"{.	c #330908",
"].	c #360908",
"^.	c #020001",
"/.	c #090909",
"(.	c #230606",
"_.	c #7A1413",
":.	c #1E0505",
"<.	c #1B0404",
"[.	c #2C0707",
"}.	c #B81E1D",
"|.	c #310808",
"1.	c #7D1513",
"2.	c #080101",
"3.	c #B91F1D",
"4.	c #BE1F1E",
"5.	c #5A0F0E",
"6.	c #340908",
"7.	c #560E0D",
"8.	c #550E0D",
"9.	c #AE1D1B",
"0.	c #9C1A18",
"a.	c #721312",
"b.	c #5C0F0E",
"c.	c #9A1918",
"d.	c #6E1211",
"e.	c #340909",
"f.	c #A31B19",
"g.	c #5C5C5C",
"h.	c #CDCDCD",
"i.	c #B2B2B2",
"j.	c #2B2525",
"k.	c #EEEEEE",
"l.	c #FFFFFF",
"m.	c #DADADA",
"n.	c #1C1C1C",
"o.	c #110303",
"p.	c #831614",
"q.	c #EBEBEB",
"r.	c #BABABA",
"s.	c #191919",
"t.	c #0E0404",
"u.	c #4F0D0D",
"v.	c #5E0F0F",
"w.	c #929292",
"x.	c #FEFEFE",
"y.	c #DCDCDC",
"z.	c #F5F5F5",
"A.	c #888888",
"B.	c #030000",
"C.	c #250606",
"D.	c #641110",
"E.	c #9F1A19",
"F.	c #821514",
"G.	c #1F0505",
"H.	c #3F3F3F",
"I.	c #6E6E6E",
"J.	c #6D6D6D",
"K.	c #353535",
"L.	c #D4D4D4",
"M.	c #7F7F7F",
"N.	c #430B0B",
"O.	c #6C1211",
"P.	c #AC1C1B",
"Q.	c #808080",
"R.	c #F4F4F4",
"S.	c #4C4C4C",
"T.	c #2C2C2C",
"U.	c #D3D3D3",
"V.	c #FDFDFD",
"W.	c #6C6C6C",
"X.	c #270606",
"Y.	c #2E0807",
"Z.	c #210505",
"`.	c #C9C9C9",
" +	c #F6F6F6",
".+	c #636363",
"++	c #FCFCFC",
"@+	c #A4A4A4",
"#+	c #565656",
"$+	c #404040",
"%+	c #505050",
"&+	c #696969",
"*+	c #7B7B7B",
"=+	c #7D7D7D",
"-+	c #5F5F5F",
";+	c #434343",
">+	c #747474",
",+	c #494949",
"'+	c #2F2F2F",
")+	c #4D4D4D",
"!+	c #222222",
"~+	c #DEDEDE",
"{+	c #525252",
"]+	c #ACACAC",
"^+	c #F9F9F9",
"/+	c #1D1D1D",
"(+	c #DFDFDF",
"_+	c #9A9A9A",
":+	c #C3C3C3",
"<+	c #FAFAFA",
"[+	c #BBBBBB",
"}+	c #D9D9D9",
"|+	c #9D9D9D",
"1+	c #343434",
"2+	c #101010",
"3+	c #202020",
"4+	c #131313",
"5+	c #F3F3F3",
"6+	c #ABABAB",
"7+	c #C7C7C7",
"8+	c #DBDBDB",
"9+	c #979797",
"0+	c #CFCFCF",
"a+	c #0F0F0F",
"b+	c #E2E2E2",
"c+	c #BFBFBF",
"d+	c #818181",
"e+	c #E6E6E6",
"f+	c #D2D2D2",
"g+	c #CACACA",
"h+	c #C2C2C2",
"i+	c #7C7C7C",
"j+	c #EFEFEF",
"k+	c #F1F1F1",
"l+	c #272727",
"m+	c #383838",
"n+	c #D7D7D7",
"o+	c #F2F2F2",
"p+	c #292929",
"q+	c #BCBCBC",
"r+	c #DDDDDD",
"s+	c #A7A7A7",
"t+	c #EDEDED",
"u+	c #D1D1D1",
"v+	c #C8C8C8",
"w+	c #EAEAEA",
"x+	c #BEBEBE",
"y+	c #B1B1B1",
"z+	c #9F9F9F",
"A+	c #AFAFAF",
"B+	c #E0E0E0",
"C+	c #FBFBFB",
"D+	c #E9E9E9",
"E+	c #D0D0D0",
"F+	c #AAAAAA",
"                                      . + @ # # # # @ $ @                                       ",
"                              % & # # # # # # # # # # # # # * +                                 ",
"                          = * # # # # # # # # # # # # # # # # # # - %                           ",
"                      ; * # # # # # # # # # # # # # # # # # # # # # # +                         ",
"                    @ # # # # # # > , ' ) ! # # # ~ { ] ^ / ~ # # # # # # $                     ",
"                  - # # # # # ( _ : < < [ } | 1 2 } 3 < < 4 5 6 7 # # # # # @                   ",
"              8 * # # # # # # 9 0 0 0 0 0 0 0 0 0 0 a b c d e 0 f g # # # # # -                 ",
"            8 # # # # # # # ~ } 0 0 0 0 0 0 0 0 0 0 0 0 h i j k < l # # # # # # +               ",
"            * # # # # # # # m < < < 0 0 0 0 0 0 0 0 0 < 2 n o 0 0 p i # # # # # # +             ",
"          - # # # # # # # # q 0 r s t < u v < 0 0 0 0 0 0 0 0 0 0 4 ' # # # # # # # $           ",
"        @ # # # # # # # # # w 0 x # > m y z A b 0 0 0 0 0 0 0 0 0 0 B # # # # # # # # C         ",
"      D # # # # # # # # # ( E 0 F G i ' H I J K 0 0 0 0 0 0 0 0 0 0 L M # # # # # # # *         ",
"      - # # # # # # # # # N < 0 0 O P Q 0 0 0 0 0 0 0 0 0 0 0 0 0 0 0 R # # # # # # # # $       ",
"    ; # # # # # # # S ! i T U 0 0 0 0 0 0 0 0 0 0 0 0 0 0 0 0 0 0 0 0 V # # # # # # # # #       ",
"    - # # # W 9 P X E O Y Z ` < 0 0 0 0 0 0 0 0 0 0 0 0 0 0 0 0 0 0 0 3  .# # # # # # # # %     ",
"    # # # ..+.0 0 0 0 0 X # S @.#.Q 0 0 0 0 0 0 0 0 0 0 0 0 0 0 0 0 0 0 $.# # # # # # # # *     ",
"  + # # %.&.0 0 0 0 0 0 *.7 # # # =.-.;.3 0 0 0 0 0 0 0 0 0 0 0 0 0 0 0 >.# # # # # # # # # =   ",
"  * # # ,.Q 0 0 0 0 0 0 0 9 7 # # # # S N >.V U 0 0 0 0 0 0 0 0 0 0 0 0 x 7 S # # # # # # # $   ",
"  # # # ! '.0 0 0 0 0 0 0 0 ).!.S # # # # # # ~.w 0 0 0 0 0 0 0 0 0 0 0 {.e h ].^.# # # # # -   ",
"/.# # # # (.O 0 0 0 0 0 0 0 0 u _.:.# # # # # # <.< 0 0 0 0 0 0 0 0 0 [ [.}.0 Q V , # # # # #   ",
". # # # # # |.t 0 0 0 0 0 0 0 0 0 U 1.A i # # # 2.3.0 0 0 0 0 0 0 0 0 4.E 0 0 0 0 [ 5.# # # #   ",
"@ # # # # # # 6.: 0 0 0 0 0 0 0 0 0 0 Q ;.7.=.# # 8.0 0 0 0 0 0 0 0 0 0 0 0 0 0 0 0 4 ] # # # $ ",
"$ # # # # # # # A 9.0 0 0 0 0 0 0 0 0 0 0 0 u 0.a.a.3 0 0 0 0 0 0 0 0 0 0 0 0 0 0 0 0 b.# # # . ",
"* # # # # # # # # =.c.0 0 0 0 0 0 0 0 0 0 0 0 0 0 0 0 0 0 0 0 0 0 0 0 0 0 0 0 0 0 0 0 b.# # # % ",
"& # # # # # # # # # ( d.Q 0 0 0 0 0 0 0 0 0 0 0 0 0 0 0 0 0 0 0 0 0 0 0 0 0 0 0 0 0 0 ..# # # /.",
". # # # # # # # # # # - e.f.0 0 0 0 0 0 0 0 0 0 0 0 0 0 0 0 0 0 0 0 0 0 0 0 0 0 0 0 &.z # # # @ ",
"@ # # # # # # # # # g.h.i.j.5.L 0 0 0 0 0 0 0 0 0 0 0 0 0 0 0 0 0 0 0 0 0 0 0 0 0 0 I # # # # % ",
". # # # # # # # # C k.l.l.m.n.o.` E 0 0 0 0 0 0 0 0 0 0 0 0 0 0 0 0 0 0 0 0 0 0 0 p.7 # # # #   ",
". # # # # # # # # = q.l.l.l.r.% s.t.u.c.4 0 0 0 0 0 0 0 0 0 0 0 0 0 0 0 0 0 0 3.v.7 # # # # #   ",
"  # # # # # # # # # w.l.l.l.x.y.z.A.* B.C.D.E.4 0 0 0 0 0 0 0 0 0 0 0 0 0 4 F.G.# # # # # # -   ",
"  * H.I.I.I.I.J.K.# ; L.l.l.l.l.l.x.M.* # # B.~.N.O.h P.u 0 0 0 0 0 k X e m S # # # # # # # $   ",
"  + Q.l.l.l.l.l.R.S.# T.U.l.l.l.l.l.V.W.# # # # # # # B.z =.X.Y.[.Z.%.i # # # # # # # # # # =   ",
"    `.l.l.l.l.l.l. +.+& T.l.l.l.l.l.l.++@+#+$+%+&+*+=+-+;+>+J.,+'+)+!+# # # # # # # # # # -     ",
"    ~+l.l.l.l.l.l.l.l.U.m.l.l.l.l.l.l.l.l.l.l.l.l.l.l.l.l.l.l.l.l.l.{+# # # # # # # # # # %     ",
"    ]+l.l.l.l.l.l.l.l.l.l.l.l.l.l.l.l.l.l.l.l.l.l.l.l.l.l.l.l.l.l.^+/+# # # # # # # # # *       ",
"      (+l.l.l.l.l.l.l.l.l.l.l.l.l.l.l.l.l.l.l.l.++_+:+<+[+++l.l.l.}++ # # # # # # # # # %       ",
"      |+++l.l.l.l.l.l.l.l.l.l.l.l.l.l.l.l.l.l.l.(+1+2+3+4+5+l.l.l.6+# # # # # # # # # -         ",
"        7+l.l.l.l.l.l.l.l.l.l.l.l.l.l.l.l.l.l.l.l.l.8+9+0+l.l.l.l.>+# # * & * # # # # a+        ",
"          b+l.l.l.l.l.l.l.l.l.l.l.l.l.l.l.l.l.l.l.l.l.l.l.l.l.l.c+; # # d+e+y.f+g+h+i+          ",
"            j+l.l.l.l.l.l.l.l.l.l.l.l.l.l.l.l.l.l.l.l.l.l.l.l.k+l+# # m+f+l.l.l.l.n+            ",
"              o+l.l.l.l.l.l.l.l.l.l.l.l.l.l.l.l.l.l.l.l.l.l.x.W.# p+q+x.l.l.l.l.r+              ",
"                j+l.l.l.l.l.l.l.l.l.l.l.l.l.l.l.l.l.l.l.l.l.s+& ,+t+l.l.l.l.l.y.                ",
"                  b+l.l.l.l.l.l.l.l.l.l.l.l.l.l.l.l.l.l.l.u+D g.z.l.l.l.l.x.h.                  ",
"                    v+++l.l.l.l.l.l.l.l.l.l.l.l.l.l.l.l.l.w+x+++l.l.l.l.R.y+                    ",
"                      z+b+l.l.l.l.l.l.l.l.l.l.l.l.l.l.l.l.l.l.l.l.l.V.u+                        ",
"                          A+B+l.l.l.l.l.l.l.l.l.l.l.l.l.l.l.l.l.C+U.                            ",
"                                v+D+l.l.l.l.l.l.l.l.l.l.l.x.~+c+                                ",
"                                      y+h+g+0+0+E+0+`.c+F+                                      "};
