/* XPM */
static char * closeAP_xpm[] = {
"18 18 8 1",
" 	c None",
".	c #FFFFFF",
"+	c #F4F4F4",
"@	c #CCCCCC",
"#	c #565656",
"$	c #919191",
"%	c #FFFF00",
"&	c #333333",
"..................",
"++++++++++++++++++",
"++++++++++++++++++",
"++++@@########@+++",
"+++@+#$......$#+++",
"+++@+#...#....#+++",
"+++@+#...##...#+++",
"+++@+#...#%#..#+++",
"+++@+#...#%%#.#+++",
"+++@+#...#%#..#+++",
"+++@+#...##...#+++",
"+++@+#...#....#+++",
"+++@+#$......$#+++",
"++++@@########@+++",
"++++++++++++++++++",
"++++++++++++++++++",
"$$$$$$$$$$$$$$$$$$",
"&&&&&&&&&&&&&&&&&&"};
