/* XPM */
static char * closeI_xpm[] = {
"18 18 6 1",
" 	c None",
".	c #FFFFFF",
"+	c #F4F4F4",
"@	c #CCCCCC",
"#	c #919191",
"$	c #333333",
"..................",
"++++++++++++++++++",
"++++++++++++++++++",
"++++@@@@@@@@++++++",
"+++@++++++++@+++++",
"+++@+++@++++@+++++",
"+++@+++@@+++@+++++",
"+++@+++@+@++@+++++",
"+++@+++@++@+@+++++",
"+++@+++@+@++@+++++",
"+++@+++@@+++@+++++",
"+++@+++@++++@+++++",
"+++@++++++++@+++++",
"++++@@@@@@@@++++++",
"++++++++++++++++++",
"++++++++++++++++++",
"##################",
"$$$$$$$$$$$$$$$$$$"};
