/* XPM */
static char * maxAP_xpm[] = {
"18 18 14 1",
" 	c None",
".	c #FFFFFF",
"+	c #565656",
"@	c #FBFBFB",
"#	c #F7F7F7",
"$	c #F3F3F3",
"%	c #EFEFEF",
"&	c #EBEBEB",
"*	c #E7E7E7",
"=	c #F4F4F4",
"-	c #CCCCCC",
";	c #DBDBDB",
">	c #919191",
",	c #333333",
"..+..@#$%&**+.....",
"==+.@#$%&++++=====",
"==+@#$%&+=========",
"==+#$%&+-----=====",
"==+$%&+======-====",
"==++++=======-====",
"===-======;;;-====",
"===-=====;===-====",
"===-====;====-====",
"===-===;=====-====",
"===-;;;====++++===",
"===-======+..@+===",
"===-=====+..@#+===",
"====----+..@#$+===",
"====++++..@#$%+===",
"====+....@#$%&+===",
">>>>+>..@#$%&>+>>>",
",,,,,,,,,,,,,,,,,,"};
