/* XPM */
static char * maxI_xpm[] = {
"18 18 7 1",
" 	c None",
".	c #FFFFFF",
"+	c #F4F4F4",
"@	c #CCCCCC",
"#	c #F3F3F3",
"$	c #919191",
"%	c #333333",
"..................",
"++++++++++++++++++",
"++++++++++++++++++",
"++++@@@@@@@@@+++++",
"+++@+++++++++@++++",
"+++@+++++++++@++++",
"+++@++++++@@@@++++",
"+++@+++++@+++@++++",
"+++@++++@++++@++++",
"+++@+++@+++++@++++",
"+++@@@@++++++@++++",
"+++@++++++++#@++++",
"+++@+++++++##@++++",
"++++@@@@@@@@@+++++",
"++++++++++++++++++",
"++++++++++++++++++",
"$$$$$$$$$$$$$$$$$$",
"%%%%%%%%%%%%%%%%%%"};
