/* XPM */
static char * menuI_xpm[] = {
"18 18 13 1",
" 	c None",
".	c #CCCCCC",
"+	c #F4F4F4",
"@	c #FFFFFF",
"#	c #F8F8F8",
"$	c #F2F2F2",
"%	c #EBEBEB",
"&	c #E5E5E5",
"*	c #DFDFDF",
"=	c #D8D8D8",
"-	c #D2D2D2",
";	c #919191",
">	c #333333",
"..................",
"++++++++++++++++++",
"++++++++++++++++++",
"+++...........++++",
"+++.@#$%&*=-.+++++",
"+++.#$%&*=-.++++++",
"+++.$%&*=-.+++++++",
"+++.%&*=-.++++++++",
"+++.&*=-.+++++++++",
"+++.*=-.++++++++++",
"+++.=-.+++++++++++",
"+++.-.++++++++++++",
"+++..+++++++++++++",
"+++.++++++++++++++",
"++++++++++++++++++",
"++++++++++++++++++",
";;;;;;;;;;;;;;;;;;",
">>>>>>>>>>>>>>>>>>"};
