/* XPM */
static char * menuA_xpm[] = {
"18 18 13 1",
" 	c None",
".	c #565656",
"+	c #CCCCCC",
"@	c #919191",
"#	c #B2B2DE",
"$	c #A5A5D8",
"%	c #9898D2",
"&	c #8C8CCD",
"*	c #7F7FC7",
"=	c #7272C2",
"-	c #6666BD",
";	c #5959B7",
">	c #333333",
"..................",
"++++++++++++++++++",
"++++++++++++++++++",
"+++..........@++++",
"+++.#$%&*=-;.+++++",
"+++.$%&*=-;.++++++",
"+++.%&*=-;.+++++++",
"+++.&*=-;.++++++++",
"+++.*=-;.+++++++++",
"+++.=-;.++++++++++",
"+++.-;.+++++++++++",
"+++.;.++++++++++++",
"+++..+++++++++++++",
"+++@++++++++++++++",
"++++++++++++++++++",
"++++++++++++++++++",
"@@@@@@@@@@@@@@@@@@",
">>>>>>>>>>>>>>>>>>"};
