/* XPM */
static char * titleIL_xpm[] = {
"18 18 6 1",
" 	c None",
".	c #FFFFFF",
"+	c #CCCCCC",
"@	c #F4F4F4",
"#	c #919191",
"$	c #333333",
".........+++++++++",
"@@@@@@.++@@@@@@@@@",
"@@@@.++@@@@@@@@@@@",
"@@@.+@@@@@@@@@@@@@",
"@@@.+@@@@@@@@@@@@@",
"@@@.+@@@@@@@@@@@@@",
"@@@.+@@@@@@@@@@@@@",
"@@@.+@@@@@@@@@@@@@",
"@@@.+@@@@@@@@@@@@@",
"@@@.+@@@@@@@@@@@@@",
"@@@.+@@@@@@@@@@@@@",
"@@@.+@@@@@@@@@@@@@",
"@@@.+@@@@@@@@@@@@@",
"@@@.+@@@@@@@@@@@@@",
"@@@@.++@@@@@@@@@@@",
"@@@@@@.++@@@@@@@@@",
"##################",
"$$$$$$$$$$$$$$$$$$"};
