/* XPM */
static char * titleAR_xpm[] = {
"18 18 10 1",
" 	c None",
".	c #565656",
"+	c #FFFFFF",
"@	c #CCCCCC",
"#	c #C4C4C4",
"$	c #BFBFBF",
"%	c #919191",
"&	c #F4F4F4",
"*	c #A8A8A8",
"=	c #333333",
".........+++++++++",
"@@@@@@#$%..+&&&&&&",
"@@@@@@@@#$%..+&&&&",
"@@@@@@@@@@#$%.+&&&",
"@@@@@@@@@@@$*.+&&&",
"@@@@@@@@@@@##.+&&&",
"@@@@@@@@@@@@#.+&&&",
"@@@@@@@@@@@@#.+&&&",
"@@@@@@@@@@@@#.+&&&",
"@@@@@@@@@@@@#.+&&&",
"@@@@@@@@@@@@#.+&&&",
"@@@@@@@@@@@##.+&&&",
"@@@@@@@@@@@$*.+&&&",
"@@@@@@@@@@#$%.+&&&",
"@@@@@@@@#$%..+&&&&",
"@@@@@@#$%..+&&&&&&",
"%%%%%%%..%%%%%%%%%",
"=================="};
