/* XPM */
static char *trefoil[] = {
/* width height num_colors chars_per_pixel */
"   128    64       76            2",
/* colors */
".. c #000000",
".# c #080706",
".a c #0e0d0b",
".b c #0f0e0d",
".c c #12100e",
".d c #141310",
".e c #151412",
".f c #161513",
".g c #181614",
".h c #191815",
".i c #1a1816",
".j c #1b1916",
".k c #1c1a17",
".l c #1c1a18",
".m c #1e1c18",
".n c #1e1c19",
".o c #1f1d19",
".p c #211e1b",
".q c #211f1b",
".r c #221f1c",
".s c #22201c",
".t c #23211d",
".u c #24211d",
".v c #24221e",
".w c #25221e",
".x c #25231f",
".y c #25241f",
".z c #262420",
".A c #262520",
".B c #272521",
".C c #282521",
".D c #282522",
".E c #292622",
".F c #292623",
".G c #2a2723",
".H c #2b2723",
".I c #2b2824",
".J c #2c2824",
".K c #2d2925",
".L c #2d2a25",
".M c #2e2a25",
".N c #2f2b25",
".O c #2f2c26",
".P c #302c26",
".Q c #302c27",
".R c #312d27",
".S c #322d27",
".T c #322e28",
".U c #322f29",
".V c #33302a",
".W c #34312a",
".X c #35322b",
".Y c #36322c",
".Z c #37322d",
".0 c #38332d",
".1 c #38332e",
".2 c #39342e",
".3 c #39352e",
".4 c #3a352f",
".5 c #3a362f",
".6 c #3b3630",
".7 c #3c3630",
".8 c #3c3731",
".9 c #3c3832",
"#. c #3c3932",
"## c #3f3a32",
"#a c #403c33",
"#b c #423c35",
"#c c #443e36",
"#d c #453f37",
"#e c #464139",
"#f c #47423a",
"#g c #49443b",
"#h c #4a453c",
"#i c #4b453c",
"#j c #4c473d",
/* pixels */
".w.t.e.......g.D#e#i#j#j#h#g#c#d#......K.Y.W.S.K.O.Y.W.U.O.Y.O.Y.Y.Y.Y.z.k..#a#..1.U.H.z.o.d.....a.o.H#.#a#b##.7.7.4.H.a...B.V.V.Q.K.K.T.M.K.Q.X.K.M.K.J.T.R.M.V.A...k.g...........F.R.S.X.1.8.9.6.1.4.U.Q.V.q...v#b#c#a#b#a#a#a#b###.#a#b#.#b###c#c.k.a.F.F.M.F",
"...a.r###g#j#j#h#g#d#a#.#####b#b#d#b.....K.Y.S.U.O.S.W.Y.U.Y.Y.W.W.S.W.K.a...D.r.g.....a.k.D.7#b#b###..4.U.U.Y.K.U.W.S.O.g...G.Q.V.V.J.K.K.X.M.R.V.N.K.U.W.K.W.U.V.......y.G.Y.X.2.6.9.6.1.1.X.R.M.N.T.K.X.V.V.E...g###c#a#a###a#.#a###b###.#####b#d.O...G.n....",
"#j#j#i#g#e#c#a#b#b###.#b#b#b#a#.#b#d#c.a...o.Y.U.W.W.U.O.U.W.S.W.W.1.O.O.......g.z.1#a#a#.#..7.1.U.S.Y.Y.S.U.U.S.W.Y.U.Y.W.k...q.M.V.V.R.M.K.R.R.W.V.X.M.K.T.J.V.V.U.X.6.8.9.6.5.X.Y.N.K.K.Q.R.M.X.V.N.V.R.Q.N.T.P.....1#d###b###b#b#a###b#####.#b#d.7.....g.Y#c",
"#b#a#a#.#a#b#.#####.###b#.###b#####c#d#c.z...g.W.W.W.O.Y.Y.U.O.K.U.U.Y.U.Y#b#a##.7.4.S.W.Y.Y.Y.W.W.Y.K.S.O.Y.W.S.U.Y.Y.O.S.Y.r.....V.V.V.U.K.M.X.J.X.U.V.U.X.X.U.9.8.1.V.X.N.R.Q.V.K.K.V.V.R.V.T.U.Q.Q.K.N.T.R.X.U.T.l...K#d#b#.#a#a#a#b#b#b#b#.#b#c#c#d#j#j#h#e",
"#b#b#.#b#a###b###b#b#b#b###a#b#a#####a#c#d.K...a.S.Y.1.1.O.O.Y.1.W.U.W.S.U.Y.W.O.Y.O.Y.Y.O.W.S.W.Y.S.Y.O.O.U.U.U.W.W.W.Y.Y.Y.U.K.....F.V.V.V.U.X.N.Q.M.X.V.X.R.X.U.X.T.Q.K.T.J.U.M.N.J.U.W.Q.X.N.J.X.X.U.Q.K.T.Q.M.W.V.u...r#b#a#b###b#a#####b#.###a#d###b######",
"#b#.###.###.#.#.#a#.###.#a###.#######b###d#d.W.....H.Y.O.W.U.S.W.Y.K.S.O.Y.U.K.O.S.O.O.S.O.U.K.Y.K.Y.Y.Y.W.W.Y.Y.O.O.S.Y.S.O.U.W.K.d...A.V.V.V.K.M.U.K.Q.U.K.X.T.T.W.V.U.K.Q.N.V.V.X.R.M.M.K.N.M.V.W.X.K.Q.Q.N.R.J.V.N.V.I...d#.#c#a#b###b###b#b#.#a#.#####b#b##",
"#a#b#.#a#b#a###.#####a#.#b#a#a###a###a#####c#d#b.....1.U.O.O.S.Y.W.1.U.S.W.U.Y.Y.W.Y.K.S.Y.Y.U.S.O.U.S.W.S.K.Y.S.S.Y.1.W.S.K.W.Y.Y.S.g...A.U.V.U.V.U.M.X.G.T.K.X.N.K.K.U.G.R.Q.M.U.X.W.J.N.M.K.R.V.X.M.M.K.R.J.R.R.X.T.N.V.Q.a..#e#b#a#.#####b#.#a#.#b###.#b###.",
"#a#a#.#b#.#.#b#b#a#a#b#a###b#b###a#a#b#a###b#b####.o...K.Y.S.S.W.1.W.W.S.S.O.S.W.W.1.Y.K.O.W.W.W.1.U.W.Y.S.Y.Y.U.Y.O.Y.W.W.Y.W.W.Y.W.Y.g...V.V.V.V.V.T.V.U.Q.K.Q.U.X.R.T.U.T.M.K.T.Q.T.X.K.T.K.X.N.Q.K.T.N.R.X.K.K.J.K.R.K.T.t...r#c#####b#a#b#b#####a#b#b#b#.#b",
"#b#b#a#a###a#a#.#a#a#a###a###.#.#b#####a#a#b###a##.W.o...S.O.W.O.S.S.K.S.Y.O.O.Y.W.Y.O.U.O.Y.S.W.S.O.Y.S.S.S.O.Y.S.S.O.W.Y.O.O.K.Y.U.K.g...5.9.N.K.K.K.X.Q.W.X.K.X.M.V.M.R.R.M.R.R.N.V.N.V.N.X.J.X.K.R.M.W.X.X.X.M.N.Q.Q.X.M.i..#e#j#a#####.###.#####a#a###b####",
"#.#b###a###b#.###b#.#b#b#b#a#a#.#b#a#.#.#a###b##.O.d...K#a.Y.Y.O.O.S.S.O.W.U.Y.O.U.U.S.S.U.W.O.S.W.W.Y.Y.1.U.U.W.S.Y.S.W.Y.W.W.Y.O.D.d...J.8.1.J.V.R.X.K.N.W.Q.K.W.N.R.M.W.Q.R.Q.Q.V.N.X.K.Q.V.W.X.M.T.N.J.M.N.T.R.V.V.Q.J.f...W#j#######a#b#a###b###a###a#b#.#.",
"#####b#.#b#.#.#a###a#b###b#.#a#b###b#.#a###a.7.D.....Y#a.4.W.W.Y.1.W.W.S.U.W.W.1.W.Y.Y.S.O.Y.W.O.O.U.O.W.W.S.S.O.O.O.Y.Y.O.Y.O.U.v.a...U.8.S.W.Q.R.M.U.T.J.J.W.V.J.X.R.W.J.M.T.U.X.V.V.N.T.K.N.G.M.U.T.W.J.K.K.T.R.M.R.F.e...Y#j#f#b#a###.#####b###.###.#a######",
"#a#.#a###.#b#a#####b#a#a#######a#a#a#####..W.r...a#.##.1.O.W.O.W.W.U.O.O.S.z.z.D.S.S.S.S.Y.O.Y.S.Y.S.Y.Y.S.W.U.O.W.O.S.Y.Y.Y.H.r.....Y.6.S.J.K.T.Q.X.X.V.K.K.T.K.K.B.E.F.J.N.V.N.M.K.M.K.V.X.J.U.V.W.J.T.Q.N.X.U.X.R.B.c...4#j#f#.###a#a#.#######b#b#a#a###a###a",
"###b###.###b#.#a#b#b#a#a#.#####a###b#.#..O.g...o#a#..1.1.K.S.Y.Y.1.Y.O.Y.O.D.H.H.D.z.D.H.S.K.S.W.O.S.U.O.W.W.Y.S.Y.W.Y.Y.S.K.k...b.6.6.Y.T.W.M.X.W.Q.V.J.U.V.R.V.B.w...B.F.B.B.B.J.F.M.T.R.M.M.K.R.Q.K.N.W.M.X.T.Q.A.b..#.#j#e#a#a#b#b#.#a#b#.###.####.S.U.W.1.4",
".H.O.U.Y.4#.#.###b#.#####b#b#####a#..1.H.a...K#a.7.1.Y.O.S.Y.Y.K.W.U.Y.U.H.H.......g.r.r.v.v.z.D.H.U.S.U.W.O.1.O.O.S.O.O.D.g...h.8.2.O.T.N.J.N.N.T.Q.U.J.K.K.X.F.E.q.....b.i.n.w.B.F.B.B.E.F.F.J.K.K.J.M.K.Q.W.M.x.a..###j#e###a#.#a#b###b#a###b#.#a.U.......d.v",
".......d.D.K.S.U.Y.4.7###a#a###b#a.W.v.....7#a.W.U.Y.S.U.U.W.W.S.Y.S.W.S.z.r..##.W...........d.k.o.r.z.H.O.U.U.O.O.O.K.z.d...q.9.5.N.V.X.K.Q.T.V.X.K.K.T.R.V.R.B.M...H.1.S.v.g.....#.f.j.q.w.B.B.B.B.F.J.G.V.T.w.#..#b#j#f#b#b#a#a#b###b#b#b#.#a###b.z...V.T.p..",
".Y.U.E.q.........d.H.O.S.S.U.Y.W.O.k...g####.4.Y.S.S.Y.W.S.O.W.W.W.Y.S.S.z...K#j#j#i#f#f#c.7.a.........a.g.k.r.D.S.H.v.a...Q.8.U.Q.V.K.M.K.R.X.J.R.N.J.N.T.T.J.B.#..##.U.7###a#b#..W.z.g.......b.f.m.s.A.B.B.s....#c#j#e#.#b#a#.#a###########a###a.7.k...1.8.8.6",
".Z.5.6.8.8.5.U.I.m.#.......d.K.D.a...z#a.4.S.Y.O.U.U.Y.1.K.W.O.O.Y.Y.O.D.z..###i#c#e#e#g#h#j#j#j#i#g#b.v.g.......z.o.....X.8.U.N.K.J.X.W.K.Q.Q.W.R.K.Q.V.X.R.F.F...r#a.S.O.K.O.W.1#.#a#b#b#a.Y.z.d.......E.q....#e#j#f###a###b###a#b#a###.#a###a#a.W.a...2.2.R.U",
".R.K.X.R.K.Y.0.Y.2.8.6.............U#a.7.O.Y.W.S.O.O.Y.Y.W.O.U.W.U.K.1.z.r..#h#e#.###b#a###b#c#c#e#f#g#i#j#j.........#.2.6.S.K.V.K.J.U.T.X.X.K.V.N.X.U.X.K.R.B.J...Y.4.W.U.Y.O.Y.O.W.O.O.Y.7###b#b.d..........#e#j#e#a#a###.###b#b#####a#b###.#a##.H...N.8.Y.V.Q",
".R.K.V.Q.U.T.K.U.G.J.V.M.......a####.W.Y.W.U.O.W.S.Y.K.U.O.U.Y.O.O.Y.U.z...D#j#c#a###.###b###a#a###b#b#b#d##.......e.6.6.W.R.J.K.Q.U.R.R.V.X.Q.R.X.V.K.M.N.G.B...a#b.U.W.O.O.O.W.U.S.U.Y.O.O.K.S.Y.U........#e#j#f#.#b#b#a#######b#b#b###b######.7.v...U.6.N.V.Q",
".V.M.W.T.K.J.V.M.X.M.V.U.....z#a#..Y.O.O.U.Y.O.O.O.U.O.O.O.Y.U.O.O.Y.H.z...7#i#a#a###b#a#a#.###a#a#a#b#a#d#c.....A.8.6.V.T.M.K.R.V.T.V.X.V.R.X.K.K.U.T.U.T.F.E...D##.O.Y.U.O.U.Y.Y.O.S.Y.W.O.O.Y.Y.Y......#f#j#e#########a#######.#b###.#a#a#.#b.U.k...2.Z.K.W.K",
".X.U.T.V.K.K.V.K.K.J.Q.U....#a.7.S.S.W.O.1.Y.Y.Y.U.W.U.O.Y.O.W.O.K.K.z.r..#h#f#####a#a###b#b###.#.#a#a#.#b#d.....9.X.U.T.W.R.V.N.M.K.X.Q.J.X.R.Q.X.N.K.K.R.B.I...7.1.O.S.W.S.Y.U.W.W.U.1.W.O.S.O.W.Y....#e#j#e#a#####a#b#b#a#.#########b###a#a##.S...A.8.0.X.K.T",
".U.M.R.V.R.M.Q.N.G.K.N.V.I...K.U.S.S.S.S.U.U.W.O.S.Y.U.O.O.S.O.S.O.O.z...z#j#d#a#a#a#a#a#.#a#a#a#b#a#b#.#b#d.4...Q.K.V.K.V.J.K.K.V.R.V.M.K.T.J.K.M.Q.T.K.T.B...g#b.W.Y.O.S.Y.S.K.Y.S.S.K.O.O.W.S.U.Y.K..#a#f#a#b#a#a#a###.#.###a###a#a###b###b.1.H...W.8.K.T.V.K",
".X.K.K.U.U.M.N.Q.Q.W.M.V.R...v.U.W.W.S.S.Y.U.Y.O.K.O.K.Y.U.1.O.U.Y.S.z...4#i#a#####a#a#a#a#b###.#.#a#.#b#.#d#c...y.R.V.Q.V.N.X.J.V.K.T.K.U.X.R.U.N.X.M.V.J.J...O##.1.W.S.U.W.K.W.W.S.S.O.S.Y.O.U.U.Y.W...W#c###a#a#a###a###a#.###b#b#b#.#a#a#a.U.z...1.5.X.U.Q.U",
".Q.Q.V.J.Q.K.Q.U.V.V.N.V.T...g.O.U.W.Y.O.Y.W.Y.Y.O.W.U.O.O.O.O.O.Y.H.v..#g#e#####b#.#b###a###b#.###.#a###a#c#d...h.T.X.Q.R.V.J.K.N.N.X.K.V.N.V.W.Q.R.X.U.B.w..##.4.Y.W.O.W.W.Y.U.W.O.U.1.U.U.Y.O.O.W.Y...D#c#b#a#.#a#a#######a#a#.#b#####b#..7.S...q.6.X.X.K.M.V",
".U.N.W.J.R.U.T.T.U.T.Q.T.V.E...S.U.S.O.Y.S.Y.U.U.S.U.S.O.O.S.Y.1.K.z.o.a#j#d#a#.#####.#####b#.#a#b#b#b###b#b#d.1...T.W.W.T.V.R.V.J.J.Q.K.Q.T.T.R.Q.T.K.J.E...r#b.O.O.O.W.W.Y.O.O.O.Y.Y.W.Y.S.W.W.S.Y.Y...g#d#a#.#a#a#b#b#a#.###b#b#.#a###a##.Y.U...Q.8.Y.U.K.M.Q",
".Q.M.T.K.T.N.X.T.R.Q.R.K.V.J...H.U.U.Y.Y.U.S.W.K.S.U.W.Y.U.O.S.U.U.z...Y#i#b#.#b#.#a#.#####a#.#a#.#.#b#b#b#b#d#b...C.T.X.M.R.Q.U.T.U.M.Q.V.R.K.R.T.W.K.F.B...W#..1.S.O.U.O.Y.O.Y.W.U.O.S.U.U.U.W.S.S.Y.O..#a#c#b#.#b###b#.#.#b#####.###b#b#a.S.S...1.5.G.X.X.N.K",
".V.R.T.K.R.V.T.U.N.X.T.Q.V.W...k.K.O.W.W.W.O.Y.O.Y.O.O.S.Y.O.U.S.D.v..#f#e#####a#a#b#b#a#a#b###a#a#a#b#.###b#b#d...m.T.K.W.V.R.T.Q.W.K.N.U.X.M.K.X.R.N.B.a.a#b.4.O.1.W.Y.Y.O.S.S.Y.U.U.Y.U.Y.U.W.W.O.Y.W...W#c###b#b#b#.#b#b#b#a#####b#.#..4.U...m.6.Y.M.X.Q.M.W",
".Q.V.G.K.V.X.T.G.K.K.T.K.R.V.w...1.Y.S.Y.U.S.Y.W.Y.U.O.Y.U.U.Y.W.z.k.....O#d#c#b#b###a###a#b#.#####.#a#a#a#b#b#d.U...T.X.Q.U.M.Q.Q.W.X.Q.V.N.T.U.Q.R.M.E.....S.Y.Y.W.O.O.Y.S.O.S.Y.Y.O.S.U.Y.W.W.O.Y.W.Y...D#d#.#a#b#####b#.#a#a#a###b#a#a.W.1.....8.V.R.N.N.K.K",
".M.W.K.N.K.J.N.V.J.K.U.V.R.V.V...z.U.O.U.S.W.O.1.W.W.U.W.O.W.U.U.z.........O#d#b###.#a#.#b#b#a#b#.#a#.#b#a###a#d#a...E.Q.K.T.K.W.N.V.V.R.X.M.W.K.X.F.B.m.......W.Y.Y.S.Y.O.O.U.W.S.S.U.O.Y.U.U.U.O.O.S.Y.d.d#d#a###a###.###b#####b#b#a#b.S.S.d.......Q.V.V.U.K.K",
".N.X.R.T.K.J.R.N.K.Q.K.Q.N.V.N...o.W.1.Y.U.S.Y.Y.S.W.O.W.Y.U.O.H.r...........r#d#b###a#.#b###.###b#a#b###a#b###b#d...m.T.R.Q.M.U.M.V.Q.N.Q.N.T.G.F.F.s.#.........O.Y.Y.Y.O.W.W.Y.U.U.S.Y.O.W.O.S.Y.O.Y.Y.S..#a#c#a#b#b#b###.#a#.#a.7.1.O.r.g...........J.V.U.M.T",
".J.R.J.V.K.Q.V.W.J.T.X.K.J.V.V.w...S.O.U.S.U.Y.W.Y.O.H.H.v.k.d...........K.h...r#d#c#b#.#######a#b#a#b#.#######c#d.S...T.Q.M.N.X.Q.K.K.J.F.B.A.q.h.#...a.D#b#e.g...D.Y.Y.U.S.O.O.W.O.U.W.Y.Y.Y.U.Y.U.W.W.Y...W#c#a#b#b#a#b#b.4.Y.K.r.d.....a.D.4#a.7.d...y.V.V.R",
".X.Q.K.R.Q.W.V.G.J.W.V.K.K.V.V.T...S.W.U.U.S.H.K.v.o.g...........R.0.1.8.8.V.h...O#d#c#b#####b#b#a#b#b###a###.###d##...L.T.T.J.F.B.B.F.w.q.e.......O#h#j#i#f#c#c.v...v.Y.Y.O.1.U.U.S.Y.O.Y.W.S.U.O.O.Y.W.Y...D#d#b#b#..1.W.K.r.d.....g.S###b#b#a.7.Y.U.k...t.V.V",
".U.T.G.V.K.X.K.K.T.K.V.K.N.T.V.Q...v.O.H.z.r.k.d.........T.0.Y.6.8.6.1.U.R.U.V.t...O#d#c#a#b###b#b###b#b#b#b#b###b#d...t.B.B.J.M.w.p.........1#b#e#h#d#c#.###a#b#d.S...g.U.Y.U.S.O.O.Y.Y.U.Y.W.S.O.O.S.W.Y.D..#c.1.W.K.v.d.....r.Y#b#b#a##.Y.O.W.O.S.Y.W.z...e.T",
".L.V.N.J.V.U.K.M.W.J.M.J.K.V.T.T.u.a.o.g.........M.Y.Y.6.8.8.5.Y.W.X.V.T.Q.Q.V.V.u...O#d#b#b#.###.#######a###.###b#d.K...P.s.........U#a#e#g#i#j#i###a#b#.#b#a#a#a#d.7.....O.Y.Y.U.Y.S.O.S.Y.1.W.O.U.U.O.Y.U...K.v.a...a.z.7#b#b##.4.1.U.U.S.U.1.S.W.O.S.W.K....",
"...u.V.N.K.X.T.V.U.M.K.J.U.K.R.V.T.......E.N.0.2.8.8.2.Y.Y.M.X.K.U.Q.K.X.X.U.Q.N.V.u...K#d#b#a###b###a#b#b#b#.#a###d#........D.4#d#f#i#j#i#g#e#c###.###.#.#b#.#a#a#a#d#a.o...z.Y.S.S.W.O.O.W.K.U.Y.Y.S.W.W.Y.....d.K.7#b#a#..W.O.S.S.U.U.U.S.Y.K.1.K.O.O.S.W.S.g",
".r...l.T.T.K.Q.T.U.V.R.M.N.X.K.V.N.X.1.5.8.8.6.5.R.G.J.X.X.R.M.K.R.K.Q.T.K.U.K.N.T.V.u...K#d#c#######b#a#.#a#b#a#.#c#d#a#e#g#i#j#i#g#e#c#b#a#.#b#a###.#####a#a#a###a#c#d#d.H...o.W.W.Y.O.W.K.O.U.U.U.O.1.S.Y.S#b#b##.1.S.U.S.1.W.O.U.S.U.U.W.W.Y.K.K.U.S.O.S.W.W",
".W.H...b.M.V.N.K.V.U.N.V.V.Q.N.K.V.8.6.2.U.U.R.R.T.N.V.K.X.K.X.M.K.X.J.W.Q.N.V.M.K.T.V.u...O#d#c###a###a###a###a#b###d#j#i#g#c#a#b#a###.#b#a###a#b#a#.#b#a#b#a#.#.#b###b#d#d.W...d.S.Y.W.W.U.S.Y.W.O.O.U.U.U.W.U.U.O.S.U.Y.W.O.Y.S.W.U.W.O.O.O.W.U.S.S.Y.W.Y.W.W",
".U.W.O.....C.Q.Q.Q.M.U.M.W.X.M.V.K.V.W.M.R.J.Q.G.N.V.M.K.V.U.T.W.N.N.J.V.N.J.X.M.N.R.Q.V.u...K#d#c#b#a###.###.#b#b###.#a#a#b#a###a#####a#a#b###b###b#b#b#a###a#b###b#b#a#.#c#d.7.....H.W.Y.O.O.W.O.O.O.U.O.O.O.O.W.W.Y.S.W.O.S.W.O.O.O.Y.O.O.W.S.1.O.Y.O.W.O.O.Y",
".O.W.W.U.....V.U.N.K.M.T.R.T.X.G.X.X.K.T.Q.Q.R.V.M.V.R.K.Q.T.K.X.M.Q.W.K.X.M.K.K.M.Q.R.Q.V.u...O#d#c#b###a#.#.#####a#b#b#b#.###a#b###.#####a#b#b#b###b#.#b#a###a#a#b#b#.#a###c#d#b.....Y.W.S.Y.W.W.W.O.O.O.K.W.S.U.S.W.K.W.O.U.W.U.W.O.W.S.1.Y.Y.S.U.U.Y.S.Y.O.Y",
".U.U.W.W.o...u.T.K.V.U.W.Q.W.U.K.Q.X.K.K.K.K.T.X.K.M.X.K.R.R.Q.T.K.M.V.V.K.N.W.R.K.X.N.U.N.R.u...K#d#c#.#b#a#a#a#.#b###.#.###a#b#####b#b#a#.#a#.#.#.#b#######a#a#b#b#b#a###b#.#c#d#a...W.Y.S.Y.W.U.Y.O.U.S.Y.O.Y.O.U.O.Y.W.S.U.S.W.S.Y.O.U.S.U.O.O.W.Y.K.W.S.W.Y",
".S.W.K.D.v.....X.K.K.M.V.W.T.T.R.Q.W.Q.X.T.U.V.G.U.N.N.X.N.V.K.K.N.T.K.J.N.V.M.K.M.W.J.T.U.G.F.e..#b#d#a#b#b#######a###.#####b###a#######a###a#b###.###b#b#######a#a#.#b###a#.#b.Y.o...S.O.U.O.O.U.U.O.O.W.O.O.O.S.K.Y.S.S.Y.U.O.Y.Y.S.O.U.O.O.Y.Y.K.O.O.1.S.W.U",
".Y.O.z.r.....M.V.X.V.R.T.R.M.W.V.T.U.Q.R.T.J.M.Q.V.V.Q.K.Q.Q.U.X.X.X.K.N.J.X.M.N.T.X.R.Q.F.B.e...U#f#j#a#a#a#####b#b###.#.#b#a###b#a#a#a#a###.#b#a#a###b#b#.###a#b#b###b#a#.##.S.d...O#b.Y.W.K.O.Y.Y.O.Y.O.Y.Y.W.Y.S.Y.1.O.U.U.O.Y.S.U.W.W.Y.W.O.W.Y.U.O.O.W.O.O",
".K.z.o...b.X.Y.V.V.X.J.R.X.U.X.N.U.T.N.Q.K.K.N.X.X.X.K.T.R.Q.N.V.T.R.X.X.N.J.N.V.K.V.M.F.w.#...4#h#j#e#a#######.###.###a#####.#.###a#.#a###a#a#.###.#a#a#######a#.#.###a#a.7.H.a...1#b#..O.O.O.W.U.O.W.O.S.O.Y.O.W.O.Y.O.W.W.O.S.1.U.S.U.Y.U.U.Y.Y.O.O.U.O.O.O.W",
".z.k...m.5.Y.X.Q.W.X.W.V.Q.V.K.F.F.K.J.R.R.T.T.X.R.Q.Q.R.Q.V.T.K.K.X.Q.R.T.U.J.U.M.F.F.p....#a#i#i#b#b#.###a#b#.######.U.4###.#a#.#.#b#a#a#.###b#.###a#a#b###.###a#.#.#b.Y.v...a###b.7.K.Y.O.Y.S.O.U.Y.O.1.K.K.O.O.W.O.W.O.S.S.S.W.U.S.U.Y.Y.S.Y.O.Y.U.W.Y.O.W.K",
".d...y.8.X.J.V.T.K.G.M.V.Q.M.J.F.F.G.G.F.G.G.G.V.Q.T.W.J.N.R.K.X.T.G.X.R.V.K.U.K.F.E.i....#d#j#h#a###b#b###.###a##.W.Y.1.Y.S.U.Y.4#####a###a#b#a#b###.#a#b#b#a#a#a####.U.k...g#b#b.W.S.Y.W.1.U.S.S.Y.Y.Y.H.v.v.v.z.D.H.K.K.K.O.O.W.Y.S.S.U.O.S.Y.S.W.Y.Y.S.O.H.v",
"...N.8.S.X.R.V.R.T.T.K.K.N.N.K.A.....a.j.w.J.F.F.G.K.N.V.X.T.Q.Q.K.K.M.T.U.K.F.F.A.d....#f#j#f#.#a#.###a#.###.###b.S.K.....z.O.W.U.S.Y.7.7#.###b#b#b#.#.###a#.#.##.4.K.d.a.v#b#a.U.K.O.1.S.Y.K.S.S.O.W.O.H.v.......d.k.o.v.z.D.H.K.O.S.U.O.K.W.O.U.S.Y.O.O.H.r.a",
".Y.6.Z.K.T.K.R.U.V.K.T.N.X.T.F.n...7.O.g.....f.q.B.G.F.F.J.J.K.N.T.V.N.X.J.F.F.u....#.#i#j#d#a#a#.###.#a#b###a#a.7.U...d.M.........z.O.U.S.W.4###b###a#a#.#b#.#..Y.D.....O#b#a.1.Y.O.O.O.W.W.O.Y.O.U.S.K.D.d.o#g.7.r.a.....a.g.o.r.z.D.D.H.K.K.S.U.S.W.U.D.o....",
".6.R.X.X.W.T.K.X.N.M.T.J.Q.S.F.a.z#a.4#.#a.W.o.....a.n.w.F.J.F.F.F.K.K.M.F.F.n....#b#i#j#b#a###a#b#b###b#####a##.Y.Y...y.9.6.Z.N.u.........D.O.S.U.W.4#####b#a.U.r.....7#b##.O.W.W.W.O.Y.Y.Y.U.W.O.U.U.K.v...S#j#g#h#j#j#b.Y.k.......d.k.o.v.z.D.H.H.O.D.g...m.2",
".W.T.G.Q.M.K.N.Q.X.X.K.N.K.J.E...W.7.Y.S.1.1#.#a.4.H.a.....i.u.E.G.J.F.F.F.h....#e#j#h#####.#b#.#b###b#a#.###b#..U.K...X.1.Y.Y.6.9.8.2.Q.y.......o.o.D.O.U.W.O.g...a#a#b#..U.O.O.U.Y.Y.Y.K.S.S.O.K.S.O.H.r..#d#g#a#b#a#a#e#g#i#j#g.7.O.g.g...a.k.o.r.H.d...y.8.6",
".V.X.V.V.R.R.X.V.J.W.T.K.T.F.s..#a.Y.S.O.S.O.O.W.W.7#a##.S.g.....#.h.A.w.b....#g#j#g#####.#.#####a#b#a#b#a###a#..S...e.9.U.V.R.T.M.S.X.2.8.9.2.M.f.a.....7.H.a.a.g#a#b.1.S.O.W.Y.Y.Y.W.O.W.Y.U.U.W.U.O.D.d.g#j#c###.#.#b#####a###b#e#h#h#f.r.............M.8.5.R",
".N.N.X.K.T.N.T.K.N.T.K.R.V.F.e.o#b.S.S.W.U.O.U.Y.U.U.U.4#.#a#a.D..........#.#h#j#e#.###b#a#b###b#a#a#####b#b#..4.W...y.8.N.J.X.U.R.T.V.K.J.X.Y.1.6.9...........r#b#b.4.Y.S.S.S.O.W.W.S.S.Y.O.Y.W.Y.O.K.z...O#j#.###b#.#b#.#b#####.###.#b#d.1.a.........N.8.2.O.X",
".Q.X.U.J.U.K.J.U.T.K.Q.J.N.F...O##.Y.O.W.W.O.O.U.Y.U.S.Y.O.Y.W.1.d......#c#j#i#d#####b###a###b#####b#b#####.#a.U.W...U.1.R.K.T.T.U.M.X.T.K.X.G.K.K.V.f.......K#b#a.1.U.O.U.S.Y.Y.O.1.S.W.K.S.O.S.W.U.H.r..#c#f###b#b###.#a#.#a#b#.#a#a#b#d#a.v.......Y.8.1.U.X.K",
".U.N.K.V.X.N.T.U.V.N.J.X.K.x...7.4.O.Y.O.O.1.Y.Y.S.S.Y.O.O.U.K.Y.z....#e#j#i#c#a#.#b#.###b###.#a###.#b#a#.#a##.S.a.b.9.U.T.J.K.V.M.R.X.T.J.T.K.T.X.V.I.....W#b#a.Y.U.W.U.Y.O.Y.S.S.O.S.Y.S.O.Y.S.O.S.D.g.g#j#c#a###b#a#b#b#b#a###a#b#a#b#c#c.O.....Y.8.1.W.J.Q.X",
".V.M.W.U.X.X.W.N.V.K.W.K.F.n..#b.1.Y.U.U.K.O.W.O.W.W.K.O.S.1.U.Y.Y...K#j#g#a#.###b#a###b#.###b###.#.###a####.4.U...u.8.X.G.V.R.R.V.U.T.R.K.V.R.Q.N.V.V.h..#b#..W.W.O.Y.U.S.Y.O.O.Y.U.Y.U.S.O.K.U.U.O.z...O#j#a#######b#.#a#b#######a#b#b#b#c.1.d.E.8.Y.X.Q.Q.R.V",
".K.Q.J.X.M.M.V.R.K.J.V.M.F.#.D##.W.Y.S.W.S.Y.O.W.U.Y.O.U.O.S.O.U.1.a.r#d###.#####b###########.###.###b#b#a##.Y.U...U.2.Q.K.R.M.Q.M.W.V.K.K.R.T.X.N.V.U.I...K.W.W.Y.S.Y.W.U.S.S.O.S.O.1.W.O.U.U.W.U.H.r..#b#h#a#.#.#.#b#.#b###a#.#.#.#b#####c#b.a.y.M.T.U.W.V.V.U",
".T.G.U.X.V.U.K.V.T.K.R.M.B...Y.7.U.Y.1.W.W.K.Y.S.Y.O.W.U.U.Y.W.W.1.H..#d#c#.#b###b#.#b#b#b#a###a#a#b#.#.###b.S.a.e.8.U.N.Q.R.V.K.W.X.X.N.V.V.Q.R.V.X.U.V.f.a.W.S.U.U.W.Y.O.W.W.O.S.U.S.Y.O.1.O.W.U.D.g.g#j#e#a#a###b#.#.#b#b###a###.#####a#c#c.z.h.R.X.G.Q.J.K.V",
".K.M.V.V.J.J.K.V.T.M.T.F.q..#a.4.U.O.W.Y.W.S.U.W.S.O.Y.O.1.W.Y.W.1.U..###d#a#a#.#b#.#a#.#####b#.###a###b##.4.U...u.9.O.V.V.K.K.Q.T.U.J.Q.R.Q.V.T.X.J.V.V.I...K.W.S.W.S.S.U.U.O.W.W.S.Y.Y.S.K.Y.W.O.z...K#j#a#b###a#####b#b#.###.###b#.###a#b#d.1...T.K.U.X.R.U.M",
".T.W.R.X.W.J.N.X.R.K.T.F.b.r#b.S.Y.O.K.S.S.U.Y.O.O.W.K.W.U.O.S.Y.U.1...Y#d#a###a#b#b#b#####a###.#b#.#.#a#..Y.U...U.3.V.N.Q.X.K.K.R.T.X.M.U.R.V.U.V.K.Q.Q.V.f.a.W.S.S.S.W.W.U.W.U.O.O.K.1.Y.O.W.W.K.r..#b#i#b#a#a#a#a#b#.#b#a#######b#b#b#a###d#b...E.R.Q.K.W.V.N",
".K.V.K.Q.N.M.W.Q.V.V.G.F...O##.Y.1.O.O.S.O.K.Y.S.Y.U.W.W.O.W.S.Y.S.Y.o..#d#c#a###b###.###a#####.#.#b#a#a#b.U.d.b.6.X.K.X.T.X.K.K.T.V.K.K.M.R.X.K.T.U.T.V.V.I...K.W.U.O.Y.O.Y.S.S.O.Y.S.Y.U.O.Y.W.H.g.g#i#d#.#.###a#####a#b#a###.#.#.#b#####a#b#c.v.e.V.K.Q.T.W.X",
".X.W.T.U.K.U.U.V.K.V.F.w..##.1.K.Y.O.Y.S.S.1.O.O.W.U.W.K.S.O.O.S.O.1.z..#b#d#b#a###.###a#.#b#b###a#.#a#b#..S...n.9.V.T.N.T.X.Q.V.K.U.V.T.N.Q.X.U.J.K.V.N.Q.V...g.W.S.S.O.O.O.Y.O.K.K.O.U.W.S.O.O.D...K#j#d#b#b#b###a#.#.#####.#####a#a#a#b#a#b#d.W...V.N.X.K.V.J",
".Q.T.V.M.K.X.R.M.R.Q.F.m...r.S.1.Y.Y.Y.O.Y.O.Y.O.O.S.O.W.W.O.Y.U.S.W.O..#b#d#a#.#b#######a#b###.#b###a#a.1.S.....N.Q.V.T.N.V.K.K.T.T.U.J.T.K.U.T.N.J.V.K.K.V.K...K.Y.W.O.U.S.S.O.Y.1.O.O.K.K.K.K.z.....z#a#d#c#a#a#a#a#a#a#b#b#########a#a#a#b#c#a...G.T.X.J.G.N",
".U.W.T.K.T.X.K.G.J.F.F.........r.1.Y.U.U.S.U.O.Y.O.S.O.S.S.S.U.S.S.O.W....#d#d#####b#a#####a#.###.#a.4.Y.S.r.......K.T.V.V.T.V.K.R.M.Q.K.V.T.R.Q.U.N.U.M.J.U.V...g.W.Y.Y.Y.O.W.S.K.O.K.K.H.D.r.d..........#.#d#c#a###a#######b#b#b###b#a#######b#c.o.e.V.K.V.J.X",
".V.J.G.G.J.F.F.J.E.u.i...........k.Y.1.Y.Y.O.S.W.S.O.U.O.Y.Y.Y.O.U.W.W.a..#b#d#b#a#b#a###a#a.4.1.W.S.U.S.v...........i.R.V.V.W.X.X.T.U.N.R.N.K.M.T.V.X.R.M.N.V.G...K.W.O.K.K.K.H.H.v.o.d.a.............A.b...1#d#c###a###b#a#a###a#b###.###a#.#a#d.O...V.N.K.W.V",
".F.F.F.F.A.u.i.#.......o.S#g#j#c...d.U.1.Y.O.Y.O.O.Y.W.Y.O.K.O.O.S.Y.Y.o.a###d#c#.###..7.W.U.O.H.z.k.........k.K##.S.....K.V.V.M.K.V.K.Q.K.X.N.N.N.R.K.X.K.R.Q.V...g.U.H.D.v.k.d.a...........K.U.U.1.1.8.6.h...K#d#d###b###b#a#a###b#a#.#.###a###c##...I.V.Q.M.J"
};
