/* XPM */
static char * closeP_xpm[] = {
"15 15 4 1",
" 	c None",
"+	c #000000",
"@	c #9999CC",
"#	c #FFFFFF",
"++++++++++++++ ",
"++++++++++++++#",
"++@@@@@@@@@@++#",
"++@@+@@@@+@@++#",
"++@+++@@+++@++#",
"++@@++++++@@++#",
"++@@@++++@@@++#",
"++@@@++++@@@++#",
"++@@++++++@@++#",
"++@+++@@+++@++#",
"++@@+@@@@+@@++#",
"++@@@@@@@@@@++#",
"++++++++++++++#",
"++++++++++++++#",
" ##############",
};
