/* XPM */
static char * minimizeA_xpm[] = {
"15 15 4 1",
" 	c None",
"+	c #000000",
"@	c #666699",
"#	c #FFFFFF",
"            +  ",
"       ++  +@@ ",
"       +@#+@@# ",
"       +@+@@#  ",
"++++++ +@@@#   ",
"+@@@@@#+@@@++  ",
"+@#####+@@@@@# ",
"+@#     ###### ",
"+@#     ++#    ",
"+@#     +@#    ",
"+@#     +@#    ",
"+@#     +@#    ",
"+@@++++++@#    ",
"+@@@@@@@@@#    ",
" ##########    ",
};
