/* XPM */
static char * iconify_activeup_xpm[] = {
"17 17 80 1",
" 	c None",
".	c #B5AEAD",
"+	c #ADAAAD",
"@	c #B5AEB5",
"#	c #949694",
"$	c #6B656B",
"%	c #4A494A",
"&	c #424142",
"*	c #424542",
"=	c #5A555A",
"-	c #736D6B",
";	c #A59EA5",
">	c #ADAEAD",
",	c #B5B2B5",
"'	c #ADA6A5",
")	c #ADA6AD",
"!	c #A5A2A5",
"~	c #5A595A",
"{	c #423C42",
"]	c #8C8A8C",
"^	c #C6BEC6",
"/	c #D6D3D6",
"(	c #D6CFD6",
"_	c #BDBABD",
":	c #737573",
"<	c #737173",
"[	c #9C9E9C",
"}	c #A5A29C",
"|	c #4A4D4A",
"1	c #736D73",
"2	c #DEDFDE",
"3	c #FFFFFF",
"4	c #EFEFEF",
"5	c #E7DFE7",
"6	c #CECBCE",
"7	c #C6C3C6",
"8	c #B5B6B5",
"9	c #948E94",
"0	c #7B797B",
"a	c #BDB6BD",
"b	c #635D5A",
"c	c #F7EFF7",
"d	c #FFFBFF",
"e	c #E7E3E7",
"f	c #CECFCE",
"g	c #8C868C",
"h	c #847D84",
"i	c #8C8E8C",
"j	c #E7E7E7",
"k	c #EFE7EF",
"l	c #949294",
"m	c #9C9A9C",
"n	c #7B7D7B",
"o	c #636163",
"p	c #393C39",
"q	c #D6D7D6",
"r	c #CEC7CE",
"s	c #A5A6A5",
"t	c #9C969C",
"u	c #525152",
"v	c #4A4942",
"w	c #BDBEBD",
"x	c #6B696B",
"y	c #525552",
"z	c #636563",
"A	c #393439",
"B	c #312C31",
"C	c #524D52",
"D	c #7B757B",
"E	c #6B6563",
"F	c #F7F3F7",
"G	c #DED7DE",
"H	c #5A5D5A",
"I	c #52555A",
"J	c #848284",
"K	c #635D63",
"L	c #B5B6BD",
"M	c #6B6D6B",
"N	c #ADA2AD",
"O	c #C6C7C6",
".+@+@#$%&*=-;>@.,",
"')+!~{]^/(_;:<[!}",
"@++|12345678@90+a",
"++b:c3def7_,+!gh.",
")i%j3dk678,>+[l<m",
"8$!dde67a,>+![ln:",
"+*(j5678a>+!!ml0o",
"'pq/r^8,>+s!mt]0u",
"7v67^8,++!!mmig<|",
">u,w8,>+!!mml]nxy",
"+z],,AB&C|C|08<~D",
"@mE[srF333333GHIs",
")!D:9#mll]gn<~=l)",
">@+h00nJh0<zuK!,,",
"aL_8m#gx~|uMN7_,a",
"@@>@,+s,arOra,8_a",
"1M1M<M<1<<D<D:D<D"};
