/* XPM */
static char * maximize_activeup_xpm[] = {
"17 17 74 1",
" 	c None",
".	c #ADAAAD",
"+	c #B5AEB5",
"@	c #949294",
"#	c #636563",
"$	c #424542",
"%	c #423C42",
"&	c #424142",
"*	c #525152",
"=	c #6B696B",
"-	c #9C9A9C",
";	c #B5AEAD",
">	c #BDB6BD",
",	c #B5B2B5",
"'	c #A5A2A5",
")	c #A59E9C",
"!	c #5A555A",
"~	c #4A454A",
"{	c #CECBCE",
"]	c #D6D7D6",
"^	c #CEC7CE",
"/	c #8C8A8C",
"(	c #636163",
"_	c #737173",
":	c #A59EA5",
"<	c #ADAEAD",
"[	c #4A4D4A",
"}	c #848284",
"|	c #F7F3F7",
"1	c #FFFFFF",
"2	c #EFEBEF",
"3	c #D6D3D6",
"4	c #C6C3C6",
"5	c #C6BEC6",
"6	c #7B7D7B",
"7	c #847D84",
"8	c #FFFBFF",
"9	c #DEDBDE",
"0	c #C6C7C6",
"a	c #BDBEBD",
"b	c #B5B6B5",
"c	c #A5A6A5",
"d	c #8C8E8C",
"e	c #4A494A",
"f	c #181818",
"g	c #181C18",
"h	c #393439",
"i	c #313031",
"j	c #D6CFD6",
"k	c #949694",
"l	c #7B797B",
"m	c #313431",
"n	c #524D52",
"o	c #9C969C",
"p	c #737573",
"q	c #8C868C",
"r	c #5A5D5A",
"s	c #393839",
"t	c #948E94",
"u	c #BDB6B5",
"v	c #BDBABD",
"w	c #CECFCE",
"x	c #ADA6AD",
"y	c #6B6D6B",
"z	c #ADA6A5",
"A	c #5A595A",
"B	c #7B7D84",
"C	c #6B656B",
"D	c #ADAAB5",
"E	c #847D7B",
"F	c #94929C",
"G	c #8C8E94",
"H	c #B5B6BD",
"I	c #7B757B",
".+.+.+@#$%&*=-;>,",
"'''')!~-{]^;/(_:.",
",,<+[}|12345,:6};",
"+<+(711890ab+c@6/",
"c.de|1fgfhihijkl/",
"<<()18fmm[n[n1o7p",
".+$j29i1111j[1@qr",
"''s]30m1,<.'n1t7*",
"uv${45[1..':i1qle",
"<.*,abnwx':-m1}y!",
"z.=t,,[n[nihf1pAB",
"+<o(:cj1111111#$3",
"z.cll@o-@@/}pC&Dw",
"+<+.7El}}7lyA$xj,",
"b>,>,FGl(*eAq3w>,",
">b>>>b;c,H0^{v,++",
"_IpIpIpI_I_p_IpIp"};
