/* XPM */
static char * options_activeup_xpm[] = {
"17 17 78 1",
" 	c None",
".	c #A59EA5",
"+	c #9C9E9C",
"@	c #A5A2A5",
"#	c #ADA2A5",
"$	c #8C8A8C",
"%	c #635D63",
"&	c #424142",
"*	c #423C42",
"=	c #525152",
"-	c #6B696B",
";	c #949294",
">	c #A5A6A5",
",	c #ADA6A5",
"'	c #ADA6AD",
")	c #5A5D5A",
"!	c #4A454A",
"~	c #CECBCE",
"{	c #D6D7D6",
"]	c #CEC7CE",
"^	c #B5B2B5",
"/	c #8C8E8C",
"(	c #636163",
"_	c #7B757B",
":	c #ADAAAD",
"<	c #4A494A",
"[	c #847D84",
"}	c #F7F3F7",
"|	c #FFFFFF",
"1	c #EFEBEF",
"2	c #D6D3D6",
"3	c #C6C3C6",
"4	c #C6BEC6",
"5	c #7B797B",
"6	c #A59E9C",
"7	c #ADAEAD",
"8	c #635D5A",
"9	c #FFFBFF",
"0	c #DEDBDE",
"a	c #C6C7C6",
"b	c #BDBEBD",
"c	c #B5B6B5",
"d	c #B5AEB5",
"e	c #BDB6BD",
"f	c #524D52",
"g	c #E7DFE7",
"h	c #949694",
"i	c #BDBABD",
"j	c #DEDFDE",
"k	c #000000",
"l	c #9C969C",
"m	c #7B7D7B",
"n	c #D6CFD6",
"o	c #181C18",
"p	c #313031",
"q	c #848284",
"r	c #8C868C",
"s	c #181818",
"t	c #313431",
"u	c #4A4D4A",
"v	c #948E94",
"w	c #393439",
"x	c #6B6D6B",
"y	c #5A555A",
"z	c #737573",
"A	c #5A595A",
"B	c #84868C",
"C	c #9C9EA5",
"D	c #9C9A9C",
"E	c #636563",
"F	c #6B656B",
"G	c #D6D7DE",
"H	c #D6D3DE",
"I	c #CECFCE",
"J	c #94969C",
"K	c #7B7984",
"L	c #73757B",
"M	c #737173",
".+@+#$%&*&=-;>,@'",
">'>@)!+~{]^/(_@>,",
":>'<[}|1234^.5_6,",
"7:8[||90abcd>;5/:",
"e+f}|9ga4^^:'h5/'",
"i-@|9jabkf:'.l[md",
"@&n10a4kopq@.;r)@",
"7*{2abksstunlv[=@",
"d&~34cwpwpf|lr5<n",
"7f^bc^:quf|h/qxyb",
"exv^^::@n|l/rzAB3",
"^C-.>>..Dh/r5E!nc",
"e^[m;lD;;$qzF&@b:",
"ii^qq5qq[5xA!:Gcd",
"eci^l;5(=<A$HIece",
":'>::@6:7b43^d7dd",
"^JK5555z_L_M_MzxM"};
