/* XPM */
static char * close_inactive_xpm[] = {
"20 20 61 1",
" 	c None",
".	c #F0F0F0",
"+	c #B7B7B7",
"@	c #B9B9B9",
"#	c #949494",
"$	c #BDBDBD",
"%	c #979797",
"&	c #6F6F6F",
"*	c #DEDEDE",
"=	c #BFBFC0",
"-	c #99999A",
";	c #DBDBDB",
">	c #CBCBCB",
",	c #DFDFDF",
"'	c #C1C1C2",
")	c #9B9B9B",
"!	c #DADADA",
"~	c #D2D2D2",
"{	c #D3D3D3",
"]	c #E1E1E1",
"^	c #C2C2C2",
"/	c #9B9B9C",
"(	c #D7D7D7",
"_	c #D0D0D0",
":	c #B6B6B6",
"<	c #C4C4C4",
"[	c #BEBEBE",
"}	c #C5C5C5",
"|	c #9F9F9F",
"1	c #D6D6D6",
"2	c #CECECE",
"3	c #A3A3A3",
"4	c #E2E1E2",
"5	c #C8C8C8",
"6	c #A0A1A1",
"7	c #D4D4D4",
"8	c #AFAFAF",
"9	c #BBBBBB",
"0	c #E4E4E4",
"a	c #C9C9C9",
"b	c #E5E5E5",
"c	c #CECDCD",
"d	c #A5A4A5",
"e	c #D1D1D0",
"f	c #C7C7C8",
"g	c #BABABA",
"h	c #E7E7E7",
"i	c #CFCFCF",
"j	c #B8B8B8",
"k	c #E8E8E8",
"l	c #AAAAAA",
"m	c #B7B8B8",
"n	c #CCCCCC",
"o	c #EBEBEB",
"p	c #D9D9D9",
"q	c #AEAEAE",
"r	c #ECECEC",
"s	c #DCDCDC",
"t	c #EFEFEF",
"u	c #3F3F3F",
"v	c #333333",
"....................",
"++++++++++++++++++++",
"@@@##############@@@",
"$$$%&&&&&&&&&&&&&*$$",
"===-&;;;;;;;;;;>&,==",
"''')&!~{~~~~~~~=&]''",
"^^^/&(_::::::<_[&]^^",
"}}}|&12:33333;2$&4}}",
"5556&7>:38883;>9&055",
">>>3&~a:38::3;a9&b>>",
"cccd&ef:38::3;fg&hcc",
"___d&i}:33333;}j&k__",
"{{{l&2<<;;;;;;<m&k{{",
"111l&n^^^^^^^^^:&o11",
"pppq&$::::::::::&rpp",
"sssq&&&&&&&&&&&&&tss",
"****tttttttttttttt**",
"]]]]]]]]]]]]]]]]]]]]",
"%%%%%%%%%%%%%%%%%%%%",
"uuuuuuuuuuuuuuuuuvuu"};
