/* XPM */
static char * close_activedown_xpm[] = {
"20 20 71 1",
" 	c None",
".	c #F0F0F0",
"+	c #B7B7B7",
"@	c #B9B9B9",
"#	c #949494",
"$	c #BDBDBD",
"%	c #979797",
"&	c #3E3E3D",
"*	c #DEDEDE",
"=	c #BFBFC0",
"-	c #99999A",
";	c #676767",
">	c #787878",
",	c #DFDFDF",
"'	c #C1C1C2",
")	c #9B9B9B",
"!	c #686868",
"~	c #838383",
"{	c #959595",
"]	c #E1E1E1",
"^	c #C2C2C2",
"/	c #9B9B9C",
"(	c #6B6B6B",
"_	c #868686",
":	c #A7A7A7",
"<	c #878788",
"[	c #969696",
"}	c #C5C5C5",
"|	c #9F9F9F",
"1	c #6E6D6D",
"2	c #898989",
"3	c #2C2C2B",
"4	c #989898",
"5	c #E2E1E2",
"6	c #C8C8C8",
"7	c #A0A1A1",
"8	c #707070",
"9	c #8C8C8D",
"0	c #535353",
"a	c #E4E4E4",
"b	c #CBCBCB",
"c	c #A3A3A3",
"d	c #737373",
"e	c #909090",
"f	c #9D9D9D",
"g	c #E5E5E5",
"h	c #CECDCD",
"i	c #A5A4A5",
"j	c #747474",
"k	c #949394",
"l	c #E7E7E7",
"m	c #D0D0D0",
"n	c #979697",
"o	c #A2A2A2",
"p	c #E8E8E8",
"q	c #D3D3D3",
"r	c #AAAAAA",
"s	c #7B7B7B",
"t	c #9A9A9A",
"u	c #D6D6D6",
"v	c #7E7E7E",
"w	c #A6A6A6",
"x	c #EBEBEB",
"y	c #D9D9D9",
"z	c #AEAEAE",
"A	c #929292",
"B	c #ECECEC",
"C	c #DCDCDC",
"D	c #EFEFEF",
"E	c #3F3F3F",
"F	c #333333",
"....................",
"++++++++++++++++++++",
"@@@##############@@@",
"$$$%&&&&&&&&&&&&&*$$",
"===-&;;;;;;;;;;>&,==",
"''')&!~~~~~~~~~{&]''",
"^^^/&(_::::::<_[&]^^",
"}}}|&12:33333;24&5}}",
"6667&89:30003;9)&a66",
"bbbc&de:30;;3;ef&gbb",
"hhhi&j#:30;;3;k|&lhh",
"mmmi&>n:33333;no&pmm",
"qqqr&st<;;;;;;tc&pqq",
"uuur&vfffffffffw&xuu",
"yyyz&A::::::::::&Byy",
"CCCz&&&&&&&&&&&&&DCC",
"****DDDDDDDDDDDDDD**",
"]]]]]]]]]]]]]]]]]]]]",
"%%%%%%%%%%%%%%%%%%%%",
"EEEEEEEEEEEEEEEEEFEE"};
