/* XPM */
static char * close_activeup_xpm[] = {
"20 20 60 1",
" 	c None",
".	c #F0F0F0",
"+	c #B7B7B7",
"@	c #B9B9B9",
"#	c #949494",
"$	c #BDBDBD",
"%	c #979797",
"&	c #3E3E3D",
"*	c #DEDEDE",
"=	c #BFBFC0",
"-	c #99999A",
";	c #ECECEC",
">	c #CFCFCF",
",	c #DFDFDF",
"'	c #C1C1C2",
")	c #9B9B9B",
"!	c #EBEBEB",
"~	c #B2B2B3",
"{	c #E1E1E1",
"]	c #C2C2C2",
"^	c #9B9B9C",
"/	c #E7E7E7",
"(	c #DADADA",
"_	c #929292",
":	c #AEAEAE",
"<	c #C5C5C5",
"[	c #9F9F9F",
"}	c #E5E5E5",
"|	c #D6D5D6",
"1	c #AAAAAA",
"2	c #E2E1E2",
"3	c #C8C8C8",
"4	c #A0A1A1",
"5	c #D1D0D1",
"6	c #757575",
"7	c #D1D1D1",
"8	c #A5A4A5",
"9	c #E4E4E4",
"0	c #CBCBCB",
"a	c #A3A3A3",
"b	c #CCCCCC",
"c	c #CECDCD",
"d	c #DCDCDB",
"e	c #C7C7C8",
"f	c #D0D0D0",
"g	c #D8D8D8",
"h	c #9C9B9B",
"i	c #E8E8E8",
"j	c #D3D3D3",
"k	c #D5D5D5",
"l	c #BEBEBE",
"m	c #979898",
"n	c #D6D6D6",
"o	c #BABABA",
"p	c #B9BABA",
"q	c #D9D9D9",
"r	c #DCDCDC",
"s	c #EFEFEF",
"t	c #3F3F3F",
"u	c #333333",
"....................",
"++++++++++++++++++++",
"@@@##############@@@",
"$$$%&&&&&&&&&&&&&*$$",
"===-&;;;;;;;;;;>&,==",
"''')&!*,*******~&{''",
"]]]^&/(______=(:&{]]",
"<<<[&}|_&&&&&;|1&2<<",
"3334&{5_&666&;78&933",
"000a&*b_&6__&;ba&}00",
"ccc8&de_&6__&;e[&/cc",
"fff8&g]_&&&&&;]h&iff",
"jjj1&kl=;;;;;;lm&ijj",
"nnn1&jooopooooo#&!nn",
"qqq:&1__________&;qq",
"rrr:&&&&&&&&&&&&&srr",
"****ssssssssssssss**",
"{{{{{{{{{{{{{{{{{{{{",
"%%%%%%%%%%%%%%%%%%%%",
"tttttttttttttttttutt"};
