/* XPM */
static char * iconify_inactive_xpm[] = {
"20 20 58 1",
" 	c None",
".	c #F0F0F0",
"+	c #B7B7B7",
"@	c #B9B9B9",
"#	c #949494",
"$	c #BDBDBD",
"%	c #979797",
"&	c #6F6F6F",
"*	c #DEDEDE",
"=	c #BFBFBF",
"-	c #99999A",
";	c #A7A7A7",
">	c #DFDFDF",
",	c #BFBFC0",
"'	c #C1C1C1",
")	c #9B9B9B",
"!	c #AAAAA8",
"~	c #ACACAC",
"{	c #E0DFDF",
"]	c #C1C1C2",
"^	c #C2C2C2",
"/	c #9C9B9B",
"(	c #AFAFAF",
"_	c #E1E1E1",
":	c #C5C5C5",
"<	c #9F9F9F",
"[	c #ADADAD",
"}	c #B1B1B1",
"|	c #E2E1E2",
"1	c #C8C8C8",
"2	c #A0A1A1",
"3	c #B2B2B2",
"4	c #E4E4E4",
"5	c #CBCBCB",
"6	c #A3A3A3",
"7	c #B0B0B0",
"8	c #B3B3B3",
"9	c #E5E5E5",
"0	c #CDCDCD",
"a	c #A5A4A5",
"b	c #B5B5B5",
"c	c #E7E7E7",
"d	c #CECDCE",
"e	c #D0D0D0",
"f	c #E8E8E8",
"g	c #D3D3D3",
"h	c #AAAAAA",
"i	c #DBDBDB",
"j	c #D6D6D6",
"k	c #CCCCCC",
"l	c #B6B6B6",
"m	c #EBEBEB",
"n	c #D9D9D9",
"o	c #AEAEAE",
"p	c #ECECEC",
"q	c #DCDCDC",
"r	c #EFEFEF",
"s	c #3F3F3F",
"....................",
"++++++++++++++++++++",
"@@@##############@@@",
"$$$%&&&&&&&&&&&&&*$$",
"===-&;;;;;;;;;;;&>,,",
"''')&!~~~~~~~~~~&{]]",
"^^^/&~((((((((((&_^^",
":::<&[}}}}}}}}}}&|::",
"1112&(3333333333&411",
"5556&78888888888&955",
"000a&}bbbbbbbbbb&cdd",
"eeea&66666666666&fee",
"gggh&iiiiiiiiiii&fgg",
"jjjh&k^^^^^^^^^l&mjj",
"nnno&$llllllllll&pnn",
"qqqo&&&&&&&&&&&&&rqq",
"***>rrrrrrrrrrrrrr>>",
"____________________",
"%%%%%%%%%%%%%%%%%%%%",
"ssssssssssssssssssss"};
