/* XPM */
static char * iconify_activedown_xpm[] = {
"20 20 63 1",
" 	c None",
".	c #F0F0F0",
"+	c #B7B7B7",
"@	c #B9B9B9",
"#	c #949494",
"$	c #BDBDBD",
"%	c #979797",
"&	c #3E3E3D",
"*	c #DEDEDE",
"=	c #BFBFC0",
"-	c #99999A",
";	c #3D3C3B",
">	c #DFDFDF",
",	c #C1C1C2",
"'	c #9B9B9B",
")	c #3D3D3D",
"!	c #464440",
"~	c #4A4A4A",
"{	c #E0DFDF",
"]	c #C2C2C2",
"^	c #9C9B9B",
"/	c #4D4C4D",
"(	c #555555",
"_	c #E1E1E1",
":	c #C5C5C5",
"<	c #9F9F9F",
"[	c #4E4E4E",
"}	c #5A5A5A",
"|	c #E2E1E2",
"1	c #C8C8C8",
"2	c #A0A1A1",
"3	c #535353",
"4	c #5D5D5D",
"5	c #E4E4E4",
"6	c #CBCBCB",
"7	c #A3A3A3",
"8	c #565656",
"9	c #616161",
"0	c #E5E5E5",
"a	c #CDCECE",
"b	c #A5A4A5",
"c	c #646464",
"d	c #E7E7E7",
"e	c #CECDCE",
"f	c #D0D0D0",
"g	c #2C2C2B",
"h	c #E8E8E8",
"i	c #D3D3D3",
"j	c #AAAAAA",
"k	c #676767",
"l	c #787878",
"m	c #D6D6D6",
"n	c #686868",
"o	c #838383",
"p	c #959595",
"q	c #EBEBEB",
"r	c #D9D9D9",
"s	c #AEAEAE",
"t	c #A7A7A7",
"u	c #ECECEC",
"v	c #DCDCDC",
"w	c #EFEFEF",
"x	c #3F3F3F",
"....................",
"++++++++++++++++++++",
"@@@##############@@@",
"$$$%&&&&&&&&&&&&&*$$",
"===-&;;;;;;;;;;;&>==",
",,,')!~~~~~~~~~~&{,,",
"]]]^&/((((((((((&_]]",
":::<&[}}}}}}}}}}&|::",
"1112&34444444444&511",
"6667&89999999999&066",
"aaab&}cccccccccc&dee",
"fffb&ggggggggggg&hff",
"iiij&kkkkkkkkkkl&hii",
"mmmj&nooooooooop&qmm",
"rrrs&ttttttttttt&urr",
"vvvs&&&&&&&&&&&&&wvv",
"***>wwwwwwwwwwwwww>>",
"____________________",
"%%%%%%%%%%%%%%%%%%%%",
"xxxxxxxxxxxxxxxxxxxx"};
