/* XPM */
static char * iconify_activeup_xpm[] = {
"20 20 59 1",
" 	c None",
".	c #F0F0F0",
"+	c #B7B7B7",
"@	c #B9B9B9",
"#	c #949494",
"$	c #BDBDBD",
"%	c #979797",
"&	c #3E3E3D",
"*	c #DEDEDE",
"=	c #BFBFC0",
"-	c #99999A",
";	c #565554",
">	c #DFDFDF",
",	c #C1C1C2",
"'	c #9B9B9B",
")	c #3D3D3D",
"!	c #63605A",
"~	c #696969",
"{	c #E0DFDF",
"]	c #C2C2C2",
"^	c #9C9B9B",
"/	c #6D6C6D",
"(	c #797979",
"_	c #E1E1E1",
":	c #C5C5C5",
"<	c #9F9F9F",
"[	c #6F6F6F",
"}	c #7F7F7F",
"|	c #E2E1E2",
"1	c #C8C8C8",
"2	c #A0A1A1",
"3	c #757575",
"4	c #848484",
"5	c #E4E4E4",
"6	c #CBCBCB",
"7	c #A3A3A3",
"8	c #7A7A7A",
"9	c #898989",
"0	c #E5E5E5",
"a	c #CDCECE",
"b	c #A5A4A5",
"c	c #8E8E8E",
"d	c #E7E7E7",
"e	c #CECDCE",
"f	c #D0D0D0",
"g	c #E8E8E8",
"h	c #D3D3D3",
"i	c #AAAAAA",
"j	c #ECECEC",
"k	c #D6D6D6",
"l	c #BABABA",
"m	c #B9BABA",
"n	c #EBEBEB",
"o	c #D9D9D9",
"p	c #AEAEAE",
"q	c #929292",
"r	c #DCDCDC",
"s	c #EFEFEF",
"t	c #3F3F3F",
"....................",
"++++++++++++++++++++",
"@@@##############@@@",
"$$$%&&&&&&&&&&&&&*$$",
"===-&;;;;;;;;;;;&>==",
",,,')!~~~~~~~~~~&{,,",
"]]]^&/((((((((((&_]]",
":::<&[}}}}}}}}}}&|::",
"1112&34444444444&511",
"6667&89999999999&066",
"aaab&}cccccccccc&dee",
"fffb&&&&&&&&&&&&&gff",
"hhhi&jjjjjjjjjjj&ghh",
"kkki&hlllmlllll#&nkk",
"ooop&iqqqqqqqqqq&joo",
"rrrp&&&&&&&&&&&&&srr",
"***>ssssssssssssss>>",
"____________________",
"%%%%%%%%%%%%%%%%%%%%",
"tttttttttttttttttttt"};
