/* XPM */
static char * maximize_inactive_xpm[] = {
"20 20 56 1",
" 	c None",
".	c #F0F0F0",
"+	c #B7B7B7",
"@	c #B9B9B9",
"#	c #949494",
"$	c #BDBDBD",
"%	c #979797",
"&	c #6F6F6F",
"*	c #DEDEDE",
"=	c #BFBFC0",
"-	c #99999A",
";	c #DBDBDB",
">	c #CBCBCB",
",	c #DFDFDF",
"'	c #C1C1C2",
")	c #9B9B9B",
"!	c #DADADA",
"~	c #D2D2D2",
"{	c #E1E1E1",
"]	c #C2C2C2",
"^	c #9C9B9B",
"/	c #BEBEBE",
"(	c #C5C5C5",
"_	c #9F9F9F",
":	c #CECECE",
"<	c #E2E1E2",
"[	c #C8C8C8",
"}	c #A0A1A1",
"|	c #D4D4D4",
"1	c #BBBBBB",
"2	c #E4E4E4",
"3	c #A3A3A3",
"4	c #C9C9C9",
"5	c #E5E5E5",
"6	c #CECDCD",
"7	c #A5A4A5",
"8	c #D1D1D0",
"9	c #C7C7C7",
"0	c #BABABA",
"a	c #E7E7E7",
"b	c #D0D0D0",
"c	c #D5D5D5",
"d	c #B8B8B8",
"e	c #E8E8E8",
"f	c #D3D3D3",
"g	c #AAAAAA",
"h	c #C4C4C4",
"i	c #D6D6D6",
"j	c #EBEBEB",
"k	c #D9D9D9",
"l	c #AEAEAE",
"m	c #B6B6B6",
"n	c #ECECEC",
"o	c #DCDCDC",
"p	c #EFEFEF",
"q	c #3F3F3F",
"....................",
"++++++++++++++++++++",
"@@@##############@@@",
"$$$%&&&&&&&&&&&&&*$$",
"===-&;;;;;;;;;;>&,==",
"''')&!~~~~~~~~~=&{''",
"]]]^&]//////////&{]]",
"(((_&{!!!!!!!!!:&<((",
"[[[}&|>>>>>>>>>1&2[[",
">>>3&~4444444441&5>>",
"6667&89999999990&a66",
"bbb7&c(((((((((d&ebb",
"fffg&chhhhhhhhhd&eff",
"iiig&c]]]]]]]]]d&jii",
"kkkl&>mmmmmmmmmd&nkk",
"oool&&&&&&&&&&&&&poo",
"***,pppppppppppppp**",
"{{{{{{{{{{{{{{{{{{{{",
"%%%%%%%%%%%%%%%%%%%%",
"qqqqqqqqqqqqqqqqqqqq"};
