/* XPM */
static char * maximize_activedown_xpm[] = {
"20 20 64 1",
" 	c None",
".	c #F0F0F0",
"+	c #B7B7B7",
"@	c #B9B9B9",
"#	c #949494",
"$	c #BDBDBD",
"%	c #979797",
"&	c #3E3E3D",
"*	c #DEDEDE",
"=	c #BFBFC0",
"-	c #99999A",
";	c #7B7B7B",
">	c #818181",
",	c #DFDFDF",
"'	c #C1C1C2",
")	c #9B9B9B",
"!	c #7E7E7E",
"~	c #9D9D9D",
"{	c #A6A6A6",
"]	c #E1E1E1",
"^	c #C2C2C2",
"/	c #9C9B9B",
"(	c #929292",
"_	c #A7A7A7",
":	c #C5C5C5",
"<	c #9F9F9F",
"[	c #6E6D6D",
"}	c #676767",
"|	c #E2E1E2",
"1	c #C8C8C8",
"2	c #A0A1A1",
"3	c #838383",
"4	c #A0A0A0",
"5	c #E4E4E4",
"6	c #CBCBCB",
"7	c #A3A3A3",
"8	c #868585",
"9	c #858585",
"0	c #A0A1A0",
"a	c #E5E5E5",
"b	c #CECDCD",
"c	c #A5A4A5",
"d	c #898989",
"e	c #E7E7E7",
"f	c #D0D0D0",
"g	c #707070",
"h	c #8C8C8C",
"i	c #E8E8E8",
"j	c #D3D3D3",
"k	c #AAAAAA",
"l	c #737373",
"m	c #909090",
"n	c #D6D6D6",
"o	c #747474",
"p	c #949394",
"q	c #EBEBEB",
"r	c #D9D9D9",
"s	c #AEAEAE",
"t	c #989898",
"u	c #ABABAB",
"v	c #ECECEC",
"w	c #DCDCDC",
"x	c #EFEFEF",
"y	c #3F3F3F",
"....................",
"++++++++++++++++++++",
"@@@##############@@@",
"$$$%&&&&&&&&&&&&&*$$",
"===-&;;;;;;;;;;>&,==",
"''')&!~~~~~~~~~{&]''",
"^^^/&(__________&]^^",
":::<&[}}}}}}}}}(&|::",
"1112&[3333333334&511",
"6667&[8988988980&a66",
"bbbc&[ddddddddd4&ebb",
"fffc&ghhhhhhhhh)&iff",
"jjjk&lmmmmmmmmm~&ijj",
"nnnk&op##p##p##<&qnn",
"rrrs&t{{{{{{{{{u&vrr",
"wwws&&&&&&&&&&&&&xww",
"***,xxxxxxxxxxxxxx**",
"]]]]]]]]]]]]]]]]]]]]",
"%%%%%%%%%%%%%%%%%%%%",
"yyyyyyyyyyyyyyyyyyyy"};
