/* XPM */
static char * titlebar_mod_close_i_xpm[] = {
"20 20 75 1",
" 	c None",
".	c #4A634B",
"+	c #49634B",
"@	c #486249",
"#	c #455F46",
"$	c #415B42",
"%	c #446046",
"&	c #445F45",
"*	c #435E44",
"=	c #405B42",
"-	c #3B553C",
";	c #354F37",
">	c #506650",
",	c #506550",
"'	c #4F6550",
")	c #4D624D",
"!	c #304B32",
"~	c #2A442C",
"{	c #4A614B",
"]	c #49604A",
"^	c #465D47",
"/	c #2A452C",
"(	c #243F28",
"_	c #475E48",
":	c #7D867D",
"<	c #465C47",
"[	c #435A44",
"}	c #28432A",
"|	c #233E26",
"1	c #445D46",
"2	c #586D59",
"3	c #374F3B",
"4	c #435A45",
"5	c #405842",
"6	c #425A44",
"7	c #415943",
"8	c #3E5540",
"9	c #405841",
"0	c #3E5640",
"a	c #3C543E",
"b	c #3E563F",
"c	c #3A513C",
"d	c #3B553D",
"e	c #3A533C",
"f	c #38503A",
"g	c #39533B",
"h	c #39513A",
"i	c #364E37",
"j	c #37503A",
"k	c #364F39",
"l	c #344C36",
"m	c #344D36",
"n	c #324A34",
"o	c #334D35",
"p	c #324B34",
"q	c #304832",
"r	c #314B33",
"s	c #304932",
"t	c #2E4631",
"u	c #2F4931",
"v	c #2E4730",
"w	c #2C442E",
"x	c #2C462E",
"y	c #2B442E",
"z	c #29422C",
"A	c #274229",
"B	c #28412B",
"C	c #28402B",
"D	c #27402A",
"E	c #263F29",
"F	c #254028",
"G	c #223D25",
"H	c #27432A",
"I	c #213C25",
"J	c #213C24",
"...............++@#$",
"%%%%%%%%%%%%%%%&*=-;",
">>>>>>>>>>>>>>,,')!~",
"{{{{{{{{{{{{{{{{]^/(",
"____:::______:::<[}|",
"1111:22:1111:22345}|",
"6666:222:66:222378}|",
"999993222::222390a}|",
"bbbbbb32222223bbac}|",
"ddddddd322223dddef}|",
"ggggggg:2222:ggghi}|",
"jjjjjj:222222:jjkl}|",
";;;;;:22233222:;mn}|",
"oooo:2223oo32223pq}|",
"rrrr3223rrrr3223st}|",
"uuuu333uuuuuu333vw}|",
"xxxxxxxxxxxxxxxxyzA|",
"BBBBBBBBBBBBBBCCDEFG",
"}}}}}}}}}}}}}}HHAF|I",
"|||||||||||||||||GIJ"};
