/* XPM */
static char * titlebar_menu_xpm[] = {
"20 20 79 1",
" 	c None",
".	c #87B489",
"+	c #86B488",
"@	c #85B286",
"#	c #84B185",
"$	c #83B185",
"%	c #7EAD80",
"&	c #7BAA7D",
"*	c #7AAA7C",
"=	c #85B386",
"-	c #7FAD80",
";	c #93BA94",
">	c #8FB791",
",	c #8EB58F",
"'	c #84B186",
")	c #8AB28C",
"!	c #86AF87",
"~	c #84AD86",
"{	c #85AE87",
"]	c #81A983",
"^	c #7EA880",
"/	c #81AA83",
"(	c #7BA67E",
"_	c #79A57D",
":	c #7CA67F",
"<	c #77A17A",
"[	c #75A079",
"}	c #78A37B",
"|	c #739E76",
"1	c #729D74",
"2	c #DFEFDF",
"3	c #749F77",
"4	c #6F9A72",
"5	c #6E9A71",
"6	c #9CC29E",
"7	c #628D6A",
"8	c #6D9970",
"9	c #719C74",
"0	c #6C976F",
"a	c #6A976D",
"b	c #68946B",
"c	c #66936A",
"d	c #69946D",
"e	c #649068",
"f	c #628F67",
"g	c #659269",
"h	c #608D65",
"i	c #5F8C63",
"j	c #618E64",
"k	c #5C8A61",
"l	c #5B895F",
"m	c #79A97B",
"n	c #5E8A62",
"o	c #58865D",
"p	c #58865C",
"q	c #79A87B",
"r	c #5A875E",
"s	c #56835A",
"t	c #548258",
"u	c #80AE82",
"v	c #75A578",
"w	c #548159",
"x	c #517D55",
"y	c #4F7C53",
"z	c #77A579",
"A	c #6A9A6E",
"B	c #4D7852",
"C	c #48754E",
"D	c #48744D",
"E	c #649267",
"F	c #58875C",
"G	c #4E7E52",
"H	c #48794D",
"I	c #47774C",
"J	c #4E7C53",
"K	c #47764C",
"L	c #417147",
"M	c #3F6E45",
"N	c #3E6E44",
".+@#################",
"+$%&****************",
"=-;>,,,,,,,,,,,,,,,,",
"'&)!~~~~~~~~~~~~~~~~",
"#*{]^^^^^^^^^^^^^^^^",
"#*/(________________",
"#*:<[[[[[[[[[[[[[[[[",
"#*}|1112222221111111",
"#*345552666678555555",
"#*90aaa266667aaaaaaa",
"#*8bccc266667ccccccc",
"#*defff777777fffffff",
"#*ghiiiiiiiiiiiiiiii",
"#*jkllllllllllllllll",
"#mnopppppppppppppppp",
"$qrstttttttttttttttt",
"uvwxyyyyyyyyyyyyyyyy",
"zABCDDDDDDDDDDDDDDDD",
"EFGHIIIIIIIIIIIIIIII",
"JKLMNNNNNNNNNNNNNNNN"};
