/* XPM */
static char * titlebar_mod_min_s_xpm[] = {
"20 20 168 2",
"  	c None",
". 	c #84B185",
"+ 	c #7AAA7C",
"@ 	c #8EB58F",
"# 	c #39663D",
"$ 	c #3B683F",
"% 	c #3C6940",
"& 	c #3D6A40",
"* 	c #3D6B41",
"= 	c #3F6C43",
"- 	c #406C44",
"; 	c #416E45",
"> 	c #426F46",
", 	c #437046",
"' 	c #447047",
") 	c #457249",
"! 	c #47734A",
"~ 	c #49754C",
"{ 	c #507D53",
"] 	c #578B59",
"^ 	c #84AD86",
"/ 	c #37643C",
"( 	c #3A693F",
"_ 	c #3D6D41",
": 	c #3F6E43",
"< 	c #407144",
"[ 	c #417145",
"} 	c #437246",
"| 	c #447347",
"1 	c #457448",
"2 	c #457549",
"3 	c #46764A",
"4 	c #48774C",
"5 	c #49784C",
"6 	c #4A794D",
"7 	c #507E53",
"8 	c #518654",
"9 	c #7EA880",
"0 	c #37643B",
"a 	c #3C6C40",
"b 	c #407143",
"c 	c #417245",
"d 	c #437445",
"e 	c #DFEFDF",
"f 	c #518354",
"g 	c #4F8652",
"h 	c #79A57D",
"i 	c #38653C",
"j 	c #3D6E41",
"k 	c #417345",
"l 	c #437546",
"m 	c #447548",
"n 	c #46774A",
"o 	c #47784B",
"p 	c #48794C",
"q 	c #497A4D",
"r 	c #4B7B4E",
"s 	c #4C7C4F",
"t 	c #4D7D50",
"u 	c #528356",
"v 	c #508752",
"w 	c #75A079",
"x 	c #3F6F43",
"y 	c #437446",
"z 	c #457548",
"A 	c #467649",
"B 	c #48784B",
"C 	c #49794C",
"D 	c #4A7A4D",
"E 	c #4C7C4E",
"F 	c #4D7C4F",
"G 	c #4D7E50",
"H 	c #4E7F51",
"I 	c #548557",
"J 	c #729D74",
"K 	c #3A673E",
"L 	c #407044",
"M 	c #47784A",
"N 	c #4D7C50",
"O 	c #4E7E50",
"P 	c #507F53",
"Q 	c #558758",
"R 	c #6E9A71",
"S 	c #467548",
"T 	c #46784A",
"U 	c #48794B",
"V 	c #4A7B4E",
"W 	c #4F7F51",
"X 	c #518154",
"Y 	c #568759",
"Z 	c #6A976D",
"` 	c #3D6940",
" .	c #427246",
"..	c #477749",
"+.	c #4C7D50",
"@.	c #528254",
"#.	c #57885A",
"$.	c #66936A",
"%.	c #3E6A42",
"&.	c #437347",
"*.	c #4F7E51",
"=.	c #518053",
"-.	c #528255",
";.	c #538355",
">.	c #598A5C",
",.	c #628F67",
"'.	c #3F6B42",
").	c #9CC29E",
"!.	c #628D6A",
"~.	c #558457",
"{.	c #5A8B5D",
"].	c #5F8C63",
"^.	c #406C43",
"/.	c #5B8C5E",
"(.	c #5B895F",
"_.	c #416D44",
":.	c #46764B",
"<.	c #528154",
"[.	c #538255",
"}.	c #538356",
"|.	c #558557",
"1.	c #568558",
"2.	c #578659",
"3.	c #59885B",
"4.	c #5D8D60",
"5.	c #58865C",
"6.	c #426E45",
"7.	c #47774C",
"8.	c #5A895D",
"9.	c #5E8E61",
"0.	c #548258",
"a.	c #548456",
"b.	c #558558",
"c.	c #568659",
"d.	c #57875A",
"e.	c #59895C",
"f.	c #5B8A5D",
"g.	c #609062",
"h.	c #4F7C53",
"i.	c #446F47",
"j.	c #4B794F",
"k.	c #528055",
"l.	c #538256",
"m.	c #548257",
"n.	c #558358",
"o.	c #57855A",
"p.	c #58855B",
"q.	c #59865C",
"r.	c #5B885C",
"s.	c #5C885E",
"t.	c #5D8A5F",
"u.	c #5D8C60",
"v.	c #628F64",
"w.	c #4E8251",
"x.	c #48744D",
"y.	c #426C46",
"z.	c #4C784F",
"A.	c #558257",
"B.	c #568358",
"C.	c #58855A",
"D.	c #59855B",
"E.	c #5A875C",
"F.	c #5B885E",
"G.	c #5D895E",
"H.	c #5E8B60",
"I.	c #608C62",
"J.	c #497C4C",
"K.	c #3E6E44",
". . . . . . . . . . . . . . . . . . . . ",
"+ + + + + + + + + + + + + + + + + + + + ",
"@ @ # $ % & * = - ; > , ' ) ! ~ { ] @ @ ",
"^ ^ / ( _ : < [ } | 1 2 3 4 5 6 7 8 ^ ^ ",
"9 9 0 a b c d e e e e e e e e e f g 9 9 ",
"h h i j k l m e n o p q r s t e u v h h ",
"w w # x y z A e B C D E F G H e I v w w ",
"J J K L z A M e N D E F O H P e Q v J J ",
"R R $ [ S T U e V E F O W P X e Y v R R ",
"Z Z `  ...+.C e E F O W P X @.e #.v Z Z ",
"$.$.%.&.e e e e e *.W =.X -.;.e >.v $.$.",
",.,.'.1 e ).).).!.W =.X -.;.~.e {.v ,.,.",
"].].^.3 e ).).).!.e e e e e e e /.v ].].",
"(.(._.:.e ).).).!.<.[.}.|.1.2.3.4.v (.(.",
"5.5.6.7.e ).).).!.[.}.|.1.2.3.8.9.v 5.5.",
"0.0.' C !.!.!.!.!.a.b.c.d.e.8.f.g.v 0.0.",
"h.h.i.j.7 k.l.m.n.o.p.q.r.s.t.u.v.w.h.h.",
"x.x.y.z.k.m.A.B.C.D.E.F.G.t.H.I.v.J.x.x.",
"7.7.7.7.7.7.7.7.7.7.7.7.7.7.7.7.7.7.7.7.",
"K.K.K.K.K.K.K.K.K.K.K.K.K.K.K.K.K.K.K.K."};
