/* XPM */
static char * titlebar_menu_i_xpm[] = {
"20 20 74 1",
" 	c None",
".	c #4C654D",
"+	c #4B654C",
"@	c #4B644B",
"#	c #4A634B",
"$	c #49634B",
"%	c #476148",
"&	c #456046",
"*	c #446046",
"=	c #4B654B",
"-	c #536953",
";	c #506751",
">	c #506650",
",	c #4D644F",
"'	c #4B624C",
")	c #4A614B",
"!	c #485F49",
"~	c #475E48",
"{	c #486049",
"]	c #455D47",
"^	c #445D46",
"/	c #465D47",
"(	c #435A44",
"_	c #425A44",
":	c #435C45",
"<	c #405942",
"[	c #405841",
"}	c #7D867D",
"|	c #415943",
"1	c #3E5640",
"2	c #3E563F",
"3	c #586D59",
"4	c #374F3B",
"5	c #3D563F",
"6	c #3F5841",
"7	c #3C553E",
"8	c #3B553D",
"9	c #3A533C",
"0	c #39533B",
"a	c #3B533D",
"b	c #38513A",
"c	c #37503A",
"d	c #39523B",
"e	c #364F39",
"f	c #354F37",
"g	c #365038",
"h	c #334D36",
"i	c #334D35",
"j	c #445F45",
"k	c #354D37",
"l	c #314B34",
"m	c #314B33",
"n	c #445E45",
"o	c #324C35",
"p	c #304932",
"q	c #2F4931",
"r	c #486249",
"s	c #425D43",
"t	c #2F4832",
"u	c #2D4630",
"v	c #2C462E",
"w	c #435D44",
"x	c #3B563E",
"y	c #2B432E",
"z	c #28422C",
"A	c #28412B",
"B	c #38523A",
"C	c #314C33",
"D	c #2C472E",
"E	c #28442B",
"F	c #28432A",
"G	c #28422A",
"H	c #243F28",
"I	c #233E26",
".+@#################",
"+$%&****************",
"=%-;>>>>>>>>>>>>>>>>",
"#&,'))))))))))))))))",
"#*'!~~~~~~~~~~~~~~~~",
"#*{]^^^^^^^^^^^^^^^^",
"#*/(________________",
"#*:<[[[}}}}}}[[[[[[[",
"#*|1222}333345222222",
"#*67888}333348888888",
"#*59000}333340000000",
"#*abccc444444ccccccc",
"#*deffffffffffffffff",
"#*ghiiiiiiiiiiiiiiii",
"#jklmmmmmmmmmmmmmmmm",
"$nopqqqqqqqqqqqqqqqq",
"rstuvvvvvvvvvvvvvvvv",
"wxyzAAAAAAAAAAAAAAAA",
"BCDEFFFFFFFFFFFFFFFF",
"vGHIIIIIIIIIIIIIIIII"};
