/* XPM */
static char * titlebar_mod_close_s_xpm[] = {
"20 20 167 2",
"  	c None",
". 	c #84B185",
"+ 	c #83B185",
"@ 	c #82B185",
"# 	c #80AE82",
"$ 	c #7BA97D",
"% 	c #74A276",
"& 	c #7AAA7C",
"* 	c #79A97B",
"= 	c #78A77A",
"- 	c #73A276",
"; 	c #69986C",
"> 	c #5E8C62",
", 	c #8EB58F",
"' 	c #39663D",
") 	c #3B683F",
"! 	c #3C6940",
"~ 	c #3D6A40",
"{ 	c #3D6B41",
"] 	c #3F6C43",
"^ 	c #406C44",
"/ 	c #416E45",
"( 	c #426F46",
"_ 	c #437046",
": 	c #447047",
"< 	c #457249",
"[ 	c #47734A",
"} 	c #49744C",
"| 	c #4F7B52",
"1 	c #4F8052",
"2 	c #56865A",
"3 	c #4B7A4F",
"4 	c #84AD86",
"5 	c #37643C",
"6 	c #3A693F",
"7 	c #3D6D41",
"8 	c #3F6E43",
"9 	c #407144",
"0 	c #417145",
"a 	c #437246",
"b 	c #447347",
"c 	c #457448",
"d 	c #457549",
"e 	c #46764A",
"f 	c #48774C",
"g 	c #49774C",
"h 	c #4A784D",
"i 	c #4E7C51",
"j 	c #487B4A",
"k 	c #4B7B4F",
"l 	c #417147",
"m 	c #7EA880",
"n 	c #37643B",
"o 	c #3C6C40",
"p 	c #DFEFDF",
"q 	c #457548",
"r 	c #467749",
"s 	c #47784A",
"t 	c #48784B",
"u 	c #497A4C",
"v 	c #507F51",
"w 	c #467849",
"x 	c #48784C",
"y 	c #3F6E44",
"z 	c #79A57D",
"A 	c #38653C",
"B 	c #3D6E41",
"C 	c #9CC29E",
"D 	c #46774A",
"E 	c #47784B",
"F 	c #48794C",
"G 	c #497A4D",
"H 	c #628D6A",
"I 	c #507F54",
"J 	c #467848",
"K 	c #47774C",
"L 	c #3E6E44",
"M 	c #75A079",
"N 	c #3F6F43",
"O 	c #49794C",
"P 	c #4C7C4F",
"Q 	c #538056",
"R 	c #729D74",
"S 	c #3A673E",
"T 	c #407044",
"U 	c #518154",
"V 	c #548257",
"W 	c #6E9A71",
"X 	c #467548",
"Y 	c #46784A",
"Z 	c #528355",
"` 	c #558358",
" .	c #6A976D",
"..	c #3D6940",
"+.	c #427246",
"@.	c #477749",
"#.	c #47794B",
"$.	c #528254",
"%.	c #538356",
"&.	c #56845A",
"*.	c #66936A",
"=.	c #3E6A42",
"-.	c #437347",
";.	c #48784A",
">.	c #4A7B4E",
",.	c #528255",
"'.	c #538355",
").	c #558558",
"!.	c #58855A",
"~.	c #628F67",
"{.	c #3F6B42",
"].	c #558457",
"^.	c #568659",
"/.	c #59865B",
"(.	c #5F8C63",
"_.	c #406C43",
":.	c #4A7A4D",
"<.	c #57875A",
"[.	c #5A885C",
"}.	c #5B895F",
"|.	c #416D44",
"1.	c #46764B",
"2.	c #528154",
"3.	c #538255",
"4.	c #5B885E",
"5.	c #58865C",
"6.	c #426E45",
"7.	c #558557",
"8.	c #5C8A5E",
"9.	c #457748",
"0.	c #548258",
"a.	c #548456",
"b.	c #5D8C5F",
"c.	c #457749",
"d.	c #4F7C53",
"e.	c #446F47",
"f.	c #4B794F",
"g.	c #507E53",
"h.	c #528055",
"i.	c #538256",
"j.	c #57855A",
"k.	c #58855B",
"l.	c #59865C",
"m.	c #5B885C",
"n.	c #5C885E",
"o.	c #5D8A5E",
"p.	c #5F8C61",
"q.	c #447748",
"r.	c #48744D",
"s.	c #426C46",
"t.	c #4C784F",
"u.	c #558257",
"v.	c #568358",
"w.	c #59855B",
"x.	c #5A875C",
"y.	c #5D895E",
"z.	c #5D8A5F",
"A.	c #5E8A60",
"B.	c #5F8B62",
"C.	c #608D63",
"D.	c #427445",
"E.	c #437348",
"F.	c #3D6D43",
"G.	c #46774C",
"H.	c #46774B",
"I.	c #3C6B42",
"J.	c #3B6B41",
". . . . . . . . . . . . . . . + @ # $ % ",
"& & & & & & & & & & & & & & & * = - ; > ",
", , ' ) ! ~ { ] ^ / ( _ : < [ } | 1 2 3 ",
"4 4 5 6 7 8 9 0 a b c d e f g h i j k l ",
"m m n o p p p q q r s t u p p p v w x y ",
"z z A B p C C p D E F G p C C H I J K L ",
"M M ' N p C C C p O P p C C C H Q J K L ",
"R R S T q H C C C p p C C C H U V J K L ",
"W W ) 0 X Y H C C C C C C H U Z ` J K L ",
" . ...+.@.#.O H C C C C H U $.%.&.J K L ",
"*.*.=.-.;.F >.p C C C C p ,.'.).!.J K L ",
"~.~.{.c F >.p C C C C C C p ].^./.J K L ",
"(.(._.e :.p C C C H H C C C p <.[.J K L ",
"}.}.|.1.p C C C H 2.3.H C C C H 4.J K L ",
"5.5.6.K H C C H 2.3.%.7.H C C H 8.9.K L ",
"0.0.: O H H H ,.%.a.).^.<.H H H b.c.K L ",
"d.d.e.f.g.h.i.V ` j.k.l.m.n.o.b.p.q.e L ",
"r.r.s.t.h.V u.v.!.w.x.4.y.z.A.B.C.D.E.F.",
"K K K K K K K K K K K K K K G.H.e E.y I.",
"L L L L L L L L L L L L L L L L L F.I.J."};
