/* XPM */
static char*ball[]={
"16 21 40 1",
"f c #beb6b6",
"m c #efe3e7",
"t c #efa6a6",
"o c #ae8286",
"n c #ffe3e7",
"C c #d75d51",
"k c #a69296",
"c c #865951",
"H c #e77569",
"y c #c75149",
"B c #d74941",
"L c #ffb6a6",
"z c #ae3428",
"r c #864d49",
"v c #ae3c41",
"u c #712018",
"F c #c73c30",
"p c #717571",
"G c #ff9286",
"i c #594141",
"I c #ff7971",
"b c #595151",
"A c #be3028",
"d c #413c38",
"a c #281818",
"j c #793c38",
". c None",
"E c #e76d59",
"h c #8e8686",
"x c #c74538",
"e c #968686",
"J c #ff928e",
"w c #a62020",
"K c #ffa29e",
"q c #511418",
"D c #e76151",
"g c #d7cbcf",
"# c #696169",
"l c #dfcbcf",
"s c #e78686",
"................",
"................",
"................",
".....#aaab......",
"...cdefgfhi#....",
"..jiklmmnloip...",
"..qrosttssoca...",
".juvwxyyyxzzur..",
".qwwABBBCBAwwq..",
".qvxyDEEEDCFvq..",
".qFCEEsGsHEyxu..",
".uFDIIJGJIIDFu..",
".ujIsJKKKJIHzc..",
"..rCGKLLLtGEj...",
"..uCHJKLLKCzr...",
"...uuCHsDCCb....",
".....qqqqqb.....",
"................",
"................",
"................",
"................"};
