/* XPM */
static char *close-activeup[] = {
/* width height num_colors chars_per_pixel */
"    15    20      175            2",
/* colors */
"   c None",
".# c #101010",
".a c #232323",
".b c #242422",
".c c #423d41",
".d c #461e1c",
".e c #463f37",
".f c #474538",
".g c #4a4c3e",
".h c #4d2627",
".i c #51100c",
".j c #525449",
".k c #53484e",
".l c #541e1c",
".m c #573b30",
".n c #575759",
".o c #5a0e0e",
".p c #5d1f20",
".q c #5f5242",
".r c #5f5f5d",
".s c #624a4a",
".t c #67201a",
".u c #67444a",
".v c #685d5d",
".w c #695e64",
".x c #6e1b17",
".y c #6e463c",
".z c #706667",
".A c #714f4d",
".B c #75746f",
".C c #782c30",
".D c #782f26",
".E c #7a3331",
".F c #7a5052",
".G c #7a5354",
".H c #7c716d",
".I c #832c25",
".J c #857576",
".K c #876e63",
".L c #8a3c3c",
".M c #8e4443",
".N c #8e6764",
".O c #8f8085",
".P c #8f8289",
".Q c #915650",
".R c #93524e",
".S c #937c7b",
".T c #95332a",
".U c #954641",
".V c #974b55",
".W c #994845",
".X c #9b9599",
".Y c #9b9b9b",
".Z c #9c9c9c",
".0 c #9d3735",
".1 c #9d8585",
".2 c #9f3738",
".3 c #9f7873",
".4 c #a03837",
".5 c #a2a2a2",
".6 c #a3a3a3",
".7 c #a3abab",
".8 c #a4a4a4",
".9 c #a5a5a5",
"#. c #a61e22",
"## c #a6a6a6",
"#a c #a7a7a7",
"#b c #a89694",
"#c c #a8a8a7",
"#d c #a8a8a8",
"#e c #a93832",
"#f c #a99f9d",
"#g c #a9acae",
"#h c #ac3632",
"#i c #aca4a0",
"#j c #acacac",
"#k c #ad3b3a",
"#l c #ae3733",
"#m c #afacaa",
"#n c #b0b0b0",
"#o c #b13f47",
"#p c #b23531",
"#q c #b3b3b3",
"#r c #b4b4b4",
"#s c #b52620",
"#t c #b53f3b",
"#u c #b77a75",
"#v c #b7a7a9",
"#w c #b87773",
"#x c #b94035",
"#y c #b94842",
"#z c #ba4943",
"#A c #bababa",
"#B c #bcbcbc",
"#C c #bd7d7d",
"#D c #bdbdbd",
"#E c #bf342d",
"#F c #bfbfbf",
"#G c #c1524b",
"#H c #c34b3b",
"#I c #c43932",
"#J c #c5564f",
"#K c #c8bdc3",
"#L c #cc4c41",
"#M c #cd3e36",
"#N c #cd3f3b",
"#O c #cd4539",
"#P c #cebfc6",
"#Q c #d04d43",
"#R c #d0d0d1",
"#S c #d13c36",
"#T c #d1948f",
"#U c #d24c43",
"#V c #d46f67",
"#W c #d54f46",
"#X c #d59691",
"#Y c #d65446",
"#Z c #d6564b",
"#0 c #d66569",
"#1 c #d75b5b",
"#2 c #d7cad1",
"#3 c #d89994",
"#4 c #d95749",
"#5 c #dbc7c6",
"#6 c #dc594f",
"#7 c #dd6453",
"#8 c #de5542",
"#9 c #e16354",
"a. c #e26f5c",
"a# c #e2a5a0",
"aa c #e3695c",
"ab c #e3705d",
"ac c #e4655e",
"ad c #e66a5e",
"ae c #e7cdce",
"af c #e87264",
"ag c #e87968",
"ah c #e9674d",
"ai c #ea7261",
"aj c #ee6763",
"ak c #ef7c81",
"al c #f0766b",
"am c #f07879",
"an c #f1b9a0",
"ao c #f28777",
"ap c #f2a190",
"aq c #f2dddc",
"ar c #f3b9a1",
"as c #f4736d",
"at c #f58c79",
"au c #f68f7c",
"av c #f78978",
"aw c #f97a73",
"ax c #f9e1e1",
"ay c #fae0e1",
"az c #fd9184",
"aA c #fd9185",
"aB c #fe897f",
"aC c #fe958f",
"aD c #feb09c",
"aE c #febaa3",
"aF c #ff6f6f",
"aG c #ff867e",
"aH c #ff8b82",
"aI c #ff968b",
"aJ c #ff9690",
"aK c #ff978a",
"aL c #ff9b8d",
"aM c #ffa09a",
"aN c #ffa198",
"aO c #ffa49d",
"aP c #ffa799",
"aQ c #ffad9e",
"aR c #ffb49f",
"aS c #ffbba5",
/* pixels */
"                              ",
"                              ",
"        #c.r.b.#.a.n#c        ",
"      .z.c.X#K#2#P.P.k.w      ",
"    .B.u#b#5aqaxayae.1.s.H    ",
"  #i.h.V#u#Ta#a##3#X#w.R.d#v  ",
"  .A.C#o#e#z#G#J#J#y#h#l.E.F  ",
"  .l.2#.#I#U#Q#L#6#W#E#s.0.p  ",
"  .i#t#M#Y#9aiaba.#7#4#O#p.o  ",
"  .t#x#8adafavauatagaa#Z#N.x  ",
"  .D#HahasaGaIazaKaBawaj#S.I  ",
"  .K.TaFaoaLaNaOaMaJaHal.4.Q  ",
"  #F.U#1aHaPaRanaraDaAac.M.3  ",
"  #m.S.LamaCaQaSaEap#V#k.G#f  ",
"    .8.J.m.N#Cak#0.W.y.q.O    ",
"      .5.Y.v.e.f.g.j.Z.5      ",
"        #g##.6.5.8#a.7        ",
"                              ",
"                              ",
"                              ",
};
