/* XPM */
static char *close-activedown[] = {
/* width height num_colors chars_per_pixel */
"    15    20      180            2",
/* colors */
"   c None",
".# c #101010",
".a c #232323",
".b c #242422",
".c c #3a1d27",
".d c #3c1a1d",
".e c #402e31",
".f c #412f30",
".g c #420003",
".h c #423d41",
".i c #43322f",
".j c #442c2b",
".k c #450000",
".l c #492628",
".m c #493739",
".n c #4b2126",
".o c #4d3c39",
".p c #4e0608",
".q c #4e0707",
".r c #4e2222",
".s c #4e282c",
".t c #4e2a2b",
".u c #4e2c2a",
".v c #4e363a",
".w c #510d0c",
".x c #51100c",
".y c #511f21",
".z c #512626",
".A c #51444a",
".B c #525449",
".C c #53484e",
".D c #541e1c",
".E c #560b09",
".F c #575759",
".G c #58373c",
".H c #59150f",
".I c #59393d",
".J c #5a0e0e",
".K c #5a0f0d",
".L c #5b1712",
".M c #5d1f20",
".N c #5d3030",
".O c #5f5f5d",
".P c #602426",
".Q c #610804",
".R c #621711",
".S c #63170f",
".T c #635d5f",
".U c #64241a",
".V c #652120",
".W c #65242a",
".X c #660f0e",
".Y c #67201a",
".Z c #672a1d",
".0 c #672a2e",
".1 c #682628",
".2 c #683735",
".3 c #684948",
".4 c #685d5d",
".5 c #692628",
".6 c #694346",
".7 c #695e64",
".8 c #696170",
".9 c #6a2626",
"#. c #6a302d",
"## c #6b110d",
"#a c #6b2414",
"#b c #6b2b1f",
"#c c #6b3a3d",
"#d c #6c2517",
"#e c #6c251b",
"#f c #6c2628",
"#g c #6d1b0b",
"#h c #6d5d5d",
"#i c #6e1b17",
"#j c #6e2121",
"#k c #706667",
"#l c #713d40",
"#m c #714f4d",
"#n c #734c50",
"#o c #762417",
"#p c #765353",
"#q c #76605e",
"#r c #77210f",
"#s c #77271e",
"#t c #782f26",
"#u c #78392c",
"#v c #793230",
"#w c #7a2b2a",
"#x c #7a5052",
"#y c #7b2827",
"#z c #7b302c",
"#A c #7b3d3a",
"#B c #7e3d43",
"#C c #803935",
"#D c #804943",
"#E c #804e53",
"#F c #832c25",
"#G c #834e52",
"#H c #845851",
"#I c #863f35",
"#J c #876e63",
"#K c #883c37",
"#L c #884945",
"#M c #886266",
"#N c #8a493e",
"#O c #8b312d",
"#P c #8b8b8b",
"#Q c #8c302c",
"#R c #8d4741",
"#S c #8d8d8d",
"#T c #8f8085",
"#U c #8f8289",
"#V c #904941",
"#W c #905a59",
"#X c #915650",
"#Y c #963930",
"#Z c #973c36",
"#0 c #993f30",
"#1 c #994e45",
"#2 c #99534c",
"#3 c #999999",
"#4 c #9a3930",
"#5 c #9b9599",
"#6 c #9b9b9b",
"#7 c #9c433a",
"#8 c #9c5753",
"#9 c #9c9c9c",
"a. c #9d4a41",
"a# c #9e4435",
"aa c #9e453e",
"ab c #9e493e",
"ac c #9f4a41",
"ad c #9f6c66",
"ae c #9f7873",
"af c #a1574c",
"ag c #a25c4f",
"ah c #a27176",
"ai c #a2a2a2",
"aj c #a3a3a3",
"ak c #a3abab",
"al c #a46c6d",
"am c #a47177",
"an c #a4a4a4",
"ao c #a5908f",
"ap c #a5a5a5",
"aq c #a68d8f",
"ar c #a6a6a6",
"as c #a7a7a7",
"at c #a8757a",
"au c #a8a8a7",
"av c #a8a8a8",
"aw c #a99f9d",
"ax c #a9acae",
"ay c #aa5248",
"az c #aca4a0",
"aA c #acacac",
"aB c #ad4c3f",
"aC c #afacaa",
"aD c #b0b0b0",
"aE c #b2736b",
"aF c #b2766e",
"aG c #b27874",
"aH c #b2807b",
"aI c #b28484",
"aJ c #b28583",
"aK c #b28688",
"aL c #b29a9b",
"aM c #b2a3a5",
"aN c #b2a6a7",
"aO c #b4b4b4",
"aP c #b7a7a9",
"aQ c #bababa",
"aR c #bcbcbc",
"aS c #bdbdbd",
"aT c #bfbfbf",
"aU c #cbcbcb",
"aV c #cdcdcd",
"aW c #d0d0d1",
"aX c #d2d2d2",
/* pixels */
"                              ",
"                              ",
"        au.O.b.#.a.Fau        ",
"      #k.h#5#S#3#P#U.C.7      ",
"    .8.A#haoaNaLaMaq#q.o.T    ",
"  az.c.s#c#Gataham#E#l.z.daP  ",
"  #m.n.P.q.k.1#B.W.g.p.5.y#x  ",
"  .D.0#w##.Q.E.V.w.K.X#y.9.M  ",
"  .x#f#O#4#Y.S.L.H#K#Z#Q#j.J  ",
"  .Y#v#7aB#0#d.Z.U#Iayaa#z#i  ",
"  #t#Aa.a##r#a#u#b#eabac#C#F  ",
"  #J.2#V#o#gafaE#2.R#s#1#.#X  ",
"  aT.t#D#NagaFaHaG#8#R#L.rae  ",
"  aC.v.u#HadaJaIaKal#W.N.Gaw  ",
"    aO.m.j.3#p#M#n.6.l.I#T    ",
"      ai#6.4.i.f.e.B#9ai      ",
"        axarajaianasak        ",
"                              ",
"                              ",
"                              ",
};
