/* XPM */
static char *iconify-activedown[] = {
/* width height num_colors chars_per_pixel */
"    15    20      220            2",
/* colors */
"   c None",
".. c #2d1515",
".# c #392526",
".a c #3d2324",
".b c #3e3a23",
".c c #433453",
".d c #443f1c",
".e c #454123",
".f c #474843",
".g c #494351",
".h c #4a4a42",
".i c #4f4d23",
".j c #544629",
".k c #565b3b",
".l c #5a5432",
".m c #5d4e26",
".n c #5e3821",
".o c #603d34",
".p c #61605e",
".q c #625253",
".r c #62552e",
".s c #625c5c",
".t c #626353",
".u c #633e3b",
".v c #644700",
".w c #645655",
".x c #674200",
".y c #674400",
".z c #684c03",
".A c #685155",
".B c #693a00",
".C c #694200",
".D c #696a39",
".E c #6a4100",
".F c #6a6030",
".G c #6b412d",
".H c #6c6c6c",
".I c #6d3828",
".J c #6d6d6d",
".K c #6e4d06",
".L c #6f3500",
".M c #6f4000",
".N c #6f4400",
".O c #6f5c2c",
".P c #713d00",
".Q c #715c60",
".R c #733d00",
".S c #757573",
".T c #767873",
".U c #78464a",
".V c #786c6c",
".W c #7b3124",
".X c #7b4e26",
".Y c #7b7742",
".Z c #807b77",
".0 c #82371a",
".1 c #826735",
".2 c #827e7f",
".3 c #834e35",
".4 c #83838d",
".5 c #874d29",
".6 c #886b59",
".7 c #897d81",
".8 c #8a4d52",
".9 c #8a6760",
"#. c #8a8649",
"## c #8b562c",
"#a c #8b797b",
"#b c #8b7b40",
"#c c #8b848b",
"#d c #8c8889",
"#e c #8c905a",
"#f c #8d8f8c",
"#g c #8e2d0a",
"#h c #8f5e2c",
"#i c #8f6c36",
"#j c #8f767a",
"#k c #906039",
"#l c #906866",
"#m c #90707b",
"#n c #914827",
"#o c #922f06",
"#p c #949256",
"#q c #954c3d",
"#r c #965c2e",
"#s c #967556",
"#t c #976f69",
"#u c #977138",
"#v c #977d45",
"#w c #988853",
"#x c #996630",
"#y c #996f32",
"#z c #9a6220",
"#A c #9a631c",
"#B c #9a6835",
"#C c #9a7838",
"#D c #9a8779",
"#E c #9b631f",
"#F c #9c6936",
"#G c #9c6e32",
"#H c #9c847a",
"#I c #9d5839",
"#J c #9d5d1d",
"#K c #9d7730",
"#L c #9d7736",
"#M c #9d898c",
"#N c #9e672b",
"#O c #9e733d",
"#P c #9e7455",
"#Q c #9ea167",
"#R c #9f6c25",
"#S c #9f742c",
"#T c #9f7a3b",
"#U c #a14f1f",
"#V c #a1672c",
"#W c #a17229",
"#X c #a17454",
"#Y c #a3732b",
"#Z c #a37b32",
"#0 c #a38a53",
"#1 c #a3aaaa",
"#2 c #a49195",
"#3 c #a49d99",
"#4 c #a5a5a5",
"#5 c #a5a7ac",
"#6 c #a68b5d",
"#7 c #a6a5a4",
"#8 c #a6a6a4",
"#9 c #a79698",
"a. c #a7a7a8",
"a# c #a86f24",
"aa c #a97b42",
"ab c #a9934b",
"ac c #a9aa60",
"ad c #aaa25b",
"ae c #aaa4a7",
"af c #acacac",
"ag c #ad7725",
"ah c #ad8b62",
"ai c #ad8f62",
"aj c #adad54",
"ak c #ae8f82",
"al c #ae903a",
"am c #afa445",
"an c #afb258",
"ao c #b08960",
"ap c #b09164",
"aq c #b0b0b0",
"ar c #b28f38",
"as c #b29046",
"at c #b29140",
"au c #b2914a",
"av c #b29341",
"aw c #b2994d",
"ax c #b2998c",
"ay c #b2a04b",
"az c #b2a149",
"aA c #b2a393",
"aB c #b2a54c",
"aC c #b2a552",
"aD c #b2a594",
"aE c #b2a659",
"aF c #b2a65c",
"aG c #b2a862",
"aH c #b2a899",
"aI c #b2ad5e",
"aJ c #b2ae53",
"aK c #b2af59",
"aL c #b2b060",
"aM c #b2b158",
"aN c #b2b260",
"aO c #b2b263",
"aP c #b2b26b",
"aQ c #b2b26c",
"aR c #b3989f",
"aS c #b3b3b3",
"aT c #b4b4b4",
"aU c #b8b8b8",
"aV c #bababa",
"aW c #bbbbbb",
"aX c #bc9ca4",
"aY c #bcbcbc",
"aZ c #bdbdbd",
"a0 c #c0c0c0",
"a1 c #c2c0c0",
"a2 c #c5c5c5",
"a3 c #c6c6c6",
"a4 c #c7c7c7",
"a5 c #c8c8c8",
"a6 c #c9c9c9",
"a7 c #cacaca",
"a8 c #cbcac8",
"a9 c #cbcbcb",
"b. c #cdcdcd",
"b# c #cecece",
"ba c #d2d2d2",
"bb c #d3d3d2",
"bc c #d3d3d3",
"bd c #d4d4d4",
"be c #d6d6d6",
"bf c #d7d7d7",
"bg c #d8d8d8",
"bh c #d9d9d9",
"bi c #dadada",
"bj c #dbdbdb",
"bk c #dcdcdc",
"bl c #dddddd",
"bm c #e1e1e1",
"bn c #e2e2e2",
"bo c #e3e3e3",
"bp c #e5e5e5",
"bq c #e8e8e8",
"br c #e9e9e9",
"bs c #eaeaea",
"bt c #ececec",
"bu c #eeeeee",
"bv c #f0f0f0",
"bw c #f1f1f1",
"bx c #f8f8f8",
"by c #ffffff",
/* pixels */
"                              ",
"                              ",
"        #7.p.a...#.wa1        ",
"      .V.q#a#9#2#M.Q.A#j      ",
"    #l.U#takaDaAaHax.9.u#m    ",
"  aR.I.3#Xaoai#6apah#P.G.oaX  ",
"  .8.5###x#G#T#C#L#y#B#k.n#q  ",
"  .W#r#V#z#R#Z#K#S#Y#A#N.X#g  ",
"  .0#F#E.P.B.C.x.E.M.La##h#o  ",
"  #n#O#W.N.y.v.z.K.N.Ragaa#U  ",
"  #I#iasalaBaCaEaFawarat#u#J  ",
"  #s#0abazamaJaNaKayavau.1.6  ",
"  #H.O#baIaNanajaMaOaG#v.m#D  ",
"  ae.j.F#.acaQaPaLad#w.r.e#3  ",
"  aY.7.l.i.D#e#Q#p.Y.d.b.ZaV  ",
"    aT#d.t.k.c.g.f.h.s#caS    ",
"      aZ#5.4.2.S.T#f#1aZ      ",
"        aVaf#8#4a.aqaY        ",
"                              ",
"                              ",
};
