/* XPM */
static char *magick[] = {
/* columns rows colors chars-per-pixel */
"15 20 10 1",
"  c None",
". c #707f96",
"X c #7a8a9e",
"o c #7b8ca5",
"O c #8898b0",
"+ c #95a6bb",
"@ c #9eacc3",
"# c #a8b7cb",
"$ c #b4c4d8",
"% c #becee2",
/* pixels */
"               ",
"               ",
"    ooX.XXo    ",
"   OO+#$#@OO   ",
"  OO@$%%$$@@O  ",
" oO+##$$$$#+Oo ",
" o+@@@@@@@@@+o ",
" o@@@#####@@+o ",
" O##########+O ",
" O####$$$####O ",
" O@$#$$$$$$#+O ",
" O@$$$$%%$$$@O ",
" O+##$%%$%$#+O ",
"  O+#$$$$$#+O  ",
"   oO+##$+OX   ",
"    oXOXXXo    ",
"               ",
"               ",
"               ",
"               ",
};
