/* XPM */
static char *ball-green2[] = {
/* width height num_colors chars_per_pixel */
"    15    20      181            2",
/* colors */
"   c None",
".# c #090a05",
".a c #113509",
".b c #113f10",
".c c #1b3e1d",
".d c #1b5117",
".e c #1f3818",
".f c #243d1f",
".g c #252523",
".h c #253d27",
".i c #2c2c2c",
".j c #2c3836",
".k c #2d5822",
".l c #2f5c23",
".m c #2f5f23",
".n c #326a2b",
".o c #376131",
".p c #3a4f3e",
".q c #3b492f",
".r c #3b5041",
".s c #3c782e",
".t c #3f4a3c",
".u c #3f4c38",
".v c #40802c",
".w c #40931f",
".x c #42693a",
".y c #434144",
".z c #445533",
".A c #455441",
".B c #455a33",
".C c #465246",
".D c #489223",
".E c #4a703f",
".F c #4d6448",
".G c #4f8f39",
".H c #506f36",
".I c #509b34",
".J c #51ad26",
".K c #53942e",
".L c #546e47",
".M c #556541",
".N c #557754",
".O c #558031",
".P c #565656",
".Q c #568541",
".R c #569837",
".S c #56a62b",
".T c #57604f",
".U c #57a626",
".V c #58724f",
".W c #589d42",
".X c #599440",
".Y c #5a843c",
".Z c #5a9543",
".0 c #5aa725",
".1 c #5aae34",
".2 c #5b5b59",
".3 c #5b6660",
".4 c #5c7852",
".5 c #5c8e37",
".6 c #5d7835",
".7 c #5e8532",
".8 c #5faf3c",
".9 c #60ab42",
"#. c #62ad48",
"## c #63676a",
"#a c #63b32c",
"#b c #676067",
"#c c #676e74",
"#d c #69a63f",
"#e c #69c534",
"#f c #6aa644",
"#g c #6ab330",
"#h c #6b706a",
"#i c #6c7079",
"#j c #6ca33d",
"#k c #6cad2f",
"#l c #6d736f",
"#m c #6db138",
"#n c #6fb53b",
"#o c #6fbd2c",
"#p c #71bf38",
"#q c #72aa49",
"#r c #73767f",
"#s c #739541",
"#t c #74a93f",
"#u c #77cf3d",
"#v c #788480",
"#w c #7aa369",
"#x c #7aa868",
"#y c #7b817d",
"#z c #7b946d",
"#A c #7b957c",
"#B c #7cbe40",
"#C c #7db746",
"#D c #7dc03c",
"#E c #83c24d",
"#F c #848388",
"#G c #84cc3c",
"#H c #84cc42",
"#I c #858793",
"#J c #868f8c",
"#K c #86cd43",
"#L c #87d04a",
"#M c #8a8a8c",
"#N c #8a8e8e",
"#O c #8ad24c",
"#P c #8c9b86",
"#Q c #8fa78d",
"#R c #908f94",
"#S c #90d757",
"#T c #92de58",
"#U c #959494",
"#V c #95cc55",
"#W c #95d857",
"#X c #96c962",
"#Y c #98bf80",
"#Z c #999894",
"#0 c #99c067",
"#1 c #99d95f",
"#2 c #99da58",
"#3 c #99db57",
"#4 c #9be15d",
"#5 c #9cbf57",
"#6 c #9cde56",
"#7 c #9ea09a",
"#8 c #9ea1a1",
"#9 c #9ecf5c",
"a. c #9eea56",
"a# c #9fe052",
"aa c #a2a8a9",
"ab c #a4a4a2",
"ac c #a4a5ac",
"ad c #a4f05c",
"ae c #a5a5a5",
"af c #a5cb8e",
"ag c #a6a6a4",
"ah c #a7a7a8",
"ai c #a7e168",
"aj c #a7ef65",
"ak c #a9e463",
"al c #abcb8c",
"am c #acacac",
"an c #b0b0b0",
"ao c #b3b2b2",
"ap c #b3b3b3",
"aq c #b3f57a",
"ar c #b3f673",
"as c #b4b4b4",
"at c #b4e474",
"au c #b7d49e",
"av c #b8f677",
"aw c #b9db9e",
"ax c #b9dc68",
"ay c #b9fc6f",
"az c #bababa",
"aA c #baee7f",
"aB c #bbf682",
"aC c #bcbcbc",
"aD c #bdbdbd",
"aE c #bdef74",
"aF c #bfbec4",
"aG c #c2f57c",
"aH c #c2f590",
"aI c #c3ff8f",
"aJ c #c4b3c3",
"aK c #c6d5c0",
"aL c #c6fe9d",
"aM c #c7ff7f",
"aN c #c7ff8f",
"aO c #c8d7c2",
"aP c #c8fa89",
"aQ c #c8fa97",
"aR c #c8ff89",
"aS c #ceccd7",
"aT c #cfff7c",
"aU c #d3ff8f",
"aV c #d6e3cf",
"aW c #dcff84",
"aX c #e4e6db",
"aY c #edf8e7",
/* pixels */
"                              ",
"                              ",
"        ab.2.g.#.i.Pao        ",
"      #b.y#MaFaSaJ#R.j#c      ",
"    #h.t#PaKaVaYaXaO#Q.r##    ",
"  #Z.f.E#wafawalau#Y#x.x.h#U  ",
"  .A.l.G.R#f#j#t#q#d.K.Z.o.p  ",
"  .e.v.w.S#m#k#D#n#g.0.D.s.c  ",
"  .a.I.J#a#B#2#K#S#H#o.U.W.b  ",
"  .k.8#e#O#Vai#4#1#6#G#p#..d  ",
"  .m.1#u#3ataAaqaBaka##L.9.n  ",
"  .4.5#Wa.ajaIaLaQavad#T.X.N  ",
"  #z.O#CaraRaNaHaPaMay#E.Q#A  ",
"  #8.V.Y#XaGaTaWaUaE#9.7.L#7  ",
"  aC#v.F.H#s#5ax#0#s.6.M#yaz  ",
"    as#J.3.C.u.q.B.z.T#Fap    ",
"      aDac#I#r#i#l#NaaaD      ",
"        azamagaeahanaC        ",
"                              ",
"                              ",
};
