/* XPM */
static char *options-activedown[] = {
/* width height num_colors chars_per_pixel */
"    15    20      212            2",
/* colors */
"   c None",
".. c #0f0f0f",
".# c #292929",
".a c #2c2c2c",
".b c #3a2550",
".c c #3e205e",
".d c #401253",
".e c #414141",
".f c #423748",
".g c #424242",
".h c #434343",
".i c #443751",
".j c #454545",
".k c #462763",
".l c #4a4a4a",
".m c #4b4b4b",
".n c #4d4d4d",
".o c #4e195f",
".p c #4e1a55",
".q c #4e4e4e",
".r c #502c77",
".s c #503e54",
".t c #50445a",
".u c #522455",
".v c #522a64",
".w c #523a70",
".x c #534359",
".y c #543a5c",
".z c #55266e",
".A c #562262",
".B c #572767",
".C c #572c62",
".D c #595959",
".E c #5b3a76",
".F c #5b5b5b",
".G c #5c4869",
".H c #5d2d7a",
".I c #5d3581",
".J c #5d5d5c",
".K c #5d5d5d",
".L c #5e357a",
".M c #5e5e5e",
".N c #5f3569",
".O c #5f485e",
".P c #60377f",
".Q c #603b6c",
".R c #623480",
".S c #626262",
".T c #643a67",
".U c #653d82",
".V c #653f80",
".W c #656565",
".X c #673171",
".Y c #673a8d",
".Z c #675362",
".0 c #676767",
".1 c #69426f",
".2 c #696769",
".3 c #6a626b",
".4 c #6b3971",
".5 c #6b3f8f",
".6 c #6b6d6e",
".7 c #6c4490",
".8 c #6c6c6c",
".9 c #6d6d6d",
"#. c #6e4d6e",
"## c #6f5e80",
"#a c #714190",
"#b c #71606f",
"#c c #723e8c",
"#d c #724479",
"#e c #734e83",
"#f c #734e8a",
"#g c #744488",
"#h c #74557f",
"#i c #745d78",
"#j c #747474",
"#k c #75737f",
"#l c #757576",
"#m c #764094",
"#n c #764b7e",
"#o c #765690",
"#p c #766388",
"#q c #767676",
"#r c #784994",
"#s c #785983",
"#t c #794b90",
"#u c #795091",
"#v c #797a7a",
"#w c #7a5297",
"#x c #7a7a7a",
"#y c #7b5596",
"#z c #7b5d80",
"#A c #7b6292",
"#B c #7c4a99",
"#C c #7c7c7c",
"#D c #7d4d9c",
"#E c #7e4ca0",
"#F c #7e7f7e",
"#G c #7f7f7f",
"#H c #7f8080",
"#I c #804ea4",
"#J c #805896",
"#K c #8065a1",
"#L c #81659b",
"#M c #81727b",
"#N c #826293",
"#O c #844da3",
"#P c #8453a6",
"#Q c #845e94",
"#R c #8649a5",
"#S c #867782",
"#T c #88749d",
"#U c #888888",
"#V c #898b8b",
"#W c #8a57a5",
"#X c #8a5ba3",
"#Y c #8a8a8b",
"#Z c #8b56ae",
"#0 c #8b6c8f",
"#1 c #8b868a",
"#2 c #8c57a3",
"#3 c #8c678d",
"#4 c #8c8c8c",
"#5 c #8d8d94",
"#6 c #8e8e92",
"#7 c #8f9090",
"#8 c #90779b",
"#9 c #908390",
"a. c #908e92",
"a# c #9379a8",
"aa c #937cab",
"ab c #9467ad",
"ac c #949494",
"ad c #9865b2",
"ae c #9965ab",
"af c #996f9b",
"ag c #9a6bb2",
"ah c #9a73a3",
"ai c #9c73b2",
"aj c #9c9c9b",
"ak c #9e85b2",
"al c #9e9e9e",
"am c #9f87a3",
"an c #a191ae",
"ao c #a198b1",
"ap c #a375b2",
"aq c #a473b2",
"ar c #a499af",
"as c #a4a4a2",
"at c #a4a8a9",
"au c #a5a5a5",
"av c #a5a6aa",
"aw c #a6a6a4",
"ax c #a7a7a8",
"ay c #a89ab1",
"az c #a99fb2",
"aA c #aaaaaa",
"aB c #ab84b2",
"aC c #ac80b2",
"aD c #acacac",
"aE c #ad8cb2",
"aF c #ad8da7",
"aG c #ad9ba9",
"aH c #b096ad",
"aI c #b0b0b0",
"aJ c #b184b2",
"aK c #b18eb2",
"aL c #b28fb2",
"aM c #b29bb2",
"aN c #b29cb2",
"aO c #b29dad",
"aP c #b2a0ad",
"aQ c #b8b8b8",
"aR c #bababa",
"aS c #bbbbbb",
"aT c #bcbcbc",
"aU c #bdbdbd",
"aV c #bfbfbf",
"aW c #c0c0c0",
"aX c #c3c3c3",
"aY c #c5c5c5",
"aZ c #c6c6c6",
"a0 c #c7c7c7",
"a1 c #c8c8c8",
"a2 c #c9c9c9",
"a3 c #cacaca",
"a4 c #cbcbcb",
"a5 c #cccccc",
"a6 c #cdcdcd",
"a7 c #cecece",
"a8 c #d1d1d1",
"a9 c #d2d2d2",
"b. c #d3d3d3",
"b# c #d4d4d4",
"ba c #d8d8d8",
"bb c #d9d9d9",
"bc c #dadada",
"bd c #dbdbdb",
"be c #dcdcdc",
"bf c #dddddd",
"bg c #dedede",
"bh c #dfdfdf",
"bi c #e2e2e2",
"bj c #e3e3e3",
"bk c #eaeaea",
"bl c #ececec",
"bm c #eeeeee",
"bn c #f0f0f0",
"bo c #f1f1f1",
"bp c #f8f8f8",
"bq c #ffffff",
/* pixels */
"                              ",
"                              ",
"        as.J.#...a.KaA        ",
"      .2.i#k#5a.#1.3.f.6      ",
"    #j.F#paoazarayan##.K#l    ",
"  aj.k.E#A#Taaaka##L#K.w.bac  ",
"  .q.P.L.V#o#y#f#J#w.7.r.c.q  ",
"  .j.H#m#D.U.z.d.B#g#a.Y.I.m  ",
"  .D#c#R#O.R.o.A.p.X#2#P.5.M  ",
"  .0#I#Z#X.C.v.N.u.4ae#W#B.S  ",
"  .9#Eadap#n.Q.1.T#daqag#t#q  ",
"  #C#rabaJaf#z#.#3ahaCai#e#x  ",
"  #U#u#QaBaLaNaHaMaEaK#N.y#4  ",
"  al#s#h#0aFaGaPaOam#8.G.saj  ",
"  a2#v#i.O.Z#9#S#M#b.x.t#Fa1  ",
"    a6#V.S.n.e.h.g.l.W#Ya5    ",
"      a0av#6#H#q#G#7ata2      ",
"        aRaDawauaxaIaT        ",
"                              ",
"                              ",
};
