/* XPM */
static char * 3bars_xpm[] = {
"85 11 3 1",
" 	c None",
".	c white",
"+	c grey",
"            .......................................................................  ",
"             ++++++++++++++++++++++++++++++++++++++++++++++++++++++++++++++++++++++  ",
"                                                                                     ",
"                                                                                     ",
"                     ..............................................................  ",
"                      +++++++++++++++++++++++++++++++++++++++++++++++++++++++++++++  ",
"                                                                                     ",
"                                                                                     ",
"                            .......................................................  ",
"                             ++++++++++++++++++++++++++++++++++++++++++++++++++++++  ",
"                                                                                     "};
