/* XPM */
static char * titlebutton_mod_xpm[] = {
"8 20 5 1",
" 	c None",
".	c #000000",
"+	c #CE4229",
"@	c #E06957",
"#	c #BF2F0F",
"        ",
"        ",
"   ..   ",
"  .+@.  ",
"  .#+.  ",
"   ..   ",
"        ",
"        ",
"   ..   ",
"  .+@.  ",
"  .#+.  ",
"   ..   ",
"        ",
"        ",
"        ",
"        ",
"        ",
"        ",
"        ",
"        "};
