/* XPM */
static char *titlebar_fill_s[] = {
/* width height num_colors chars_per_pixel */
"    20    20       25            1",
/* colors */
"_ c None",
". c #84b185",
"a c #7aaa7c",
"b c #8eb58f",
"c c #84ad86",
"d c #7ea880",
"e c #508752",
"f c #79a57d",
"g c #467649",
"h c #75a079",
"i c #729d74",
"j c #6e9a71",
"k c #57885a",
"l c #6a976d",
"m c #436f46",
"n c #66936a",
"o c #628f67",
"p c #5f8c63",
"q c #5b895f",
"r c #58865c",
"s c #548258",
"t c #4f7c53",
"u c #48744d",
"v c #47774c",
"w c #3e6e44",
/* pixels */
"....................",
"aaaaaaaaaaaaaaaaaaaa",
"bbmmmmmmmmmmmmmmmebb",
"ccmgggggggggggggkecc",
"ddmgddddddddddddkedd",
"ffmgffffffffffffkeff",
"hhmghhhhhhhhhhhhkehh",
"iimgiiiiiiiiiiiikeii",
"jjmgjjjjjjjjjjjjkejj",
"llmgllllllllllllkell",
"nnmgnnnnnnnnnnnnkenn",
"oomgooooooooooookeoo",
"ppmgppppppppppppkepp",
"qqmgqqqqqqqqqqqqkeqq",
"rrmgrrrrrrrrrrrrkerr",
"ssmgsssssssssssskess",
"ttmgkkkkkkkkkkkkkett",
"uumeeeeeeeeeeeeeeeuu",
"vvvvvvvvvvvvvvvvvvvv",
"wwwwwwwwwwwwwwwwwwww",
};
