/* XPM */
static char * border-active[] = {
"6 6 3 1",
" 	c #666699 s bg",
"+	c #9999CC s hi",
"@	c #333366 s sh",

"+@    ",
" +@   ",
"      ",
"    +@",
"   +@ ",
"      ",
};
