/* XPM */
static char * titleA_xpm[] = {
"4 21 3 1",
" 	c None",
"+	c #FFFFFF",
"@	c #666699",
"    ",
"    ",
"    ",
"  + ",
"   @",
"+   ",
" @  ",
"  + ",
"   @",
"+   ",
" @  ",
"  + ",
"   @",
"+   ",
" @  ",
"  + ",
"   @",
"    ",
"    ",
"    ",
"@@@@",
};
