/* XPM */
static char *title-inactive[] = {
/* width height num_colors chars_per_pixel */
"     5    20       18            1",
/* colors */
". c #90a8ca",
"# c #93accb",
"a c #96a9c9",
"b c #99adc8",
"c c #9aadcb",
"d c #9ab3c9",
"e c #9baecc",
"f c #9cafcd",
"g c #9db0ce",
"h c #9db1c9",
"i c #9eaecf",
"j c #9eb0d4",
"k c #9fbcdc",
"l c #a2b5d3",
"m c #a2bad2",
"n c #a3b1cc",
"o c #a5b8d6",
"p c #a5bad9",
/* pixels */
"kkkkk",
"mmmmm",
"hhhhh",
"iiiii",
"jjjjj",
"ppppp",
"ddddd",
"eeeee",
"ggggg",
"ooooo",
"fffff",
"fffff",
"eeeee",
"lllll",
"ccccc",
"#####",
"bbbbb",
"nnnnn",
"aaaaa",
"....."
};
