/* XPM */
static char * active_tile_xpm[] = {
"21 21 15 1",
" 	c #FFFFFFFFFFFF",
".	c #FFFFFBEEFFFF",
"X	c #F7DEF3CEF7DE",
"o	c #F7DEF7DEF7DE",
"O	c #EFBEEFBEEFBE",
"+	c #EFBEEBADEFBE",
"@	c #E79DE79DE79D",
"#	c #DF7DDF7DDF7D",
"$	c #E79DE38DE79D",
"%	c #DF7DDB6CDF7D",
"&	c #CF3CCF3CCF3C",
"*	c #D75CD34CCF3C",
"=	c #CF3CD34CCF3C",
"-	c #CF3CCB2BCF3C",
";	c #CF3CCF3CD75C",
"     .  .  .         ",
"                     ",
"XXXXXXoXXoXXXXOXXOXXO",
"+++++O++++++O+@+O++O@",
"XXXXXXXXXXXXXXXXXXXXX",
"                     ",
"XXXXXXXXXXXXXXXXXXXXX",
"+++++++++++++++++++++",
"OOOOOOOOOOOOOOOOOOOOO",
"                     ",
"OOOOOOOOOOOOOOOOOOOOO",
"@@@@@@@@@@@@@@@@@@@@@",
"+++++++++++++++++++++",
"ooooooooooooooooooooo",
"+++++++++++++++++++++",
"#####################",
"$$$$$$$$$$$$$$$$$$$$$",
"+++++++++++++++++++++",
"%%%%%%%%%%%%%%%%%%%%%",
"&&&&&&&&&&&&&&&&&&&&&",
"*=&==-&=&&&==&;;;;;&&"};
