/* XPM */
static char *title-active[] = {
/* width height num_colors chars_per_pixel */
"     5    20       15            1",
/* colors */
". c #cecece",
"# c #d9d9d9",
"a c #dedede",
"b c #e0e0e0",
"c c #e5e5e5",
"d c #e8e8e8",
"e c #e9e9e9",
"f c #eaeaea",
"g c #efefef",
"h c #f0f0f0",
"i c #f1f1f1",
"j c #f7f7f7",
"k c #fdfdfd",
"l c #fefefe",
"m c #ffffff",
/* pixels */
"mmmmm",
"mmmmm",
"hhhhh",
"eeeee",
"iiiii",
"lllll",
"iiiii",
"fffff",
"ggggg",
"kkkkk",
"ggggg",
"ccccc",
"fffff",
"jjjjj",
"ddddd",
"aaaaa",
"bbbbb",
"fffff",
"#####",
"....."
};
