/* XPM */
static char *rose[] = {
/* width height num_colors chars_per_pixel */
"    34    30       16            1",
/* colors */
"  c None",
"# c #ffffff",
"a c #cece63",
"b c #ffcece",
"c c #636300",
"d c #9c9c00",
"e c #ce6363",
"f c #ffceff",
"g c #ff9c9c",
"h c #ff6363",
"i c #ff9c63",
"j c #ff9cce",
"k c #9cce00",
"l c #ff63ff",
"m c #ff9c31",
"n c #ffce9c",
/* pixels */
"                                  ",
"                                  ",
"               eee                ",
"            eeeejheeee        cc  ",
"        eeeelgieeegegie   cccckc  ",
"        egfeehlibileeeie cckacac  ",
"    eeeegibf#ehlmleffieeeeackcccc ",
"   egggegginf#eehe#bgeifiekkcdakc ",
"   egbglegggbglee#bgel#ggeckccccc ",
"   eifbgleeggeigfbgeg#giedacdkadc ",
"   ei##bggleigiiggegfggeieecccccc ",
"   eli#fbiihelhlheegghlggledkakc  ",
"    eliiiieggieeggegliifgiecckdc  ",
"     eeeeegghigfgeghig#bileakcc   ",
"         eglb##gieligbbilekdcc    ",
"         eliiiiileeeilleeccc      ",
"          eeeeeee   eee           ",
"                                  ",
"                                  ",
"                                  ",
"                                  ",
"                                  ",
"                                  ",
"                                  ",
"                                  ",
"                                  ",
"                                  ",
"                                  ",
"                                  ",
"                                  ",
};
