/* XPM */
static char *rose_active[] = {
/* width height num_colors chars_per_pixel */
"    54    21       16            1",
/* colors */
"  c #C0C0B4",
"# c #ffffff",
"a c #cece8c",
"b c #ffffff",
"c c #636314",
"d c #9c9a1f",
"e c #ce8c8c",
"f c #ffffff",
"g c #ffcfcf",
"h c #ff9696",
"i c #ffbb96",
"j c #ffcfe8",
"k c #a8ce29",
"l c #ff96ff",
"m c #ffb464",
"n c #ffe7cf",
/* pixels */
"                                                      ",
"                               eee                    ",
"                            eeeejheeee        cc      ",
"                        eeeelgieeegegie   cccckc      ",
"                        egfeehlibileeeie cckacac      ",
"                    eeeegibf#ehlmleffieeeeackcccc     ",
"                   egggegginf#eehe#bgeifiekkcdakc     ",
"                   egbglegggbglee#bgel#ggeckccccc     ",
"                   eifbgleeggeigfbgeg#giedacdkadc     ",
"                   ei##bggleigiiggegfggeieecccccc     ",
"                   eli#fbiihelhlheegghlggledkakc      ",
"                    eliiiieggieeggegliifgiecckdc      ",
"                     eeeeegghigfgeghig#bileakcc       ",
"                         eglb##gieligbbilekdcc        ",
"                                                      ",
"                                                      ",
"                                                      ",
"                                                      ",
"                                                      ",
"                                                      ",
"                                                      ",
};
