/* XPM */
static char*window[]={
"12 12 54 1",
"F c #808080",
"G c #656565",
"k c #a3a3a3",
"W c #525252",
"t c #757575",
"X c #474747",
"E c #858585",
"Z c #2c2c2c",
"D c #343434",
"b c #cbcbcb",
"T c #575757",
"u c #3c3c3c",
"s c #7a7a7a",
"i c #b8b8b8",
"R c #292929",
"f c #c0c0c0",
"U c #4c4c4c",
"z c #8a8a8a",
"I c #313131",
"c c #c8c8c8",
"y c #393939",
"# c #d0d0d0",
"S c #5c5c5c",
"r c #7f7f7f",
"V c #262626",
"g c #bdbdbd",
"K c #2e2e2e",
"d c #c5c5c5",
"Q c #515151",
"w c #8f8f8f",
"B c #363636",
"a c #cdcdcd",
"v c #000000",
"Y c #232323",
"h c #bababa",
"M c #616161",
"q c #848484",
"O c #2b2b2b",
"e c #c2c2c2",
"P c #717171",
"N c #565656",
"n c #949494",
"C c #666666",
"p c #898989",
"L c #767676",
"J c #5b5b5b",
"m c #999999",
"A c #6b6b6b",
"j c #505050",
". c #e7e7e7",
"o c #8e8e8e",
"H c #606060",
"l c #9e9e9e",
"x c #707070",
".#abcdefghij",
"#klmnopqrstu",
"#lvnwpqrvtxy",
"#mnvzqrvtxAB",
"#nwzvrvtxACD",
"#wzEFvtxAGHI",
"#zEFvtvACHJK",
"#EFvLxAvMJNO",
"#FvLPACMvNQR",
"#sxxACMSTQUV",
"#txACMSTWUXY",
"juyBDIKZRVYY"};
