/* XPM */
static char * window_maximize_activedown_xpm[] = {
"12 12 87 1",
" 	c None",
".	c #505F5F",
"+	c #566666",
"@	c #5F7070",
"#	c #677979",
"$	c #708181",
"%	c #788989",
"&	c #7F9191",
"*	c #879A9A",
"=	c #8EA2A2",
"-	c #94A9A9",
";	c #9CB0B0",
">	c #95AAAA",
",	c #404D4D",
"'	c #455353",
")	c #4C5B5B",
"!	c #536363",
"~	c #5A6B6B",
"{	c #617272",
"]	c #687A7A",
"^	c #6F8282",
"/	c #768A8A",
"(	c #7C9292",
"_	c #839999",
":	c #8AA1A1",
"<	c #657777",
"[	c #000000",
"}	c #A7BDBD",
"|	c #A1B7B7",
"1	c #4E5C5C",
"2	c #536262",
"3	c #91A9A9",
"4	c #98B1B1",
"5	c #708080",
"6	c #758787",
"7	c #859898",
"8	c #8CA0A0",
"9	c #93A7A7",
"0	c #9BAFAF",
"a	c #A2B6B6",
"b	c #A8BDBD",
"c	c #B4CACA",
"d	c #AEC6C6",
"e	c #5B6C6C",
"f	c #607272",
"g	c #6E8181",
"h	c #758989",
"i	c #7C9191",
"j	c #9FB8B8",
"k	c #A6C0C0",
"l	c #7E9191",
"m	c #839898",
"n	c #92A6A6",
"o	c #9AAEAE",
"p	c #A1B5B5",
"q	c #AEC4C4",
"r	c #C1D6D6",
"s	c #BBD3D3",
"t	c #697C7C",
"u	c #6E8282",
"v	c #9FB9B9",
"w	c #ADC8C8",
"x	c #B4D0D0",
"y	c #8DA1A1",
"z	c #AEC3C3",
"A	c #BBD0D0",
"B	c #CDE2E2",
"C	c #C7E0E0",
"D	c #778B8B",
"E	c #BAD8D8",
"F	c #C1E0E0",
"G	c #BAD0D0",
"H	c #C0D6D6",
"I	c #C6DCDC",
"J	c #CCE1E1",
"K	c #D1E7E7",
"L	c #D7ECEC",
"M	c #D3ECEC",
"N	c #859B9B",
"O	c #98B0B0",
"P	c #A5C0C0",
"Q	c #ACC8C8",
"R	c #B3D0D0",
"S	c #BAD7D7",
"T	c #C1DFDF",
"U	c #C8E7E7",
"V	c #CFEFEF",
".+@#$%&*=-;>",
",')!~{]^/(_:",
"@<[[[[[[[[}|",
"12[[[[[[[[34",
"56[7890ab[cd",
"ef[ghi_:3[jk",
"lm[nop}qc[rs",
"tu[i_:34v[wx",
"yn[p}zcAr[BC",
"Di[[[[[[[[EF",
";p}zcGHIJKLM",
"N:3OjPQRSTUV"};
