/* XPM */
static char * window_close_activedown_xpm[] = {
"12 12 99 2",
"  	c None",
". 	c #505F5F",
"+ 	c #566666",
"@ 	c #5F7070",
"# 	c #677979",
"$ 	c #708181",
"% 	c #788989",
"& 	c #7F9191",
"* 	c #879A9A",
"= 	c #8EA2A2",
"- 	c #94A9A9",
"; 	c #9CB0B0",
"> 	c #95AAAA",
", 	c #404D4D",
"' 	c #455353",
") 	c #4C5B5B",
"! 	c #536363",
"~ 	c #5A6B6B",
"{ 	c #617272",
"] 	c #687A7A",
"^ 	c #6F8282",
"/ 	c #768A8A",
"( 	c #7C9292",
"_ 	c #839999",
": 	c #8AA1A1",
"< 	c #657777",
"[ 	c #000000",
"} 	c #758888",
"| 	c #7D9090",
"1 	c #859898",
"2 	c #8CA0A0",
"3 	c #93A7A7",
"4 	c #A1B6B6",
"5 	c #A7BDBD",
"6 	c #A1B7B7",
"7 	c #4E5C5C",
"8 	c #536262",
"9 	c #5A6A6A",
"0 	c #849999",
"a 	c #91A9A9",
"b 	c #98B1B1",
"c 	c #708080",
"d 	c #758787",
"e 	c #7D8F8F",
"f 	c #A2B6B6",
"g 	c #A8BDBD",
"h 	c #AEC4C4",
"i 	c #B4CACA",
"j 	c #AEC6C6",
"k 	c #5B6C6C",
"l 	c #607272",
"m 	c #677A7A",
"n 	c #6E8181",
"o 	c #758989",
"p 	c #9FB8B8",
"q 	c #A6C0C0",
"r 	c #7E9191",
"s 	c #839898",
"t 	c #8BA0A0",
"u 	c #92A6A6",
"v 	c #A1B5B5",
"w 	c #BBD1D1",
"x 	c #C1D6D6",
"y 	c #BBD3D3",
"z 	c #697C7C",
"A 	c #6E8282",
"B 	c #758A8A",
"C 	c #9FB9B9",
"D 	c #A6C1C1",
"E 	c #ADC8C8",
"F 	c #B4D0D0",
"G 	c #8DA1A1",
"H 	c #AEC3C3",
"I 	c #BBD0D0",
"J 	c #C7DCDC",
"K 	c #CDE2E2",
"L 	c #C7E0E0",
"M 	c #778B8B",
"N 	c #7C9191",
"O 	c #97B0B0",
"P 	c #9EB8B8",
"Q 	c #A5C0C0",
"R 	c #ACC8C8",
"S 	c #B3D0D0",
"T 	c #BAD8D8",
"U 	c #C1E0E0",
"V 	c #BAD0D0",
"W 	c #C0D6D6",
"X 	c #C6DCDC",
"Y 	c #CCE1E1",
"Z 	c #D1E7E7",
"` 	c #D7ECEC",
" .	c #D3ECEC",
"..	c #859B9B",
"+.	c #98B0B0",
"@.	c #BAD7D7",
"#.	c #C1DFDF",
"$.	c #C8E7E7",
"%.	c #CFEFEF",
". + @ # $ % & * = - ; > ",
", ' ) ! ~ { ] ^ / ( _ : ",
"@ < [ } | 1 2 3 [ 4 5 6 ",
"7 8 9 [ ] ^ / [ 0 : a b ",
"c d e 1 [ 3 [ f g h i j ",
"k l m n o [ _ : a b p q ",
"r s t u [ v [ h i w x y ",
"z A B [ _ : a [ C D E F ",
"G u [ v 5 H i I [ J K L ",
"M N [ : a O P Q R S T U ",
"; v 5 H i V W X Y Z `  .",
"..: a +.p Q R S @.#.$.%."};
