/* XPM */
static char*window[]={
"12 12 45 1",
"b c #424242",
"O c #d9d9d9",
"w c #808080",
"B c #656565",
"N c #e1e1e1",
"e c #525252",
"m c #757575",
"n c #d6d6d6",
"c c #474747",
"H c #dedede",
"z c #858585",
"f c #575757",
"# c #d3d3d3",
"C c #7a7a7a",
"A c #dbdbdb",
"o c #4c4c4c",
"D c #8a8a8a",
"g c #5c5c5c",
"s c #d8d8d8",
"F c #7f7f7f",
"J c #e0e0e0",
"t c #515151",
"G c #8f8f8f",
". c #000000",
"l c #d5d5d5",
"h c #616161",
"E c #dddddd",
"K c #848484",
"q c #717171",
"p c #565656",
"I c #949494",
"x c #dadada",
"i c #666666",
"L c #898989",
"v c #767676",
"u c #5b5b5b",
"M c #999999",
"j c #6b6b6b",
"Q c #e7e7e7",
"a c #3d3d3d",
"r c #7b7b7b",
"y c #606060",
"P c #dcdcdc",
"d c #4d4d4d",
"k c #707070",
"...........#",
".abcdefghij#",
".biiiiiiiikl",
".ciiiiiiiimn",
".oipghijqirs",
".tiuhijkviwx",
".piyijkmrizA",
".uiBjkmCwiDE",
".hijkmCFziGH",
".iiiiiiiiiIJ",
".jkmCFKLGIMN",
"##lnsOAPHJNQ"};
