/* XPM */
static char*window[]={
"12 12 55 1",
"E c #808080",
"F c #656565",
"k c #a3a3a3",
"X c #525252",
"t c #757575",
"Y c #474747",
"B c #858585",
"0 c #2c2c2c",
"D c #343434",
"b c #cbcbcb",
"W c #575757",
"u c #3c3c3c",
"s c #7a7a7a",
"i c #b8b8b8",
"T c #292929",
"f c #c0c0c0",
"U c #4c4c4c",
"y c #8a8a8a",
"H c #313131",
"c c #c8c8c8",
"x c #393939",
"# c #d0d0d0",
"R c #5c5c5c",
"r c #7f7f7f",
"V c #262626",
"g c #bdbdbd",
"K c #2e2e2e",
"d c #c5c5c5",
"S c #515151",
"v c #8f8f8f",
"A c #363636",
"a c #cdcdcd",
"L c #000000",
"Z c #232323",
"h c #bababa",
"Q c #616161",
"q c #848484",
"N c #2b2b2b",
"e c #c2c2c2",
"P c #717171",
"M c #565656",
"n c #949494",
"C c #666666",
"p c #898989",
"O c #767676",
"J c #5b5b5b",
"m c #999999",
"z c #6b6b6b",
"j c #505050",
". c #e7e7e7",
"o c #8e8e8e",
"I c #7b7b7b",
"G c #606060",
"l c #9e9e9e",
"w c #707070",
".#abcdefghij",
".klmnopqrstu",
".lmnvpqrstwx",
".mnvyqrstwzA",
".nvyBrstwzCD",
".vyBEstwzFGH",
".yBEItwzCGJK",
".BLLLLLLLLMN",
".ELOPzCQRLST",
".sLLLLLLLLUV",
".twzCQRWXUYZ",
"juxADHK0TVZZ"};
