/* XPM */
static char*window[]={
"12 12 45 1",
"b c #424242",
"O c #d9d9d9",
"x c #808080",
"N c #e1e1e1",
"e c #525252",
"o c #757575",
"p c #d6d6d6",
"c c #474747",
"H c #dedede",
"A c #858585",
"f c #575757",
"k c #d3d3d3",
"E c #7a7a7a",
"B c #dbdbdb",
"l c #4c4c4c",
"C c #8a8a8a",
"g c #5c5c5c",
"v c #d8d8d8",
"F c #7f7f7f",
"K c #e0e0e0",
"q c #515151",
"G c #8f8f8f",
". c #000000",
"n c #d5d5d5",
"h c #616161",
"D c #dddddd",
"I c #848484",
"s c #717171",
"r c #565656",
"J c #949494",
"y c #dadada",
"i c #666666",
"L c #898989",
"t c #767676",
"w c #5b5b5b",
"M c #999999",
"j c #6b6b6b",
"Q c #e7e7e7",
"# c #b1b1b1",
"a c #3d3d3d",
"u c #7b7b7b",
"z c #606060",
"P c #dcdcdc",
"d c #4d4d4d",
"m c #707070",
"...........#",
".abcdefghijk",
".bilefghijmn",
".clifghijmop",
".lqrihijstuv",
".qrwhijmtuxy",
".rwzijiouxAB",
".wzijmoixACD",
".hijmoEFiCGH",
".iimoEFICGJK",
".jmoEFILGJMN",
"#knpvOBPHKNQ"};
