/* XPM */
static char * window_iconify_activedown_xpm[] = {
"12 12 97 2",
"  	c None",
". 	c #505F5F",
"+ 	c #566666",
"@ 	c #5F7070",
"# 	c #677979",
"$ 	c #708181",
"% 	c #788989",
"& 	c #7F9191",
"* 	c #879A9A",
"= 	c #8EA2A2",
"- 	c #94A9A9",
"; 	c #9CB0B0",
"> 	c #95AAAA",
", 	c #404D4D",
"' 	c #455353",
") 	c #4C5B5B",
"! 	c #536363",
"~ 	c #5A6B6B",
"{ 	c #617272",
"] 	c #687A7A",
"^ 	c #6F8282",
"/ 	c #768A8A",
"( 	c #7C9292",
"_ 	c #839999",
": 	c #8AA1A1",
"< 	c #657777",
"[ 	c #6D7F7F",
"} 	c #758888",
"| 	c #7D9090",
"1 	c #859898",
"2 	c #8CA0A0",
"3 	c #93A7A7",
"4 	c #9BAFAF",
"5 	c #A1B6B6",
"6 	c #A7BDBD",
"7 	c #A1B7B7",
"8 	c #4E5C5C",
"9 	c #536262",
"0 	c #5A6A6A",
"a 	c #7D9292",
"b 	c #849999",
"c 	c #91A9A9",
"d 	c #98B1B1",
"e 	c #708080",
"f 	c #758787",
"g 	c #7D8F8F",
"h 	c #A2B6B6",
"i 	c #A8BDBD",
"j 	c #AEC4C4",
"k 	c #B4CACA",
"l 	c #AEC6C6",
"m 	c #5B6C6C",
"n 	c #607272",
"o 	c #677A7A",
"p 	c #6E8181",
"q 	c #758989",
"r 	c #7C9191",
"s 	c #9FB8B8",
"t 	c #A6C0C0",
"u 	c #7E9191",
"v 	c #839898",
"w 	c #8BA0A0",
"x 	c #92A6A6",
"y 	c #9AAEAE",
"z 	c #A1B5B5",
"A 	c #BBD1D1",
"B 	c #C1D6D6",
"C 	c #BBD3D3",
"D 	c #697C7C",
"E 	c #6E8282",
"F 	c #000000",
"G 	c #ADC8C8",
"H 	c #B4D0D0",
"I 	c #8DA1A1",
"J 	c #AEC3C3",
"K 	c #BBD0D0",
"L 	c #CDE2E2",
"M 	c #C7E0E0",
"N 	c #778B8B",
"O 	c #BAD8D8",
"P 	c #C1E0E0",
"Q 	c #BAD0D0",
"R 	c #C0D6D6",
"S 	c #C6DCDC",
"T 	c #CCE1E1",
"U 	c #D1E7E7",
"V 	c #D7ECEC",
"W 	c #D3ECEC",
"X 	c #859B9B",
"Y 	c #98B0B0",
"Z 	c #A5C0C0",
"` 	c #ACC8C8",
" .	c #B3D0D0",
"..	c #BAD7D7",
"+.	c #C1DFDF",
"@.	c #C8E7E7",
"#.	c #CFEFEF",
". + @ # $ % & * = - ; > ",
", ' ) ! ~ { ] ^ / ( _ : ",
"@ < [ } | 1 2 3 4 5 6 7 ",
"8 9 0 { ] ^ / a b : c d ",
"e f g 1 2 3 4 h i j k l ",
"m n o p q r _ : c d s t ",
"u v w x y z 6 j k A B C ",
"D E F F F F F F F F G H ",
"I x F z 6 J k K B F L M ",
"N r F F F F F F F F O P ",
"; z 6 J k Q R S T U V W ",
"X : c Y s Z `  ...+.@.#."};
