/* XPM */
static char *move[] = {
/* width height num_colors chars_per_pixel hotspot*/
"    19    19        3            1         10 10",
/* colors */
"  c None",
". c #000000",
"# c #ffffff",
/* pixels */
"         .         ",
"        .#.        ",
"        .#.        ",
"       .###.       ",
"       .###.       ",
"      .#####.      ",
"     ....#....     ",  
"   ..#. .#. .#..   ",
" ..###...#...###.. ",
".#################.",
" ..###...#...###.. ",
"   ..#. .#. .#..   ",
"     ....#....     ",
"      .#####.      ",
"       .###.       ",
"       .###.       ",
"        .#.        ",
"        .#.        ",
"         .         ",
};
