/* XPM */
static char *top_left_arrow[] = {
/* width height num_colors chars_per_pixel hotspot */
"    16    16        3            1          1 1",
/* colors */
"  c None",
". c #000000",
"# c #ffffff",
/* pixels */
"...             ",
".##..           ",
".####..         ",
" .#####..       ",
" .#######..     ",
"  .########..   ",
"  .##########.  ",
"   .#######..   ",
"   .######.     ",
"    .######.    ",
"    .###.###.   ",
"     .#. .###.  ",
"     .#.  .#.   ",
"      .    .    ",
"                ",
"                ",
};
