/* XPM */
static char *close-inactivedown[] = {
/* width height num_colors chars_per_pixel */
"    17    17       27            1",
/* colors */
". c #858585",
"# c #9a9a9a",
"a c #aeaeae",
"b c #4a4a4a",
"c c #0e0e0e",
"d c #040404",
"e c #111111",
"f c #c2c2c2",
"g c #1b1b1b",
"h c #242424",
"i c #444444",
"j c #4f4f4f",
"k c #2b2b2b",
"l c #d6d6d6",
"m c #323232",
"n c #565656",
"o c #636363",
"p c #363636",
"q c #eaeaea",
"r c #717171",
"s c #646464",
"t c #6b6b6b",
"u c #fefefe",
"v c #787878",
"w c #3d3d3d",
"x c #8b8b8b",
"y c #5d5d5d",
/* pixels */
".................",
"#################",
"aaaaabcdddebaaaaa",
"ffffghibjbikgffff",
"lllgmbjnonnipglll",
"qqrhijnstsojihrqq",
"uuemijntvc#jwmguu",
"qqdmijnsesn#wmdqq",
"lldkwincon#iwkdll",
"ffdhpwcjjxbwphdff",
"aachkdwi.iwpkhcaa",
"##bchkm.mmkkhcb##",
"...eeg.kkhhgec...",
"rrrrccegggecerrrr",
"yyyyykdddddkyyyyy",
"bbbbbbbbbbbbbbbbb",
"ppppppppppppppppp"
};
