/* XPM */
static char *iconify-inactivedown[] = {
/* width height num_colors chars_per_pixel */
"    17    17       27            1",
/* colors */
". c #858585",
"# c #9a9a9a",
"a c #aeaeae",
"b c #4a4a4a",
"c c #0e0e0e",
"d c #040404",
"e c #565656",
"f c #c2c2c2",
"g c #1b1b1b",
"h c #242424",
"i c #444444",
"j c #4f4f4f",
"k c #d6d6d6",
"l c #363636",
"m c #636363",
"n c #eaeaea",
"o c #717171",
"p c #3d3d3d",
"q c #646464",
"r c #6b6b6b",
"s c #fefefe",
"t c #787878",
"u c #323232",
"v c #7e7e7e",
"w c #2b2b2b",
"x c #111111",
"y c #5d5d5d",
/* pixels */
".................",
"#################",
"aaaaabcdddceaaaaa",
"ffffghibjbihgffff",
"kkkgljjemejblgkkk",
"nnogpjeqrqejihonn",
"ssglijmrtrmjiugss",
"nndupj#####jpudnn",
"kkdupidv.vdipwdkk",
"ffdhlpid.dbplhdff",
"aachwllpdpplwhcaa",
"##bchwuuluuwhcb##",
"...cxghhhhhgxc...",
"ooooxcxggxxccoooo",
"yyyyywddddcwyyyyy",
"bbbbbbbbbbbbbbbbb",
"lllllllllllllllll"
};
