/* XPM */
static char * iconify_inactive_xpm[] = {
"17 17 30 1",
" 	c None",
".	c #858585",
"+	c #9A9A9A",
"@	c #AEAEAE",
"#	c #5D5D5D",
"$	c #111111",
"%	c #040404",
"&	c #C2C2C2",
"*	c #1B1B1B",
"=	c #323232",
"-	c #626262",
";	c #646464",
">	c #6B6B6B",
",	c #D6D6D6",
"'	c #242424",
")	c #4A4A4A",
"!	c #7D7D7D",
"~	c #EAEAEA",
"{	c #717171",
"]	c #2B2B2B",
"^	c #565656",
"/	c #8A8A8A",
"(	c #929292",
"_	c #FEFEFE",
":	c #9F9F9F",
"<	c #434343",
"[	c #3C3C3C",
"}	c #0E0E0E",
"|	c #4F4F4F",
"1	c #363636",
".................",
"+++++++++++++++++",
"@@@@@#$%%%$#@@@@@",
"&&&&*=-;>;-=*&&&&",
",,,')->!!!>;)',,,",
"~~{]^>!/(/!>^]{~~",
"__*)^>!(:(!>-)*__",
"~~%<^>,,,,,>^<%~~",
",,%<^-%@@@%-^[%,,",
"&&%[<^-}@%-^<[%&&",
"@@}][<|^%^|<[]$@@",
"++|$][<<|<<[=$)++",
"...**]==[=]]**...",
"{{{{$}*'''*}${{{{",
"#####=%%%%}]#####",
")))))))))))))))))",
"11111111111111111"};
