/* XPM */
static char *maximize-inactivedown[] = {
/* width height num_colors chars_per_pixel */
"    17    17       27            1",
/* colors */
". c #858585",
"# c #9a9a9a",
"a c #aeaeae",
"b c #4a4a4a",
"c c #0e0e0e",
"d c #040404",
"e c #111111",
"f c #c2c2c2",
"g c #1b1b1b",
"h c #242424",
"i c #444444",
"j c #4f4f4f",
"k c #cccccc",
"l c #d6d6d6",
"m c #363636",
"n c #565656",
"o c #eaeaea",
"p c #717171",
"q c #6b6b6b",
"r c #646464",
"s c #636363",
"t c #fefefe",
"u c #323232",
"v c #3d3d3d",
"w c #2b2b2b",
"x c #7e7e7e",
"y c #5d5d5d",
/* pixels */
".................",
"#################",
"aaaaabcdddebaaaaa",
"ffffghibjbjhgkfff",
"lllgminnnnjimglll",
"oophijnqqrsbigpoo",
"tteuvjsq#rsjimgtt",
"ooduijn#.#njvudoo",
"lldwvi#.xx#ivwdll",
"ffdhuvdddddvmhdff",
"aachwuvvivvmwhcaa",
"##bchwuumuwwhcb##",
"...ecghhhhhgec...",
"ppppccegggecepppp",
"yyyyywdddddwyyyyy",
"bbbbbbbbbbbbbbbbb",
"mmmmmmmmmmmmmmmmm"
};
