/* XPM */
static char *options-inactivedown[] = {
/* width height num_colors chars_per_pixel */
"    17    17       27            1",
/* colors */
". c #858585",
"# c #9a9a9a",
"a c #aeaeae",
"b c #717171",
"c c #2b2b2b",
"d c #0e0e0e",
"e c #040404",
"f c #323232",
"g c #c2c2c2",
"h c #444444",
"i c #242424",
"j c #4a4a4a",
"k c #4f4f4f",
"l c #d6d6d6",
"m c #565656",
"n c #636363",
"o c #5d5d5d",
"p c #363636",
"q c #eaeaea",
"r c #1b1b1b",
"s c #6b6b6b",
"t c #fefefe",
"u c #787878",
"v c #646464",
"w c #3d3d3d",
"x c #111111",
"y c #8b8b8b",
/* pixels */
".................",
"#################",
"aaaaabcdeefbaaaaa",
"gggghijjkkhihgggg",
"llljfhkmnokjpjlll",
"qq#rhkmnsnmkhi#qq",
"tthphknsuvnkhphtt",
"qqdfwjmvsnmkwfxqq",
"llecweeeeeeewcell",
"ggdip.y..y..pidgg",
"aaficfwhhhwpcifaa",
"##odicfffffcrdo##",
"...cxriiciirxf...",
"bbbbcexrrrxdibbbb",
"ooooohreeerhooooo",
"jjjjjjjjjjjjjjjjj",
"ppppppppppppppppp"
};
