/* XPM */
static char * title_active_xpm[] = {
"1 20 18 1",
" 	c None",
".	c #C3BCB3",
"+	c #B7AFA4",
"@	c #B3AB9F",
"#	c #B1A99E",
"$	c #B1A89C",
"%	c #B0A79B",
"&	c #AEA599",
"*	c #ADA498",
"=	c #AAA194",
"-	c #A9A093",
";	c #A99F92",
">	c #A79D90",
",	c #A69C8F",
"'	c #A3998B",
")	c #A19788",
"!	c #837868",
"~	c #3F3F3F",
".",
"+",
"+",
"+",
"@",
"#",
"$",
"%",
"&",
"*",
"=",
"-",
";",
">",
",",
"'",
"'",
")",
"!",
"~"};
