/* XPM */
static char * titleright_inactive_xpm[] = {
"10 20 57 1",
" 	c None",
".	c #BBBBBB",
"+	c #ADADAD",
"@	c #3D3D3D",
"#	c #B6B6B6",
"$	c #D8D8D8",
"%	c #F0F0F0",
"&	c #757575",
"*	c #929292",
"=	c #AEAEAE",
"-	c #B7B7B7",
";	c #949494",
">	c #B9B9B9",
",	c #989898",
"'	c #7F7F7F",
")	c #AAAAAA",
"!	c #B2B2B2",
"~	c #BDBDBD",
"{	c #A9A9A9",
"]	c #999999",
"^	c #B5B5B5",
"/	c #BFBFBF",
"(	c #A7A7A7",
"_	c #9B9B9B",
":	c #C1C1C1",
"<	c #A6A6A6",
"[	c #C2C2C2",
"}	c #A5A5A5",
"|	c #9F9F9F",
"1	c #C5C5C5",
"2	c #A3A3A3",
"3	c #A0A0A0",
"4	c #BEBEBE",
"5	c #C8C8C8",
"6	c #A2A2A2",
"7	c #CBCBCB",
"8	c #A4A4A4",
"9	c #CDCDCD",
"0	c #9E9E9E",
"a	c #D0D0D0",
"b	c #9D9D9D",
"c	c #D3D3D3",
"d	c #D6D6D6",
"e	c #9A9A9A",
"f	c #CECECE",
"g	c #D9D9D9",
"h	c #979797",
"i	c #8C8C8C",
"j	c #C6C6C6",
"k	c #D1D1D1",
"l	c #DCDCDC",
"m	c #959595",
"n	c #DEDEDE",
"o	c #E1E1E1",
"p	c #797979",
"q	c #8E8E8E",
"r	c #3F3F3F",
"...+@#$%%%",
"+++&@*=---",
"+&&&@;=>>>",
"+,@@')!~~~",
"{&@]^/////",
"(&@_-:::::",
"<&@_-[[[[[",
"}&@|.11111",
"2&@3455555",
"6&@2:77777",
"|&@8[99999",
"0&@81aaaaa",
"b&@)5ccccc",
"_&@)7ddddd",
"e&@=fggggg",
"h&@@ijklll",
"h;.m@!cnnn",
";;m&@^dooo",
"&&&&@pqhhh",
"rrrrrrrrrr"};
