/* XPM */
static char * titleleft_inactive_xpm[] = {
"6 20 45 1",
" 	c None",
".	c #555555",
"+	c #A5A5A5",
"@	c #B7B7B7",
"#	c #BCBCBC",
"$	c #BBBBBB",
"%	c #505050",
"&	c #8B8B8B",
"*	c #A7A7A7",
"=	c #ADADAD",
"-	c #858585",
";	c #959595",
">	c #5E5E5E",
",	c #A0A0A0",
"'	c #A9A9A9",
")	c #919191",
"!	c #808080",
"~	c #888888",
"{	c #8F8F8F",
"]	c #9E9E9E",
"^	c #A6A6A6",
"/	c #7D7D7D",
"(	c #9D9D9D",
"_	c #9B9B9B",
":	c #A3A3A3",
"<	c #A2A2A2",
"[	c #797979",
"}	c #969696",
"|	c #9F9F9F",
"1	c #777777",
"2	c #4C4C4C",
"3	c #747474",
"4	c #939393",
"5	c #9A9A9A",
"6	c #979797",
"7	c #686868",
"8	c #6B6B6B",
"9	c #909090",
"0	c #949494",
"a	c #656565",
"b	c #6F6F6F",
"c	c #737373",
"d	c #757575",
"e	c #3F3F3F",
"f	c #3D3D3D",
".+@##$",
"%&*===",
"%-&===",
"...===",
";->,''",
")!%~**",
"{!%-]^",
"&/%-(+",
"~/%-_:",
"-/%-_<",
"-[%!}|",
"!1%!}]",
"!12!;(",
"/3%!;_",
"332/45",
"%22/46",
"278[96",
"28/!{0",
"2abcdd",
"effeee"};
