/* XPM */
static char * titleleft_active_xpm[] = {
"6 20 52 1",
" 	c None",
".	c #565554",
"+	c #ACA69E",
"@	c #BFB8AF",
"#	c #C4BDB5",
"$	c #C3BCB3",
"%	c #54524D",
"&	c #938D84",
"*	c #B1A99E",
"=	c #B7AFA4",
"-	c #8D867E",
";	c #9E9892",
">	c #63605A",
",	c #AAA297",
"'	c #B3AB9F",
")	c #9B968F",
"!	c #888278",
"~	c #8F8A82",
"{	c #98928A",
"]	c #A89F94",
"^	c #B1A89C",
"/	c #969088",
"(	c #857E75",
"_	c #A79E93",
":	c #B0A79B",
"<	c #A59D91",
"[	c #AEA599",
"}	c #ADA498",
"|	c #827B70",
"1	c #A1998C",
"2	c #AAA194",
"3	c #7F796F",
"4	c #A9A093",
"5	c #524E47",
"6	c #A0978B",
"7	c #A99F92",
"8	c #7D766B",
"9	c #A79D90",
"0	c #9E9589",
"a	c #A69C8F",
"b	c #A3998B",
"c	c #6F6A61",
"d	c #736D63",
"e	c #9C9385",
"f	c #9B9183",
"g	c #A19788",
"h	c #6D675D",
"i	c #787167",
"j	c #807666",
"k	c #837868",
"l	c #3F3F3F",
"m	c #3E3E3D",
".+@##$",
"%&*===",
"%-&===",
"...===",
";->,''",
")!%~**",
"{!%-]^",
"/(%-_:",
"&(%-<[",
"~(%-<}",
"-|%!12",
"-3%!14",
"!35!67",
"!8%!69",
"885(0a",
"%55(0b",
"5cd|eb",
"5d(!fg",
"5hijkk",
"lmmlll"};
