/* XPM */
static char*bb[]={
"65 19 56 1",
"a c #b5bebe",
"R c #5b6565",
"G c #616d6d",
"T c #a6abab",
"v c #677575",
"t c #687575",
"B c #acb3b3",
"k c #6e7d7d",
"X c #3f3f3f",
"U c #586262",
"d c #b3bbbb",
"L c #5f6a6a",
"w c #657272",
"z c #667272",
"E c #aab0b0",
"h c #6c7a7a",
"m c #b0b8b8",
"O c #5c6767",
"P c #a8adad",
"o c #697777",
"V c #909292",
"u c #aeb5b5",
"c c #b4bdbd",
"J c #5a6464",
"0 c #262626",
"x c #667474",
"s c #677474",
"C c #abb2b2",
"g c #6d7c7c",
"j c #6e7c7c",
"1 c #000000",
"Y c #3e3e3e",
"e c #b2baba",
". c #d8dddd",
"H c #5e6969",
"r c #647171",
"A c #657171",
"W c #2e3333",
"M c #a9afaf",
"i c #6b7979",
"N c #5b6666",
"# c #b6bfbf",
"Q c #5c6666",
"D c #626e6e",
"S c #a7acac",
"y c #adb4b4",
"b c #6f7e7e",
"F c #606b6b",
"p c #667373",
"Z c #353535",
"l c #6c7b7b",
"f c #b1b9b9",
"I c #5d6868",
"K c #5e6868",
"q c #647070",
"n c #afb6b6",
".################################################################",
"abbbbbbbbbbbbbbbbbbbbbbbbbbbbbbbbbbbbbbbbbbbbbbbbbbbbbbbbbbbbbbbb",
"cbbbbbbbbbbbbbbbbbbbbbbbbbbbbbbbbbbbbbbbbbbbbbbbbbbbbbbbbbbbbbbbb",
"dbbbbbbbbbbbbbbbbbbbbbbbbbbbbbbbbbbbbbbbbbbbbbbbbbbbbbbbbbbbbbbbb",
"ebbbbbbbbbbbbbbbbbbbbbbbbbbbbbbbbbbbbbbbbbbbbbbbbbbbbbbbbbbbbbbbb",
"fgggggggggggghhiiiiiiiiiiiiiiiiiiiiiijkbbbbbbbbbbbjjiillggggggggg",
"miiiiiiiiiiiiiiiiiiiiiiiiiiiiiiiiiiiiiiiiiiiiiiiiiiiiiiiiiiiiiiii",
"nooooooooooooppqqqqqqqqqqqqqqqqqqqqqqqqqqqqqqqqqqqqqqrstooooooooo",
"uvvvvvvvvvvvvwwqqqqqqqqqqqqqqqqqqqqqqqqqqqqqqqqqqqqqqqpxvvvvvvvvv",
"yzzzzzzzzzzzzAAqqqqqqqqqqqqqqqqqqqqqqqqqqqqqqqqqqqqqqqAAzzzzzzzzz",
"Bqqqqqqqqqqqqqqqqqqqqqqqqqqqqqqqqqqqqqqqqqqqqqqqqqqqqqqqqqqqqqqqq",
"CDDDDDDDDDDDDDDDDDDDDDDDDDDDDDDDDDDDDDDDDDDDDDDDDDDDDDDDDDDDDDDDD",
"EFFFFFFFFFFFFGGDDDDDDDDDDDDDDDDDDDDDDDDDDDDDDDDDDDDDDGHIJJJJJKLFF",
"MHHHHHHHHHHHHNNJJJJJJJJJJJJJJJJJJJJJJJJJJJJJJJJJJJJJJJOIHHHHHHHHH",
"PQQQQQQQQQQQQRRJJJJJJJJJJJJJJJJJJJJJJJJJJJJJJJJJJJJJJJJJJJRQQQQQQ",
"SJJJJJJJJJJJJJJJJJJJJJJJJJJJJJJJJJJJJJJJJJJJJJJJJJJJJJJJJJJJJJJJJ",
"TUUUUUUUUUUUUUUUUUUUUUUUUUUUUUUUUUUUUUUUUUUUUUUUUUUUUUUUUUUUUUUUU",
"VWWWWWWWWWWWWWWWWWWWWWWWWWWWWWWWWWWWWWWWWWWWWWWWWWWWWWWWWWWWWWWWW",
"XYZ01111111111111111111111111111111111111111111111111111111111111"};
