/* XPM */
static char*right[]={
"65 19 47 1",
"E c #3f4242",
"v c #252727",
"u c #454a4a",
"c c #2b2f2f",
"j c #4c5252",
"O c #363737",
"Q c #1c1c1c",
"G c #3d3f3f",
"C c #222424",
"l c #494f4f",
". c #a4a8a8",
"K c #3a3c3c",
"I c #202121",
"t c #262929",
"o c #474c4c",
"a c #2c3131",
"f c #4d5454",
"q c #4e5454",
"D c #3e4141",
"y c #242626",
"x c #454949",
"e c #2a2e2e",
"i c #4b5151",
"S c #000000",
"H c #3c3e3e",
"F c #212323",
"k c #282b2b",
"s c #484e4e",
"d c #4f5656",
"L c #1f2020",
"B c #404343",
"r c #4d5353",
"# c #535b5b",
"P c #1d1d1d",
"A c #232525",
"w c #444848",
"h c #292d2d",
"m c #4a5050",
"b c #515858",
"J c #3b3d3d",
"z c #424545",
"n c #272a2a",
"p c #474d4d",
"R c #0f0f0f",
"g c #4e5555",
"M c #383a3a",
"N c #1e1f1f",
".................................................................",
"################################################################a",
"bbbbbbbbbbbbbbbbbbbbbbbbbbbbbbbbbbbbbbbbbbbbbbbbbbbbbbbbbbbbbbbbc",
"dddddddddddddddddddddddddddddddddddddddddddddddddddddddddddddddde",
"ffffffgddddddddddddddddddddddddddddddddddddddddgffffffffffffffffh",
"iiiiiijgdddddddddddddddddddddddddddddddddddddddgjiiiiiiiiiiiiiiik",
"lllllligdddddddddddddddddddddddddddddddddddddddfmllllllllllllllln",
"oooooplqdddddddddddddddddddddddddddddddddddddddrsooooooooooooooot",
"uuuuuuuuuuuuuuuuuuuuuuuuuuuuuuuuuuuuuuuuuuuuuuuuuuuuuuuuuuuuuuuuv",
"wwwwwwwwwwwwwwwwwwwwwwwwwwwxuuuuuuuuuxwwwwwwwwwwwwwwwwwwwwwwwwwwy",
"zzzzzzzzzzzzzzzzzzzzzzzzzzzzzzzzzzzzzzzzzzzzzzzzzzzzzzzzzzzzzzzzA",
"BBBBBBBBBBBBBBBBBBBBBBBBBBBBBBBBBBBBBBBBBBBBBBBBBBBBBBBBBBBBBBBBC",
"DDDDDDEBBBBBBBBBBBBBBBBBBBBBBBBBBBBBBBBBBBBBBBBEDDDDDDDDDDDDDDDDF",
"BBBBBBBBBBBBBBBBBBBBBBBBBBBBBBBBBBBBBBBBBBBBBBBEGHHHHHHHHHHHHHHHI",
"BBBBBBBBBBBBBBBBBBBBBBBBBBBBBBBBBBBBBBBBBBBBBBBDJKKKKKKKKKKKKKKKL",
"MMMMMMMMMMMMMMMMMMMMMMMMMMMMMMMMMMMMMMMMMMMMMMMMMMMMMMMMMMMMMMMMN",
"OOOOOOOOOOOOOOOOOOOOOOOOOOOOOOOOOOOOOOOOOOOOOOOOOOOOOOOOOOOOOOOOP",
"QQQQQQQQQQQQQQQQQQQQQQQQQQQQQQQQQQQQQQQQQQQQQQQQQQQQQQQQQQQQQQQQR",
"SSSSSSSSSSSSSSSSSSSSSSSSSSSSSSSSSSSSSSSSSSSSSSSSSSSSSSSSSSSSSSSSS"};
