/* XPM */
static char*bb[]={
"65 19 31 1",
"t c #3f4242",
"n c #454a4a",
"f c #4c5252",
"z c #363737",
"A c #1c1c1c",
"u c #3d3f3f",
"g c #494f4f",
". c #a4a8a8",
"x c #3a3c3c",
"i c #474c4c",
"c c #4d5454",
"k c #4e5454",
"s c #3e4141",
"p c #454949",
"e c #4b5151",
"C c #000000",
"v c #3c3e3e",
"m c #484e4e",
"b c #4f5656",
"r c #404343",
"l c #4d5353",
"# c #535b5b",
"o c #444848",
"h c #4a5050",
"a c #515858",
"w c #3b3d3d",
"q c #424545",
"j c #474d4d",
"B c #0f0f0f",
"d c #4e5555",
"y c #383a3a",
".................................................................",
"#################################################################",
"aaaaaaaaaaaaaaaaaaaaaaaaaaaaaaaaaaaaaaaaaaaaaaaaaaaaaaaaaaaaaaaaa",
"bbbbbbbbbbbbbbbbbbbbbbbbbbbbbbbbbbbbbbbbbbbbbbbbbbbbbbbbbbbbbbbbb",
"ccccccdbbbbbbbbbbbbbbbbbbbbbbbbbbbbbbbbbbbbbbbbdccccccccccccccccc",
"eeeeeefdbbbbbbbbbbbbbbbbbbbbbbbbbbbbbbbbbbbbbbbdfeeeeeeeeeeeeeeee",
"ggggggedbbbbbbbbbbbbbbbbbbbbbbbbbbbbbbbbbbbbbbbchgggggggggggggggg",
"iiiiijgkbbbbbbbbbbbbbbbbbbbbbbbbbbbbbbbbbbbbbbblmiiiiiiiiiiiiiiii",
"nnnnnnnnnnnnnnnnnnnnnnnnnnnnnnnnnnnnnnnnnnnnnnnnnnnnnnnnnnnnnnnnn",
"ooooooooooooooooooooooooooopnnnnnnnnnpooooooooooooooooooooooooooo",
"qqqqqqqqqqqqqqqqqqqqqqqqqqqqqqqqqqqqqqqqqqqqqqqqqqqqqqqqqqqqqqqqq",
"rrrrrrrrrrrrrrrrrrrrrrrrrrrrrrrrrrrrrrrrrrrrrrrrrrrrrrrrrrrrrrrrr",
"sssssstrrrrrrrrrrrrrrrrrrrrrrrrrrrrrrrrrrrrrrrrtsssssssssssssssss",
"rrrrrrrrrrrrrrrrrrrrrrrrrrrrrrrrrrrrrrrrrrrrrrrtuvvvvvvvvvvvvvvvv",
"rrrrrrrrrrrrrrrrrrrrrrrrrrrrrrrrrrrrrrrrrrrrrrrswxxxxxxxxxxxxxxxx",
"yyyyyyyyyyyyyyyyyyyyyyyyyyyyyyyyyyyyyyyyyyyyyyyyyyyyyyyyyyyyyyyyy",
"zzzzzzzzzzzzzzzzzzzzzzzzzzzzzzzzzzzzzzzzzzzzzzzzzzzzzzzzzzzzzzzzz",
"AAAAAAAAAAAAAAAAAAAAAAAAAAAAAAAAAAAAAAAAAAAAAAAAAAAAAAAAAAAAAAAAB",
"CCCCCCCCCCCCCCCCCCCCCCCCCCCCCCCCCCCCCCCCCCCCCCCCCCCCCCCCCCCCCCCCC"};
