/* XPM */
static char *unsafe_bar4[] = {
/* width height num_colors chars_per_pixel */
"   228    34      103            2",
/* colors */
".. c #0c0a0c",
".# c #64120c",
".a c #3c0e0c",
".b c #941a14",
".c c #54120c",
".d c #7c160c",
".e c #240a0c",
".f c #641e14",
".g c #3c160c",
".h c #541e14",
".i c #24120c",
".j c #ac2614",
".k c #7c2214",
".l c #74120c",
".m c #4c0e0c",
".n c #541a14",
".o c #942614",
".p c #641a0c",
".q c #741e14",
".r c #4c160c",
".s c #34120c",
".t c #440e0c",
".u c #8c1e14",
".v c #5c120c",
".w c #7c1e14",
".x c #340e0c",
".y c #a42214",
".z c #6c2614",
".A c #5c1e14",
".B c #1c0a0c",
".C c #6c160c",
".D c #942214",
".E c #841614",
".F c #2c0e0c",
".G c #6c1e14",
".H c #44160c",
".I c #2c120c",
".J c #8c2214",
".K c #3c120c",
".L c #54160c",
".M c #5c1a0c",
".N c #a42614",
".O c #6c1a0c",
".P c #4c1a1c",
".Q c #34160c",
".R c #44120c",
".S c #5c2214",
".T c #140a0c",
".U c #64160c",
".V c #9c1e14",
".W c #7c1a14",
".X c #240e0c",
".Y c #b42a14",
".Z c #842214",
".0 c #741a0c",
".1 c #4c120c",
".2 c #74261c",
".3 c #4c1a14",
".4 c #5c160c",
".5 c #6c2214",
".6 c #441a14",
".7 c #2c160c",
".8 c #3c0e14",
".9 c #941e14",
"#. c #541214",
"## c #642214",
"#a c #3c1614",
"#b c #541e1c",
"#c c #241214",
"#d c #ac2a14",
"#e c #541a1c",
"#f c #9c2614",
"#g c #641a14",
"#h c #742214",
"#i c #4c1614",
"#j c #341214",
"#k c #440e14",
"#l c #841e14",
"#m c #340e14",
"#n c #5c1e1c",
"#o c #1c0e0c",
"#p c #6c1614",
"#q c #9c2214",
"#r c #841a14",
"#s c #2c0e14",
"#t c #441614",
"#u c #2c1214",
"#v c #8c2614",
"#w c #3c1214",
"#x c #541614",
"#y c #5c1a14",
"#z c #a42a14",
"#A c #6c1a14",
"#B c #341614",
"#C c #441214",
"#D c #5c221c",
"#E c #140e0c",
"#F c #641614",
"#G c #240e14",
"#H c #741a14",
"#I c #4c1214",
"#J c #5c1614",
"#K c #6c221c",
/* pixels */
"#i#x.L#i.H#i#i#i.R.K#w.1#C#t.K.x.x.x.x.x.F#w#w.R#I#x.L#J#x#i#C.8.X#o.B.B#o.X#G.F.F.x.x.a.x.F.F#m#j.R#m.F.8.a.8.a.K#I.1.t.a.K.R#k.R.t.a.a#C#J#h.q#F#J#i#C#j.I#G#E.B#o.F#m.R#w.s.K.K.K.K#w.s.x#m.s#j#j#s.x#j.s#w#w.R#k.R#C.R.1#I.1.1#C.R.m.1#J.v.c#J.c.c.c.1.1.c.r#I.r.n.A#i.x.X.B.T#E.T#o.X#h#z#d.j.y.N.y.9.V.b#r.u.9.V#r.C#J.v.c.1.t#C.m#I#C#C#t#C.a#j.R#i.3#i#t#j.F#o.T.T.....T#o#j.a#m.x.x.s#w#w#w.K#w#w.K#w.K#w.K#w.K#C.H.R#t#i.3.3.G.G.q.q#h.5.n#w.s#o#o.F#t#x.L#i.r",
".R.H#i.n#i.H#i.H.a.R.R.H#C.R#C.x.F.a.a.x#j.R.R#C#i.r#x#x.3#i.K#m.F#G#o.X.e.F.x.F.x.x.a.a#m#m.F#m.x#k#m.F.s#k.K#w#C.R.8#w.a#w.m.1#k.R.8.a.a.R.f#g.M#x.r#t#w.F.F#G#o.B.F.s#k.a.K#w.K.8.R.K.8.s.K#w#t.r#i#t.1#C.R.R.8.a.a.a.a.1.R#k.R#C.R#C.1#I.R#I.R.R#k.t#C.t#C.r.K#C.r#x#t.x.F#o.e.X#G.F.F.q.o#q#f#q.9.u.9.u#r.l.d.W#l.0#p.4.c.m#C.t.R#k.t.R.t#C.a#w.x.8#i#C#t#w.8.I.e#o.T#E.T.T.X#j.s.x.F.F.F.F.F.K#w#w.K#w.s.g#w.K.K#t.H.R#C.R.H.r.3.G#H.G#A#A#y.r.K#s.X.B.F.R.L#x.L#i",
"#i#t#i#y#i#i#i.R.a#C#I#C.1#i.R#m.F.a.K.x.K#w.R.1.R.1#I.r#I#C#w.x.F#G.F.F.F.x#m.a#m.a.a.8.K#m.x#m.x#w.x.x#m.K#C.R#I.R.a.s.8.R#..1.R.t#C.K.x.a.H#x.4#i#t.r#t.K#s.F.X#G.X.x#w.K#w.K.K.K#w.a.K.K#w.R.n#y#y.c#i.1.R#C.K.x.x.x.x.t.t.t.R#i.1#C.3.M#i#C.R#C.R#C#C.R#k.R#C.K#t.r.K.x.F.F.e.F.F.F#C.q.J.J.J#l#r#r#r#r.d.#.U.0#r.l.U.v#I.t.a#k#w.t#k.a#C#I#k.a#m.a#t#C#t.K#j.s.X.X.X#o.T#E.F.s#m.s#s.F#s#s#m#w.K#w#t.K#w.K.x.K#t.K.K#C.K.R#t.H#x.G.G.f.p#g.L#i.s.F#o#o.F#w#I.1#i.L",
".f.A.n.n.n.n.L#C.R#I.R.a#t#I#k.K#m.K.a#w.a.K#C#C#C.L#I#.#C.R.K.x#m.a.x#m.x.s.a.a.a.8.K.R#w.K.s#m.K#w.x#m.x.x.a#C.t#C#k.a#C.R#I.a.8.R.a.x.x#m.s.r#I.r.r.n#i#w.a.F#G.X.X.F.s#w.R.a#C.K.K#w.K#w.R.H.n#g.M#x.r#i#C.R#w.x.F.F#m.t.1.1.1.1.1.L.L.n.1#I.1.R.t#k.K#C#C#C.H#C.R.R.a.x.F.F.F.F.x.a.4.q.w.W.0.C.O.0.d.W.C.v.v.#.C.U.m#k.t.a.a.x.a.8.K.a#w#k.R#w.a#C.r#t#t#w.F#s.I.F.X#o#o#o#u.s.I#u.x#s.I#m.s.s#w#w.K#w.s.8.s.8.K#C.R.K#w.K.K.K.n.f.p.f#g#y#y.1#w#m.X.B.X.K.r#I#C#y",
"#y.A.S.3#t.r.r#C.R.R#C#w.K.R.a.K#m.a.x.K.a#w.R.r#t.R#I.1#C.R#w.a#w.R.H.x.s.a#w.R.t.R#I.1.R.a.8.K.8.a.a.x.x#m.x.K.8.a.a.x#C#C#C.a#w.a#w.a.x.x#s.K.H#C#x#J.L#w.K.F.F.F.F#s.K#w.K.8.K#w.t.K#w.R#t.r.L#y.4#x.L#x.n.1.K.x.F.F.a.R#I.4#..R#C.1#I.1.a.a.a#k.R#w.8#C.R#t#t.K.K.8.F.F.F.x.x.x.a#i.p.O.C.4.c.c.c.4.O.U.4.m.1.v#F.v#I.R.t.x.x.x#m.a#w.8.R#w.K#C.R.R#.#i.R.s#s.F#u.s.F.X.X.X.s.F#s.F#u#j.s#j.8.K#j.a.a.8.x#w.x.K.K#w.R#w.s.K#w.R.3.f#J#g.f#y.L#t.g.s.X#o.F#w.R#x.n#y",
".r.n.A#i#i#C.R#I.R#t.r.r#w#w.K#w.K.s.a.K.a.K#C.R#I.H#C.r#C.K#C.R#I#i#w.x#m.R.R.t#I.1#x#..R#C.a.a.K#k.x#m.x.x#m#w#w.x.x.K#t#i#w.K#m#m.x.x.x.F.F.s#w.H.L#x#x.R.x#s.F#s.F.x.x.a.K.8.K.a.K.8.K#C.H#i#i.M.n.n#i#x.L#C.a.x.e.x.x#k.1.c#J#..1#i.1.m.t.a.t.K.R#w.K#C#C#i#I.a.a.x.F.F.F.x.K.x.R#x.O#g.U#J.c#C.1#I.4#J.c#I.c#J.v.c.R.R#k.a.x#m.x.a.R#C#w.a#w.R#k.1#.#I#i.x.I.F.I#j.I.F.X.F.s.F.F.s#m.I#m#m.s#j#w.K.8.s#w.a#w.s#m.a.K.K#w.K.K.R#i.M#y.f#g#y.n.1#w.F.X#o.F.K#C.1.4#x",
"#i.L.n.3.3.R.R#C.t#C.r#C.K#C.a.K#w.K#j#w.R#w.t.a#w.K.R#C.r#C#C#i#y.L.R.x.F.8.1.R.1#..4.c#I.a.K.8.a.8.x.8.s#j.K#w.a.x#s#w#e.3.s#m#j.x.F.F.F.e.F.F.g#i#y.L#i#C.K.x.x.F#s.s#j.K#w.K.8.K.a.K.a.K#C.H#i#g#y.L.L#i#i.a.K#m.F.F.x.R.L#y#x.4.n.L.c#C.a#w#w#C#C.R#w#w.R.R#C.a.x.x.a.F.x.x.x.a.R#F.O.U#y#J#J.n.R.t.1.1.c.L.L.c#..1#k.t.a.x.a.a#m.a.8.a.a#w#C.R#C.R#C#i#C#w.F.X.F#B.Q#j.I#j.K#s#u.x#u#s.I#u#w#m.K#w.x#w.s#w.s.x.8.K#w.K.s.8.K.K#t#y.f.f#y.M#i.H#C.F.B.B.F#C.1#I.L#i",
".n#i#i.h.n.R.K#C.K.R#I.H.8.R.R#w.K#w.K.R#w.t.K.8.K.x.a.R#C.R.R#y.G#y.R#m.x.x#I.1#x#i.c#..R.R#C.a#m.x.a.a#w.K#w#w.x#s.s#C.3#i#j.F#m#m.F.e.e.B.e.X.s.3.L#x.L.R#w.s#m.x.F#s.s#w.8.K.x.a#w.x#w.K.R#C.r.p#g#x#y#y.n#C#w.s.F.e.F#C.1#x.1#x.L#x.1#k.a.K#i.R#C#I#w.K#C#k.R.K#m.x.x.x.F.x.a.x#I.p#F.4#J.f#g#J#C#w.a#k.R#x.c#C.1.t.R.a.x.x.F.x.K#w.a.a.8.R.8.t#k.t.R#i#C.x.F.X.X.s#w.g.K.H#t.K#s.I#s.s#u#s.s#j#w#w#j.K.8.a#w.a#j.K.K#w.a.K.K#w.H.n.f.A#g.n#i.r#w.x.X#o.F.K#x.1#.#x",
"#i#i.n.A.n#C#C.R#k.t.H.K#w.R#a.K#w.K#t#C.R#w.a.x.a#m.I#w.K#C#I.f#A#y.r.K.x#C.R.m#I.1#..1#k.t#C.a.a.a.8.K.8.x.8.K.x.x.8#C#i#w.s.F#m.F.F.e#G#o.X#o.F#w.n.r.1#I.K#w.x#j.F.F#j.x.K#w.K.K#w.K.K#w.R#t.L#g#F.4#g#y.3#t.x.F.e.B.e.F.a.t#x#J.1.r.1.R#C#i#..1#C.R.a#w.R#t#C.8.a.x.x.F.x.a.a.K#x#A.O#F.f#h#K#x#C.R.K.R.R.1.1#I.t.R#C.a.a.x#m.x.x.a#m.x#w.8.R#C.K#C#w#I.R.a#s.X.e.X#B.g#t#i.r#w.s#s.I.F#u.F#u#j#w#w.x#j.K#m.a.K#w.K#w.K.a#w.s#w.6.A.f.M#y.M.3#i.K.F.X.B.X.8.R.R.n.n",
".f.z###y#x.R.R#I.R.a#C.a.8.H#C#a#t.H#i.H#t.R#m.s.x.F.F.x#C.H#J.O#A#y#x#t#C.1.1.1#I.L#..R.R.a.R.R.K.a.K.8.K.8.K.K.8.x.x#w#C#j.F.F.F#s.X.e.B.B.B.e.X.K.r.r#I.R#C.K#j.x#u.F#u.s#m.K.a#w.K.8.K.K#C.H.n#A.p#g.f#n#i#a#s.B.B...T.B.e.x.c#x#I.R#C.R.1#i#i#t.R.x.a#j#w#t#w#w.x#m.F.F.x.a.t.t.v.O#p#g.f.2#A.r.R.R#t#t.K.t.R#I.1#k.a.x#m.x.x.x.8.x.a.x#k.K#C.R.8.8.R#i#C.x.F.X.e.X.s#t.H#x#x.R#w#j.I#G.X#G.I#a#w#w.8.x.s.s.8.s#w.K#w.K#w.x.K.K.H.n.f#y#y.A#x.R#w.x.B.B.X.F.R#i.h.A",
"#i.3#x.K.R.R#I.t#C.a.K#m.K#t.R.a.K#C#x#i#C.R.s#m.F.x.F.x.K.3.O.q.q.G#A.4#x.c#I#x.L#J.L#I.t.R#C.m.8.x.K.a#w.x.x#m.x.s#m#t#C.s#s.X#s.e.X.B#o.e#o#o.X#j#C#I.R#i.R#w.s#m.s#u.x#m.x.x#j.K#w.K.K.8.t#C.L#g#g#g.5#n#a#s#G.T.B.T.....T.e#t#i#i.R#I.R#i#i#i.R.K#w#w.a#w.R#w#w#w.x.F#s.x.a.t.R#J#F.U#g#g#h#y#i#i#i.r.K.F.x#w.L#i.t.x.x.x.x#m.x.x.x.8.x#w.a#C.t#C.R#w#t.R.8.x.F.X.e#j.K#i#x#i#i.K#j.F#s.i#G.X#j#j.K#j.K#j.K#j.a#j.K.K.a.s.a#w#w#C.3.M#g#y#y#x#t.R.F.X.B.e.x#w.H#t.r",
".A.n#I.H#C#C.R#C.R.R#C#w.R#w.s#m.K#C.r#i.H#w.x.F#m.F.F#s.K.n.k#l.w#l.q.f.p#J.L.c.4#J.c.1.t.R#C.1.K.a.8.K#m.K#m.s.a#m.s.R#i#w.s.F#s.X.X.B.B#o.B#o.F.K.R.H.R#I.H#t.K#w.s#j.x.s#s.F.s.a.R.8.R.a#t.r.n#g.p.f##.3#s#o.B.T.B.T...T...T.g.3#x#i.r.1#C.r#t.K#w#i.H#w.K.8.K#a#w.x#s.x.x#m.R.m.L#F.4#F#g#g.n#x.n#i.R.x.F.F.a.R.a.K.x.x.x.F.x.x#m.x.8#w.a#w.a#C.K#C.H#C#C.R.a.F#G.X.I.6.n.M#J.L#w#j#j#u#G.X#G.F.s#w#w#w.a#j.a#w.K.a#w.K#w.K.x.K.K#i#y.A#y.n.r#t#C.x.B#o.X.x.K.R#i#D",
"#K.A.L#i.H.K#C.R.1#I.r#C.K.a.x#j#C.R#t#t#C.K.x.F.F.F.F.F#w.p.J.Z.Z.Z.w.0#H.4#J#J.##F.c#C.1#I.R.t.a.8.K.8.K#w.a.x#w.x#w#t#t.r#t.s.F#s.B.B.X.B#o.B.K.8.K#C#C.R#C#C.H#w.g#j.x#j.s#m.x#w.K.R#w.K#C.R#x.f.p.f###t.X#o#o#G#o.T.....T#E.Q.3.L.L.1#C.R#C.H#t#C#t#C.R#w#w#w#C.K#m.x.x#m.x.x#C.L.v#J#F#g#g#y#i#i.K.x.F.F.F.8.K#w.K#m.a#m.x.F.x.a#j.a#w.K.8.K.8.R#w.K#C#I.R#m.x.F.X#m#t.A#y.4#x#t.g.s#s.X#c.X#s#j.x.R#w.K#j.a.x#j.s.s.a.a.s#w.K#w.r.n#y#y#x.H#i.K.s.X.X#G.F.K#w.3.f",
".f#y#i.H#C.K.K.R#I.1#C.R#C.K#j.R.3#i#i.R#w.F.F.e.F.e.F.F.r.q.D#l.u.u#l.w#H.U.v.U#J.4.4.1.1.c.c#C.a.a.a#m.a.x.8.x.x#w.R#i.n.3#t#w.x.F.X#o.B.B.B.X.K.a.R.K#C.H#C.K#C#w.K#j.s#w#j.K.x.a.g#w.a.a.K.H.3.f#g#g#g#t.X.X#G.I#o...T....#o.6.A.n#x.r.R.R#i.3.r#C.R#t#i#i.R.a#w.a.x.F.x.a.x.a.1#.#x.4#J.p#g#y.r#w.x.F.X.X.I.t.K.a#w.a.8.x.x.x#m.a.x.8.K.8.a#C.R#C.R#w#t.1#k.R.x#s.I.s.3###g.M.n.H#w#j#u#G.X.X#s.F#m.a.s#m.K#w.K.x.K#m.K#w.K.x.K#w.R#y#y.n#i#i#t.K#m.e.e.X.F#j.K.r.A",
".n.r.3#C.R#C.R#C.r#i.1#I.R#C.K#C.n.L#i.R#m.F.F.e.e.e#G.F#x.Z#f.D.u#l.W.w.0.C#J.U#p.p#J.v#..m.1.t.a.a.8.R.x#m.x.a.8.K#t#i.A#e#t.K.X.e#o.B.T.T.T.X#m.a.K.K#a.R#w#t.R#w.g#w#j.g.K#m.x#m.K.g.K.x#w#i.A.G.G#g#g.3.I.X.7.F.T#E....#o.Q.h#y#y#J.L#w.t#x.r.R#C.R#i#i#i#C.K.x.x.x#m.x#m.s.x#C.1#x#J.4.v#J.4.r.K#u.X.X#s.x.R.8.x.x.a.x.x#m.x.a.x#m.x.s.8.R#k.R#C.R#w.a#C.1.t.K.a.I#j.H.A.q#g.U#x.K#j#j.X#G#o.X#s.s.x.x#w.K.K.a#j.K.K#C.K.8.s.x.K#t.L#x#x.r.r.H.8.x.F.F.F#s.a#C#C#y",
".L#x#y#x#I.1#i.c#..m.R.t.R.t#I.r.L.n#i#w.x.F#o.B#o.B.X.K.G.o#q.y.V.u.W.W.W#p.C#A.l.0#F.v.c.1.m#k.R#k.t#C#j.K#w#w#j#w#t#i.h.3#w.x.X.B.B.T.T.T.B.F.x.a.K#C.K#w.K#C#t.R#w#a#t#C.x.x.x.x.K#w#w.R.H.n.A.G.G.G#A#y#i.K#j.X.B.T#o.i.s.H.f.n.M#x.r.K#a.A.n#i.R#t.1#i.r#C.H.8#j.x.x.x.x.8.a#C.1#x#y#x.L#i.1#C#w.F.X#o.F.x.x.x.F.x.8.a#m.x.8.x#m.x.x#m.a#C.t.a.a#k#C.K.a.R#C#k.K.8.a.R.L#h.f.p#x#C#w#j#u.F#o.B.X.F.x#j.K#w.x#w.K.K#w.K.a.K.K.8.a#C#i.r#i#i#I.R#w.x.s#m.x.x.K.K.r#i",
"#..t.c.4.U.c.4.v.c#..1.1#I.1#I.4#y.h#i.K.X.B.T.T.T#o.X.n#v.N.N.j.Y.V.u.u.u#r.w.u.u.W.C.v.v#..m.R.1#C.1#I.R#C#C.a.x#a.3.n#e#t.K.F#o.T.T......#E.x#j.x.K.K#j#w#w#w.K.8#w#C#a.R#m.s.x#w#C.H.g#t.r.3.M.f.0.G#h.G.f.n.K.I#o#o.X.g.n#x#J.r#x#x.r#w.H.n.n.r.R#C.R#..R#t#t.a.a.x.x.x.x#w.K#C.1#x.M#.#i.R#C.a.X#o.B.B.X.X.X.F#s.x.x.8.x.x.x#m.s.8.x#m.a.K.8.a#j.R.R#k.a#w#w.R#k.t.K#C#I.G.q#A.4#i#t#w#j#s.X.T.T.B#s.a#w.x.K.s.K#m.K.K#j.x.x#m.K#j.x#m#j.s.8.R.t.a#w.1#C.t#C.m#I.L",
".R.1.1#J.v.c#J#..c.c.m.1.1.r.1#i.n.A#i.x.X.B.T#E.T#o.X#h#z#d.j.y.N.V.9.9.b#r#l.9.V#r#p.U#..c#I.t.t#I.m.R#C#C.K.8.s#C#i.3#i#C#j.X#o.T...T...T#o.x#w.a#m.x.x.K.K#w.K#w.K.K#w.K#w.K#w.g.R.R#C.H#i.r.n.f.G.q.w#h.G.3#w.s.X.B.I#C#x.L#i.H#i.L#x.r#t.3#i#I.R.a#w.1#C.H#C.x.x.a#m.F.x.a#w.R#I#x#J.L#x#i#C#m#s.X#E.B#o.X#s.X.F.x#m.a.x#s.F.x#m#w.x#s.x.8.a.8.a#I.m.R.a.a.R.t.K#k.a.a.R#y#h.O#g#x.r#C#j#u#o.B#o#o.F.8.R.8.s#w.K.a.K#w.K.x#j.x#j#j.F#s.s#j.K#w#C.t#C.t.R#C.1#I.1#C",
"#C.t#C.r#I#C.R.R#k.t#C.t#C.r#w.R.r#x.H.x.F.e.X.X#G.X.x.q.o#q#q#q.9.9.9.u.E.l.d.d#l.W.U.4.c.m.R#k.R#k#k#C.t#C#C.a#m.K#C#t#C#a#w.F.X.B#E#E.T.T#G.s.x.x.F.F.F#s.x#j#w#w.K#w.s#a.a.K#C.R#a.R#t.R.H#t.3.G.q#A#A#A#y.r.K#s#o#o.F.R#x.L#i.L#t#C.r#y#i.R#i.H.R.R#C.H#C.H#C.F.F.a.a.x#j#C.R#C.r.r#i#x#x#i.K.x#s#o.e.X.e#s.F.x.x.x.a.a#m.x#s#m.8.R#m.x.x#C.K#w.R#C#w.a.8.K#..1#k.R.t.a.x.R.f#g#g.L#I#t.K.x#s#G#o#G.X.s#k.K.K#w.K.K.R.K.8.K.s#w#t#i#i.1#C.1#C.R.8.a.a.a.a.1.t.t.R#C",
".1#i.r.n#I.1#C.t#C.R#C#C.R#I.R#w.R#i.R.x.F.e.e.F.F.x.R.q.J.J.J.J.d#r#r#r.d.#.C.0#r.0.##..c#k.a.a#C.a.t.a#C#I.a.8.a.a#i#C#t#w.s#j.X.X.X.B#E.T.I.s#m.s#s.F#s.F#m.K#w.K#C#w.s.K.K#w.g.K.R#w.R.K#t.r.L.G.G.f#g.M#J.r#w.F#o#o.F.K#I.1#i.r#i#t#i#y#i#i#i#C.a.R#I.R#C#I.R.x#s.a.K.a.s.R#C.R#C.1#x.1#i#C.8.x.F#G.F#s.F.x.a.x#m.x.a.a#w#m.x.x.x.8.x.s#m.a#C.R#I.R.a#j.a.R#..m.R.R.8.K.x.8.H.4#x.r#t.r#t.s#s.F.X.X.X.x.a.K#w.K.a#w.K.8.K#w.R.R.n#y#y.L#i.R.R#C.K.x.x.x.x#k.t.R.t.r",
".1#x.L#y.1#C.1.R#k.R#w#k#C.R#C.H#C.K.x.x.F.F.F.F.x.x#y.q.w.0.l.O.O.0#r.d.O.c.v.U.C.#.m.1.t.a.a.x.8.a#w.a#w#C#C.a#w.R#i#t.R#w.F.F#u.F.X#o#o#o.I.I.I#s.x#u#s#j.s#w#w.K#w.K.8.s#m.a.K#C.R.K.K#w.K#t.3.f.O#g.f#g#y.R#w.x.X.B.X#w.r#I#C#y##.A.n.n.n.n.L.R#C#I.R#w#C.1#C.a.x.a.a#w.a#w.R#C.1.1#I#I.1.R#w.x#m.a.s.x.x.x#j.a.t.a#w.R.K.K#j#m.K#w.x#s.x.K.a#C.t#C.t.8.K#C.R#k.K.t.K.8.x.x#j.1.r#i.r.n#i#C.x.F#G.X.X.F#j#w.R#k.K.K.R#w.K.K#w.H.n.M#y.L#x#i.1.R.K.x.F.F.a.R.1.1#I.1",
".R.1.1.R.a.a.a.t#C.K.8#C.R#i#t#w.K.a.x.F.F.x.x.x.a.1.p.O.U.U.L.c.c.4.U.O.4.m.1.v.#.c#I.R#k.x.x.x.x.8.K.8.R#w.K#C.t.R#.#i#C.s#s.F#j.I.F.X.X.X.s#s.F#j.F#u.s.s.8.s#w.a.8.K#m.K.x#w.K.K#C#w.s.K.K.R.r.f#y#g#g#y.n.R#a.s.X.B.X.K.1#I.M#y#J.A.S#i#t.r.r#C.R.R.R#C.K#C.8.K#j.K.x.a.K.K.R#I#t.H#I.1#C#C.K.a#w.R.K.x.s.K.R.R#k.R#I.1#C.a.a.s#C.a#m.a.x.x#m.a#w.a.a.x#C#I#C.8.K.8.a.x.x.x.x.g#C.R#x#J.L#w.K.F.F.F.F#s.K.K.K.K#w.R.8.K.K#C.R#t.L#g.4#x.r#x.n.1.8.x.F.F.x.R#..L#..R",
"#I#i.c.m#C.t.a#C.K#C#w#w#C#I.1.K.a.x.F.F.F.x.K#w.K#x.O#A.U.4.1.1.1.1.4.v.c.1.L.4#J.c.R.t.t.a.x#m.x.a#C#C.8.a#w.R#C.m#I#x.H#w.X.F.I#B.s.F.X.I.s.F.I#j#m#u#m#j#j#j.a#w.a.s#w.8.K.x.x#w.K.K#w.K.K#w#i.M#y.f.f#y.L#I.K.I.X#o#s.K#C.c#y.r#i.n.A.3#t.R#I.R.R#i.H#t.K#C.K.K#j.x.K.K.a#w.R.R#C.H#I.r#C.R#w#C.1#i#C.x#m.K#C.t.R#I.4#..R#C.a.8.K#k.x.x#m.F#m#w.K.a.x#w#t#i.K.K#m.x.8.x.x#s.F.s#a.r#x#x#x.R#m.x#s.F.F.s.x#w.8.a.K.8.K.8.K.R#t.r#i#y.n.n.L#x.r#C.a.x.e.x.8.a.1.c#J#x",
".M.L#i.t.a#w.K#C#C#C.a.R#C.R#C.x.x.a.x.F.x.x.x.a.t.p#p.p.4#J#J#x#C.t.1.1.c#x.c.c.c.1#C.t.a.a.x.a.x.8.t.a.a.K#w#C.R#I.R#i#C#j.F.X.F.Q#j.s.I#j.K#s.F#s.s#u.F#u.a#j#w.s#w#m.K#w.s#j.a.K#w.K.a#w.K.K#i.n.f.f#y#J.r#t.R#s.B#o.F.R#I.1.c#i#i.L.n.3.n.R.R#C#C.R#i.1#w.R.8.a.K#w.K#w#w.K#C.a#C.K.R#C.H#C.R#i#y#x.K.x.x.8.1.R.1.c#x.c#I.a.K.a.8.a.a#m.K#j.K#w.K#s.F#w.P.3#w#m#j#m.F.F.F.e.X.F#B.r#y.L.r#C.a.I.x.F.F#m.x.K.K#w.K.x.K.K.8.K#C.H#i.p#J.L#i#x#I#C.s.x.X.F.x#C.L#y.L#J",
"#x.L.1#k.a#w#t.H#C.1#w#w#C.R#C.a#m.x.x.x.F.x.a.a#t.p#F.4#y#g.f#x#C.K.8.K.1.L#..R.m#C.t.a.x.x.x#m.K.K#m.a.8#w.t#k.t#C.K#i#C.a.F.X#G.s#a.g#w.H#t.K#u.F#u.F#u#u#j#j.a#w#j.K.8.x.8.K#j.K.K#w.K.a.K.K#t.h#g.f.M.n#i.r#C.F.X.B.F#w.L#I.L#x.n#i#i.h.n.K#C.K.K#C.1.R#w.R.R#w.K.K#w.R.R.a.8.K.a.x.8.K#I.R#C#g.G#y.R.s.x.a#I.1#x#I.c.c.1#C.a.8.x.x.a.8.K#w#w.K#m.F.x#t.n#t#j.F#j.x.X.e.e.X.e.X.s#i.n.L#i.R#w.x#m.F#s.s#j#w.a#w.a.a.K.a.s.H#C.H#i.p#g#J.4.n.n.R#w.x#m.e.F.1.1#x#I.L",
".r#I.1.R.R.r#..1#C.R.a.K#w#C#C.8.a.x.x.x.x.a.a.K.c#H#A#F#g#h#K#x.1#C.K.R#w.1.1.1#k.R.R.a.x#m.x.x#m.a.a.x.8.R#C.R#C.a#C#I#I.x.F.X.e.F.s#a.H#i.r#C.s#s.I.F.I#s.s#j#w#w#m.x.K#w.a.K.K#w#w.K.a.s#w.K#t.A.f#y#y.M.3#i.K.F.X.B.X.8.R.R.n#x#i#i.3.f.n.R#k#C.R.t.R#w.K.R#a.K#w#w.R#C#C.K.a#m.K.F.x#w.K#C.r#g#A#y#I.K#m.K.1.R#I.L#I.1#k.t#C.K.a.8.a.K.8.s.a.8.x.s.8#C#i#w.s.F.x#m.F.X.e.B.X.X.F#a.r.L#I.1#w.K#j.s#s.F#j.x#w.K.8.K#w.K#w.K.R#t.L#g.U#J#g#y.3#t#j.F#o.B.e.F.a.R.c#J",
"#I.R#C.R#I#i#x#t.R.x.8#j#C#t#t.s#w.F.F.F.x.a.t.t#J.C#A#g.f.2.G#I.R#t.r#t.a.R.R#I.1#C.a.8.x.x.x#m.x.a.x#m.K#w#C.t#w#w.R#C.R.x#m.X.B.X#j.g#i#i#i#C.K#j.F#s#G.X#u#B#w#w.K.x.s#j.a#j.K#w.K#w.K.8.s.K#t.h.f#y#y.A#x.R#w.x.e.B.e.x.K#i.h.A##.5###y.r#C.1.1#k.a#C.a#w#C.H#C#t.H#i.H#C.R#j.x.x.F.F.x#C.R#J.G.O#y#x.H#C.1#I.1.1#..c#I.R.a.R.R.8.K.a.8#w.a#w.K#m.x.x#C#w#j.F#s.F#s.e.e#o.B.B.X.e.K#i#i.1#t.R#w.a#j.F#u.I.s.x.K.s#w.K.8.K.K#C.1.n#g#g#g.f#n.P#w.F.B.B.T...B.e.x#.#x",
"#i.r.R#I.H#i#i#C.K#w.K.8.K.K#w#w#w#m.F#s.x.a.t.t.L#g.U#F.G.5#y#i.H#I.r.K.F.x#C.r#i.t.x.x.x#m.x.x.x.x.8.a.8.a.R#C.a.R#C#C#C.K.x.F.X.e.s.H#i#x.c#i#w.s#u.I#G.X.X#j.K#w#j.8.s#w.s.a#m.K.K.K.K.x.K#w.R.3#y.f#y#y#x.R#w.s.B#o.e.x#w.r#t.r#i.3#x.R.R.R#C.t#C.a.K#m.K.H#C.x#w.R#x#i#t#w.K.F.x.F.F.s.K.3.G.q.q.G#A#J#x.L.1#.#x.4#x.R.t.R.1#C.t.x.K.a.K.8.x.s.a#m.x#t#C#j.F.X#s.e#o.e#o.B#o#o.X.s.H#I.R.r#C.K#j.x#u.x#s#m.x#m.x.a#w.K.K.8.t#t.L#g.p#g###n#t#s#G.B.T.T.T...T.e#t#i",
"#x#i.1.R#I#i.H.K#w#t#t.K.8.a#w#w.K.x.F#m.x.8.R.R#J.U#J.U#g#g.n#x.n#i.R.x.F.F.a.R.a.K.x.x.x.F.x.x#m.x.8.K#w.a.8.K#C.R#t.R#C.t.x.F#G.X#u#t.n.M#x#x.g#j#m#u.X#G.X#m.s#j.K#w.x#w.a#w.K.8.s.8.K#w.x.K.K#i#y#y#y.n#i#t.R.F.X.B.X.x.K#C.3#n.S#x#I.H#C#w.H#I.R#C#C.R#w#w.s.x.K#C.r.3.H#w.a#s.x#m.F.F#w.n.w.w#l.w.q.G.p.4#x.L.v#J.c.1#k.R#I.R.t#m#w.K#m.K#m.s.x.s#w.R#t.R#j.F.X.X.e.B#o.B.B#o#s.K#C.R#C.1#t.H#w.K#j.s.x.s.F.x#j.K.K#k.K.a#t#i.L#g#g.f.5.3#s#o.T.B.B.T......#E.K.3",
"#x.L.r#C.R.R.3.H#C#t.R#C.K#w#w#C#w.x#m.x.x.x#m.R#..v.4#J#g#g#y.L#i#w.x.F.X.F.a#w.K#w.x.8.x.x.F.x.a#j.K.8#w.K.8.K#C.K#w#t#I.R.8.x.F.X.s#t.A#y.M#x#t.K#j.I#G#G.i#s.x#w.R#w.K#w.s#m.a.s.s.K.K.x.K.K#w.r.n#y#y#x.R#I#t.F.X.X#G.F.a.K#i.S.5.f.3#i.H.K#C.R.1.1#t.R#w.a.x#j#C.H#C#t#C.a.F.F.F.F.F.F.K.p.J.Z.Z.Z.w.q#H#J.v.4#F.U#..t.1.1#k.R.a.a.a.8.K#w.K#m.a#m.K#t#t#i#t.K#s.F#G.B.e#o#o.B.K.t.K.R#C.R#C.H#C#w.g#j.x#j#j#j.x.K.K#C.a#w.R#t.L.f#g.f###t.X#o#o#o#o.T...T..#o.Q.3",
".n.L#i.R.R#t#i.H#C.1#i#t#i.R.R.K.a.x.x.x.x.x.a#I.1#x#J.4#g#g#y#i.s.x.F.X.F.I#k.K.a#w.a.a.F#m.x#m.x.a.8.K.a.8.R#C.R#C#w.R#I.R.a.x#s.I#j.3.f#g.M#x#i#w#j.F#G.X.X#G.F#m.a.s#m.K#w.a.s#w.x#w.K#w.x#w.K#t.M#y.n.r#i.H.K.x.F.e.X.F#j.K#i.A.f#y.r.r#C.K.K#k.1#i.1#C.R.K#j.K#x#i.r#C.K.x.F.F.e.e.F.F#t.w.J.u.u.u#l.w.C.U.v#F.4#J.4.1#I.L.1#k.a.a.a#m.a.x.a.x#j.a#C#i.h.3.H#w.x.F#o.B.B.B.B.X#w.a#w.R#a#C.R#w#C.g#w.s#j.s#w.s.x#w.K#w.K.a.K#t#x.f.p#g.A#t.X.X#c.I#o.T.....T#o.6.A",
"#y#J.r.t#C.L.3#I.R#w#i.r#i#C.8.x#m.F#m.x.8.x.s#k.c#x#J#J.4#J.4.L#w.F.X.X.F.x.R.K#m.a.a#m.x.x.a.a#m.x.x.x#w.t#C.t#C.R#w.K#C.m#I.K.K.x.s.H.A.G.p#g.r.K#j#j#G.X#o.X#s.s.x.x.K#w.K.K.x.s#w.R.a#w.K.x.K.H#x#x#x#i.r#t.K#m.F.X.F#m.s#C.H#y.n.r.3#C#C#C.R.R#i.1#C.1#C.R#w.1.3.n#i.H#m.F.e.X.e.e.e.x.L.Z#f.9.u#l#r.w#H.C#F.U#p.p.4.c.c#..1.R.a.a.a#w.x#m.x.8.a#w.H#i#y.P#t.K.e.X.B#o.T.T.T.X.x.a.a.K.g#C#C.H#w.R#w.s#w.g#w.x.x.x#w.g.a.s#w.r.A.G.G#g#g#i.I.i.I.F.T.T....#E.Q.h.A",
"#J.M#i.K#w#y.n.r#C.1.r#x#i.H#C.K.x.x.x.x.x.8.K.R#I#x.M#x.L#I.1#C.K.F#o.X.F.F.x.x.F.x.8.x#m#m.a.x.x#m.x#j.a#k.t.a.8#C.K.a#w.t#C.8.K.8.K.R.n#h#A.p#x#C#j#B#u.F#o.B.X.F#m#j.K#j.a#w.K.K.K#w.K.K.x.8.8#C.r#i#i#i.r#C.a.x.x#m.F.x#w.R#I#i.L#x#y.L.1.1#i#..1.1.1.t.R#k.R#i.L#x#i.K.x.X.X.B.B#o.X#w.G.D#q.y#q.u.d.W.W.C.C#A.l#H.U.v#..m.m#k.R#k#C.R#w.K#w.s#j#w#t#i#b.3#w.s.X.B.B.T.T.T.T.F.x.K#w.K#w.K#w#t#C.K#C#a#t#w.a.x.x.x#w.R#w.K.H.3.A.5.G.G.G#y#i.K#j.X.B#E#o.i.s#i.A.4",
".3#x#i.g#t.h.n#i.R#C.R#..R#t#t.8.K.8.x.x.x#j.K#C.r#x#y.c#i.R#C.x#s#o#o.B#o#s.e.F.F.x.x.8.a.x#m.x#u.a#m.x.8.K.8.a.x#I.R#C.a.K#w.R#k.t.a#C.1.G.5.O#J.r#t#C#m#s#o.B#E.B.F.8.K.8.s.s.K.8.K.K.a.x#j.x.K#j.x.x#j.s.8.R#k.a#w.1#C.R.1#k.1.L#..t.1#F.4#..4.v#..c.1#C.1.1#x.L#y.A#i#w.F.B#E.T.T#o.X.n#v#z.N.j.Y.V#l.u.u#r.w.u.u.w#p.#.4.m.1.m.R.1.R#I.R#C#C.8.x#a.3.3.n#t#w.F.B#E.T.T...T.T.x#w.x.a.K.K#w.K#w.K#w#w#w#t.R#m.s#m.K#w.H#w.r.3.L.n.G.O.q.q.q.f.3.K.x#o#E.i.K.n#..M#i"
};
