/* XPM */
static char *clock[] = {
/* width height num_colors chars_per_pixel */
"    48    48        6            1",
/* colors */
". c None",
"# c #636363",
"a c #bdbdbd",
"b c #949494",
"c c #ffffff",
"d c #737373",
/* pixels */
"................................................",
"................................................",
"................................................",
"................................................",
".......###################################......",
"......##aaaaaaaaaaaaaaaaaaaaaaaaaaaaaaaaa#a.....",
".....##abbbbbbbbbbbbbbbbcbbbbbbbbbbbbbbbba#a....",
"....##abbbbbbbbbbbbbbbbcccbbbbbbbbbbbbbbbba#a...",
"....#abbbbbbbbbcbbbbbbbbcbbbbbbbbcbbbbbbbbb#a...",
"....#abbbbbbbbbdddddddddddddddddddbbbbbbbbb#a...",
"....#abbbbbbbbdddddddddddddddddddddbbbbbbbb#a...",
"....#abbbbbbbdddddddddddddddddddddddbbbbbbb#a...",
"....#abbbbbbdddddddddddddddddddddddddbbbbbb#a...",
"....#abbbbbdddddddddddddddddddddddddddbbbbb#a...",
"....#abbbbdddddddddddddddddddddddddddddbbbb#a...",
"....#abbcdddddddddddddddddddddddddddddddcbb#a...",
"....#abbbdddddddddddddddddddddddddddddddbbb#a...",
"....#abbbdddddddddddddddddddddddddddddddbbb#a...",
"....#abbbdddddddddddddddddddddddddddddddbbb#a...",
"....#abbbdddddddddddddddddddddddddddddddbbb#a...",
"....#abbbdddddddddddddddddddddddddddddddbbb#a...",
"....#abbbdddddddddddddddddddddddddddddddbbb#a...",
"....#abbbdddddddddddddddddddddddddddddddbbb#a...",
"....#abcbdddddddddddddddddddddddddddddddbcb#a...",
"....#acccdddddddddddddddddddddddddddddddccc#a...",
"....#abcbdddddddddddddddddddddddddddddddbcb#a...",
"....#abbbdddddddddddddddddddddddddddddddbbb#a...",
"....#abbbdddddddddddddddddddddddddddddddbbb#a...",
"....#abbbdddddddddddddddddddddddddddddddbbb#a...",
"....#abbbdddddddddddddddddddddddddddddddbbb#a...",
"....#abbbdddddddddddddddddddddddddddddddbbb#a...",
"....#abbbdddddddddddddddddddddddddddddddbbb#a...",
"....#abbbdddddddddddddddddddddddddddddddbbb#a...",
"....#abbcdddddddddddddddddddddddddddddddcbb#a...",
"....#abbbbdddddddddddddddddddddddddddddbbbb#a...",
"....#abbbbbdddddddddddddddddddddddddddbbbbb#a...",
"....#abbbbbbdddddddddddddddddddddddddbbbbbb#a...",
"....#abbbbbbbdddddddddddddddddddddddbbbbbbb#a...",
"....#abbbbbbbbdddddddddddddddddddddbbbbbbbb#a...",
"....#abbbbbbbbbdddddddddddddddddddbbbbbbbbb#a...",
"....#abbbbbbbbbcbbbbbbbbcbbbbbbbbcbbbbbbbbb#a...",
"....##abbbbbbbbbbbbbbbbcccbbbbbbbbbbbbbbbb#aa...",
".....a#abbbbbbbbbbbbbbbbcbbbbbbbbbbbbbbbb#aa....",
"......a##################################aa.....",
".......aaaaaaaaaaaaaaaaaaaaaaaaaaaaaaaaaaa......",
"................................................",
"................................................",
"................................................",
};
