/* XPM */
static char *configuration[] = {
/* width height num_colors chars_per_pixel */
"    48    48       19            1",
/* colors */
". c None",
"# c #000000",
"a c #636363",
"b c #dedede",
"c c #424242",
"d c #bdbdbd",
"e c #adadad",
"f c #ffffff",
"g c #bdbdbd",
"h c #ff00ff",
"i c #737373",
"j c #ffff00",
"k c #ff0000",
"l c #949494",
"m c #737373",
"n c #0000ff",
"o c #00ff00",
"p c #636363",
"q c #212121",
/* pixels */
"................................................",
"................................................",
"................................................",
"................................................",
"......#aaaaaaaaaaaaaaaaaaaaaaaaaaaaaaaaaaa......",
"......#bbbbbbbbbbbbbbbbbbbbbbbbbbbbbbbbbcd......",
"......#beeeeeeeeeeeeeeeeeeeeeeeeeeeeeeebcd......",
"......#beeeeeeeeeeeeeeeeeeeeeeeeebffffffffbg....",
"......#beebbbbbbbbbbbbbbbbbbbbbffggggghfhggfff..",
"......#beebeeeeeeeeeecbeeeeeeffgggggghfhhcggggfi",
"......#beebeeeeeeeeeecbeeeeefgggjjjjgfhfhcgggg#i",
"......#beebeeeeeeeeeecbeeeefgggjjjjkggcccggggg#i",
"......#ceebeebbbbbbeecbeeefggggjjjjkggggggggg#ii",
".fffffffcebeebccccceecbeefggggggjkkggl###ggg#ii.",
".ccccccgfcbeeeeeeeeeecbeefggkkggggggg#mmggg#ii..",
"..iiiiiggcbeeeeeeeeeecbeefgkkk#ggffgg#bbgggmbbb.",
"......ammcbeeeeeeeeeecbeefgkkk#gfnnnggggggggggci",
"......#fgcbcccccccccccbccfgg##ggnnnnngononogggci",
"......ammmcggggggggggggggpggggggnnnn#gnonogggc#i",
"......fgggclllllllllllllllpqgggggnnn#gonocggl#ii",
"...bbbbbbbbbbbbllllllllllllqq#ggggggggnncggq#ii.",
"..bggggggggggggllllllllllllll###eggggggggmqiii..",
".bgbbblbbblbbblecllllllllllllll###########ii....",
".bgbeepbeepbeepecpllllffffffffffffmmmmmmc.i.....",
".bgbeepbeepbeepecpmlllff###ff###ff#lllllcd......",
".bgbeepbeepbeepecpmlllf#mmmff#mmmf#mllllcd......",
".bgbeepbeepbeepecpmlllf#mmlff#lllf#mllllcd......",
".bgmmmemmmemmmgecpmlll##mllff#lll##mllllcd......",
".bgggggggggggggecpmllllmmllff#llllmmllllcd......",
".bgbgbgbgbgbgbgecpmllllllllff#lffffffffdcd......",
".bbbbbbbbbbbbbbecqcccccccccff#cf##ff##f#cd......",
".bbbbbbbbbbbbbbeca.ddddddddff#df#dff#df#dd......",
".bgbgbgbgbgbgbgecai........ff#i##iff#i##i.......",
".bgggggggggggggecai........ff#i.iiff#i.ii.......",
".begegegegegegelcai........ff#i...ff#i.fffff....",
".beeeeeeeeeeeeelcai........ff#i...ff#i.f#f#f#...",
".blelelelelelelmcai........ff#i...ff#i.##f###i..",
".bllllllllllllllcai......ffffff#..ff#i...f#iii..",
".bllllllllllllmlcai......#######iffff#...f#i....",
".bmlmlmlmlmlmlmlcai.......iiiiiii#####i.fff#....",
".bmmmmmmmmmmmmmmcai...............iiiii..###i...",
"...mmmmmmmmmmmmqaai.......................iii...",
"....cccccccccccaaii.............................",
".....aaaaaaaaaaaii..............................",
"......iiiiiiiiiiii..............................",
"................................................",
"................................................",
"................................................",
};
