/* XPM */
static char *date[] = {
/* width height num_colors chars_per_pixel */
"    48    48       12            1",
/* colors */
". c None",
"# c #bdbdbd",
"a c #636363",
"b c #212121",
"c c #ffffff",
"d c #adadad",
"e c #737373",
"f c #dedede",
"g c #bdbdbd",
"h c #636363",
"i c #949494",
"j c #000000",
/* pixels */
"................................................",
"..........###......................###..........",
"......abaa#cdaaaaaaaaaaaaaaaaaaaaaa#cdeaa#......",
"......affg#cdffffffffffffffffffffff#cdhga#......",
"......afdf#cigiefffffffffffffffffff#cigga#......",
"......afdfdfiieggggggggggggggggggggdfiiia#......",
"......afdfigiegggggggggggggggggggggigieia#......",
"......afdfjijggggggggggggggggggggggjijgia#......",
"......afdfgjggggggggggggggggggggggggjggia#......",
"......afdfgggggggggggggggggggggggggggggia#......",
"......afdfgggggggggggggggggggggggggggggia#......",
"......afdfgggggggggggggggggggggggggggggia#......",
"......afdfgggggggggggggggggggggggggggggia#......",
"......afdfgggggggggggggggggggggggggggggia#......",
"......afdfgggggggggggggggggggggggggggggia#......",
"......afdfgggggggggggggggggggggggggggggia#......",
"......afdfgggggggggggggggggggggggggggggia#......",
"......afdfgggggggggggggggggggggggggggggia#......",
"......afdfgggggggggggggggggggggggggggggia#......",
"......afdfgggggggggggggggggggggggggggggia#......",
"......afdfgggggggggggggggggggggggggggggia#......",
"......afdfgggggggggggggggggggggggggggggia#......",
"......afdfgggggggggggggggggggggggggggggia#......",
"......afdfgggggggggggggggggggggggggggggia#......",
"......afdfgggggggggggggggggggggggggggggia#......",
"......afdfgggggggggggggggggggggggggggggia#......",
"......afdfgggggggggggggggggggggggggggggia#......",
"......afdfgggggggggggggggggggggggggggggia#......",
"......afdfgggggggggggggggggggggggggggggia#......",
"......afdfgggggggggggggggggggggggggggggia#......",
"......afdfgggggggggggggggggggggggggggggia#......",
"......afdfgggggggggggggggggggggggggggggia#......",
"......afdfgggggggggggggggggggggggggggggia#......",
"......afdfgggggggggggggggggggggggggggggia#......",
"......afdfgggggggggggggggggggggggggggggia#......",
"......afdfgggggggggggggggggggggggggggggia#......",
"......afdfggggggggggggggggggggggggcccfffa#......",
"......afdfggggggggggggggggggggggggccfgdha#......",
"......afdfggggggggggggggggggggggggcfgdhea#......",
"......afdfggggggggggggggggggggggggfgdhega#......",
"......afdfggggggggggggggggggggggggfdhegga#......",
"......afdfggggggggggggggggggggggggfheggga#......",
"......afdiiiiiiiiiiiiiiiiiiiiiiiiiiiiiija#......",
"......afhheeeeeeeeeeeeeeeeeeeeeeeeeeeejja#......",
"......aaaaaaaaaaaaaaaaaaaaaaaaaaaaaaaaaaa#......",
"......####################################......",
"................................................",
"................................................",
};
