/* XPM */
static char *folders[] = {
/* width height num_colors chars_per_pixel */
"    48    48       18            1",
/* colors */
". c None",
"# c #bdbdbd",
"a c #737373",
"b c #636363",
"c c #ffffff",
"d c #ff0000",
"e c #00ff00",
"f c #0000ff",
"g c #ffff00",
"h c #00ffff",
"i c #ff00ff",
"j c #dedede",
"k c #bdbdbd",
"l c #adadad",
"m c #949494",
"n c #636363",
"o c #424242",
"p c #212121",
/* pixels */
"...........................cco..................",
".........................ccffco.................",
".......................ccfffffcco...............",
".....................ccfffffccckko..............",
"....................cfffffccckkkko..............",
"....................cfffccckkkkkkko.............",
"....................cfccckkkkkkkkko.............",
"....................ccckkkkkkkkkkkko............",
"..................ccckkkkkkkkkkkkkko............",
"...bbbbbbbbbbbbbccckkkkkkkkkkkkkkkkko...........",
"...bbbbbbbbbbbccckkkkkkkkkkkkkkkkkkko...........",
"...bbbbbbbbbccckkkkkkkkkkkkkkkkkkkkkko..........",
"...bbbbcccccccccccccccccccccccccccccco..........",
"...blbcdddddddciiiiiiiceeeeeeechhhhhhko.........",
"...blcdddddddciiiiiiiceeeeeeechhhhhhhho.........",
"...bljjjjjjjjjjjjjjjjjjjjjjjjjjjjjjjjjjjjj......",
"...bljlllllllllllllllllllllllllllllllllllp......",
"...bnjlllllllllllllllllllllllllllllllllllp......",
"...bnjlllllllllllllllllllllllllllllllllllp......",
"...bnjllllllllllcccccccccccccccllllllllllp......",
"...bnjllllllllllcgdgdgdgdgdgdgcnlllllllllpa.....",
"...bnjllllllllllcdgdgdgdgdgdgdcnlllllllllpaa....",
"...bljllllllllllcgdgdgdgdgdgdgcnlllllllllpaaa...",
"...bljllllllllllcpppppppppppppcnlllllllllpbaaa..",
"...bljllllllllllcpppppppppppppcnlllllllllpbbaa..",
"...bljllllllllllcpnnnnnnnnnnnncnlllllllllpbbaa..",
"...bljllllllllllcmmmmmmmmmmmmmcnlllllllllpbbaa..",
"...bljllllllllllcccccccccccccccnlllllllllpbbaa..",
"...bljlllllllllllnnnnnnnnnnnnnnnlllllllllpbbaa..",
"...bnjlllllllllllllllllllllllllllllllllllpbbaa..",
"...bnjlllllllllllllllllllllllllllllllllllpbbaa..",
"...bnjlllllllllllllllllllllllllllllllllllpbbaa..",
"...bnjlllllllllllllllllllllllllllllllllllpbbaa..",
"...bnjlllllllllllllllllllllllllllllllllllpbbaa..",
"...bljlllllllllllllllllllllllllllllllllllpbbaa..",
"...bljlllllllllllllllllllllllllllllllllllpbbaa..",
"...bljlllllllllllllllllllllllllllllllllllpbbaa..",
"...#ljlllllllllllllllllllllllllllllllllllpbbaa..",
"....ljlllllllllllllllllllllllllllllllllllpbbaa..",
".....jlllllllllllllllllllllllllllllllllllpbbaa..",
".....jlllllllllllllllllllllllllllllllllllpbbaa..",
".....jlllllllllllllllllllllllllllllllllllpbbaa..",
".....jppppppppppppppppppppppppppppppppppppbbaa..",
".........aaabbbbbbbbbbbbbbbbbbbbbbbbbbbbbbbbaa..",
"..........aaabbbbbbbbbbbbbbbbbbbbbbbbbbbbbbbaa..",
"...........aaaaaaaaaaaaaaaaaaaaaaaaaaaaaaaaaaa..",
"............aaaaaaaaaaaaaaaaaaaaaaaaaaaaaaaaaa..",
"................................................",
};
