/* XPM */
static char *help[] = {
/* width height num_colors chars_per_pixel */
"    48    48       16            1",
/* colors */
". c None",
"# c #636363",
"a c #737373",
"b c #adadad",
"c c #bdbdbd",
"d c #949494",
"e c #424242",
"f c #bdbdbd",
"g c #636363",
"h c #00ffff",
"i c #212121",
"j c #ff0000",
"k c #737373",
"l c #dedede",
"m c #0000ff",
"n c #ffffff",
/* pixels */
"................................................",
"................................................",
"................................................",
"................................................",
"................................................",
"................................................",
"................................................",
"................................................",
"................................................",
"...........#########............................",
"...........#abcddaef............................",
"...........#gbhbhee#########......gccbbbbai.....",
".....######ighdhajeiddddddge#####igbddddagik....",
".....#lllcbigahajeeidagaaageibmbmigcacdbdaikk...",
".....#lcbdaighdhajeidaaaaageimbegigbaddaaeik....",
".....#lcbdaigahajeeidaaaaageiegamigcabdaaaikk...",
".....#ldagaighdhajeidaaaaageimbegigbaddaaaik....",
".....#ldagaigahajeeinnnnnnneiegemigcadeaaaikk...",
".....#lcbdaighehijennnnnnnnnimbegigbaddaaaik....",
".....#ldagaigahijennnneeennnnegemigcadgaaaikk...",
".....#ldbgaighdhajnnneeaaannnebegigbadeaaaik....",
".....#lcbdaigahajennneaaaannnegemigcadgaaaikk...",
".....#ldagaighdhajnnneaaaannnebegigbadeaaaik....",
".....#lcbdaigahijeeieaaaannnnegamigcadgaaaikk...",
".....#ldagaighehijeidaaannnnimbegigbaddaaaik....",
".....#ldbdaigahajeeidaannnneiegamigcaddaaaikk...",
".....#ldagaighehijeidannnngeimbegigbadgaaaik....",
".....#lcbdaigahijeeidannneeeiegamigbadaaaaikk...",
".....#lcbdaighdhajeidannnegeimbegigbaddaaaik....",
".....#lcbdaigahajeeidaaeeegeiegamigbaddaaaikk...",
".....#lcbdaighdhajeidannnageimbegigbaddaaaik....",
".....#lcbdaigahajeeidgnnnegeiegamigbaddaaaikk...",
".....#lcbdaighdhajeidannnegeimbegigbaddaaaik....",
".....#lcbdaigahajeeidggeeegeiegamigbadeaaaikk...",
".....#lbagaighdhajeidaaaaageimbegigbaddaaaik....",
".....#lcbdaigahajeeidgaeeegeiegamigbaddaaaikk...",
".....#lcbdaighdhajeidaaaaageimbegigbaddaaaik....",
".....#lcbdaigahajeeidaaaaageiegamigbgddaaaikk...",
".....#ccbdaighdhajeidaaaaageimbegigbaddaaaik....",
".....#bbdaaigaaaggeidgaagegeiegemigbgaaaggikk...",
".....#iiiiiiiiiiiiiiiiiiiiiiiiiiii.biiiiiiik....",
".....#ffffffffffffffffffffffffffffff.......kk...",
".....................................kkkkkkk....",
"......................................k.k.k.k...",
"................................................",
"................................................",
"................................................",
"................................................",
};
