/* XPM */
static char *netscape[] = {
/* width height num_colors chars_per_pixel */
"    48    48       11            1",
/* colors */
". c None",
"# c #008080",
"a c #0000ff",
"b c #c0c0c0",
"c c #000000",
"d c #800000",
"e c #808000",
"f c #ffff00",
"g c #808080",
"h c #ffffff",
"i c #6666cc",
/* pixels */
"#a#a#a#a#a#a#a#a#a#a#a#a#a#a#a#a#a#a#a#a#a#a#abc",
"a#a#a#a#a#a#a#a#a#a#a#a#a#a#a#a#a#a#a#a#a#a#abc.",
"#a#a#a#a#a#a#a#a#a#a#a#a#c#c#a#a#a#a#a#a#a#abc..",
"a#a#a#a#a#a#a#a#a#a#acccc#c#c#a#a#a#a#a#a#abc...",
"#a#a#a#a#a#a#a#a#a#a#deedc#c#c#a#a#a#a#a#abc....",
"a#a#a#a#a#a#a#a#a#a#cebeedc#c#a#a#a#a#a#abc.....",
"#a#a#a#a#a#c#c#a#a#acbbbdccc#c#a#a#a#a#abc......",
"a#a#a#acccc#c#c#a#a#cfbeedc#c#a#a#a#accdc.......",
"#a#a#a#gdedc#c#c#a#acbhbdccc#c#a#a#cceefdc......",
"a#a#a#abfdedc#c#c#a#cfheedc#c#a#a#acebfdecggg...",
"#a#a#a#chfdedc#c#c#ccehbdccc#c#a#acebfdedcbggg..",
"a#a#a#acgbfdgdcccddgeebebededcc#ccebfdedccbggg..",
"#a#a#a#acgbfgedcdgggbbhbfbfgeddccebfdgdccbgggg..",
"a#a#a#a#acgbfegdgbhbbbbebfbfbegdebfdedccbgggg...",
"#a#a#a#a#acegbegbheeebfbdceefbfbefdedccbgggg....",
"a#a#a#a#a#cgbfbeedgdcfbeeccdeehfeeedccbgggg.....",
"#a#a#a#a#cdgbbhbegcddbfbdcc##hbfbgeecbgggg......",
"a#a#a#a#cdegbbbhbegccfbeecc#hbfdbbfedcggg.......",
"#a#a#a#adebhbedbhbdgcbfbdcchbedgdfbgecgg........",
"a#a#a#adeehbgddcbfgdgfbeeebbedgccdbfedc.........",
"#a#a#a#cgbfbdccc#bfgdbggdbbedgccccdfggc.........",
"a#a#a#cdbbbeecc#cgfbbfhfeeedgcc..cdbfdgc........",
"#a#a#cdebfbgdccc#cgbhbfebedecc...cdefgdd........",
"a#a#accdbhbecccccebhbfbfgbededcdcddbbbgde.......",
"#ggbbgbgfbfbfbfefefhhbfefgbedfeffbfefbdeggggggf.",
"gfhfffgfhhbghhhfbdbhbfbfgbecedbfbfbebebfbfbfbgdg",
"gbebebdfbfebebdgdgebhbfebgdededededegeegegegeedg",
"cdedededfbededededgebfbfbgedcdgdgdcdebgdededgdgg",
"#cdcdcdebhdccccccbebcbgggcddecc..cdegededcdcdgcg",
"accccccebhedc###hebdecedceefdgc..ccebdgcccccccgg",
"#a#c#ccdbbbedc#hebdgdedgedbbfdgc.ccgbdccbgbggggg",
"a#c#c#ceebhfgchebdeccbbedccbbfdgccgbeedcggggggg.",
"#a#a#a#cebhfbgbfdec.chfdec.chbbdgdfbedce........",
"a#a#a#a#debhbbfdec..chbedc..ihbfdbbfdgc.........",
"#a#a#a#addgbhfeedcc.cbfdec.ddihbfdbdecg.........",
"a#a#a#a#acegbhbbegccdhbeddddeebhfeeedceg........",
"#a#a#a#acebfdehfbebebgfggegeffbeeefdecceg.......",
"a#a#a#acebfdedebhhbbeggebfbfbbedeebfdedceg......",
"#a#a#acebfdecccgdfbhhhfbfbfbdgdeccgbfdgdceg.....",
"a#a#acebfdgdccddgdgdgbbbgdgdecccbgcgbfgedcbg....",
"#a#a#chfdedccbgcdcdgdefgdedcccdbgg.cgbfdedcbg...",
"a#a#abfdedccbgg..dcdehbeecccbbgg....cgbfdecbg...",
"#a#abcdedccbgg......dhfedcbbgg.......cgbgdcbg...",
"a#abcgccccbgg.......dhbdecbg..........ccgcbgg...",
"#abc.gbbbbgg........cbfedcbg............gggg....",
"abc...ggggg.........cbbdecbg....................",
"bc..................defedcbg....................",
"c...................cegdccbg....................",
};
