/* XPM */
static char *panel-handle[] = {
/* width height num_colors chars_per_pixel */
"    12    64        3            1",
/* colors */
"  c None",
"# c #505050",
". c #d0d0d0",
/* pixels */
"            ",
"            ",
"###########.",
"#...........",
"            ",
"            ",
"###########.",
"#...........",
"            ",
"            ",
"###########.",
"#...........",
"            ",
"            ",
"###########.",
"#...........",
"            ",
"            ",
"###########.",
"#...........",
"            ",
"            ",
"###########.",
"#...........",
"            ",
"            ",
"###########.",
"#...........",
"            ",
"            ",
"###########.",
"#...........",
"            ",
"            ",
"###########.",
"#...........",
"            ",
"            ",
"###########.",
"#...........",
"            ",
"            ",
"###########.",
"#...........",
"            ",
"            ",
"###########.",
"#...........",
"            ",
"            ",
"###########.",
"#...........",
"            ",
"            ",
"###########.",
"#...........",
"            ",
"            ",
"###########.",
"#...........",
"            ",
"            ",
"###########.",
"#...........",
};
    
