/* XPM */
static char *panel-lock[] = {
/* width height num_colors chars_per_pixel */
"    24    24        8            1",
/* colors */
". c None",
"# c #bdbdbd",
"a c #636363",
"b c #000000",
"c c #dedede",
"d c #949494",
"e c #636363",
"f c #424242",
/* pixels */
"........................",
"........................",
"........................",
"........aaaaaaa.........",
".......aacccccdb#.......",
"......aaccdddccdb#......",
"......accdbbbbcdb#......",
"......acdb####cdb#......",
"......acdb#..acdb#......",
"......acdb#..acdb#......",
"....aaacdb#aaacdb#a.....",
"....accccccccccccc#.....",
"....acdddddddddddf#.....",
"....acdeeeeeeeeeef#.....",
"....acdddddddddddf#.....",
"....acdeeeeeeeeeef#.....",
"....acdddddddddddf#.....",
"....acdeeeeeeeeeef#.....",
"....acdddddddddddf#.....",
"....acbbbbbbbbbbbb#.....",
"....a##############.....",
"........................",
"........................",
"........................",
};
