/* XPM */
static char *terminal[] = {
/* width height num_colors chars_per_pixel */
"    48    48       11            1",
/* colors */
". c None",
"# c #636363",
"a c #dedede",
"b c #ffffff",
"c c #bdbdbd",
"d c #bdbdbd",
"e c #212121",
"f c #636363",
"g c #424242",
"h c #949494",
"i c #737373",
/* pixels */
"................................................",
"................................................",
"................................................",
"..............####################..............",
"..........####aaaaaaaaaaaaaaaaaaaa###...........",
".........#bbbbbbbbbbbbbbbbbbbbbbbbbbbc..........",
"........#bddddddddddddddddddddddddddddec........",
".......#bddddddddddddddddddddddddddddddec.......",
".......#bddffffffffffffffffffffffffffddec.......",
".......#bddfeeeeeeeeeeeeeeeeeeeeeeeefddec.......",
".......#bddfeggggggggggggggggggggggebddec.......",
".......#bddfegghgaagagagahagaggggggebddec.......",
".......#bddfeggggggggggggggggggggggebddec.......",
".......#bddfeggagahagahagaagaggggggebddec.......",
".......#bddfeggggggggggggggggggggggebddec.......",
".......#bddfeggagaagaaagagdaaggggggebddec.......",
".......#bddfeggggggggggggggggggggggebddec.......",
".......#bddfeggaahagaagahaagaagggggebddec.......",
".......#bddfeggggggggggggggggggggggebddec.......",
".......#bddfeggagaahagaahgaahgaggggebddec.......",
".......#bddfeggggggggggggggggggggggebddec.......",
".......#bddfeggggggggggggggggggggggebddec.......",
".......#bddfeggggggggggggggggggggggebddec.......",
".......#bddfeggggggggggggggggggggggebddec.......",
".......#bddfeggggggggggggggggggggggebddec.......",
".......#bddfeeeeeeeeeeeeeeeeeeeeeeeebddec.......",
".......#bddfbbbbbbbbbbbbbbbbbbbbbbbbbddec.......",
".......#bddddddddddddddddddddddddddddddec.......",
"........cdddddddddddddddddddddddddddddec........",
".........ceeeeeeeeeeeeeeeeeeeeeeeeeeeec.........",
"..........ccccggggggggggggggggggggeccc..........",
"..............ceefffffffffffffffeec.............",
"...............ceeiiiiiiiiiiiieeec..............",
"......##########eeiiiiiiiiiiiieeec########c.....",
".....#hhhhhhhhhhhhhhhhhhhhhhhhhhhhhhhhhhhhec....",
"....#bbbbbibbibbibbibbibbibbibbibbbibibibbbec...",
"...#bbbbbibbibbibbibbibbibbibbibbbbibbibibbbec..",
"..#bbbbbibbibbbbbbbbbbbbbbbbbibbibbibibibibbbec.",
".#baaaaaaaaaaaaaaaaaaaaaaaaaaaaaaaaaaaaaaaaaaaec",
"#bbaaaaaaaaaaaaaaaaaaaaaaaaaaaaaaaaaaaaaaaaaaaae",
"#bhhhhhhhhhhhhhhhhhhhhhhhhhhhhhhhhhhhhhhhhhhhhhe",
"#bggggggggggggggggggggggggggggggggggggggggggggge",
".ceeeeeeeeeeeeeeeeeeeeeeeeeeeeeeeeeeeeeeeeeeeeec",
"..cccccccccccccccccccccccccccccccccccccccccccccc",
"................................................",
"................................................",
"................................................",
"................................................",
};
